999
"DXF R12 Output" (www.mydxf.blogspot.com)
 0 
SECTION
 2 
HEADER
 9 
$ACADVER
 1 
AC1009
 9 
$EXTMIN
 10 
 0 
 20 
 0 
 9 
$EXTMAX
 10 
 8.5 
 20 
 11 
 0 
ENDSEC
 0 
SECTION
 2 
ENTITIES
0
LINE
8
Layer 1
10
3.000000
20
300.000000
11
-3.000000
21
294.000000
0
LINE
8
Layer 1
10
0.000000
20
302.000000
11
0.000000
21
292.000000
0
LINE
8
Layer 1
10
8.000000
20
293.000000
11
4.000000
21
289.000000
0
LINE
8
Layer 1
10
6.000000
20
295.000000
11
2.000000
21
291.000000
0
LINE
8
Layer 1
10
4.000000
20
297.000000
11
0.000000
21
293.000000
0
LINE
8
0
10
184.499000
20
182.399000
11
184.006616
21
182.300544
0
LINE
8
0
10
184.006616
20
182.300544
11
183.604176
21
182.030298
0
LINE
8
0
10
183.604176
20
182.030298
11
183.332437
21
181.628866
0
LINE
8
0
10
183.332437
20
181.628866
11
183.232151
21
181.136851
0
LINE
8
0
10
183.232151
20
181.136851
11
183.330606
21
180.644467
0
LINE
8
0
10
183.330606
20
180.644467
11
183.600851
21
180.242028
0
LINE
8
0
10
183.600851
20
180.242028
11
184.002282
21
179.970288
0
LINE
8
0
10
184.002282
20
179.970288
11
184.494297
21
179.870002
0
LINE
8
0
10
184.494297
20
179.870002
11
185.126861
21
180.038238
0
LINE
8
0
10
185.126861
20
180.038238
11
185.590560
21
180.500216
0
LINE
8
0
10
185.590560
20
180.500216
11
185.761146
21
181.132150
0
LINE
8
0
10
185.761146
20
181.132150
11
185.592912
21
181.764714
0
LINE
8
0
10
185.592912
20
181.764714
11
185.130934
21
182.228413
0
LINE
8
0
10
185.130934
20
182.228413
11
184.499000
21
182.398999
0
LINE
8
0
10
184.499000
20
182.398999
11
184.499000
21
182.399000
0
LINE
8
0
10
125.199000
20
182.510000
11
124.706616
21
182.411544
0
LINE
8
0
10
124.706616
20
182.411544
11
124.304176
21
182.141298
0
LINE
8
0
10
124.304176
20
182.141298
11
124.032437
21
181.739866
0
LINE
8
0
10
124.032437
20
181.739866
11
123.932151
21
181.247851
0
LINE
8
0
10
123.932151
20
181.247851
11
124.030606
21
180.755467
0
LINE
8
0
10
124.030606
20
180.755467
11
124.300851
21
180.353028
0
LINE
8
0
10
124.300851
20
180.353028
11
124.702282
21
180.081288
0
LINE
8
0
10
124.702282
20
180.081288
11
125.194297
21
179.981002
0
LINE
8
0
10
125.194297
20
179.981002
11
125.686682
21
180.079458
0
LINE
8
0
10
125.686682
20
180.079458
11
126.089121
21
180.349703
0
LINE
8
0
10
126.089121
20
180.349703
11
126.360861
21
180.751135
0
LINE
8
0
10
126.360861
20
180.751135
11
126.461146
21
181.243150
0
LINE
8
0
10
126.461146
20
181.243150
11
126.362691
21
181.735534
0
LINE
8
0
10
126.362691
20
181.735534
11
126.092446
21
182.137973
0
LINE
8
0
10
126.092446
20
182.137973
11
125.691015
21
182.409713
0
LINE
8
0
10
125.691015
20
182.409713
11
125.199000
21
182.509999
0
LINE
8
0
10
125.199000
20
182.509999
11
125.199000
21
182.510000
0
LINE
8
0
10
184.410000
20
134.598000
11
183.777436
21
134.429763
0
LINE
8
0
10
183.777436
20
134.429763
11
183.313737
21
133.967785
0
LINE
8
0
10
183.313737
20
133.967785
11
183.143151
21
133.335851
0
LINE
8
0
10
183.143151
20
133.335851
11
183.311386
21
132.703288
0
LINE
8
0
10
183.311386
20
132.703288
11
183.773363
21
132.239588
0
LINE
8
0
10
183.773363
20
132.239588
11
184.405297
21
132.069002
0
LINE
8
0
10
184.405297
20
132.069002
11
184.897682
21
132.167458
0
LINE
8
0
10
184.897682
20
132.167458
11
185.300121
21
132.437703
0
LINE
8
0
10
185.300121
20
132.437703
11
185.571861
21
132.839135
0
LINE
8
0
10
185.571861
20
132.839135
11
185.672146
21
133.331150
0
LINE
8
0
10
185.672146
20
133.331150
11
185.573691
21
133.823534
0
LINE
8
0
10
185.573691
20
133.823534
11
185.303446
21
134.225973
0
LINE
8
0
10
185.303446
20
134.225973
11
184.902015
21
134.497713
0
LINE
8
0
10
184.902015
20
134.497713
11
184.410000
21
134.597999
0
LINE
8
0
10
184.410000
20
134.597999
11
184.410000
21
134.598000
0
LINE
8
0
10
179.210000
20
133.869000
11
180.327709
21
134.389345
0
LINE
8
0
10
180.327709
20
134.389345
11
181.335146
21
135.062137
0
LINE
8
0
10
181.335146
20
135.062137
11
182.220461
21
135.870311
0
LINE
8
0
10
182.220461
20
135.870311
11
182.971805
21
136.796799
0
LINE
8
0
10
182.971805
20
136.796799
11
183.577326
21
137.824535
0
LINE
8
0
10
183.577326
20
137.824535
11
184.025176
21
138.936452
0
LINE
8
0
10
184.025176
20
138.936452
11
184.303504
21
140.115482
0
LINE
8
0
10
184.303504
20
140.115482
11
184.400460
21
141.344560
0
LINE
8
0
10
184.400460
20
141.344560
11
184.460000
21
173.135000
0
LINE
8
0
10
184.460000
20
173.135000
11
184.307779
21
174.703298
0
LINE
8
0
10
184.307779
20
174.703298
11
183.856732
21
176.197597
0
LINE
8
0
10
183.856732
20
176.197597
11
183.124164
21
177.575899
0
LINE
8
0
10
183.124164
20
177.575899
11
182.127380
21
178.796207
0
LINE
8
0
10
182.127380
20
178.796207
11
180.910789
21
179.797523
0
LINE
8
0
10
180.910789
20
179.797523
11
179.535222
21
180.535214
0
LINE
8
0
10
179.535222
20
180.535214
11
178.042610
21
180.991816
0
LINE
8
0
10
178.042610
20
180.991816
11
176.474890
21
181.149870
0
LINE
8
0
10
176.474890
20
181.149870
11
133.175000
21
181.230000
0
LINE
8
0
10
133.175000
20
181.230000
11
131.672584
21
181.091574
0
LINE
8
0
10
131.672584
20
181.091574
11
130.259508
21
180.687126
0
LINE
8
0
10
130.259508
20
180.687126
11
128.963390
21
180.041482
0
LINE
8
0
10
128.963390
20
180.041482
11
127.811846
21
179.179466
0
LINE
8
0
10
127.811846
20
179.179466
11
126.832491
21
178.125905
0
LINE
8
0
10
126.832491
20
178.125905
11
126.052943
21
176.905625
0
LINE
8
0
10
126.052943
20
176.905625
11
125.500817
21
175.543452
0
LINE
8
0
10
125.500817
20
175.543452
11
125.203730
21
174.064210
0
LINE
8
0
10
125.203730
20
174.064210
11
125.143000
21
141.471000
0
LINE
8
0
10
125.143000
20
141.471000
11
125.295221
21
139.902700
0
LINE
8
0
10
125.295221
20
139.902700
11
125.746270
21
138.408398
0
LINE
8
0
10
125.746270
20
138.408398
11
126.478840
21
137.030094
0
LINE
8
0
10
126.478840
20
137.030094
11
127.475627
21
135.809786
0
LINE
8
0
10
127.475627
20
135.809786
11
128.692221
21
134.808470
0
LINE
8
0
10
128.692221
20
134.808470
11
130.067792
21
134.070781
0
LINE
8
0
10
130.067792
20
134.070781
11
131.560407
21
133.614180
0
LINE
8
0
10
131.560407
20
133.614180
11
133.128130
21
133.456130
0
LINE
8
0
10
133.128130
20
133.456130
11
176.428000
21
133.376000
0
LINE
8
0
10
176.428000
20
133.376000
11
177.841130
21
133.499128
0
LINE
8
0
10
177.841130
20
133.499128
11
179.210300
21
133.869897
0
LINE
8
0
10
179.210300
20
133.869897
11
179.210000
21
133.869000
0
LINE
8
0
10
125.110000
20
134.708000
11
124.617616
21
134.609544
0
LINE
8
0
10
124.617616
20
134.609544
11
124.215176
21
134.339298
0
LINE
8
0
10
124.215176
20
134.339298
11
123.943437
21
133.937866
0
LINE
8
0
10
123.943437
20
133.937866
11
123.843151
21
133.445851
0
LINE
8
0
10
123.843151
20
133.445851
11
123.941606
21
132.953467
0
LINE
8
0
10
123.941606
20
132.953467
11
124.211851
21
132.551028
0
LINE
8
0
10
124.211851
20
132.551028
11
124.613282
21
132.279288
0
LINE
8
0
10
124.613282
20
132.279288
11
125.105297
21
132.179002
0
LINE
8
0
10
125.105297
20
132.179002
11
125.737861
21
132.347238
0
LINE
8
0
10
125.737861
20
132.347238
11
126.201560
21
132.809216
0
LINE
8
0
10
126.201560
20
132.809216
11
126.372146
21
133.441150
0
LINE
8
0
10
126.372146
20
133.441150
11
126.203912
21
134.073714
0
LINE
8
0
10
126.203912
20
134.073714
11
125.741934
21
134.537413
0
LINE
8
0
10
125.741934
20
134.537413
11
125.110000
21
134.707999
0
LINE
8
0
10
125.110000
20
134.707999
11
125.110000
21
134.708000
0
LINE
8
0
10
186.134000
20
237.845000
11
185.641616
21
237.746544
0
LINE
8
0
10
185.641616
20
237.746544
11
185.239176
21
237.476298
0
LINE
8
0
10
185.239176
20
237.476298
11
184.967437
21
237.074866
0
LINE
8
0
10
184.967437
20
237.074866
11
184.867151
21
236.582851
0
LINE
8
0
10
184.867151
20
236.582851
11
184.965606
21
236.090467
0
LINE
8
0
10
184.965606
20
236.090467
11
185.235851
21
235.688028
0
LINE
8
0
10
185.235851
20
235.688028
11
185.637282
21
235.416288
0
LINE
8
0
10
185.637282
20
235.416288
11
186.129297
21
235.316002
0
LINE
8
0
10
186.129297
20
235.316002
11
186.761861
21
235.484238
0
LINE
8
0
10
186.761861
20
235.484238
11
187.225560
21
235.946216
0
LINE
8
0
10
187.225560
20
235.946216
11
187.396146
21
236.578150
0
LINE
8
0
10
187.396146
20
236.578150
11
187.227912
21
237.210714
0
LINE
8
0
10
187.227912
20
237.210714
11
186.765934
21
237.674413
0
LINE
8
0
10
186.765934
20
237.674413
11
186.134000
21
237.844999
0
LINE
8
0
10
186.134000
20
237.844999
11
186.134000
21
237.845000
0
LINE
8
0
10
186.190000
20
267.845000
11
185.697616
21
267.746544
0
LINE
8
0
10
185.697616
20
267.746544
11
185.295176
21
267.476298
0
LINE
8
0
10
185.295176
20
267.476298
11
185.023437
21
267.074866
0
LINE
8
0
10
185.023437
20
267.074866
11
184.923151
21
266.582851
0
LINE
8
0
10
184.923151
20
266.582851
11
185.021606
21
266.090467
0
LINE
8
0
10
185.021606
20
266.090467
11
185.291851
21
265.688028
0
LINE
8
0
10
185.291851
20
265.688028
11
185.693282
21
265.416288
0
LINE
8
0
10
185.693282
20
265.416288
11
186.185297
21
265.316002
0
LINE
8
0
10
186.185297
20
265.316002
11
186.817861
21
265.484238
0
LINE
8
0
10
186.817861
20
265.484238
11
187.281560
21
265.946216
0
LINE
8
0
10
187.281560
20
265.946216
11
187.452146
21
266.578150
0
LINE
8
0
10
187.452146
20
266.578150
11
187.283912
21
267.210714
0
LINE
8
0
10
187.283912
20
267.210714
11
186.821934
21
267.674413
0
LINE
8
0
10
186.821934
20
267.674413
11
186.190000
21
267.844999
0
LINE
8
0
10
186.190000
20
267.844999
11
186.190000
21
267.845000
0
LINE
8
0
10
129.187000
20
266.686000
11
178.187000
21
266.595000
0
LINE
8
0
10
178.187000
20
266.595000
11
179.754720
21
266.436946
0
LINE
8
0
10
179.754720
20
266.436946
11
181.247332
21
265.980344
0
LINE
8
0
10
181.247332
20
265.980344
11
182.622899
21
265.242653
0
LINE
8
0
10
182.622899
20
265.242653
11
183.839490
21
264.241337
0
LINE
8
0
10
183.839490
20
264.241337
11
184.836274
21
263.021029
0
LINE
8
0
10
184.836274
20
263.021029
11
185.568842
21
261.642727
0
LINE
8
0
10
185.568842
20
261.642727
11
186.019889
21
260.148428
0
LINE
8
0
10
186.019889
20
260.148428
11
186.172110
21
258.580130
0
LINE
8
0
10
186.172110
20
258.580130
11
186.146000
21
244.580000
0
LINE
8
0
10
186.146000
20
244.580000
11
185.980471
21
242.968026
0
LINE
8
0
10
185.980471
20
242.968026
11
185.511531
21
241.467214
0
LINE
8
0
10
185.511531
20
241.467214
11
184.771411
21
240.109673
0
LINE
8
0
10
184.771411
20
240.109673
11
183.792340
21
238.927513
0
LINE
8
0
10
183.792340
20
238.927513
11
182.606548
21
237.952845
0
LINE
8
0
10
182.606548
20
237.952845
11
181.246264
21
237.217779
0
LINE
8
0
10
181.246264
20
237.217779
11
179.743718
21
236.754424
0
LINE
8
0
10
179.743718
20
236.754424
11
178.131140
21
236.594890
0
LINE
8
0
10
178.131140
20
236.594890
11
129.131000
21
236.686000
0
LINE
8
0
10
129.131000
20
236.686000
11
127.563277
21
236.844050
0
LINE
8
0
10
127.563277
20
236.844050
11
126.070662
21
237.300651
0
LINE
8
0
10
126.070662
20
237.300651
11
124.695091
21
238.038340
0
LINE
8
0
10
124.695091
20
238.038340
11
123.478497
21
239.039656
0
LINE
8
0
10
123.478497
20
239.039656
11
122.481710
21
240.259964
0
LINE
8
0
10
122.481710
20
240.259964
11
121.749140
21
241.638268
0
LINE
8
0
10
121.749140
20
241.638268
11
121.298091
21
243.132570
0
LINE
8
0
10
121.298091
20
243.132570
11
121.145870
21
244.700870
0
LINE
8
0
10
121.145870
20
244.700870
11
121.172000
21
258.701000
0
LINE
8
0
10
121.172000
20
258.701000
11
121.330054
21
260.268723
0
LINE
8
0
10
121.330054
20
260.268723
11
121.786658
21
261.761336
0
LINE
8
0
10
121.786658
20
261.761336
11
122.524351
21
263.136906
0
LINE
8
0
10
122.524351
20
263.136906
11
123.525671
21
264.353497
0
LINE
8
0
10
123.525671
20
264.353497
11
124.745981
21
265.350281
0
LINE
8
0
10
124.745981
20
265.350281
11
126.124287
21
266.082848
0
LINE
8
0
10
126.124287
20
266.082848
11
127.618590
21
266.533893
0
LINE
8
0
10
127.618590
20
266.533893
11
129.186890
21
266.686110
0
LINE
8
0
10
129.186890
20
266.686110
11
129.187000
21
266.686000
0
LINE
8
0
10
121.134000
20
237.966000
11
120.641616
21
237.867544
0
LINE
8
0
10
120.641616
20
237.867544
11
120.239176
21
237.597298
0
LINE
8
0
10
120.239176
20
237.597298
11
119.967437
21
237.195866
0
LINE
8
0
10
119.967437
20
237.195866
11
119.867151
21
236.703851
0
LINE
8
0
10
119.867151
20
236.703851
11
119.965606
21
236.211467
0
LINE
8
0
10
119.965606
20
236.211467
11
120.235851
21
235.809028
0
LINE
8
0
10
120.235851
20
235.809028
11
120.637282
21
235.537288
0
LINE
8
0
10
120.637282
20
235.537288
11
121.129297
21
235.437002
0
LINE
8
0
10
121.129297
20
235.437002
11
121.761861
21
235.605238
0
LINE
8
0
10
121.761861
20
235.605238
11
122.225560
21
236.067216
0
LINE
8
0
10
122.225560
20
236.067216
11
122.396146
21
236.699150
0
LINE
8
0
10
122.396146
20
236.699150
11
122.227912
21
237.331714
0
LINE
8
0
10
122.227912
20
237.331714
11
121.765934
21
237.795413
0
LINE
8
0
10
121.765934
20
237.795413
11
121.134000
21
237.965999
0
LINE
8
0
10
121.134000
20
237.965999
11
121.134000
21
237.966000
0
LINE
8
0
10
17.116200
20
226.649000
11
17.277936
21
224.982684
0
LINE
8
0
10
17.277936
20
224.982684
11
17.757176
21
223.394991
0
LINE
8
0
10
17.757176
20
223.394991
11
18.535531
21
221.930546
0
LINE
8
0
10
18.535531
20
221.930546
11
19.594616
21
220.633970
0
LINE
8
0
10
19.594616
20
220.633970
11
20.887245
21
219.570073
0
LINE
8
0
10
20.887245
20
219.570073
11
22.348787
21
218.786278
0
LINE
8
0
10
22.348787
20
218.786278
11
23.934687
21
218.301140
0
LINE
8
0
10
23.934687
20
218.301140
11
25.600390
21
218.133210
0
LINE
8
0
10
25.600390
20
218.133210
11
74.600300
21
218.042000
0
LINE
8
0
10
74.600300
20
218.042000
11
76.266616
21
218.203734
0
LINE
8
0
10
76.266616
20
218.203734
11
77.854310
21
218.682972
0
LINE
8
0
10
77.854310
20
218.682972
11
79.318756
21
219.461325
0
LINE
8
0
10
79.318756
20
219.461325
11
80.615333
21
220.520409
0
LINE
8
0
10
80.615333
20
220.520409
11
81.679232
21
221.813036
0
LINE
8
0
10
81.679232
20
221.813036
11
82.463028
21
223.274577
0
LINE
8
0
10
82.463028
20
223.274577
11
82.948168
21
224.860477
0
LINE
8
0
10
82.948168
20
224.860477
11
83.116100
21
226.526180
0
LINE
8
0
10
83.116100
20
226.526180
11
83.207300
21
275.551000
0
LINE
8
0
10
83.207300
20
275.551000
11
83.045564
21
277.217316
0
LINE
8
0
10
83.045564
20
277.217316
11
82.566324
21
278.805009
0
LINE
8
0
10
82.566324
20
278.805009
11
81.787969
21
280.269454
0
LINE
8
0
10
81.787969
20
280.269454
11
80.728884
21
281.566030
0
LINE
8
0
10
80.728884
20
281.566030
11
79.436255
21
282.629927
0
LINE
8
0
10
79.436255
20
282.629927
11
77.974713
21
283.413722
0
LINE
8
0
10
77.974713
20
283.413722
11
76.388813
21
283.898860
0
LINE
8
0
10
76.388813
20
283.898860
11
74.723110
21
284.066790
0
LINE
8
0
10
74.723110
20
284.066790
11
25.723100
21
284.158000
0
LINE
8
0
10
25.723100
20
284.158000
11
24.056784
21
283.996266
0
LINE
8
0
10
24.056784
20
283.996266
11
22.469090
21
283.517028
0
LINE
8
0
10
22.469090
20
283.517028
11
21.004644
21
282.738675
0
LINE
8
0
10
21.004644
20
282.738675
11
19.708067
21
281.679591
0
LINE
8
0
10
19.708067
20
281.679591
11
18.644168
21
280.386964
0
LINE
8
0
10
18.644168
20
280.386964
11
17.860372
21
278.925423
0
LINE
8
0
10
17.860372
20
278.925423
11
17.375232
21
277.339523
0
LINE
8
0
10
17.375232
20
277.339523
11
17.207300
21
275.673820
0
LINE
8
0
10
17.207300
20
275.673820
11
17.116200
21
226.649000
0
LINE
8
0
10
17.734900
20
220.109000
11
17.242516
21
220.010544
0
LINE
8
0
10
17.242516
20
220.010544
11
16.840076
21
219.740298
0
LINE
8
0
10
16.840076
20
219.740298
11
16.568337
21
219.338866
0
LINE
8
0
10
16.568337
20
219.338866
11
16.468051
21
218.846851
0
LINE
8
0
10
16.468051
20
218.846851
11
16.566506
21
218.354467
0
LINE
8
0
10
16.566506
20
218.354467
11
16.836751
21
217.952028
0
LINE
8
0
10
16.836751
20
217.952028
11
17.238182
21
217.680288
0
LINE
8
0
10
17.238182
20
217.680288
11
17.730197
21
217.580002
0
LINE
8
0
10
17.730197
20
217.580002
11
18.362761
21
217.748238
0
LINE
8
0
10
18.362761
20
217.748238
11
18.826460
21
218.210216
0
LINE
8
0
10
18.826460
20
218.210216
11
18.997046
21
218.842150
0
LINE
8
0
10
18.997046
20
218.842150
11
18.828812
21
219.474714
0
LINE
8
0
10
18.828812
20
219.474714
11
18.366834
21
219.938413
0
LINE
8
0
10
18.366834
20
219.938413
11
17.734900
21
220.108999
0
LINE
8
0
10
17.734900
20
220.108999
11
17.734900
21
220.109000
0
LINE
8
0
10
82.712000
20
284.804000
11
82.079436
21
284.635763
0
LINE
8
0
10
82.079436
20
284.635763
11
81.615737
21
284.173785
0
LINE
8
0
10
81.615737
20
284.173785
11
81.445151
21
283.541851
0
LINE
8
0
10
81.445151
20
283.541851
11
81.613386
21
282.909288
0
LINE
8
0
10
81.613386
20
282.909288
11
82.075363
21
282.445588
0
LINE
8
0
10
82.075363
20
282.445588
11
82.707297
21
282.275002
0
LINE
8
0
10
82.707297
20
282.275002
11
83.339861
21
282.443238
0
LINE
8
0
10
83.339861
20
282.443238
11
83.803560
21
282.905216
0
LINE
8
0
10
83.803560
20
282.905216
11
83.974146
21
283.537150
0
LINE
8
0
10
83.974146
20
283.537150
11
83.805912
21
284.169714
0
LINE
8
0
10
83.805912
20
284.169714
11
83.343934
21
284.633413
0
LINE
8
0
10
83.343934
20
284.633413
11
82.712000
21
284.803999
0
LINE
8
0
10
82.712000
20
284.803999
11
82.712000
21
284.804000
0
LINE
8
0
10
82.591100
20
219.805000
11
82.098716
21
219.706544
0
LINE
8
0
10
82.098716
20
219.706544
11
81.696276
21
219.436298
0
LINE
8
0
10
81.696276
20
219.436298
11
81.424537
21
219.034866
0
LINE
8
0
10
81.424537
20
219.034866
11
81.324251
21
218.542851
0
LINE
8
0
10
81.324251
20
218.542851
11
81.422706
21
218.050467
0
LINE
8
0
10
81.422706
20
218.050467
11
81.692951
21
217.648028
0
LINE
8
0
10
81.692951
20
217.648028
11
82.094382
21
217.376288
0
LINE
8
0
10
82.094382
20
217.376288
11
82.586397
21
217.276002
0
LINE
8
0
10
82.586397
20
217.276002
11
83.218961
21
217.444238
0
LINE
8
0
10
83.218961
20
217.444238
11
83.682660
21
217.906216
0
LINE
8
0
10
83.682660
20
217.906216
11
83.853246
21
218.538150
0
LINE
8
0
10
83.853246
20
218.538150
11
83.685012
21
219.170714
0
LINE
8
0
10
83.685012
20
219.170714
11
83.223034
21
219.634413
0
LINE
8
0
10
83.223034
20
219.634413
11
82.591100
21
219.804999
0
LINE
8
0
10
82.591100
20
219.804999
11
82.591100
21
219.805000
0
LINE
8
0
10
83.007800
20
181.746000
11
82.855579
21
183.314298
0
LINE
8
0
10
82.855579
20
183.314298
11
82.404532
21
184.808597
0
LINE
8
0
10
82.404532
20
184.808597
11
81.671964
21
186.186899
0
LINE
8
0
10
81.671964
20
186.186899
11
80.675180
21
187.407207
0
LINE
8
0
10
80.675180
20
187.407207
11
79.458589
21
188.408523
0
LINE
8
0
10
79.458589
20
188.408523
11
78.083022
21
189.146214
0
LINE
8
0
10
78.083022
20
189.146214
11
76.590410
21
189.602816
0
LINE
8
0
10
76.590410
20
189.602816
11
75.022690
21
189.760870
0
LINE
8
0
10
75.022690
20
189.760870
11
25.222700
21
189.854000
0
LINE
8
0
10
25.222700
20
189.854000
11
23.610122
21
189.694466
0
LINE
8
0
10
23.610122
20
189.694466
11
22.107576
21
189.231111
0
LINE
8
0
10
22.107576
20
189.231111
11
20.747292
21
188.496045
0
LINE
8
0
10
20.747292
20
188.496045
11
19.561500
21
187.521377
0
LINE
8
0
10
19.561500
20
187.521377
11
18.582429
21
186.339217
0
LINE
8
0
10
18.582429
20
186.339217
11
17.842309
21
184.981676
0
LINE
8
0
10
17.842309
20
184.981676
11
17.373369
21
183.480864
0
LINE
8
0
10
17.373369
20
183.480864
11
17.207840
21
181.868890
0
LINE
8
0
10
17.207840
20
181.868890
11
17.115200
21
132.068000
0
LINE
8
0
10
17.115200
20
132.068000
11
17.267421
21
130.499702
0
LINE
8
0
10
17.267421
20
130.499702
11
17.718468
21
129.005403
0
LINE
8
0
10
17.718468
20
129.005403
11
18.451036
21
127.627101
0
LINE
8
0
10
18.451036
20
127.627101
11
19.447820
21
126.406793
0
LINE
8
0
10
19.447820
20
126.406793
11
20.664411
21
125.405477
0
LINE
8
0
10
20.664411
20
125.405477
11
22.039978
21
124.667786
0
LINE
8
0
10
22.039978
20
124.667786
11
23.532590
21
124.211184
0
LINE
8
0
10
23.532590
20
124.211184
11
25.100310
21
124.053130
0
LINE
8
0
10
25.100310
20
124.053130
11
74.900300
21
123.961000
0
LINE
8
0
10
74.900300
20
123.961000
11
76.512878
21
124.120534
0
LINE
8
0
10
76.512878
20
124.120534
11
78.015424
21
124.583889
0
LINE
8
0
10
78.015424
20
124.583889
11
79.375708
21
125.318955
0
LINE
8
0
10
79.375708
20
125.318955
11
80.561500
21
126.293623
0
LINE
8
0
10
80.561500
20
126.293623
11
81.540571
21
127.475783
0
LINE
8
0
10
81.540571
20
127.475783
11
82.280691
21
128.833324
0
LINE
8
0
10
82.280691
20
128.833324
11
82.749631
21
130.334136
0
LINE
8
0
10
82.749631
20
130.334136
11
82.915160
21
131.946110
0
LINE
8
0
10
82.915160
20
131.946110
11
83.007800
21
181.746000
0
LINE
8
0
10
82.781900
20
190.768000
11
82.289516
21
190.669544
0
LINE
8
0
10
82.289516
20
190.669544
11
81.887076
21
190.399298
0
LINE
8
0
10
81.887076
20
190.399298
11
81.615337
21
189.997866
0
LINE
8
0
10
81.615337
20
189.997866
11
81.515051
21
189.505851
0
LINE
8
0
10
81.515051
20
189.505851
11
81.613506
21
189.013467
0
LINE
8
0
10
81.613506
20
189.013467
11
81.883751
21
188.611028
0
LINE
8
0
10
81.883751
20
188.611028
11
82.285182
21
188.339288
0
LINE
8
0
10
82.285182
20
188.339288
11
82.777197
21
188.239002
0
LINE
8
0
10
82.777197
20
188.239002
11
83.269582
21
188.337458
0
LINE
8
0
10
83.269582
20
188.337458
11
83.672021
21
188.607703
0
LINE
8
0
10
83.672021
20
188.607703
11
83.943761
21
189.009135
0
LINE
8
0
10
83.943761
20
189.009135
11
84.044046
21
189.501150
0
LINE
8
0
10
84.044046
20
189.501150
11
83.945591
21
189.993534
0
LINE
8
0
10
83.945591
20
189.993534
11
83.675346
21
190.395973
0
LINE
8
0
10
83.675346
20
190.395973
11
83.273915
21
190.667713
0
LINE
8
0
10
83.273915
20
190.667713
11
82.781900
21
190.767999
0
LINE
8
0
10
82.781900
20
190.767999
11
82.781900
21
190.768000
0
LINE
8
0
10
82.660400
20
125.454000
11
82.168016
21
125.355544
0
LINE
8
0
10
82.168016
20
125.355544
11
81.765576
21
125.085298
0
LINE
8
0
10
81.765576
20
125.085298
11
81.493837
21
124.683866
0
LINE
8
0
10
81.493837
20
124.683866
11
81.393551
21
124.191851
0
LINE
8
0
10
81.393551
20
124.191851
11
81.492006
21
123.699467
0
LINE
8
0
10
81.492006
20
123.699467
11
81.762251
21
123.297028
0
LINE
8
0
10
81.762251
20
123.297028
11
82.163682
21
123.025288
0
LINE
8
0
10
82.163682
20
123.025288
11
82.655697
21
122.925002
0
LINE
8
0
10
82.655697
20
122.925002
11
83.288261
21
123.093238
0
LINE
8
0
10
83.288261
20
123.093238
11
83.751960
21
123.555216
0
LINE
8
0
10
83.751960
20
123.555216
11
83.922546
21
124.187150
0
LINE
8
0
10
83.922546
20
124.187150
11
83.754312
21
124.819714
0
LINE
8
0
10
83.754312
20
124.819714
11
83.292334
21
125.283413
0
LINE
8
0
10
83.292334
20
125.283413
11
82.660400
21
125.453999
0
LINE
8
0
10
82.660400
20
125.453999
11
82.660400
21
125.454000
0
LINE
8
0
10
17.467300
20
190.890000
11
16.974916
21
190.791544
0
LINE
8
0
10
16.974916
20
190.791544
11
16.572476
21
190.521298
0
LINE
8
0
10
16.572476
20
190.521298
11
16.300737
21
190.119866
0
LINE
8
0
10
16.300737
20
190.119866
11
16.200451
21
189.627851
0
LINE
8
0
10
16.200451
20
189.627851
11
16.298906
21
189.135467
0
LINE
8
0
10
16.298906
20
189.135467
11
16.569151
21
188.733028
0
LINE
8
0
10
16.569151
20
188.733028
11
16.970582
21
188.461288
0
LINE
8
0
10
16.970582
20
188.461288
11
17.462597
21
188.361002
0
LINE
8
0
10
17.462597
20
188.361002
11
17.954982
21
188.459458
0
LINE
8
0
10
17.954982
20
188.459458
11
18.357421
21
188.729703
0
LINE
8
0
10
18.357421
20
188.729703
11
18.629161
21
189.131135
0
LINE
8
0
10
18.629161
20
189.131135
11
18.729446
21
189.623150
0
LINE
8
0
10
18.729446
20
189.623150
11
18.630991
21
190.115534
0
LINE
8
0
10
18.630991
20
190.115534
11
18.360746
21
190.517973
0
LINE
8
0
10
18.360746
20
190.517973
11
17.959315
21
190.789713
0
LINE
8
0
10
17.959315
20
190.789713
11
17.467300
21
190.889999
0
LINE
8
0
10
17.467300
20
190.889999
11
17.467300
21
190.890000
0
LINE
8
0
10
17.345800
20
125.575000
11
16.853416
21
125.476544
0
LINE
8
0
10
16.853416
20
125.476544
11
16.450976
21
125.206298
0
LINE
8
0
10
16.450976
20
125.206298
11
16.179237
21
124.804866
0
LINE
8
0
10
16.179237
20
124.804866
11
16.078951
21
124.312851
0
LINE
8
0
10
16.078951
20
124.312851
11
16.177406
21
123.820467
0
LINE
8
0
10
16.177406
20
123.820467
11
16.447651
21
123.418028
0
LINE
8
0
10
16.447651
20
123.418028
11
16.849082
21
123.146288
0
LINE
8
0
10
16.849082
20
123.146288
11
17.341097
21
123.046002
0
LINE
8
0
10
17.341097
20
123.046002
11
17.973661
21
123.214238
0
LINE
8
0
10
17.973661
20
123.214238
11
18.437360
21
123.676216
0
LINE
8
0
10
18.437360
20
123.676216
11
18.607946
21
124.308150
0
LINE
8
0
10
18.607946
20
124.308150
11
18.439712
21
124.940714
0
LINE
8
0
10
18.439712
20
124.940714
11
17.977734
21
125.404413
0
LINE
8
0
10
17.977734
20
125.404413
11
17.345800
21
125.574999
0
LINE
8
0
10
17.345800
20
125.574999
11
17.345800
21
125.575000
0
LINE
8
0
10
121.369000
20
268.087000
11
120.876616
21
267.988544
0
LINE
8
0
10
120.876616
20
267.988544
11
120.474176
21
267.718298
0
LINE
8
0
10
120.474176
20
267.718298
11
120.202437
21
267.316866
0
LINE
8
0
10
120.202437
20
267.316866
11
120.102151
21
266.824851
0
LINE
8
0
10
120.102151
20
266.824851
11
120.200606
21
266.332467
0
LINE
8
0
10
120.200606
20
266.332467
11
120.470851
21
265.930028
0
LINE
8
0
10
120.470851
20
265.930028
11
120.872282
21
265.658288
0
LINE
8
0
10
120.872282
20
265.658288
11
121.364297
21
265.558002
0
LINE
8
0
10
121.364297
20
265.558002
11
121.996861
21
265.726238
0
LINE
8
0
10
121.996861
20
265.726238
11
122.460560
21
266.188216
0
LINE
8
0
10
122.460560
20
266.188216
11
122.631146
21
266.820150
0
LINE
8
0
10
122.631146
20
266.820150
11
122.462912
21
267.452714
0
LINE
8
0
10
122.462912
20
267.452714
11
122.000934
21
267.916413
0
LINE
8
0
10
122.000934
20
267.916413
11
121.369000
21
268.086999
0
LINE
8
0
10
121.369000
20
268.086999
11
121.369000
21
268.087000
0
LINE
8
0
10
17.855700
20
285.109000
11
17.363316
21
285.010544
0
LINE
8
0
10
17.363316
20
285.010544
11
16.960876
21
284.740298
0
LINE
8
0
10
16.960876
20
284.740298
11
16.689137
21
284.338866
0
LINE
8
0
10
16.689137
20
284.338866
11
16.588851
21
283.846851
0
LINE
8
0
10
16.588851
20
283.846851
11
16.687306
21
283.354467
0
LINE
8
0
10
16.687306
20
283.354467
11
16.957551
21
282.952028
0
LINE
8
0
10
16.957551
20
282.952028
11
17.358982
21
282.680288
0
LINE
8
0
10
17.358982
20
282.680288
11
17.850997
21
282.580002
0
LINE
8
0
10
17.850997
20
282.580002
11
18.483561
21
282.748238
0
LINE
8
0
10
18.483561
20
282.748238
11
18.947260
21
283.210216
0
LINE
8
0
10
18.947260
20
283.210216
11
19.117846
21
283.842150
0
LINE
8
0
10
19.117846
20
283.842150
11
18.949612
21
284.474714
0
LINE
8
0
10
18.949612
20
284.474714
11
18.487634
21
284.938413
0
LINE
8
0
10
18.487634
20
284.938413
11
17.855700
21
285.108999
0
LINE
8
0
10
17.855700
20
285.108999
11
17.855700
21
285.109000
0
LINE
8
0
10
17.734900
20
220.109000
11
17.242516
21
220.010544
0
LINE
8
0
10
17.242516
20
220.010544
11
16.840076
21
219.740298
0
LINE
8
0
10
16.840076
20
219.740298
11
16.568337
21
219.338866
0
LINE
8
0
10
16.568337
20
219.338866
11
16.468051
21
218.846851
0
LINE
8
0
10
16.468051
20
218.846851
11
16.566506
21
218.354467
0
LINE
8
0
10
16.566506
20
218.354467
11
16.836751
21
217.952028
0
LINE
8
0
10
16.836751
20
217.952028
11
17.238182
21
217.680288
0
LINE
8
0
10
17.238182
20
217.680288
11
17.730197
21
217.580002
0
LINE
8
0
10
17.730197
20
217.580002
11
18.362761
21
217.748238
0
LINE
8
0
10
18.362761
20
217.748238
11
18.826460
21
218.210216
0
LINE
8
0
10
18.826460
20
218.210216
11
18.997046
21
218.842150
0
LINE
8
0
10
18.997046
20
218.842150
11
18.828812
21
219.474714
0
LINE
8
0
10
18.828812
20
219.474714
11
18.366834
21
219.938413
0
LINE
8
0
10
18.366834
20
219.938413
11
17.734900
21
220.108999
0
LINE
8
0
10
17.734900
20
220.108999
11
17.734900
21
220.109000
0
LINE
8
0
10
82.712000
20
284.804000
11
82.079436
21
284.635763
0
LINE
8
0
10
82.079436
20
284.635763
11
81.615737
21
284.173785
0
LINE
8
0
10
81.615737
20
284.173785
11
81.445151
21
283.541851
0
LINE
8
0
10
81.445151
20
283.541851
11
81.613386
21
282.909288
0
LINE
8
0
10
81.613386
20
282.909288
11
82.075363
21
282.445588
0
LINE
8
0
10
82.075363
20
282.445588
11
82.707297
21
282.275002
0
LINE
8
0
10
82.707297
20
282.275002
11
83.339861
21
282.443238
0
LINE
8
0
10
83.339861
20
282.443238
11
83.803560
21
282.905216
0
LINE
8
0
10
83.803560
20
282.905216
11
83.974146
21
283.537150
0
LINE
8
0
10
83.974146
20
283.537150
11
83.805912
21
284.169714
0
LINE
8
0
10
83.805912
20
284.169714
11
83.343934
21
284.633413
0
LINE
8
0
10
83.343934
20
284.633413
11
82.712000
21
284.803999
0
LINE
8
0
10
82.712000
20
284.803999
11
82.712000
21
284.804000
0
LINE
8
0
10
82.591100
20
219.805000
11
82.098716
21
219.706544
0
LINE
8
0
10
82.098716
20
219.706544
11
81.696276
21
219.436298
0
LINE
8
0
10
81.696276
20
219.436298
11
81.424537
21
219.034866
0
LINE
8
0
10
81.424537
20
219.034866
11
81.324251
21
218.542851
0
LINE
8
0
10
81.324251
20
218.542851
11
81.422706
21
218.050467
0
LINE
8
0
10
81.422706
20
218.050467
11
81.692951
21
217.648028
0
LINE
8
0
10
81.692951
20
217.648028
11
82.094382
21
217.376288
0
LINE
8
0
10
82.094382
20
217.376288
11
82.586397
21
217.276002
0
LINE
8
0
10
82.586397
20
217.276002
11
83.218961
21
217.444238
0
LINE
8
0
10
83.218961
20
217.444238
11
83.682660
21
217.906216
0
LINE
8
0
10
83.682660
20
217.906216
11
83.853246
21
218.538150
0
LINE
8
0
10
83.853246
20
218.538150
11
83.685012
21
219.170714
0
LINE
8
0
10
83.685012
20
219.170714
11
83.223034
21
219.634413
0
LINE
8
0
10
83.223034
20
219.634413
11
82.591100
21
219.804999
0
LINE
8
0
10
82.591100
20
219.804999
11
82.591100
21
219.805000
0
LINE
8
0
10
83.007800
20
181.746000
11
82.855579
21
183.314298
0
LINE
8
0
10
82.855579
20
183.314298
11
82.404532
21
184.808597
0
LINE
8
0
10
82.404532
20
184.808597
11
81.671964
21
186.186899
0
LINE
8
0
10
81.671964
20
186.186899
11
80.675180
21
187.407207
0
LINE
8
0
10
80.675180
20
187.407207
11
79.458589
21
188.408523
0
LINE
8
0
10
79.458589
20
188.408523
11
78.083022
21
189.146214
0
LINE
8
0
10
78.083022
20
189.146214
11
76.590410
21
189.602816
0
LINE
8
0
10
76.590410
20
189.602816
11
75.022690
21
189.760870
0
LINE
8
0
10
75.022690
20
189.760870
11
25.222700
21
189.854000
0
LINE
8
0
10
25.222700
20
189.854000
11
23.610122
21
189.694466
0
LINE
8
0
10
23.610122
20
189.694466
11
22.107576
21
189.231111
0
LINE
8
0
10
22.107576
20
189.231111
11
20.747292
21
188.496045
0
LINE
8
0
10
20.747292
20
188.496045
11
19.561500
21
187.521377
0
LINE
8
0
10
19.561500
20
187.521377
11
18.582429
21
186.339217
0
LINE
8
0
10
18.582429
20
186.339217
11
17.842309
21
184.981676
0
LINE
8
0
10
17.842309
20
184.981676
11
17.373369
21
183.480864
0
LINE
8
0
10
17.373369
20
183.480864
11
17.207840
21
181.868890
0
LINE
8
0
10
17.207840
20
181.868890
11
17.115200
21
132.068000
0
LINE
8
0
10
17.115200
20
132.068000
11
17.267421
21
130.499702
0
LINE
8
0
10
17.267421
20
130.499702
11
17.718468
21
129.005403
0
LINE
8
0
10
17.718468
20
129.005403
11
18.451036
21
127.627101
0
LINE
8
0
10
18.451036
20
127.627101
11
19.447820
21
126.406793
0
LINE
8
0
10
19.447820
20
126.406793
11
20.664411
21
125.405477
0
LINE
8
0
10
20.664411
20
125.405477
11
22.039978
21
124.667786
0
LINE
8
0
10
22.039978
20
124.667786
11
23.532590
21
124.211184
0
LINE
8
0
10
23.532590
20
124.211184
11
25.100310
21
124.053130
0
LINE
8
0
10
25.100310
20
124.053130
11
74.900300
21
123.961000
0
LINE
8
0
10
74.900300
20
123.961000
11
76.512878
21
124.120534
0
LINE
8
0
10
76.512878
20
124.120534
11
78.015424
21
124.583889
0
LINE
8
0
10
78.015424
20
124.583889
11
79.375708
21
125.318955
0
LINE
8
0
10
79.375708
20
125.318955
11
80.561500
21
126.293623
0
LINE
8
0
10
80.561500
20
126.293623
11
81.540571
21
127.475783
0
LINE
8
0
10
81.540571
20
127.475783
11
82.280691
21
128.833324
0
LINE
8
0
10
82.280691
20
128.833324
11
82.749631
21
130.334136
0
LINE
8
0
10
82.749631
20
130.334136
11
82.915160
21
131.946110
0
LINE
8
0
10
82.915160
20
131.946110
11
83.007800
21
181.746000
0
LINE
8
0
10
82.781900
20
190.768000
11
82.289516
21
190.669544
0
LINE
8
0
10
82.289516
20
190.669544
11
81.887076
21
190.399298
0
LINE
8
0
10
81.887076
20
190.399298
11
81.615337
21
189.997866
0
LINE
8
0
10
81.615337
20
189.997866
11
81.515051
21
189.505851
0
LINE
8
0
10
81.515051
20
189.505851
11
81.613506
21
189.013467
0
LINE
8
0
10
81.613506
20
189.013467
11
81.883751
21
188.611028
0
LINE
8
0
10
81.883751
20
188.611028
11
82.285182
21
188.339288
0
LINE
8
0
10
82.285182
20
188.339288
11
82.777197
21
188.239002
0
LINE
8
0
10
82.777197
20
188.239002
11
83.269582
21
188.337458
0
LINE
8
0
10
83.269582
20
188.337458
11
83.672021
21
188.607703
0
LINE
8
0
10
83.672021
20
188.607703
11
83.943761
21
189.009135
0
LINE
8
0
10
83.943761
20
189.009135
11
84.044046
21
189.501150
0
LINE
8
0
10
84.044046
20
189.501150
11
83.945591
21
189.993534
0
LINE
8
0
10
83.945591
20
189.993534
11
83.675346
21
190.395973
0
LINE
8
0
10
83.675346
20
190.395973
11
83.273915
21
190.667713
0
LINE
8
0
10
83.273915
20
190.667713
11
82.781900
21
190.767999
0
LINE
8
0
10
82.781900
20
190.767999
11
82.781900
21
190.768000
0
LINE
8
0
10
82.660400
20
125.454000
11
82.168016
21
125.355544
0
LINE
8
0
10
82.168016
20
125.355544
11
81.765576
21
125.085298
0
LINE
8
0
10
81.765576
20
125.085298
11
81.493837
21
124.683866
0
LINE
8
0
10
81.493837
20
124.683866
11
81.393551
21
124.191851
0
LINE
8
0
10
81.393551
20
124.191851
11
81.492006
21
123.699467
0
LINE
8
0
10
81.492006
20
123.699467
11
81.762251
21
123.297028
0
LINE
8
0
10
81.762251
20
123.297028
11
82.163682
21
123.025288
0
LINE
8
0
10
82.163682
20
123.025288
11
82.655697
21
122.925002
0
LINE
8
0
10
82.655697
20
122.925002
11
83.288261
21
123.093238
0
LINE
8
0
10
83.288261
20
123.093238
11
83.751960
21
123.555216
0
LINE
8
0
10
83.751960
20
123.555216
11
83.922546
21
124.187150
0
LINE
8
0
10
83.922546
20
124.187150
11
83.754312
21
124.819714
0
LINE
8
0
10
83.754312
20
124.819714
11
83.292334
21
125.283413
0
LINE
8
0
10
83.292334
20
125.283413
11
82.660400
21
125.453999
0
LINE
8
0
10
82.660400
20
125.453999
11
82.660400
21
125.454000
0
LINE
8
0
10
17.467300
20
190.890000
11
16.974916
21
190.791544
0
LINE
8
0
10
16.974916
20
190.791544
11
16.572476
21
190.521298
0
LINE
8
0
10
16.572476
20
190.521298
11
16.300737
21
190.119866
0
LINE
8
0
10
16.300737
20
190.119866
11
16.200451
21
189.627851
0
LINE
8
0
10
16.200451
20
189.627851
11
16.298906
21
189.135467
0
LINE
8
0
10
16.298906
20
189.135467
11
16.569151
21
188.733028
0
LINE
8
0
10
16.569151
20
188.733028
11
16.970582
21
188.461288
0
LINE
8
0
10
16.970582
20
188.461288
11
17.462597
21
188.361002
0
LINE
8
0
10
17.462597
20
188.361002
11
17.954982
21
188.459458
0
LINE
8
0
10
17.954982
20
188.459458
11
18.357421
21
188.729703
0
LINE
8
0
10
18.357421
20
188.729703
11
18.629161
21
189.131135
0
LINE
8
0
10
18.629161
20
189.131135
11
18.729446
21
189.623150
0
LINE
8
0
10
18.729446
20
189.623150
11
18.630991
21
190.115534
0
LINE
8
0
10
18.630991
20
190.115534
11
18.360746
21
190.517973
0
LINE
8
0
10
18.360746
20
190.517973
11
17.959315
21
190.789713
0
LINE
8
0
10
17.959315
20
190.789713
11
17.467300
21
190.889999
0
LINE
8
0
10
17.467300
20
190.889999
11
17.467300
21
190.890000
0
LINE
8
0
10
17.345800
20
125.575000
11
16.853416
21
125.476544
0
LINE
8
0
10
16.853416
20
125.476544
11
16.450976
21
125.206298
0
LINE
8
0
10
16.450976
20
125.206298
11
16.179237
21
124.804866
0
LINE
8
0
10
16.179237
20
124.804866
11
16.078951
21
124.312851
0
LINE
8
0
10
16.078951
20
124.312851
11
16.177406
21
123.820467
0
LINE
8
0
10
16.177406
20
123.820467
11
16.447651
21
123.418028
0
LINE
8
0
10
16.447651
20
123.418028
11
16.849082
21
123.146288
0
LINE
8
0
10
16.849082
20
123.146288
11
17.341097
21
123.046002
0
LINE
8
0
10
17.341097
20
123.046002
11
17.973661
21
123.214238
0
LINE
8
0
10
17.973661
20
123.214238
11
18.437360
21
123.676216
0
LINE
8
0
10
18.437360
20
123.676216
11
18.607946
21
124.308150
0
LINE
8
0
10
18.607946
20
124.308150
11
18.439712
21
124.940714
0
LINE
8
0
10
18.439712
20
124.940714
11
17.977734
21
125.404413
0
LINE
8
0
10
17.977734
20
125.404413
11
17.345800
21
125.574999
0
LINE
8
0
10
17.345800
20
125.574999
11
17.345800
21
125.575000
0
LINE
8
0
10
121.369000
20
268.087000
11
120.876616
21
267.988544
0
LINE
8
0
10
120.876616
20
267.988544
11
120.474176
21
267.718298
0
LINE
8
0
10
120.474176
20
267.718298
11
120.202437
21
267.316866
0
LINE
8
0
10
120.202437
20
267.316866
11
120.102151
21
266.824851
0
LINE
8
0
10
120.102151
20
266.824851
11
120.200606
21
266.332467
0
LINE
8
0
10
120.200606
20
266.332467
11
120.470851
21
265.930028
0
LINE
8
0
10
120.470851
20
265.930028
11
120.872282
21
265.658288
0
LINE
8
0
10
120.872282
20
265.658288
11
121.364297
21
265.558002
0
LINE
8
0
10
121.364297
20
265.558002
11
121.996861
21
265.726238
0
LINE
8
0
10
121.996861
20
265.726238
11
122.460560
21
266.188216
0
LINE
8
0
10
122.460560
20
266.188216
11
122.631146
21
266.820150
0
LINE
8
0
10
122.631146
20
266.820150
11
122.462912
21
267.452714
0
LINE
8
0
10
122.462912
20
267.452714
11
122.000934
21
267.916413
0
LINE
8
0
10
122.000934
20
267.916413
11
121.369000
21
268.086999
0
LINE
8
0
10
121.369000
20
268.086999
11
121.369000
21
268.087000
0
LINE
8
0
10
17.855700
20
285.109000
11
17.363316
21
285.010544
0
LINE
8
0
10
17.363316
20
285.010544
11
16.960876
21
284.740298
0
LINE
8
0
10
16.960876
20
284.740298
11
16.689137
21
284.338866
0
LINE
8
0
10
16.689137
20
284.338866
11
16.588851
21
283.846851
0
LINE
8
0
10
16.588851
20
283.846851
11
16.687306
21
283.354467
0
LINE
8
0
10
16.687306
20
283.354467
11
16.957551
21
282.952028
0
LINE
8
0
10
16.957551
20
282.952028
11
17.358982
21
282.680288
0
LINE
8
0
10
17.358982
20
282.680288
11
17.850997
21
282.580002
0
LINE
8
0
10
17.850997
20
282.580002
11
18.483561
21
282.748238
0
LINE
8
0
10
18.483561
20
282.748238
11
18.947260
21
283.210216
0
LINE
8
0
10
18.947260
20
283.210216
11
19.117846
21
283.842150
0
LINE
8
0
10
19.117846
20
283.842150
11
18.949612
21
284.474714
0
LINE
8
0
10
18.949612
20
284.474714
11
18.487634
21
284.938413
0
LINE
8
0
10
18.487634
20
284.938413
11
17.855700
21
285.108999
0
LINE
8
0
10
17.855700
20
285.108999
11
17.855700
21
285.109000
0
LINE
8
0
10
83.116100
20
226.527000
11
83.207300
21
275.551000
0
LINE
8
0
10
83.207300
20
275.551000
11
83.045564
21
277.217316
0
LINE
8
0
10
83.045564
20
277.217316
11
82.566324
21
278.805009
0
LINE
8
0
10
82.566324
20
278.805009
11
81.787969
21
280.269454
0
LINE
8
0
10
81.787969
20
280.269454
11
80.728884
21
281.566030
0
LINE
8
0
10
80.728884
20
281.566030
11
79.436255
21
282.629927
0
LINE
8
0
10
79.436255
20
282.629927
11
77.974713
21
283.413722
0
LINE
8
0
10
77.974713
20
283.413722
11
76.388813
21
283.898860
0
LINE
8
0
10
76.388813
20
283.898860
11
74.723110
21
284.066790
0
LINE
8
0
10
74.723110
20
284.066790
11
25.723100
21
284.158000
0
LINE
8
0
10
25.723100
20
284.158000
11
24.056784
21
283.996266
0
LINE
8
0
10
24.056784
20
283.996266
11
22.469090
21
283.517028
0
LINE
8
0
10
22.469090
20
283.517028
11
21.004644
21
282.738675
0
LINE
8
0
10
21.004644
20
282.738675
11
19.708067
21
281.679591
0
LINE
8
0
10
19.708067
20
281.679591
11
18.644168
21
280.386964
0
LINE
8
0
10
18.644168
20
280.386964
11
17.860372
21
278.925423
0
LINE
8
0
10
17.860372
20
278.925423
11
17.375232
21
277.339523
0
LINE
8
0
10
17.375232
20
277.339523
11
17.207300
21
275.673820
0
LINE
8
0
10
17.207300
20
275.673820
11
17.116200
21
226.649000
0
LINE
8
0
10
17.116200
20
226.649000
11
17.277936
21
224.982684
0
LINE
8
0
10
17.277936
20
224.982684
11
17.757176
21
223.394991
0
LINE
8
0
10
17.757176
20
223.394991
11
18.535531
21
221.930546
0
LINE
8
0
10
18.535531
20
221.930546
11
19.594616
21
220.633970
0
LINE
8
0
10
19.594616
20
220.633970
11
20.887245
21
219.570073
0
LINE
8
0
10
20.887245
20
219.570073
11
22.348787
21
218.786278
0
LINE
8
0
10
22.348787
20
218.786278
11
23.934687
21
218.301140
0
LINE
8
0
10
23.934687
20
218.301140
11
25.600390
21
218.133210
0
LINE
8
0
10
25.600390
20
218.133210
11
74.600300
21
218.042000
0
LINE
8
0
10
74.600300
20
218.042000
11
76.266616
21
218.203734
0
LINE
8
0
10
76.266616
20
218.203734
11
77.854310
21
218.682972
0
LINE
8
0
10
77.854310
20
218.682972
11
79.318756
21
219.461325
0
LINE
8
0
10
79.318756
20
219.461325
11
80.615333
21
220.520409
0
LINE
8
0
10
80.615333
20
220.520409
11
81.679232
21
221.813036
0
LINE
8
0
10
81.679232
20
221.813036
11
82.463028
21
223.274577
0
LINE
8
0
10
82.463028
20
223.274577
11
82.948168
21
224.860477
0
LINE
8
0
10
82.948168
20
224.860477
11
83.116100
21
226.526180
0
LINE
8
0
10
83.116100
20
226.526180
11
83.116100
21
226.527000
0
LINE
8
0
10
121.134000
20
237.966000
11
120.641616
21
237.867544
0
LINE
8
0
10
120.641616
20
237.867544
11
120.239176
21
237.597298
0
LINE
8
0
10
120.239176
20
237.597298
11
119.967437
21
237.195866
0
LINE
8
0
10
119.967437
20
237.195866
11
119.867151
21
236.703851
0
LINE
8
0
10
119.867151
20
236.703851
11
119.965606
21
236.211467
0
LINE
8
0
10
119.965606
20
236.211467
11
120.235851
21
235.809028
0
LINE
8
0
10
120.235851
20
235.809028
11
120.637282
21
235.537288
0
LINE
8
0
10
120.637282
20
235.537288
11
121.129297
21
235.437002
0
LINE
8
0
10
121.129297
20
235.437002
11
121.761861
21
235.605238
0
LINE
8
0
10
121.761861
20
235.605238
11
122.225560
21
236.067216
0
LINE
8
0
10
122.225560
20
236.067216
11
122.396146
21
236.699150
0
LINE
8
0
10
122.396146
20
236.699150
11
122.227912
21
237.331714
0
LINE
8
0
10
122.227912
20
237.331714
11
121.765934
21
237.795413
0
LINE
8
0
10
121.765934
20
237.795413
11
121.134000
21
237.965999
0
LINE
8
0
10
121.134000
20
237.965999
11
121.134000
21
237.966000
0
LINE
8
0
10
121.146000
20
244.701000
11
121.298221
21
243.132700
0
LINE
8
0
10
121.298221
20
243.132700
11
121.749270
21
241.638398
0
LINE
8
0
10
121.749270
20
241.638398
11
122.481840
21
240.260094
0
LINE
8
0
10
122.481840
20
240.260094
11
123.478627
21
239.039786
0
LINE
8
0
10
123.478627
20
239.039786
11
124.695221
21
238.038470
0
LINE
8
0
10
124.695221
20
238.038470
11
126.070792
21
237.300781
0
LINE
8
0
10
126.070792
20
237.300781
11
127.563407
21
236.844180
0
LINE
8
0
10
127.563407
20
236.844180
11
129.131130
21
236.686130
0
LINE
8
0
10
129.131130
20
236.686130
11
178.131000
21
236.595000
0
LINE
8
0
10
178.131000
20
236.595000
11
179.743578
21
236.754534
0
LINE
8
0
10
179.743578
20
236.754534
11
181.246124
21
237.217889
0
LINE
8
0
10
181.246124
20
237.217889
11
182.606408
21
237.952955
0
LINE
8
0
10
182.606408
20
237.952955
11
183.792200
21
238.927623
0
LINE
8
0
10
183.792200
20
238.927623
11
184.771271
21
240.109783
0
LINE
8
0
10
184.771271
20
240.109783
11
185.511391
21
241.467324
0
LINE
8
0
10
185.511391
20
241.467324
11
185.980331
21
242.968136
0
LINE
8
0
10
185.980331
20
242.968136
11
186.145860
21
244.580110
0
LINE
8
0
10
186.145860
20
244.580110
11
186.172000
21
258.580000
0
LINE
8
0
10
186.172000
20
258.580000
11
186.019779
21
260.148298
0
LINE
8
0
10
186.019779
20
260.148298
11
185.568732
21
261.642597
0
LINE
8
0
10
185.568732
20
261.642597
11
184.836164
21
263.020899
0
LINE
8
0
10
184.836164
20
263.020899
11
183.839380
21
264.241207
0
LINE
8
0
10
183.839380
20
264.241207
11
182.622789
21
265.242523
0
LINE
8
0
10
182.622789
20
265.242523
11
181.247222
21
265.980214
0
LINE
8
0
10
181.247222
20
265.980214
11
179.754610
21
266.436816
0
LINE
8
0
10
179.754610
20
266.436816
11
178.186890
21
266.594870
0
LINE
8
0
10
178.186890
20
266.594870
11
129.187000
21
266.686000
0
LINE
8
0
10
129.187000
20
266.686000
11
127.618700
21
266.533783
0
LINE
8
0
10
127.618700
20
266.533783
11
126.124397
21
266.082738
0
LINE
8
0
10
126.124397
20
266.082738
11
124.746091
21
265.350171
0
LINE
8
0
10
124.746091
20
265.350171
11
123.525781
21
264.353387
0
LINE
8
0
10
123.525781
20
264.353387
11
122.524461
21
263.136796
0
LINE
8
0
10
122.524461
20
263.136796
11
121.786768
21
261.761226
0
LINE
8
0
10
121.786768
20
261.761226
11
121.330164
21
260.268613
0
LINE
8
0
10
121.330164
20
260.268613
11
121.172110
21
258.700890
0
LINE
8
0
10
121.172110
20
258.700890
11
121.146000
21
244.701000
0
LINE
8
0
10
186.190000
20
267.845000
11
185.697616
21
267.746544
0
LINE
8
0
10
185.697616
20
267.746544
11
185.295176
21
267.476298
0
LINE
8
0
10
185.295176
20
267.476298
11
185.023437
21
267.074866
0
LINE
8
0
10
185.023437
20
267.074866
11
184.923151
21
266.582851
0
LINE
8
0
10
184.923151
20
266.582851
11
185.021606
21
266.090467
0
LINE
8
0
10
185.021606
20
266.090467
11
185.291851
21
265.688028
0
LINE
8
0
10
185.291851
20
265.688028
11
185.693282
21
265.416288
0
LINE
8
0
10
185.693282
20
265.416288
11
186.185297
21
265.316002
0
LINE
8
0
10
186.185297
20
265.316002
11
186.817861
21
265.484238
0
LINE
8
0
10
186.817861
20
265.484238
11
187.281560
21
265.946216
0
LINE
8
0
10
187.281560
20
265.946216
11
187.452146
21
266.578150
0
LINE
8
0
10
187.452146
20
266.578150
11
187.283912
21
267.210714
0
LINE
8
0
10
187.283912
20
267.210714
11
186.821934
21
267.674413
0
LINE
8
0
10
186.821934
20
267.674413
11
186.190000
21
267.844999
0
LINE
8
0
10
186.190000
20
267.844999
11
186.190000
21
267.845000
0
LINE
8
0
10
186.134000
20
237.845000
11
185.641616
21
237.746544
0
LINE
8
0
10
185.641616
20
237.746544
11
185.239176
21
237.476298
0
LINE
8
0
10
185.239176
20
237.476298
11
184.967437
21
237.074866
0
LINE
8
0
10
184.967437
20
237.074866
11
184.867151
21
236.582851
0
LINE
8
0
10
184.867151
20
236.582851
11
184.965606
21
236.090467
0
LINE
8
0
10
184.965606
20
236.090467
11
185.235851
21
235.688028
0
LINE
8
0
10
185.235851
20
235.688028
11
185.637282
21
235.416288
0
LINE
8
0
10
185.637282
20
235.416288
11
186.129297
21
235.316002
0
LINE
8
0
10
186.129297
20
235.316002
11
186.761861
21
235.484238
0
LINE
8
0
10
186.761861
20
235.484238
11
187.225560
21
235.946216
0
LINE
8
0
10
187.225560
20
235.946216
11
187.396146
21
236.578150
0
LINE
8
0
10
187.396146
20
236.578150
11
187.227912
21
237.210714
0
LINE
8
0
10
187.227912
20
237.210714
11
186.765934
21
237.674413
0
LINE
8
0
10
186.765934
20
237.674413
11
186.134000
21
237.844999
0
LINE
8
0
10
186.134000
20
237.844999
11
186.134000
21
237.845000
0
LINE
8
0
10
184.499000
20
182.399000
11
184.006616
21
182.300544
0
LINE
8
0
10
184.006616
20
182.300544
11
183.604176
21
182.030298
0
LINE
8
0
10
183.604176
20
182.030298
11
183.332437
21
181.628866
0
LINE
8
0
10
183.332437
20
181.628866
11
183.232151
21
181.136851
0
LINE
8
0
10
183.232151
20
181.136851
11
183.330606
21
180.644467
0
LINE
8
0
10
183.330606
20
180.644467
11
183.600851
21
180.242028
0
LINE
8
0
10
183.600851
20
180.242028
11
184.002282
21
179.970288
0
LINE
8
0
10
184.002282
20
179.970288
11
184.494297
21
179.870002
0
LINE
8
0
10
184.494297
20
179.870002
11
185.126861
21
180.038238
0
LINE
8
0
10
185.126861
20
180.038238
11
185.590560
21
180.500216
0
LINE
8
0
10
185.590560
20
180.500216
11
185.761146
21
181.132150
0
LINE
8
0
10
185.761146
20
181.132150
11
185.592912
21
181.764714
0
LINE
8
0
10
185.592912
20
181.764714
11
185.130934
21
182.228413
0
LINE
8
0
10
185.130934
20
182.228413
11
184.499000
21
182.398999
0
LINE
8
0
10
184.499000
20
182.398999
11
184.499000
21
182.399000
0
LINE
8
0
10
125.199000
20
182.510000
11
124.706616
21
182.411544
0
LINE
8
0
10
124.706616
20
182.411544
11
124.304176
21
182.141298
0
LINE
8
0
10
124.304176
20
182.141298
11
124.032437
21
181.739866
0
LINE
8
0
10
124.032437
20
181.739866
11
123.932151
21
181.247851
0
LINE
8
0
10
123.932151
20
181.247851
11
124.030606
21
180.755467
0
LINE
8
0
10
124.030606
20
180.755467
11
124.300851
21
180.353028
0
LINE
8
0
10
124.300851
20
180.353028
11
124.702282
21
180.081288
0
LINE
8
0
10
124.702282
20
180.081288
11
125.194297
21
179.981002
0
LINE
8
0
10
125.194297
20
179.981002
11
125.686682
21
180.079458
0
LINE
8
0
10
125.686682
20
180.079458
11
126.089121
21
180.349703
0
LINE
8
0
10
126.089121
20
180.349703
11
126.360861
21
180.751135
0
LINE
8
0
10
126.360861
20
180.751135
11
126.461146
21
181.243150
0
LINE
8
0
10
126.461146
20
181.243150
11
126.362691
21
181.735534
0
LINE
8
0
10
126.362691
20
181.735534
11
126.092446
21
182.137973
0
LINE
8
0
10
126.092446
20
182.137973
11
125.691015
21
182.409713
0
LINE
8
0
10
125.691015
20
182.409713
11
125.199000
21
182.509999
0
LINE
8
0
10
125.199000
20
182.509999
11
125.199000
21
182.510000
0
LINE
8
0
10
184.410000
20
134.598000
11
183.777436
21
134.429763
0
LINE
8
0
10
183.777436
20
134.429763
11
183.313737
21
133.967785
0
LINE
8
0
10
183.313737
20
133.967785
11
183.143151
21
133.335851
0
LINE
8
0
10
183.143151
20
133.335851
11
183.311386
21
132.703288
0
LINE
8
0
10
183.311386
20
132.703288
11
183.773363
21
132.239588
0
LINE
8
0
10
183.773363
20
132.239588
11
184.405297
21
132.069002
0
LINE
8
0
10
184.405297
20
132.069002
11
184.897682
21
132.167458
0
LINE
8
0
10
184.897682
20
132.167458
11
185.300121
21
132.437703
0
LINE
8
0
10
185.300121
20
132.437703
11
185.571861
21
132.839135
0
LINE
8
0
10
185.571861
20
132.839135
11
185.672146
21
133.331150
0
LINE
8
0
10
185.672146
20
133.331150
11
185.573691
21
133.823534
0
LINE
8
0
10
185.573691
20
133.823534
11
185.303446
21
134.225973
0
LINE
8
0
10
185.303446
20
134.225973
11
184.902015
21
134.497713
0
LINE
8
0
10
184.902015
20
134.497713
11
184.410000
21
134.597999
0
LINE
8
0
10
184.410000
20
134.597999
11
184.410000
21
134.598000
0
LINE
8
0
10
179.210000
20
133.869000
11
180.327709
21
134.389345
0
LINE
8
0
10
180.327709
20
134.389345
11
181.335146
21
135.062137
0
LINE
8
0
10
181.335146
20
135.062137
11
182.220461
21
135.870311
0
LINE
8
0
10
182.220461
20
135.870311
11
182.971805
21
136.796799
0
LINE
8
0
10
182.971805
20
136.796799
11
183.577326
21
137.824535
0
LINE
8
0
10
183.577326
20
137.824535
11
184.025176
21
138.936452
0
LINE
8
0
10
184.025176
20
138.936452
11
184.303504
21
140.115482
0
LINE
8
0
10
184.303504
20
140.115482
11
184.400460
21
141.344560
0
LINE
8
0
10
184.400460
20
141.344560
11
184.460000
21
173.135000
0
LINE
8
0
10
184.460000
20
173.135000
11
184.307779
21
174.703298
0
LINE
8
0
10
184.307779
20
174.703298
11
183.856732
21
176.197597
0
LINE
8
0
10
183.856732
20
176.197597
11
183.124164
21
177.575899
0
LINE
8
0
10
183.124164
20
177.575899
11
182.127380
21
178.796207
0
LINE
8
0
10
182.127380
20
178.796207
11
180.910789
21
179.797523
0
LINE
8
0
10
180.910789
20
179.797523
11
179.535222
21
180.535214
0
LINE
8
0
10
179.535222
20
180.535214
11
178.042610
21
180.991816
0
LINE
8
0
10
178.042610
20
180.991816
11
176.474890
21
181.149870
0
LINE
8
0
10
176.474890
20
181.149870
11
133.175000
21
181.230000
0
LINE
8
0
10
133.175000
20
181.230000
11
131.672584
21
181.091574
0
LINE
8
0
10
131.672584
20
181.091574
11
130.259508
21
180.687126
0
LINE
8
0
10
130.259508
20
180.687126
11
128.963390
21
180.041482
0
LINE
8
0
10
128.963390
20
180.041482
11
127.811846
21
179.179466
0
LINE
8
0
10
127.811846
20
179.179466
11
126.832491
21
178.125905
0
LINE
8
0
10
126.832491
20
178.125905
11
126.052943
21
176.905625
0
LINE
8
0
10
126.052943
20
176.905625
11
125.500817
21
175.543452
0
LINE
8
0
10
125.500817
20
175.543452
11
125.203730
21
174.064210
0
LINE
8
0
10
125.203730
20
174.064210
11
125.143000
21
141.471000
0
LINE
8
0
10
125.143000
20
141.471000
11
125.295221
21
139.902700
0
LINE
8
0
10
125.295221
20
139.902700
11
125.746270
21
138.408398
0
LINE
8
0
10
125.746270
20
138.408398
11
126.478840
21
137.030094
0
LINE
8
0
10
126.478840
20
137.030094
11
127.475627
21
135.809786
0
LINE
8
0
10
127.475627
20
135.809786
11
128.692221
21
134.808470
0
LINE
8
0
10
128.692221
20
134.808470
11
130.067792
21
134.070781
0
LINE
8
0
10
130.067792
20
134.070781
11
131.560407
21
133.614180
0
LINE
8
0
10
131.560407
20
133.614180
11
133.128130
21
133.456130
0
LINE
8
0
10
133.128130
20
133.456130
11
176.428000
21
133.376000
0
LINE
8
0
10
176.428000
20
133.376000
11
177.841130
21
133.499128
0
LINE
8
0
10
177.841130
20
133.499128
11
179.210300
21
133.869897
0
LINE
8
0
10
179.210300
20
133.869897
11
179.210000
21
133.869000
0
LINE
8
0
10
125.110000
20
134.708000
11
124.617616
21
134.609544
0
LINE
8
0
10
124.617616
20
134.609544
11
124.215176
21
134.339298
0
LINE
8
0
10
124.215176
20
134.339298
11
123.943437
21
133.937866
0
LINE
8
0
10
123.943437
20
133.937866
11
123.843151
21
133.445851
0
LINE
8
0
10
123.843151
20
133.445851
11
123.941606
21
132.953467
0
LINE
8
0
10
123.941606
20
132.953467
11
124.211851
21
132.551028
0
LINE
8
0
10
124.211851
20
132.551028
11
124.613282
21
132.279288
0
LINE
8
0
10
124.613282
20
132.279288
11
125.105297
21
132.179002
0
LINE
8
0
10
125.105297
20
132.179002
11
125.737861
21
132.347238
0
LINE
8
0
10
125.737861
20
132.347238
11
126.201560
21
132.809216
0
LINE
8
0
10
126.201560
20
132.809216
11
126.372146
21
133.441150
0
LINE
8
0
10
126.372146
20
133.441150
11
126.203912
21
134.073714
0
LINE
8
0
10
126.203912
20
134.073714
11
125.741934
21
134.537413
0
LINE
8
0
10
125.741934
20
134.537413
11
125.110000
21
134.707999
0
LINE
8
0
10
125.110000
20
134.707999
11
125.110000
21
134.708000
 0 
ENDSEC
 0 
EOF