<?xml version="1.0" encoding="UTF-8" standalone="no"?>
<!-- Created with Inkscape (http://www.inkscape.org/) -->

<svg
   width="90mm"
   height="305mm"
   viewBox="0 0 90 305"
   version="1.1"
   id="svg5"
   xml:space="preserve"
   inkscape:version="1.2.2 (b0a8486541, 2022-12-01)"
   sodipodi:docname="chassisRearTemplate.svg"
   xmlns:inkscape="http://www.inkscape.org/namespaces/inkscape"
   xmlns:sodipodi="http://sodipodi.sourceforge.net/DTD/sodipodi-0.dtd"
   xmlns="http://www.w3.org/2000/svg"
   xmlns:svg="http://www.w3.org/2000/svg"><sodipodi:namedview
     id="namedview7"
     pagecolor="#ffffff"
     bordercolor="#000000"
     borderopacity="0.25"
     inkscape:showpageshadow="2"
     inkscape:pageopacity="0.0"
     inkscape:pagecheckerboard="0"
     inkscape:deskcolor="#d1d1d1"
     inkscape:document-units="mm"
     showgrid="false"
     inkscape:zoom="0.37282197"
     inkscape:cx="388.92558"
     inkscape:cy="351.37414"
     inkscape:window-width="1920"
     inkscape:window-height="1017"
     inkscape:window-x="-8"
     inkscape:window-y="-8"
     inkscape:window-maximized="1"
     inkscape:current-layer="layer1" /><defs
     id="defs2"><marker
       id="DistanceX"
       orient="auto"
       refX="0"
       refY="0"
       style="overflow:visible"><path
         d="M 3,-3 -3,3 M 0,-5 V 5"
         style="stroke:#000000;stroke-width:0.5"
         id="path134" /></marker><pattern
       id="Hatch"
       patternUnits="userSpaceOnUse"
       width="8"
       height="8"
       x="0"
       y="0"><path
         d="M8 4 l-4,4"
         stroke="#000000"
         stroke-width="0.25"
         linecap="square"
         id="path137" /><path
         d="M6 2 l-4,4"
         stroke="#000000"
         stroke-width="0.25"
         linecap="square"
         id="path139" /><path
         d="M4 0 l-4,4"
         stroke="#000000"
         stroke-width="0.25"
         linecap="square"
         id="path141" /></pattern><symbol
       id="*MODEL_SPACE" /><symbol
       id="*PAPER_SPACE" /></defs><g
     inkscape:label="Layer 1"
     inkscape:groupmode="layer"
     id="layer1"><g
       inkscape:label="0"
       id="g192"
       transform="matrix(-7.5616962e-4,-0.26458225,0.26458225,-7.5616962e-4,-382.47302,203.45094)"><path
         d="m 0.25,1576.063 a 0.25,0.25 0 0 0 -0.5,0 0.25,0.25 0 0 0 0.5,0 z"
         style="fill:none;stroke:#000000"
         id="path148" /><path
         d="m 288.72106,1743.0549 a 4.779215,4.779215 0 0 0 -9.55843,0 4.779215,4.779215 0 0 0 9.55843,0 z"
         style="fill:none;stroke:#000000"
         id="path150" /><path
         d="m -313.23285,1534.135 a 30.23622,30.23622 0 0 0 -1.88625,10.5123 v 163.6536 a 30.23622,30.23622 0 0 0 30.23622,30.2362 h 123.18789 a 30.23622,30.23622 0 0 0 27.13925,-30.0772 v -163.6535 a 30.23622,30.23622 0 0 0 -30.23622,-30.2363 h -120.1504 a 30.23622,30.23622 0 0 0 -28.29049,19.5649 z"
         style="fill:none;stroke:#000000"
         id="path152" /><path
         d="m 174.42355,1526.3213 a 30.23622,30.23622 0 0 0 -30.23622,-30.2362 H -44.03314 a 30.23622,30.23622 0 0 0 -30.23622,30.2362 v 188.2205 a 30.23622,30.23622 0 0 0 30.23622,30.2362 h 188.22047 a 30.23622,30.23622 0 0 0 30.23622,-30.2362 z"
         style="fill:none;stroke:#000000"
         id="path154" /><path
         d="m -129.77653,1514.4877 a 4.779213,4.779213 0 0 0 -9.55842,0 4.779213,4.779213 0 0 0 9.55842,0 z"
         style="fill:none;stroke:#000000"
         id="path156" /><path
         d="m 288.02719,1497.9273 a 4.779213,4.779213 0 0 0 -9.55842,0 4.779213,4.779213 0 0 0 9.55842,0 z"
         style="fill:none;stroke:#000000"
         id="path158" /><path
         d="m 281.31108,1528.1164 v 185.1969 a 32.125984,32.125984 0 0 0 32.12598,32.1259 h 185.29113 a 32.125984,32.125984 0 0 0 32.12598,-32.1259 v -185.1969 a 32.125984,32.125984 0 0 0 -32.12598,-32.126 H 313.43706 a 32.125984,32.125984 0 0 0 -32.12598,32.126 z"
         style="fill:none;stroke:#000000"
         id="path160" /><path
         d="m 589.29745,1715.5314 a 30.23622,30.23622 0 0 0 30.23622,30.2362 h 52.91338 a 30.23622,30.23622 0 0 0 30.23622,-30.2362 v -185.1969 a 30.23622,30.23622 0 0 0 -30.23622,-30.2362 h -52.91338 a 30.23622,30.23622 0 0 0 -30.23622,30.2362 z"
         style="fill:none;stroke:#000000"
         id="path162" /><path
         d="m 533.69648,1497.9273 a 4.779213,4.779213 0 0 0 -9.55842,0 4.779213,4.779213 0 0 0 9.55842,0 z"
         style="fill:none;stroke:#000000"
         id="path164" /><path
         d="m 534.39035,1743.0549 a 4.779215,4.779215 0 0 0 -9.55843,0 4.779215,4.779215 0 0 0 9.55843,0 z"
         style="fill:none;stroke:#000000"
         id="path166" /><path
         d="m 707.46249,1500.0983 a 4.779215,4.779215 0 0 0 -9.55843,0 4.779215,4.779215 0 0 0 9.55843,0 z"
         style="fill:none;stroke:#000000"
         id="path168" /><path
         d="m 594.07666,1745.7676 a 4.779215,4.779215 0 0 0 -9.55843,0 4.779215,4.779215 0 0 0 9.55843,0 z"
         style="fill:none;stroke:#000000"
         id="path170" /><path
         d="m 594.07666,1500.0983 a 4.779215,4.779215 0 0 0 -9.55843,0 4.779215,4.779215 0 0 0 9.55843,0 z"
         style="fill:none;stroke:#000000"
         id="path172" /><path
         d="m 707.9241,1745.0916 a 4.779213,4.779213 0 0 0 -9.55842,0 4.779213,4.779213 0 0 0 9.55842,0 z"
         style="fill:none;stroke:#000000"
         id="path174" /><path
         d="m 178.2857,1497.0022 a 4.779215,4.779215 0 0 0 -9.55843,0 4.779215,4.779215 0 0 0 9.55843,0 z"
         style="fill:none;stroke:#000000"
         id="path176" /><path
         d="m -310.44403,1514.4877 a 4.779213,4.779213 0 0 0 -9.55842,0 4.779213,4.779213 0 0 0 9.55842,0 z"
         style="fill:none;stroke:#000000"
         id="path178" /><path
         d="m -68.57308,1743.8609 a 4.779213,4.779213 0 0 0 -9.558426,0 4.779213,4.779213 0 0 0 9.558426,0 z"
         style="fill:none;stroke:#000000"
         id="path180" /><path
         d="m -310.44403,1738.6137 a 4.779213,4.779213 0 0 0 -9.55842,0 4.779213,4.779213 0 0 0 9.55842,0 z"
         style="fill:none;stroke:#000000"
         id="path182" /><path
         d="m 178.2857,1743.8609 a 4.779215,4.779215 0 0 0 -9.55843,0 4.779215,4.779215 0 0 0 9.55843,0 z"
         style="fill:none;stroke:#000000"
         id="path184" /><path
         d="m -129.77653,1738.6137 a 4.779213,4.779213 0 0 0 -9.55842,0 4.779213,4.779213 0 0 0 9.55842,0 z"
         style="fill:none;stroke:#000000"
         id="path186" /><path
         d="m -68.57308,1497.0022 a 4.779213,4.779213 0 0 0 -9.558426,0 4.779213,4.779213 0 0 0 9.558426,0 z"
         style="fill:none;stroke:#000000"
         id="path188" /><path
         d="M -377.95276,1778.2428 H 755.90551 V 1462.6772 H -377.95276 Z"
         style="fill:none;stroke:#000000"
         id="path190" /></g></g></svg>
