0
SECTION
2
HEADER
9
$INSUNITS
70
4
9
$ACADVER
1
AC1014
9
$HANDSEED
5
FFFF
0
ENDSEC
0
SECTION
2
TABLES
0
TABLE
2
VPORT
5
8
100
AcDbSymbolTable
0
ENDTAB
0
TABLE
2
LTYPE
5
5
100
AcDbSymbolTable
0
LTYPE
5
14
100
AcDbSymbolTableRecord
100
AcDbLinetypeTableRecord
2
BYBLOCK
70
0
0
LTYPE
5
15
100
AcDbSymbolTableRecord
100
AcDbLinetypeTableRecord
2
BYLAYER
70
0
0
LTYPE
5
16
100
AcDbSymbolTableRecord
100
AcDbLinetypeTableRecord
2
DASHED
70
0
3
Dashed __ __ __ __ __ __ __ __ __ __ __ __ __ _
72
65
73
2
40
0.75
49
0.5
74
0
49
-0.25
74
0
0
ENDTAB
0
TABLE
2
LAYER
5
2
100
AcDbSymbolTable
70
2
0
LAYER
5
50
100
AcDbSymbolTableRecord
100
AcDbLayerTableRecord
2
0
70
0
62
7
6
CONTINUOUS
0
ENDTAB
0
TABLE
2
STYLE
5
3
100
AcDbSymbolTable
70
1
0
STYLE
5
11
100
AcDbSymbolTableRecord
100
AcDbTextStyleTableRecord
2
STANDARD
70
0
0
ENDTAB
0
TABLE
2
VIEW
5
6
100
AcDbSymbolTable
70
0
0
ENDTAB
0
TABLE
2
UCS
5
7
100
AcDbSymbolTable
70
0
0
ENDTAB
0
TABLE
2
APPID
5
9
100
AcDbSymbolTable
70
2
0
APPID
5
12
100
AcDbSymbolTableRecord
100
AcDbRegAppTableRecord
2
ACAD
70
0
0
ENDTAB
0
TABLE
2
DIMSTYLE
5
A
100
AcDbSymbolTable
70
1
0
ENDTAB
0
TABLE
2
BLOCK_RECORD
5
1
100
AcDbSymbolTable
70
1
0
BLOCK_RECORD
5
1F
100
AcDbSymbolTableRecord
100
AcDbBlockTableRecord
2
*MODEL_SPACE
0
BLOCK_RECORD
5
1B
100
AcDbSymbolTableRecord
100
AcDbBlockTableRecord
2
*PAPER_SPACE
0
ENDTAB
0
ENDSEC
0
SECTION
2
BLOCKS
0
BLOCK
5
20
100
AcDbEntity
100
AcDbBlockBegin
2
*MODEL_SPACE
0
ENDBLK
5
21
100
AcDbEntity
100
AcDbBlockEnd
0
BLOCK
5
1C
100
AcDbEntity
100
AcDbBlockBegin
2
*PAPER_SPACE
0
ENDBLK
5
1D
100
AcDbEntity
100
AcDbBlockEnd
0
ENDSEC
0
SECTION
2
ENTITIES
0
POINT
5
100
100
AcDbEntity
8
0
100
AcDbPoint
10
0
20
-120
30
0
0
CIRCLE
5
101
100
AcDbEntity
8
0
100
AcDbCircle
10
75.126279276475358
20
-164.18326623235939
30
0
40
1.2645
210
0
220
-0
230
1
0
LWPOLYLINE
5
102
100
AcDbEntity
8
0
100
AcDbPolyline
90
9
70
1
43
0.0
10
-82.876192032829692
20
-108.90656383914531
42
0.089005725616778414
10
-83.37526264633172
20
-111.68794089713953
10
-83.375262646331691
20
-154.9879408971421
42
0.4142135623730937
10
-75.37526264633172
20
-162.98794089714207
10
-42.781800755007339
20
-162.98794089714207
42
0.38447058448731963
10
-35.601205835523508
20
-155.03001558246208
10
-35.60120583552365
20
-111.73001558246001
42
0.41421356237309437
10
-43.601205835523643
20
-103.73001558246006
10
-75.39099863164256
20
-103.73001558245934
42
0.31210338177796093
0
LWPOLYLINE
5
103
100
AcDbEntity
8
0
100
AcDbPolyline
90
8
70
1
43
0.0
10
46.149565137417277
20
-106.83918018275314
42
0.41421356237309892
10
38.14956513741727
20
-98.839180182753125
10
-11.650434862582628
20
-98.839180182753168
42
0.41421356237309503
10
-19.650434862582618
20
-106.83918018275318
10
-19.650434862582653
20
-156.63918018275314
42
0.41421356237309503
10
-11.650434862582664
20
-164.63918018275314
10
38.149565137417213
20
-164.63918018275314
42
0.41421356237309503
10
46.149565137417206
20
-156.63918018275319
0
CIRCLE
5
104
100
AcDbEntity
8
0
100
AcDbCircle
10
-35.601205835523672
20
-103.70820578686693
30
0
40
1.2645
210
0
220
0
230
1
0
CIRCLE
5
105
100
AcDbEntity
8
0
100
AcDbCircle
10
74.942694242221123
20
-99.326603064194984
30
0
40
1.2645
210
0
220
0
230
1
0
LWPOLYLINE
5
106
100
AcDbEntity
8
0
100
AcDbPolyline
90
8
70
1
43
0.0
10
74.430222460490768
20
-107.31413128246466
10
74.430222460490711
20
-156.31413128246467
42
0.4142135623730932
10
82.930222460490739
20
-164.81413128246464
10
131.95516602395145
20
-164.8141312824647
42
0.41421356237309442
10
140.45516602395145
20
-156.3141312824647
10
140.45516602395151
20
-107.31413128246471
42
0.41421356237309381
10
131.95516602395148
20
-98.8141312824647
10
82.930222460490768
20
-98.814131282464658
42
0.41421356237309503
0
LWPOLYLINE
5
107
100
AcDbEntity
8
0
100
AcDbPolyline
90
8
70
1
43
0.0
10
155.91828278900292
20
-156.90100491218107
42
0.4142135623730937
10
163.9182827890028
20
-164.90100491218115
10
177.9182827890028
20
-164.90100491218126
42
0.41421356237309503
10
185.91828278900289
20
-156.90100491218132
10
185.91828278900329
20
-107.90100491218146
42
0.41421356237310086
10
177.9182827890034
20
-99.901004912181406
10
163.91828278900334
20
-99.901004912181278
42
0.41421356237309437
10
155.91828278900329
20
-107.90100491218124
0
CIRCLE
5
108
100
AcDbEntity
8
0
100
AcDbCircle
10
139.94269424222117
20
-99.326603064194956
30
0
40
1.2645
210
0
220
0
230
1
0
CIRCLE
5
109
100
AcDbEntity
8
0
100
AcDbCircle
10
140.12627927647537
20
-164.18326623235939
30
0
40
1.2645
210
0
220
-0
230
1
0
CIRCLE
5
110
100
AcDbEntity
8
0
100
AcDbCircle
10
185.91828278900334
20
-99.901004912181406
30
0
40
1.2645
210
0
220
0
230
1
0
CIRCLE
5
111
100
AcDbEntity
8
0
100
AcDbCircle
10
155.91828278900283
20
-164.90100491218107
30
0
40
1.2645
210
0
220
0
230
1
0
CIRCLE
5
112
100
AcDbEntity
8
0
100
AcDbCircle
10
155.91828278900337
20
-99.901004912181136
30
0
40
1.2645
210
0
220
0
230
1
0
CIRCLE
5
113
100
AcDbEntity
8
0
100
AcDbCircle
10
186.04041930645664
20
-164.72214868922637
30
0
40
1.2645
210
0
220
-0
230
1
0
CIRCLE
5
114
100
AcDbEntity
8
0
100
AcDbCircle
10
45.906924450298199
20
-99.081820869873169
30
0
40
1.2645
210
0
220
-0
230
1
0
CIRCLE
5
115
100
AcDbEntity
8
0
100
AcDbCircle
10
-83.40281575128995
20
-103.70820578686707
30
0
40
1.2645
210
0
220
0
230
1
0
CIRCLE
5
116
100
AcDbEntity
8
0
100
AcDbCircle
10
-19.407794175465654
20
-164.3965394956341
30
0
40
1.2645
210
0
220
-0
230
1
0
CIRCLE
5
117
100
AcDbEntity
8
0
100
AcDbCircle
10
-83.402815751289694
20
-163.00820578686964
30
0
40
1.2645
210
0
220
0
230
1
0
CIRCLE
5
118
100
AcDbEntity
8
0
100
AcDbCircle
10
45.906924450296778
20
-164.39653949563549
30
0
40
1.2645
210
0
220
-0
230
1
0
CIRCLE
5
119
100
AcDbEntity
8
0
100
AcDbCircle
10
-35.601205835523459
20
-163.00820578686941
30
0
40
1.2645
210
0
220
0
230
1
0
CIRCLE
5
120
100
AcDbEntity
8
0
100
AcDbCircle
10
-19.407794175464232
20
-99.081820869871677
30
0
40
1.2645
210
0
220
-0
230
1
0
LWPOLYLINE
5
121
100
AcDbEntity
8
0
100
AcDbPolyline
90
4
70
1
43
0.0
10
-100
20
-173.49341136192612
10
200
20
-173.49341136192612
10
200
20
-90
10
-100
20
-90
0
ENDSEC
0
SECTION
2
OBJECTS
0
DICTIONARY
5
C
100
AcDbDictionary
3
ACAD_GROUP
350
D
3
ACAD_MLINESTYLE
350
17
0
DICTIONARY
5
D
100
AcDbDictionary
0
DICTIONARY
5
1A
330
C
100
AcDbDictionary
0
DICTIONARY
5
17
100
AcDbDictionary
0
ENDSEC
0
EOF
