<?xml version="1.0" encoding="UTF-8" standalone="no"?>
<!-- Created with Inkscape (http://www.inkscape.org/) -->

<svg
   width="210mm"
   height="297mm"
   viewBox="0 0 210 297"
   version="1.1"
   id="svg423"
   xml:space="preserve"
   inkscape:version="1.2.2 (b0a8486541, 2022-12-01)"
   sodipodi:docname="motorInsetMainInset.svg"
   xmlns:inkscape="http://www.inkscape.org/namespaces/inkscape"
   xmlns:sodipodi="http://sodipodi.sourceforge.net/DTD/sodipodi-0.dtd"
   xmlns="http://www.w3.org/2000/svg"
   xmlns:svg="http://www.w3.org/2000/svg"><sodipodi:namedview
     id="namedview425"
     pagecolor="#ffffff"
     bordercolor="#000000"
     borderopacity="0.25"
     inkscape:showpageshadow="2"
     inkscape:pageopacity="0.0"
     inkscape:pagecheckerboard="0"
     inkscape:deskcolor="#d1d1d1"
     inkscape:document-units="mm"
     showgrid="false"
     inkscape:zoom="0.37282197"
     inkscape:cx="-104.60757"
     inkscape:cy="667.8791"
     inkscape:window-width="1920"
     inkscape:window-height="1017"
     inkscape:window-x="-8"
     inkscape:window-y="-8"
     inkscape:window-maximized="1"
     inkscape:current-layer="g594" /><defs
     id="defs420"><marker
       id="DistanceX"
       orient="auto"
       refX="0.0"
       refY="0.0"
       style="overflow:visible"><path
         d="M 3,-3 L -3,3 M 0,-5 L  0,5"
         style="stroke:#000000; stroke-width:0.5"
         id="path546" /></marker><pattern
       id="Hatch"
       patternUnits="userSpaceOnUse"
       width="8"
       height="8"
       x="0"
       y="0"><path
         d="M8 4 l-4,4"
         stroke="#000000"
         stroke-width="0.25"
         linecap="square"
         id="path549" /><path
         d="M6 2 l-4,4"
         stroke="#000000"
         stroke-width="0.25"
         linecap="square"
         id="path551" /><path
         d="M4 0 l-4,4"
         stroke="#000000"
         stroke-width="0.25"
         linecap="square"
         id="path553" /></pattern><symbol
       id="*MODEL_SPACE" /><symbol
       id="*PAPER_SPACE" /></defs><g
     inkscape:label="Layer 1"
     inkscape:groupmode="layer"
     id="layer1"><g
       inkscape:label="0"
       id="g594"
       transform="matrix(0.26458333,0,0,0.26458333,86.275331,-117.99268)"><path
         style="fill:none;stroke:#000000"
         d="M -282.00333,1447.8621 V 538.41006"
         id="path560" /><path
         d="M 419.36551,1447.8593 H -282.00143 V 538.4104 h 701.36694 v 36.8504 a 19.84252,19.84252 0 0 0 0,39.68504 v 756.28346 a 19.84255,19.84255 0 0 0 0,39.6851 z"
         style="fill:none;stroke:#000000"
         id="path564" /><path
         d="m -205.46599,595.10332 a 19.84252,19.84252 0 0 0 -39.68504,0 19.84252,19.84252 0 0 0 39.68504,0 z"
         style="fill:none;stroke:#000000"
         id="path566" /><path
         d="m -205.46599,993.08757 a 19.84252,19.84252 0 0 0 -39.68504,0 19.84252,19.84252 0 0 0 39.68504,0 z"
         style="fill:none;stroke:#000000"
         id="path568" /><path
         d="m 330.56373,1149.7824 a 35.905512,35.905512 0 0 0 35.90551,-35.9055"
         style="fill:none;stroke:#000000"
         id="path570" /><path
         style="fill:none;stroke:#000000"
         d="M 330.56367,1149.7821 H 88.673674"
         id="path572" /><path
         d="m 52.768454,1113.8769 a 35.905512,35.905512 0 0 0 35.90551,35.9055"
         style="fill:none;stroke:#000000"
         id="path574" /><path
         style="fill:none;stroke:#000000"
         d="M 52.768674,1113.8721 V 871.98706"
         id="path576" /><path
         d="m 88.673964,836.08155 a 35.905512,35.905512 0 0 0 -35.90551,35.90551"
         style="fill:none;stroke:#000000"
         id="path578" /><path
         style="fill:none;stroke:#000000"
         d="M 330.56367,836.08106 H 88.673674"
         id="path580" /><path
         d="M 366.46924,871.98706 A 35.905512,35.905512 0 0 0 330.56373,836.08155"
         style="fill:none;stroke:#000000"
         id="path582" /><path
         style="fill:none;stroke:#000000"
         d="M 366.46967,871.98706 V 1113.8721"
         id="path584" /><path
         d="m -205.46599,1391.0719 a 19.84252,19.84252 0 0 0 -39.68504,0 19.84252,19.84252 0 0 0 39.68504,0 z"
         style="fill:none;stroke:#000000"
         id="path586" /><path
         d="m -205.46599,1391.0719 a 19.84252,19.84252 0 0 0 -39.68504,0 19.84252,19.84252 0 0 0 39.68504,0 z"
         style="fill:none;stroke:#000000"
         id="path588" /><path
         d="m -205.46599,993.08757 a 19.84252,19.84252 0 0 0 -39.68504,0 19.84252,19.84252 0 0 0 39.68504,0 z"
         style="fill:none;stroke:#000000"
         id="path590" /><path
         d="m -205.46599,595.10332 a 19.84252,19.84252 0 0 0 -39.68504,0 19.84252,19.84252 0 0 0 39.68504,0 z"
         style="fill:none;stroke:#000000"
         id="path592" /></g></g></svg>
