<?xml version="1.0" encoding="UTF-8" standalone="no"?>
<!-- Created with Inkscape (http://www.inkscape.org/) -->

<svg
   width="210mm"
   height="297mm"
   viewBox="0 0 210 297"
   version="1.1"
   id="svg5"
   xml:space="preserve"
   inkscape:version="1.4-dev (1:1.4.0-dev+202403210151+2fe0648968)"
   sodipodi:docname="motorInsetRing.svg"
   xmlns:inkscape="http://www.inkscape.org/namespaces/inkscape"
   xmlns:sodipodi="http://sodipodi.sourceforge.net/DTD/sodipodi-0.dtd"
   xmlns="http://www.w3.org/2000/svg"
   xmlns:svg="http://www.w3.org/2000/svg"><sodipodi:namedview
     id="namedview7"
     pagecolor="#ffffff"
     bordercolor="#000000"
     borderopacity="0.25"
     inkscape:showpageshadow="2"
     inkscape:pageopacity="0.0"
     inkscape:pagecheckerboard="0"
     inkscape:deskcolor="#d1d1d1"
     inkscape:document-units="mm"
     showgrid="false"
     inkscape:zoom="1.0544998"
     inkscape:cx="350.40311"
     inkscape:cy="169.27457"
     inkscape:window-width="1433"
     inkscape:window-height="749"
     inkscape:window-x="2368"
     inkscape:window-y="219"
     inkscape:window-maximized="0"
     inkscape:current-layer="layer1" /><defs
     id="defs2"><marker
       id="DistanceX"
       orient="auto"
       refX="0.0"
       refY="0.0"
       style="overflow:visible"><path
         d="M 3,-3 L -3,3 M 0,-5 L  0,5"
         style="stroke:#000000; stroke-width:0.5"
         id="path134" /></marker><pattern
       id="Hatch"
       patternUnits="userSpaceOnUse"
       width="8"
       height="8"
       x="0"
       y="0"><path
         d="M8 4 l-4,4"
         stroke="#000000"
         stroke-width="0.25"
         linecap="square"
         id="path137" /><path
         d="M6 2 l-4,4"
         stroke="#000000"
         stroke-width="0.25"
         linecap="square"
         id="path139" /><path
         d="M4 0 l-4,4"
         stroke="#000000"
         stroke-width="0.25"
         linecap="square"
         id="path141" /></pattern><symbol
       id="*MODEL_SPACE" /><symbol
       id="*PAPER_SPACE" /></defs><g
     inkscape:label="Layer 1"
     inkscape:groupmode="layer"
     id="layer1"><g
       inkscape:label="0"
       id="g188"
       transform="matrix(0.26458333,0,0,0.26458333,-6.4093504,-308.22226)"><path
         d="m 351.21428,1290.2685 a 56.692913,56.692913 0 0 0 -56.69291,-56.6929"
         style="fill:none;stroke:#000000"
         id="path148" /><path
         style="fill:none;stroke:#000000"
         d="M 294.521,1233.58 H 150.899"
         id="path150" /><path
         d="m 150.89932,1233.5756 a 56.692913,56.692913 0 0 0 -56.692912,56.6929"
         style="fill:none;stroke:#000000"
         id="path152" /><path
         d="m 101.50822,1234.325 a 6.296693,6.296693 0 0 0 -12.593383,0 6.296693,6.296693 0 0 0 12.593383,0 z"
         style="fill:none;stroke:#000000"
         id="path154" /><path
         style="fill:none;stroke:#000000"
         d="m 101.765,1205.23 h 241.89"
         id="path156" /><path
         d="m 101.76546,1205.2291 a 35.905512,35.905512 0 0 0 -35.905509,35.9055"
         style="fill:none;stroke:#000000"
         id="path158" /><path
         d="m 356.88756,1234.1434 a 6.296693,6.296693 0 0 0 -12.59338,0 6.296693,6.296693 0 0 0 12.59338,0 z"
         style="fill:none;stroke:#000000"
         id="path160" /><path
         d="m 379.56074,1241.1346 a 35.905512,35.905512 0 0 0 -35.90551,-35.9055"
         style="fill:none;stroke:#000000"
         id="path162" /><path
         style="fill:none;stroke:#000000"
         d="m 379.561,1241.13 v 241.89"
         id="path164" /><path
         style="fill:none;stroke:#000000"
         d="M 351.214,1433.89 V 1290.27"
         id="path166" /><path
         d="m 294.52137,1490.5834 a 56.692913,56.692913 0 0 0 56.69291,-56.6929"
         style="fill:none;stroke:#000000"
         id="path168" /><path
         d="m 357.06922,1489.5227 a 6.296693,6.296693 0 0 0 -12.59338,0 6.296693,6.296693 0 0 0 12.59338,0 z"
         style="fill:none;stroke:#000000"
         id="path170" /><path
         d="m 343.65523,1518.9299 a 35.905512,35.905512 0 0 0 35.90551,-35.9055"
         style="fill:none;stroke:#000000"
         id="path172" /><path
         style="fill:none;stroke:#000000"
         d="M 294.521,1490.58 H 150.899"
         id="path174" /><path
         style="fill:none;stroke:#000000"
         d="m 101.765,1518.93 h 241.89"
         id="path176" /><path
         d="m 65.859951,1483.0244 a 35.905512,35.905512 0 0 0 35.905509,35.9055"
         style="fill:none;stroke:#000000"
         id="path178" /><path
         d="m 101.68988,1489.7044 a 6.296693,6.296693 0 0 0 -12.593384,0 6.296693,6.296693 0 0 0 12.593384,0 z"
         style="fill:none;stroke:#000000"
         id="path180" /><path
         d="m 94.206408,1433.8905 a 56.692913,56.692913 0 0 0 56.692912,56.6929"
         style="fill:none;stroke:#000000"
         id="path182" /><path
         style="fill:none;stroke:#000000"
         d="m 94.2064,1290.27 v 143.62"
         id="path184" /><path
         style="fill:none;stroke:#000000"
         d="M 65.86,1483.02 V 1241.13"
         id="path186" /></g><path
       style="fill:none;stroke:#0000ff;stroke-width:0.0785936;stroke-dasharray:none"
       d="M 86.387853,7.4406633 V 112.93115"
       id="path1-3-9-0-0" /><path
       style="fill:none;stroke:#0000ff;stroke-width:0.0785936;stroke-dasharray:none"
       d="M 18.81993,10.249007 V 115.7395"
       id="path1-3-9-0-0-6" /><path
       style="fill:none;stroke:#0000ff;stroke-width:0.0785936;stroke-dasharray:none"
       d="M 33.521934,3.2312877 V 108.72178"
       id="path1-3-9-0-0-6-2" /><path
       style="fill:none;stroke:#0000ff;stroke-width:0.0785936;stroke-dasharray:none"
       d="M 71.52056,2.980284 V 108.47078"
       id="path1-3-9-0-0-6-2-6" /><path
       style="fill:none;stroke:#0000ff;stroke-width:0.0785936;stroke-dasharray:none"
       d="M 105.54888,85.904626 H 0.05839552"
       id="path1-3-9-0-0-1" /><path
       style="fill:none;stroke:#0000ff;stroke-width:0.0785936;stroke-dasharray:none"
       d="M 102.78948,18.270173 H -2.7010065"
       id="path1-3-9-0-0-6-8" /><path
       style="fill:none;stroke:#0000ff;stroke-width:0.0785936;stroke-dasharray:none"
       d="M 109.8072,33.128994 H 4.3167135"
       id="path1-3-9-0-0-6-2-7" /><path
       style="fill:none;stroke:#0000ff;stroke-width:0.0785936;stroke-dasharray:none"
       d="M 110.0582,71.127617 H 4.5677135"
       id="path1-3-9-0-0-6-2-6-9" /></g></svg>
