999
"DXF R12 Output" (www.mydxf.blogspot.com)
 0 
SECTION
 2 
HEADER
 9 
$ACADVER
 1 
AC1009
 9 
$EXTMIN
 10 
 0 
 20 
 0 
 9 
$EXTMAX
 10 
 8.5 
 20 
 11 
 0 
ENDSEC
 0 
SECTION
 2 
ENTITIES
0
LINE
8
Layer 1
10
76.953200
20
86.521100
11
12.953400
21
86.349590
0
LINE
8
Layer 1
10
12.953400
20
86.349590
11
11.039349
21
86.151453
0
LINE
8
Layer 1
10
11.039349
20
86.151453
11
9.257596
21
85.593127
0
LINE
8
Layer 1
10
9.257596
20
85.593127
11
7.646241
21
84.712916
0
LINE
8
Layer 1
10
7.646241
20
84.712916
11
6.243383
21
83.549122
0
LINE
8
Layer 1
10
6.243383
20
83.549122
11
5.087121
21
82.140050
0
LINE
8
Layer 1
10
5.087121
20
82.140050
11
4.215554
21
80.524003
0
LINE
8
Layer 1
10
4.215554
20
80.524003
11
3.666781
21
78.739285
0
LINE
8
Layer 1
10
3.666781
20
78.739285
11
3.478900
21
76.824200
0
LINE
8
Layer 1
10
3.478900
20
76.824200
11
3.650413
21
12.824400
0
LINE
8
Layer 1
10
3.650413
20
12.824400
11
3.848550
21
10.910344
0
LINE
8
Layer 1
10
3.848550
20
10.910344
11
4.406879
21
9.128589
0
LINE
8
Layer 1
10
4.406879
20
9.128589
11
5.287094
21
7.517232
0
LINE
8
Layer 1
10
5.287094
20
7.517232
11
6.450892
21
6.114373
0
LINE
8
Layer 1
10
6.450892
20
6.114373
11
7.859968
21
4.958111
0
LINE
8
Layer 1
10
7.859968
20
4.958111
11
9.476020
21
4.086545
0
LINE
8
Layer 1
10
9.476020
20
4.086545
11
11.260743
21
3.537775
0
LINE
8
Layer 1
10
11.260743
20
3.537775
11
13.175833
21
3.349900
0
LINE
8
Layer 1
10
13.175833
20
3.349900
11
77.175633
21
3.521410
0
LINE
8
Layer 1
10
77.175633
20
3.521410
11
79.089689
21
3.719547
0
LINE
8
Layer 1
10
79.089689
20
3.719547
11
80.871444
21
4.277876
0
LINE
8
Layer 1
10
80.871444
20
4.277876
11
82.482801
21
5.158091
0
LINE
8
Layer 1
10
82.482801
20
5.158091
11
83.885660
21
6.321889
0
LINE
8
Layer 1
10
83.885660
20
6.321889
11
85.041922
21
7.730965
0
LINE
8
Layer 1
10
85.041922
20
7.730965
11
85.913488
21
9.347017
0
LINE
8
Layer 1
10
85.913488
20
9.347017
11
86.462258
21
11.131740
0
LINE
8
Layer 1
10
86.462258
20
11.131740
11
86.650133
21
13.046830
0
LINE
8
Layer 1
10
86.650133
20
13.046830
11
86.478623
21
77.046630
0
LINE
8
Layer 1
10
86.478623
20
77.046630
11
86.280487
21
78.960687
0
LINE
8
Layer 1
10
86.280487
20
78.960687
11
85.722160
21
80.742445
0
LINE
8
Layer 1
10
85.722160
20
80.742445
11
84.841946
21
82.353803
0
LINE
8
Layer 1
10
84.841946
20
82.353803
11
83.678148
21
83.756664
0
LINE
8
Layer 1
10
83.678148
20
83.756664
11
82.269071
21
84.912927
0
LINE
8
Layer 1
10
82.269071
20
84.912927
11
80.653018
21
85.784494
0
LINE
8
Layer 1
10
80.653018
20
85.784494
11
78.868294
21
86.333264
0
LINE
8
Layer 1
10
78.868294
20
86.333264
11
76.953203
21
86.521140
0
LINE
8
Layer 1
10
76.953203
20
86.521140
11
76.953200
21
86.521100
0
LINE
8
Layer 1
10
11.119700
20
80.345700
11
10.287299
21
80.120273
0
LINE
8
Layer 1
10
10.287299
20
80.120273
11
9.679132
21
79.508848
0
LINE
8
Layer 1
10
9.679132
20
79.508848
11
9.458156
21
78.675255
0
LINE
8
Layer 1
10
9.458156
20
78.675255
11
9.683582
21
77.842854
0
LINE
8
Layer 1
10
9.683582
20
77.842854
11
10.295007
21
77.234687
0
LINE
8
Layer 1
10
10.295007
20
77.234687
11
11.128600
21
77.013711
0
LINE
8
Layer 1
10
11.128600
20
77.013711
11
11.776730
21
77.146365
0
LINE
8
Layer 1
10
11.776730
20
77.146365
11
12.305332
21
77.504816
0
LINE
8
Layer 1
10
12.305332
20
77.504816
11
12.660954
21
78.035326
0
LINE
8
Layer 1
10
12.660954
20
78.035326
11
12.790144
21
78.684155
0
LINE
8
Layer 1
10
12.790144
20
78.684155
11
12.657490
21
79.332286
0
LINE
8
Layer 1
10
12.657490
20
79.332286
11
12.299039
21
79.860888
0
LINE
8
Layer 1
10
12.299039
20
79.860888
11
11.768530
21
80.216510
0
LINE
8
Layer 1
10
11.768530
20
80.216510
11
11.119700
21
80.345700
0
LINE
8
Layer 1
10
11.119700
20
80.345700
11
11.119700
21
80.345700
0
LINE
8
Layer 1
10
78.688500
20
80.574800
11
77.856106
21
80.349348
0
LINE
8
Layer 1
10
77.856106
20
80.349348
11
77.247957
21
79.737905
0
LINE
8
Layer 1
10
77.247957
20
79.737905
11
77.027006
21
78.904305
0
LINE
8
Layer 1
10
77.027006
20
78.904305
11
77.252457
21
78.071911
0
LINE
8
Layer 1
10
77.252457
20
78.071911
11
77.863900
21
77.463762
0
LINE
8
Layer 1
10
77.863900
20
77.463762
11
78.697500
21
77.242811
0
LINE
8
Layer 1
10
78.697500
20
77.242811
11
79.529894
21
77.468262
0
LINE
8
Layer 1
10
79.529894
20
77.468262
11
80.138043
21
78.079706
0
LINE
8
Layer 1
10
80.138043
20
78.079706
11
80.358994
21
78.913306
0
LINE
8
Layer 1
10
80.358994
20
78.913306
11
80.133543
21
79.745700
0
LINE
8
Layer 1
10
80.133543
20
79.745700
11
79.522100
21
80.353849
0
LINE
8
Layer 1
10
79.522100
20
80.353849
11
78.688500
21
80.574799
0
LINE
8
Layer 1
10
78.688500
20
80.574799
11
78.688500
21
80.574800
0
LINE
8
Layer 1
10
11.348900
20
12.777000
11
10.701953
21
12.643292
0
LINE
8
Layer 1
10
10.701953
20
12.643292
11
10.174549
21
12.284605
0
LINE
8
Layer 1
10
10.174549
20
12.284605
11
9.819853
21
11.754507
0
LINE
8
Layer 1
10
9.819853
20
11.754507
11
9.691033
21
11.106570
0
LINE
8
Layer 1
10
9.691033
20
11.106570
11
9.823312
21
10.459330
0
LINE
8
Layer 1
10
9.823312
20
10.459330
11
10.180835
21
9.931135
0
LINE
8
Layer 1
10
10.180835
20
9.931135
11
10.710148
21
9.575270
0
LINE
8
Layer 1
10
10.710148
20
9.575270
11
11.357800
21
9.445020
0
LINE
8
Layer 1
10
11.357800
20
9.445020
11
12.004747
21
9.578728
0
LINE
8
Layer 1
10
12.004747
20
9.578728
11
12.532151
21
9.937415
0
LINE
8
Layer 1
10
12.532151
20
9.937415
11
12.886847
21
10.467513
0
LINE
8
Layer 1
10
12.886847
20
10.467513
11
13.015667
21
11.115450
0
LINE
8
Layer 1
10
13.015667
20
11.115450
11
12.883388
21
11.762690
0
LINE
8
Layer 1
10
12.883388
20
11.762690
11
12.525865
21
12.290885
0
LINE
8
Layer 1
10
12.525865
20
12.290885
11
11.996552
21
12.646750
0
LINE
8
Layer 1
10
11.996552
20
12.646750
11
11.348900
21
12.777000
0
LINE
8
Layer 1
10
11.348900
20
12.777000
11
11.348900
21
12.777000
0
LINE
8
Layer 1
10
78.917600
20
13.006100
11
78.270638
21
12.872391
0
LINE
8
Layer 1
10
78.270638
20
12.872391
11
77.743224
21
12.513691
0
LINE
8
Layer 1
10
77.743224
20
12.513691
11
77.388528
21
11.983576
0
LINE
8
Layer 1
10
77.388528
20
11.983576
11
77.259721
21
11.335620
0
LINE
8
Layer 1
10
77.259721
20
11.335620
11
77.392027
21
10.688369
0
LINE
8
Layer 1
10
77.392027
20
10.688369
11
77.749581
21
10.160178
0
LINE
8
Layer 1
10
77.749581
20
10.160178
11
78.278925
21
9.804333
0
LINE
8
Layer 1
10
78.278925
20
9.804333
11
78.926600
21
9.674120
0
LINE
8
Layer 1
10
78.926600
20
9.674120
11
79.573562
21
9.807829
0
LINE
8
Layer 1
10
79.573562
20
9.807829
11
80.100976
21
10.166529
0
LINE
8
Layer 1
10
80.100976
20
10.166529
11
80.455672
21
10.696644
0
LINE
8
Layer 1
10
80.455672
20
10.696644
11
80.584479
21
11.344600
0
LINE
8
Layer 1
10
80.584479
20
11.344600
11
80.452173
21
11.991851
0
LINE
8
Layer 1
10
80.452173
20
11.991851
11
80.094619
21
12.520042
0
LINE
8
Layer 1
10
80.094619
20
12.520042
11
79.565275
21
12.875887
0
LINE
8
Layer 1
10
79.565275
20
12.875887
11
78.917600
21
13.006100
0
LINE
8
Layer 1
10
78.917600
20
13.006100
11
78.917600
21
13.006100
0
LINE
8
Layer 1
10
11.013700
20
63.844300
11
11.115536
21
25.844400
0
LINE
8
Layer 1
10
11.115536
20
25.844400
11
11.197093
21
24.310957
0
LINE
8
Layer 1
10
11.197093
20
24.310957
11
11.428390
21
22.822218
0
LINE
8
Layer 1
10
11.428390
20
22.822218
11
12.309962
21
20.008929
0
LINE
8
Layer 1
10
12.309962
20
20.008929
11
13.699773
21
17.464690
0
LINE
8
Layer 1
10
13.699773
20
17.464690
11
15.537344
21
15.249657
0
LINE
8
Layer 1
10
15.537344
20
15.249657
11
17.762195
21
13.423985
0
LINE
8
Layer 1
10
17.762195
20
13.423985
11
20.313847
21
12.047831
0
LINE
8
Layer 1
10
20.313847
20
12.047831
11
23.131820
21
11.181351
0
LINE
8
Layer 1
10
23.131820
20
11.181351
11
24.621778
21
10.958037
0
LINE
8
Layer 1
10
24.621778
20
10.958037
11
26.155636
21
10.884700
0
LINE
8
Layer 1
10
26.155636
20
10.884700
11
64.155436
21
10.986530
0
LINE
8
Layer 1
10
64.155436
20
10.986530
11
65.688879
21
11.068087
0
LINE
8
Layer 1
10
65.688879
20
11.068087
11
67.177618
21
11.299384
0
LINE
8
Layer 1
10
67.177618
20
11.299384
11
69.990907
21
12.180956
0
LINE
8
Layer 1
10
69.990907
20
12.180956
11
72.535146
21
13.570767
0
LINE
8
Layer 1
10
72.535146
20
13.570767
11
74.750179
21
15.408338
0
LINE
8
Layer 1
10
74.750179
20
15.408338
11
76.575851
21
17.633189
0
LINE
8
Layer 1
10
76.575851
20
17.633189
11
77.952005
21
20.184841
0
LINE
8
Layer 1
10
77.952005
20
20.184841
11
78.818485
21
23.002814
0
LINE
8
Layer 1
10
78.818485
20
23.002814
11
79.041799
21
24.492772
0
LINE
8
Layer 1
10
79.041799
20
24.492772
11
79.115136
21
26.026630
0
LINE
8
Layer 1
10
79.115136
20
26.026630
11
79.013296
21
64.026530
0
LINE
8
Layer 1
10
79.013296
20
64.026530
11
78.931739
21
65.559973
0
LINE
8
Layer 1
10
78.931739
20
65.559973
11
78.700442
21
67.048712
0
LINE
8
Layer 1
10
78.700442
20
67.048712
11
77.818870
21
69.862001
0
LINE
8
Layer 1
10
77.818870
20
69.862001
11
76.429059
21
72.406240
0
LINE
8
Layer 1
10
76.429059
20
72.406240
11
74.591488
21
74.621273
0
LINE
8
Layer 1
10
74.591488
20
74.621273
11
72.366637
21
76.446945
0
LINE
8
Layer 1
10
72.366637
20
76.446945
11
69.814985
21
77.823099
0
LINE
8
Layer 1
10
69.814985
20
77.823099
11
66.997012
21
78.689579
0
LINE
8
Layer 1
10
66.997012
20
78.689579
11
65.507054
21
78.912893
0
LINE
8
Layer 1
10
65.507054
20
78.912893
11
63.973196
21
78.986230
0
LINE
8
Layer 1
10
63.973196
20
78.986230
11
25.973396
21
78.884390
0
LINE
8
Layer 1
10
25.973396
20
78.884390
11
24.439953
21
78.802833
0
LINE
8
Layer 1
10
24.439953
20
78.802833
11
22.951214
21
78.571536
0
LINE
8
Layer 1
10
22.951214
20
78.571536
11
20.137925
21
77.689964
0
LINE
8
Layer 1
10
20.137925
20
77.689964
11
17.593686
21
76.300153
0
LINE
8
Layer 1
10
17.593686
20
76.300153
11
15.378653
21
74.462582
0
LINE
8
Layer 1
10
15.378653
20
74.462582
11
13.552981
21
72.237731
0
LINE
8
Layer 1
10
13.552981
20
72.237731
11
12.176827
21
69.686079
0
LINE
8
Layer 1
10
12.176827
20
69.686079
11
11.310347
21
66.868106
0
LINE
8
Layer 1
10
11.310347
20
66.868106
11
11.087033
21
65.378148
0
LINE
8
Layer 1
10
11.087033
20
65.378148
11
11.013696
21
63.844290
0
LINE
8
Layer 1
10
11.013696
20
63.844290
11
11.013700
21
63.844300
 0 
ENDSEC
 0 
EOF