999
"DXF R12 Output" (www.mydxf.blogspot.com)
 0 
SECTION
 2 
HEADER
 9 
$ACADVER
 1 
AC1009
 9 
$EXTMIN
 10 
 0 
 20 
 0 
 9 
$EXTMAX
 10 
 8.5 
 20 
 11 
 0 
ENDSEC
 0 
SECTION
 2 
ENTITIES
0
LINE
8
Layer 1
10
3.000000
20
203.000000
11
-3.000000
21
197.000000
0
LINE
8
Layer 1
10
0.000000
20
205.000000
11
0.000000
21
195.000000
0
LINE
8
Layer 1
10
8.000000
20
196.000000
11
4.000000
21
192.000000
0
LINE
8
Layer 1
10
6.000000
20
198.000000
11
2.000000
21
194.000000
0
LINE
8
Layer 1
10
4.000000
20
200.000000
11
0.000000
21
196.000000
0
LINE
8
0
10
90.611500
20
112.459000
11
88.697447
21
112.260863
0
LINE
8
0
10
88.697447
20
112.260863
11
86.915693
21
111.702535
0
LINE
8
0
10
86.915693
20
111.702535
11
85.304337
21
110.822321
0
LINE
8
0
10
85.304337
20
110.822321
11
83.901480
21
109.658524
0
LINE
8
0
10
83.901480
20
109.658524
11
82.745219
21
108.249449
0
LINE
8
0
10
82.745219
20
108.249449
11
81.873655
21
106.633399
0
LINE
8
0
10
81.873655
20
106.633399
11
81.324885
21
104.848678
0
LINE
8
0
10
81.324885
20
104.848678
11
81.137010
21
102.933590
0
LINE
8
0
10
81.137010
20
102.933590
11
81.308500
21
38.933500
0
LINE
8
0
10
81.308500
20
38.933500
11
81.506637
21
37.019447
0
LINE
8
0
10
81.506637
20
37.019447
11
82.064965
21
35.237693
0
LINE
8
0
10
82.064965
20
35.237693
11
82.945179
21
33.626337
0
LINE
8
0
10
82.945179
20
33.626337
11
84.108976
21
32.223480
0
LINE
8
0
10
84.108976
20
32.223480
11
85.518051
21
31.067219
0
LINE
8
0
10
85.518051
20
31.067219
11
87.134101
21
30.195655
0
LINE
8
0
10
87.134101
20
30.195655
11
88.918822
21
29.646885
0
LINE
8
0
10
88.918822
20
29.646885
11
90.833910
21
29.459010
0
LINE
8
0
10
90.833910
20
29.459010
11
154.834000
21
29.630500
0
LINE
8
0
10
154.834000
20
29.630500
11
156.748053
21
29.828637
0
LINE
8
0
10
156.748053
20
29.828637
11
158.529807
21
30.386965
0
LINE
8
0
10
158.529807
20
30.386965
11
160.141163
21
31.267179
0
LINE
8
0
10
160.141163
20
31.267179
11
161.544020
21
32.430976
0
LINE
8
0
10
161.544020
20
32.430976
11
162.700281
21
33.840051
0
LINE
8
0
10
162.700281
20
33.840051
11
163.571845
21
35.456101
0
LINE
8
0
10
163.571845
20
35.456101
11
164.120615
21
37.240822
0
LINE
8
0
10
164.120615
20
37.240822
11
164.308490
21
39.155910
0
LINE
8
0
10
164.308490
20
39.155910
11
164.137000
21
103.156000
0
LINE
8
0
10
164.137000
20
103.156000
11
163.938863
21
105.070053
0
LINE
8
0
10
163.938863
20
105.070053
11
163.380535
21
106.851807
0
LINE
8
0
10
163.380535
20
106.851807
11
162.500321
21
108.463163
0
LINE
8
0
10
162.500321
20
108.463163
11
161.336524
21
109.866020
0
LINE
8
0
10
161.336524
20
109.866020
11
159.927449
21
111.022281
0
LINE
8
0
10
159.927449
20
111.022281
11
158.311399
21
111.893845
0
LINE
8
0
10
158.311399
20
111.893845
11
156.526678
21
112.442615
0
LINE
8
0
10
156.526678
20
112.442615
11
154.611590
21
112.630490
0
LINE
8
0
10
154.611590
20
112.630490
11
90.611500
21
112.459000
0
LINE
8
0
10
154.611000
20
112.630000
11
90.611500
21
112.459000
0
LINE
8
0
10
90.611500
20
112.459000
11
88.697447
21
112.260863
0
LINE
8
0
10
88.697447
20
112.260863
11
86.915693
21
111.702535
0
LINE
8
0
10
86.915693
20
111.702535
11
85.304337
21
110.822321
0
LINE
8
0
10
85.304337
20
110.822321
11
83.901480
21
109.658524
0
LINE
8
0
10
83.901480
20
109.658524
11
82.745219
21
108.249449
0
LINE
8
0
10
82.745219
20
108.249449
11
81.873655
21
106.633399
0
LINE
8
0
10
81.873655
20
106.633399
11
81.324885
21
104.848678
0
LINE
8
0
10
81.324885
20
104.848678
11
81.137010
21
102.933590
0
LINE
8
0
10
81.137010
20
102.933590
11
81.308500
21
38.933500
0
LINE
8
0
10
81.308500
20
38.933500
11
81.506637
21
37.019447
0
LINE
8
0
10
81.506637
20
37.019447
11
82.064965
21
35.237693
0
LINE
8
0
10
82.064965
20
35.237693
11
82.945179
21
33.626337
0
LINE
8
0
10
82.945179
20
33.626337
11
84.108976
21
32.223480
0
LINE
8
0
10
84.108976
20
32.223480
11
85.518051
21
31.067219
0
LINE
8
0
10
85.518051
20
31.067219
11
87.134101
21
30.195655
0
LINE
8
0
10
87.134101
20
30.195655
11
88.918822
21
29.646885
0
LINE
8
0
10
88.918822
20
29.646885
11
90.833910
21
29.459010
0
LINE
8
0
10
90.833910
20
29.459010
11
154.834000
21
29.630500
0
LINE
8
0
10
154.834000
20
29.630500
11
156.748053
21
29.828637
0
LINE
8
0
10
156.748053
20
29.828637
11
158.529807
21
30.386965
0
LINE
8
0
10
158.529807
20
30.386965
11
160.141163
21
31.267179
0
LINE
8
0
10
160.141163
20
31.267179
11
161.544020
21
32.430976
0
LINE
8
0
10
161.544020
20
32.430976
11
162.700281
21
33.840051
0
LINE
8
0
10
162.700281
20
33.840051
11
163.571845
21
35.456101
0
LINE
8
0
10
163.571845
20
35.456101
11
164.120615
21
37.240822
0
LINE
8
0
10
164.120615
20
37.240822
11
164.308490
21
39.155910
0
LINE
8
0
10
164.308490
20
39.155910
11
164.137000
21
103.156000
0
LINE
8
0
10
164.137000
20
103.156000
11
163.938863
21
105.070053
0
LINE
8
0
10
163.938863
20
105.070053
11
163.380535
21
106.851807
0
LINE
8
0
10
163.380535
20
106.851807
11
162.500321
21
108.463163
0
LINE
8
0
10
162.500321
20
108.463163
11
161.336524
21
109.866020
0
LINE
8
0
10
161.336524
20
109.866020
11
159.927449
21
111.022281
0
LINE
8
0
10
159.927449
20
111.022281
11
158.311399
21
111.893845
0
LINE
8
0
10
158.311399
20
111.893845
11
156.526678
21
112.442615
0
LINE
8
0
10
156.526678
20
112.442615
11
154.611590
21
112.630490
0
LINE
8
0
10
154.611590
20
112.630490
11
154.611000
21
112.630000
0
LINE
8
0
10
122.367000
20
188.368000
11
121.492622
21
188.187995
0
LINE
8
0
10
121.492622
20
188.187995
11
120.779685
21
187.703696
0
LINE
8
0
10
120.779685
20
187.703696
11
120.300150
21
186.987547
0
LINE
8
0
10
120.300150
20
186.987547
11
120.125978
21
186.111988
0
LINE
8
0
10
120.125978
20
186.111988
11
120.304840
21
185.237375
0
LINE
8
0
10
120.304840
20
185.237375
11
120.788207
21
184.523807
0
LINE
8
0
10
120.788207
20
184.523807
11
121.503729
21
184.043336
0
LINE
8
0
10
121.503729
20
184.043336
11
122.379059
21
183.868020
0
LINE
8
0
10
122.379059
20
183.868020
11
123.253438
21
184.048025
0
LINE
8
0
10
123.253438
20
184.048025
11
123.966374
21
184.532324
0
LINE
8
0
10
123.966374
20
184.532324
11
124.445909
21
185.248473
0
LINE
8
0
10
124.445909
20
185.248473
11
124.620082
21
186.124032
0
LINE
8
0
10
124.620082
20
186.124032
11
124.441219
21
186.998645
0
LINE
8
0
10
124.441219
20
186.998645
11
123.957853
21
187.712213
0
LINE
8
0
10
123.957853
20
187.712213
11
123.242330
21
188.192684
0
LINE
8
0
10
123.242330
20
188.192684
11
122.367000
21
188.368000
0
LINE
8
0
10
122.367000
20
188.368000
11
122.367000
21
188.368000
0
LINE
8
0
10
17.524600
20
17.517100
11
16.650222
21
17.337095
0
LINE
8
0
10
16.650222
20
17.337095
11
15.937285
21
16.852796
0
LINE
8
0
10
15.937285
20
16.852796
11
15.457750
21
16.136647
0
LINE
8
0
10
15.457750
20
16.136647
11
15.283578
21
15.261088
0
LINE
8
0
10
15.283578
20
15.261088
11
15.462440
21
14.386476
0
LINE
8
0
10
15.462440
20
14.386476
11
15.945807
21
13.672907
0
LINE
8
0
10
15.945807
20
13.672907
11
16.661329
21
13.192436
0
LINE
8
0
10
16.661329
20
13.192436
11
17.536659
21
13.017120
0
LINE
8
0
10
17.536659
20
13.017120
11
18.411038
21
13.197125
0
LINE
8
0
10
18.411038
20
13.197125
11
19.123974
21
13.681424
0
LINE
8
0
10
19.123974
20
13.681424
11
19.603509
21
14.397573
0
LINE
8
0
10
19.603509
20
14.397573
11
19.777682
21
15.273132
0
LINE
8
0
10
19.777682
20
15.273132
11
19.598819
21
16.147744
0
LINE
8
0
10
19.598819
20
16.147744
11
19.115453
21
16.861313
0
LINE
8
0
10
19.115453
20
16.861313
11
18.399930
21
17.341784
0
LINE
8
0
10
18.399930
20
17.341784
11
17.524600
21
17.517100
0
LINE
8
0
10
17.524600
20
17.517100
11
17.524600
21
17.517100
0
LINE
8
0
10
227.666000
20
188.651000
11
226.791622
21
188.470995
0
LINE
8
0
10
226.791622
20
188.470995
11
226.078685
21
187.986696
0
LINE
8
0
10
226.078685
20
187.986696
11
225.599150
21
187.270547
0
LINE
8
0
10
225.599150
20
187.270547
11
225.424978
21
186.394988
0
LINE
8
0
10
225.424978
20
186.394988
11
225.603840
21
185.520375
0
LINE
8
0
10
225.603840
20
185.520375
11
226.087207
21
184.806807
0
LINE
8
0
10
226.087207
20
184.806807
11
226.802729
21
184.326336
0
LINE
8
0
10
226.802729
20
184.326336
11
227.678059
21
184.151020
0
LINE
8
0
10
227.678059
20
184.151020
11
228.552438
21
184.331025
0
LINE
8
0
10
228.552438
20
184.331025
11
229.265374
21
184.815324
0
LINE
8
0
10
229.265374
20
184.815324
11
229.744909
21
185.531473
0
LINE
8
0
10
229.744909
20
185.531473
11
229.919082
21
186.407032
0
LINE
8
0
10
229.919082
20
186.407032
11
229.740219
21
187.281645
0
LINE
8
0
10
229.740219
20
187.281645
11
229.256853
21
187.995213
0
LINE
8
0
10
229.256853
20
187.995213
11
228.541330
21
188.475684
0
LINE
8
0
10
228.541330
20
188.475684
11
227.666000
21
188.651000
0
LINE
8
0
10
227.666000
20
188.651000
11
227.666000
21
188.651000
0
LINE
8
0
10
228.124000
20
18.081400
11
227.249622
21
17.901395
0
LINE
8
0
10
227.249622
20
17.901395
11
226.536685
21
17.417096
0
LINE
8
0
10
226.536685
20
17.417096
11
226.057150
21
16.700947
0
LINE
8
0
10
226.057150
20
16.700947
11
225.882978
21
15.825388
0
LINE
8
0
10
225.882978
20
15.825388
11
226.061840
21
14.950776
0
LINE
8
0
10
226.061840
20
14.950776
11
226.545207
21
14.237207
0
LINE
8
0
10
226.545207
20
14.237207
11
227.260729
21
13.756736
0
LINE
8
0
10
227.260729
20
13.756736
11
228.136059
21
13.581420
0
LINE
8
0
10
228.136059
20
13.581420
11
229.010438
21
13.761425
0
LINE
8
0
10
229.010438
20
13.761425
11
229.723374
21
14.245724
0
LINE
8
0
10
229.723374
20
14.245724
11
230.202909
21
14.961873
0
LINE
8
0
10
230.202909
20
14.961873
11
230.377082
21
15.837432
0
LINE
8
0
10
230.377082
20
15.837432
11
230.198219
21
16.712044
0
LINE
8
0
10
230.198219
20
16.712044
11
229.714853
21
17.425613
0
LINE
8
0
10
229.714853
20
17.425613
11
228.999330
21
17.906084
0
LINE
8
0
10
228.999330
20
17.906084
11
228.124000
21
18.081400
0
LINE
8
0
10
228.124000
20
18.081400
11
228.124000
21
18.081400
0
LINE
8
0
10
17.067500
20
188.086000
11
16.193122
21
187.905995
0
LINE
8
0
10
16.193122
20
187.905995
11
15.480185
21
187.421696
0
LINE
8
0
10
15.480185
20
187.421696
11
15.000650
21
186.705547
0
LINE
8
0
10
15.000650
20
186.705547
11
14.826478
21
185.829988
0
LINE
8
0
10
14.826478
20
185.829988
11
15.005340
21
184.955375
0
LINE
8
0
10
15.005340
20
184.955375
11
15.488707
21
184.241807
0
LINE
8
0
10
15.488707
20
184.241807
11
16.204229
21
183.761336
0
LINE
8
0
10
16.204229
20
183.761336
11
17.079559
21
183.586020
0
LINE
8
0
10
17.079559
20
183.586020
11
17.953938
21
183.766025
0
LINE
8
0
10
17.953938
20
183.766025
11
18.666874
21
184.250324
0
LINE
8
0
10
18.666874
20
184.250324
11
19.146409
21
184.966473
0
LINE
8
0
10
19.146409
20
184.966473
11
19.320582
21
185.842032
0
LINE
8
0
10
19.320582
20
185.842032
11
19.141719
21
186.716645
0
LINE
8
0
10
19.141719
20
186.716645
11
18.658353
21
187.430213
0
LINE
8
0
10
18.658353
20
187.430213
11
17.942830
21
187.910684
0
LINE
8
0
10
17.942830
20
187.910684
11
17.067500
21
188.086000
0
LINE
8
0
10
17.067500
20
188.086000
11
17.067500
21
188.086000
 0 
ENDSEC
 0 
EOF