<?xml version="1.0" encoding="UTF-8" standalone="no"?>
<!-- Created with Inkscape (http://www.inkscape.org/) -->

<svg
   width="120mm"
   height="540mm"
   viewBox="0 0 120 540"
   version="1.1"
   id="svg5"
   xml:space="preserve"
   inkscape:version="1.2.2 (b0a8486541, 2022-12-01)"
   sodipodi:docname="rearPanel.svg"
   xmlns:inkscape="http://www.inkscape.org/namespaces/inkscape"
   xmlns:sodipodi="http://sodipodi.sourceforge.net/DTD/sodipodi-0.dtd"
   xmlns="http://www.w3.org/2000/svg"
   xmlns:svg="http://www.w3.org/2000/svg"><sodipodi:namedview
     id="namedview7"
     pagecolor="#ffffff"
     bordercolor="#000000"
     borderopacity="0.25"
     inkscape:showpageshadow="2"
     inkscape:pageopacity="0.0"
     inkscape:pagecheckerboard="0"
     inkscape:deskcolor="#d1d1d1"
     inkscape:document-units="mm"
     showgrid="false"
     inkscape:zoom="0.26362494"
     inkscape:cx="307.25469"
     inkscape:cy="1122.8073"
     inkscape:window-width="1920"
     inkscape:window-height="1017"
     inkscape:window-x="-8"
     inkscape:window-y="-8"
     inkscape:window-maximized="1"
     inkscape:current-layer="layer1" /><defs
     id="defs2"><marker
       id="DistanceX"
       orient="auto"
       refX="0"
       refY="0"
       style="overflow:visible"><path
         d="M 3,-3 -3,3 M 0,-5 V 5"
         style="stroke:#000000;stroke-width:0.5"
         id="path134" /></marker><pattern
       id="Hatch"
       patternUnits="userSpaceOnUse"
       width="8"
       height="8"
       x="0"
       y="0"><path
         d="M8 4 l-4,4"
         stroke="#000000"
         stroke-width="0.25"
         linecap="square"
         id="path137" /><path
         d="M6 2 l-4,4"
         stroke="#000000"
         stroke-width="0.25"
         linecap="square"
         id="path139" /><path
         d="M4 0 l-4,4"
         stroke="#000000"
         stroke-width="0.25"
         linecap="square"
         id="path141" /></pattern><symbol
       id="*MODEL_SPACE" /><symbol
       id="*PAPER_SPACE" /></defs><g
     inkscape:label="Layer 1"
     inkscape:groupmode="layer"
     id="layer1"><g
       inkscape:label="0"
       id="g238"
       transform="matrix(0,0.26458333,-0.26458333,0,347.39338,265.39308)"><path
         d="m -469.93401,1184.095 a 4.779213,4.779213 0 0 0 -9.55842,0 4.779213,4.779213 0 0 0 9.55842,0 z"
         style="fill:none;stroke:#000000"
         id="path148" /><path
         d="m -469.93401,959.96899 a 4.779213,4.779213 0 0 0 -9.55842,0 4.779213,4.779213 0 0 0 9.55842,0 z"
         style="fill:none;stroke:#000000"
         id="path150" /><path
         d="m -650.60151,1184.095 a 4.779213,4.779213 0 0 0 -9.55842,0 4.779213,4.779213 0 0 0 9.55842,0 z"
         style="fill:none;stroke:#000000"
         id="path152" /><path
         d="m -653.39033,1164.4476 a 30.23622,30.23622 0 0 0 28.29049,19.5649 h 120.1504 a 30.23622,30.23622 0 0 0 30.23622,-30.2362 V 990.12278 a 30.23622,30.23622 0 0 0 -27.13926,-30.0772 h -123.18788 a 30.23622,30.23622 0 0 0 -30.23622,30.23622 v 163.6535 a 30.23622,30.23622 0 0 0 1.88625,10.5123 z"
         style="fill:none;stroke:#000000"
         id="path154" /><path
         d="m -650.60151,959.96899 a 4.779213,4.779213 0 0 0 -9.55842,0 4.779213,4.779213 0 0 0 9.55842,0 z"
         style="fill:none;stroke:#000000"
         id="path156" /><path
         d="m 783.05304,1198.4844 a 4.779215,4.779215 0 0 0 -9.55843,0 4.779215,4.779215 0 0 0 9.55843,0 z"
         style="fill:none;stroke:#000000"
         id="path158" /><path
         d="m 896.43886,1198.4844 a 4.779213,4.779213 0 0 0 -9.55842,0 4.779213,4.779213 0 0 0 9.55842,0 z"
         style="fill:none;stroke:#000000"
         id="path160" /><path
         d="m 891.65965,983.05132 v 185.19688 a 30.23622,30.23622 0 0 1 -30.23622,30.2362 h -52.91339 a 30.23622,30.23622 0 0 1 -30.23622,-30.2362 V 983.05132 a 30.23622,30.23622 0 0 1 30.23622,-30.23622 h 52.91339 a 30.23622,30.23622 0 0 1 30.23622,30.23622 z"
         style="fill:none;stroke:#000000"
         id="path162" /><path
         d="m 783.05304,952.8151 a 4.779215,4.779215 0 0 0 -9.55843,0 4.779215,4.779215 0 0 0 9.55843,0 z"
         style="fill:none;stroke:#000000"
         id="path164" /><path
         d="m 313.43706,953.14344 a 32.125984,32.125984 0 0 0 -32.12598,32.12598 v 185.19688 a 32.125984,32.125984 0 0 0 32.12598,32.126 h 185.29113 a 32.125984,32.125984 0 0 0 32.12598,-32.126 V 985.26942 a 32.125984,32.125984 0 0 0 -32.12598,-32.12598 z"
         style="fill:none;stroke:#000000"
         id="path166" /><path
         d="m 288.72106,955.52781 a 4.779215,4.779215 0 0 0 -9.55843,0 4.779215,4.779215 0 0 0 9.55843,0 z"
         style="fill:none;stroke:#000000"
         id="path168" /><path
         d="m 533.69648,1200.6554 a 4.779213,4.779213 0 0 0 -9.55842,0 4.779213,4.779213 0 0 0 9.55842,0 z"
         style="fill:none;stroke:#000000"
         id="path170" /><path
         d="m 288.02719,1200.6554 a 4.779213,4.779213 0 0 0 -9.55842,0 4.779213,4.779213 0 0 0 9.55842,0 z"
         style="fill:none;stroke:#000000"
         id="path172" /><path
         d="M 988.19483,899.69727 H -974.06785 V 1277.65 H 988.19483 Z"
         style="fill:none;stroke:#000000"
         id="path174" /><path
         d="m 144.18733,1202.4976 a 30.23622,30.23622 0 0 0 30.23622,-30.2362 V 984.04089 A 30.23622,30.23622 0 0 0 144.18733,953.80467 H -44.03314 a 30.23622,30.23622 0 0 0 -30.23622,30.23622 v 188.22051 a 30.23622,30.23622 0 0 0 30.23622,30.2362 z"
         style="fill:none;stroke:#000000"
         id="path176" /><path
         d="m 178.2857,1201.5805 a 4.779215,4.779215 0 0 0 -9.55843,0 4.779215,4.779215 0 0 0 9.55843,0 z"
         style="fill:none;stroke:#000000"
         id="path178" /><path
         d="m -68.57308,1201.5805 a 4.779213,4.779213 0 0 0 -9.558426,0 4.779213,4.779213 0 0 0 9.558426,0 z"
         style="fill:none;stroke:#000000"
         id="path180" /><path
         d="m 178.2857,954.72174 a 4.779215,4.779215 0 0 0 -9.55843,0 4.779215,4.779215 0 0 0 9.55843,0 z"
         style="fill:none;stroke:#000000"
         id="path182" /><path
         d="m -68.57308,954.72174 a 4.779213,4.779213 0 0 0 -9.558426,0 4.779213,4.779213 0 0 0 9.558426,0 z"
         style="fill:none;stroke:#000000"
         id="path184" /><path
         d="m 896.90048,953.49109 a 4.779213,4.779213 0 0 0 -9.55842,0 4.779213,4.779213 0 0 0 9.55842,0 z"
         style="fill:none;stroke:#000000"
         id="path186" /><path
         d="m 534.39035,955.52781 a 4.779215,4.779215 0 0 0 -9.55843,0 4.779215,4.779215 0 0 0 9.55843,0 z"
         style="fill:none;stroke:#000000"
         id="path188" /><path
         d="m 288.72106,955.52781 a 4.779215,4.779215 0 0 0 -9.55843,0 4.779215,4.779215 0 0 0 9.55843,0 z"
         style="fill:none;stroke:#000000"
         id="path190" /><path
         d="m 533.69648,1200.6554 a 4.779213,4.779213 0 0 0 -9.55842,0 4.779213,4.779213 0 0 0 9.55842,0 z"
         style="fill:none;stroke:#000000"
         id="path192" /><path
         d="m 288.02719,1200.6554 a 4.779213,4.779213 0 0 0 -9.55842,0 4.779213,4.779213 0 0 0 9.55842,0 z"
         style="fill:none;stroke:#000000"
         id="path194" /><path
         d="M 988.19483,899.69727 H -974.06785 v 317.48033 45.3543 15.1181 H 988.19483 v -15.1181 -45.3543 z"
         style="fill:none;stroke:#000000"
         id="path196" /><path
         d="m 144.18733,1202.4976 a 30.23622,30.23622 0 0 0 30.23622,-30.2362 V 984.04089 A 30.23622,30.23622 0 0 0 144.18733,953.80467 H -44.03314 a 30.23622,30.23622 0 0 0 -30.23622,30.23622 v 188.22051 a 30.23622,30.23622 0 0 0 30.23622,30.2362 z"
         style="fill:none;stroke:#000000"
         id="path198" /><path
         d="m 178.2857,1201.5805 a 4.779215,4.779215 0 0 0 -9.55843,0 4.779215,4.779215 0 0 0 9.55843,0 z"
         style="fill:none;stroke:#000000"
         id="path200" /><path
         d="m -68.57308,1201.5805 a 4.779213,4.779213 0 0 0 -9.558426,0 4.779213,4.779213 0 0 0 9.558426,0 z"
         style="fill:none;stroke:#000000"
         id="path202" /><path
         d="m 178.2857,954.72174 a 4.779215,4.779215 0 0 0 -9.55843,0 4.779215,4.779215 0 0 0 9.55843,0 z"
         style="fill:none;stroke:#000000"
         id="path204" /><path
         d="m -68.57308,954.72174 a 4.779213,4.779213 0 0 0 -9.558426,0 4.779213,4.779213 0 0 0 9.558426,0 z"
         style="fill:none;stroke:#000000"
         id="path206" /><path
         d="m 896.90048,953.49109 a 4.779213,4.779213 0 0 0 -9.55842,0 4.779213,4.779213 0 0 0 9.55842,0 z"
         style="fill:none;stroke:#000000"
         id="path208" /><path
         d="m 534.39035,955.52781 a 4.779215,4.779215 0 0 0 -9.55843,0 4.779215,4.779215 0 0 0 9.55843,0 z"
         style="fill:none;stroke:#000000"
         id="path210" /><path
         d="m 313.43706,1202.5923 h 185.29113 a 32.125984,32.125984 0 0 0 32.12598,-32.126 V 985.26942 A 32.125984,32.125984 0 0 0 498.72819,953.14344 H 313.43706 a 32.125984,32.125984 0 0 0 -32.12598,32.12598 v 185.19688 a 32.125984,32.125984 0 0 0 32.12598,32.126 z"
         style="fill:none;stroke:#000000"
         id="path212" /><path
         d="m 783.05304,952.8151 a 4.779215,4.779215 0 0 0 -9.55843,0 4.779215,4.779215 0 0 0 9.55843,0 z"
         style="fill:none;stroke:#000000"
         id="path214" /><path
         d="m 808.51004,952.8151 a 30.23622,30.23622 0 0 0 -30.23622,30.23622 v 185.19688 a 30.23622,30.23622 0 0 0 30.23622,30.2362 h 52.91339 a 30.23622,30.23622 0 0 0 30.23622,-30.2362 V 983.05132 A 30.23622,30.23622 0 0 0 861.42343,952.8151 Z"
         style="fill:none;stroke:#000000"
         id="path216" /><path
         d="m 896.43886,1198.4844 a 4.779213,4.779213 0 0 0 -9.55842,0 4.779213,4.779213 0 0 0 9.55842,0 z"
         style="fill:none;stroke:#000000"
         id="path218" /><path
         d="m 783.05304,1198.4844 a 4.779215,4.779215 0 0 0 -9.55843,0 4.779215,4.779215 0 0 0 9.55843,0 z"
         style="fill:none;stroke:#000000"
         id="path220" /><path
         d="m -469.93401,1184.095 a 4.779213,4.779213 0 0 0 -9.55842,0 4.779213,4.779213 0 0 0 9.55842,0 z"
         style="fill:none;stroke:#000000"
         id="path222" /><path
         d="m -469.93401,959.96899 a 4.779213,4.779213 0 0 0 -9.55842,0 4.779213,4.779213 0 0 0 9.55842,0 z"
         style="fill:none;stroke:#000000"
         id="path224" /><path
         d="m -650.60151,1184.095 a 4.779213,4.779213 0 0 0 -9.55842,0 4.779213,4.779213 0 0 0 9.55842,0 z"
         style="fill:none;stroke:#000000"
         id="path226" /><path
         d="m -653.39033,1164.4476 a 30.23622,30.23622 0 0 0 28.29049,19.5649 h 120.1504 a 30.23622,30.23622 0 0 0 30.23622,-30.2362 V 990.12278 a 30.23622,30.23622 0 0 0 -27.13926,-30.0772 h -123.18788 a 30.23622,30.23622 0 0 0 -30.23622,30.23622 v 163.6535 a 30.23622,30.23622 0 0 0 1.88625,10.5123 z"
         style="fill:none;stroke:#000000"
         id="path228" /><path
         d="m -650.60151,959.96899 a 4.779213,4.779213 0 0 0 -9.55842,0 4.779213,4.779213 0 0 0 9.55842,0 z"
         style="fill:none;stroke:#000000"
         id="path230" /><path
         d="M -944.64187,1265.9624 H 964.01955 v -45.3543 H -944.64187 Z"
         style="fill:none;stroke:#000000"
         id="path232" /><path
         d="m 951.3444,1262.5319 h 15.11811 v -45.3543 H 951.3444 V 899.69727 h 36.85039 8.50394 V 1277.65 h -8.50394 -36.85039 z"
         style="fill:none;stroke:#000000"
         id="path234" /><path
         d="m -952.44671,1262.5319 h 15.11811 v 15.1181 h -36.85039 -8.50394 V 899.69727 h 8.50394 36.85039 v 317.48033 h -15.11811 z"
         style="fill:none;stroke:#000000"
         id="path236" /></g></g></svg>
