0
SECTION
2
HEADER
9
$INSUNITS
70
4
9
$ACADVER
1
AC1014
9
$HANDSEED
5
FFFF
0
ENDSEC
0
SECTION
2
TABLES
0
TABLE
2
VPORT
5
8
100
AcDbSymbolTable
0
ENDTAB
0
TABLE
2
LTYPE
5
5
100
AcDbSymbolTable
0
LTYPE
5
14
100
AcDbSymbolTableRecord
100
AcDbLinetypeTableRecord
2
BYBLOCK
70
0
0
LTYPE
5
15
100
AcDbSymbolTableRecord
100
AcDbLinetypeTableRecord
2
BYLAYER
70
0
0
LTYPE
5
16
100
AcDbSymbolTableRecord
100
AcDbLinetypeTableRecord
2
DASHED
70
0
3
Dashed __ __ __ __ __ __ __ __ __ __ __ __ __ _
72
65
73
2
40
0.75
49
0.5
74
0
49
-0.25
74
0
0
ENDTAB
0
TABLE
2
LAYER
5
2
100
AcDbSymbolTable
70
2
0
LAYER
5
50
100
AcDbSymbolTableRecord
100
AcDbLayerTableRecord
2
0
70
0
62
7
6
CONTINUOUS
0
ENDTAB
0
TABLE
2
STYLE
5
3
100
AcDbSymbolTable
70
1
0
STYLE
5
11
100
AcDbSymbolTableRecord
100
AcDbTextStyleTableRecord
2
STANDARD
70
0
0
ENDTAB
0
TABLE
2
VIEW
5
6
100
AcDbSymbolTable
70
0
0
ENDTAB
0
TABLE
2
UCS
5
7
100
AcDbSymbolTable
70
0
0
ENDTAB
0
TABLE
2
APPID
5
9
100
AcDbSymbolTable
70
2
0
APPID
5
12
100
AcDbSymbolTableRecord
100
AcDbRegAppTableRecord
2
ACAD
70
0
0
ENDTAB
0
TABLE
2
DIMSTYLE
5
A
100
AcDbSymbolTable
70
1
0
ENDTAB
0
TABLE
2
BLOCK_RECORD
5
1
100
AcDbSymbolTable
70
1
0
BLOCK_RECORD
5
1F
100
AcDbSymbolTableRecord
100
AcDbBlockTableRecord
2
*MODEL_SPACE
0
BLOCK_RECORD
5
1B
100
AcDbSymbolTableRecord
100
AcDbBlockTableRecord
2
*PAPER_SPACE
0
ENDTAB
0
ENDSEC
0
SECTION
2
BLOCKS
0
BLOCK
5
20
100
AcDbEntity
100
AcDbBlockBegin
2
*MODEL_SPACE
0
ENDBLK
5
21
100
AcDbEntity
100
AcDbBlockEnd
0
BLOCK
5
1C
100
AcDbEntity
100
AcDbBlockBegin
2
*PAPER_SPACE
0
ENDBLK
5
1D
100
AcDbEntity
100
AcDbBlockEnd
0
ENDSEC
0
SECTION
2
ENTITIES
0
LWPOLYLINE
5
100
100
AcDbEntity
8
0
100
AcDbPolyline
90
4
70
1
43
0.0
10
117.55441746897961
20
-45.503984623942685
10
108.80441746897964
20
-45.503984623942671
10
108.80441746897959
20
-38.503984623942685
10
117.55441746897959
20
-38.503984623942692
0
LWPOLYLINE
5
101
100
AcDbEntity
8
0
100
AcDbPolyline
90
17
70
1
43
0.0
10
65.854417468979719
20
-48.353984623942651
10
77.284417468979711
20
-59.783984623942644
10
92.604417468979676
20
-59.783984623942665
10
92.604417468979662
20
-49.453984623942674
10
102.60441746897965
20
-49.453984623942674
10
102.60441746897968
20
-59.783984623942672
10
118.17841746897963
20
-59.783984623942672
10
118.17841746897963
20
-58.433984623942678
10
107.59441746897964
20
-58.433984623942656
10
107.59441746897961
20
-48.433984623942678
10
118.1784174689796
20
-48.433984623942685
10
118.17841746897957
20
-16.857984623942734
42
0.41419999999999946
10
112.08241746897957
20
-10.380984623942734
42
0.41420000000000112
10
105.9864174689796
20
-16.603984623942726
10
78.554417468979636
20
-16.603984623942679
42
0.41419999999999829
10
72.204417468979671
20
-10.253984623942696
42
0.41419999999999924
10
65.854417468979676
20
-16.603984623942683
0
LWPOLYLINE
5
102
100
AcDbEntity
8
0
100
AcDbPolyline
90
4
70
1
43
0.0
10
109.85441746897959
20
-24.573984623942707
10
115.85441746897958
20
-24.573984623942714
10
115.85441746897959
20
-36.5739846239427
10
109.85441746897961
20
-36.5739846239427
0
LWPOLYLINE
5
103
100
AcDbEntity
8
0
100
AcDbPolyline
90
4
70
1
43
0.0
10
82.637517468979652
20
-20.028284623942692
10
94.636317468979627
20
-19.860784623942699
10
94.720117468979623
20
-25.8601846239427
10
82.721317468979663
20
-26.027684623942697
0
LWPOLYLINE
5
104
100
AcDbEntity
8
0
100
AcDbPolyline
90
4
70
1
43
0.0
10
89.984417468979672
20
-56.608984623942654
10
89.984417468979672
20
-59.148984623942653
10
79.824417468979689
20
-59.148984623942638
10
79.824417468979703
20
-56.608984623942654
0
CIRCLE
5
105
100
AcDbEntity
8
0
100
AcDbCircle
10
112.08241746897957
20
-16.603984623942711
30
-8.8817841970012523e-15
40
1.9999999999999971
210
3.1554570338991593e-30
220
2.4273487074798143e-20
230
1
0
CIRCLE
5
106
100
AcDbEntity
8
0
100
AcDbCircle
10
72.204417468979671
20
-16.603984623942676
30
-8.8817841970012523e-15
40
1.9999999999999993
210
6.3109006547832129e-30
220
2.427348707795359e-20
230
1
0
LWPOLYLINE
5
107
100
AcDbEntity
8
0
100
AcDbPolyline
90
4
70
1
43
0.0
10
94.636317468979612
20
-19.860784623942696
10
82.637517468979638
20
-20.028284623942689
10
82.721317468979663
20
-26.02768462394269
10
94.720117468979623
20
-25.860184623942697
0
LWPOLYLINE
5
108
100
AcDbEntity
8
0
100
AcDbPolyline
90
4
70
1
43
0.0
10
115.85441746897958
20
-24.573984623942714
10
109.85441746897959
20
-24.573984623942707
10
109.85441746897961
20
-36.573984623942692
10
115.85441746897959
20
-36.5739846239427
0
LWPOLYLINE
5
109
100
AcDbEntity
8
0
100
AcDbPolyline
90
4
70
1
43
0.0
10
117.55441746897961
20
-45.503984623942685
10
117.55441746897959
20
-38.503984623942699
10
108.80441746897961
20
-38.503984623942685
10
108.80441746897964
20
-45.503984623942664
0
LWPOLYLINE
5
110
100
AcDbEntity
8
0
100
AcDbPolyline
90
4
70
1
43
0.0
10
120.8444174689796
20
-58.433984623942678
10
120.84441746897959
20
-48.433984623942692
10
107.59441746897961
20
-48.433984623942678
10
107.59441746897964
20
-58.433984623942656
0
LWPOLYLINE
5
111
100
AcDbEntity
8
0
100
AcDbPolyline
90
4
70
1
43
0.0
10
102.60441746897966
20
-49.453984623942674
10
92.604417468979676
20
-49.453984623942674
10
92.604417468979676
20
-62.703984623942659
10
102.60441746897966
20
-62.703984623942659
0
LWPOLYLINE
5
112
100
AcDbEntity
8
0
100
AcDbPolyline
90
4
70
1
43
0.0
10
89.984417468979672
20
-59.14898462394266
10
89.984417468979672
20
-56.608984623942661
10
79.824417468979675
20
-56.608984623942646
10
79.824417468979703
20
-59.148984623942638
0
CIRCLE
5
113
100
AcDbEntity
8
0
100
AcDbCircle
10
72.20456449094965
20
-16.604131645912894
30
-8.8817841970012523e-15
40
1.665999999999999
210
9.3689828022794601e-36
220
2.4273487074798143e-20
230
1
0
CIRCLE
5
114
100
AcDbEntity
8
0
100
AcDbCircle
10
112.20456449094961
20
-16.604131645912911
30
-8.8817841970012523e-15
40
1.665999999999999
210
9.3689828022794601e-36
220
2.4273487074798143e-20
230
1
0
LWPOLYLINE
5
115
100
AcDbEntity
8
0
100
AcDbPolyline
90
4
70
1
43
0.0
10
122.20456449094965
20
-11.10413164591291
10
62.204564490949679
20
-11.104131645912886
10
62.204564490949664
20
-43.104131645912872
10
122.20456449094962
20
-43.104131645912901
0
LWPOLYLINE
5
116
100
AcDbEntity
8
0
100
AcDbPolyline
90
4
70
1
43
0.0
10
219.43966677583961
20
-45.104131645912879
10
35.188421465225268
20
-45.104131645912808
10
35.188421465225261
20
-49.604131973738376
10
219.43966677583956
20
-49.604131973738454
0
LWPOLYLINE
5
117
100
AcDbEntity
8
0
100
AcDbPolyline
90
4
70
1
43
0.0
10
219.43966677583967
20
-47.604132301563894
10
35.188421465225339
20
-47.604132301563823
10
35.188421465225296
20
-56.60413230156383
10
219.43966677583961
20
-56.604132301563901
0
LWPOLYLINE
5
118
100
AcDbEntity
8
0
100
AcDbPolyline
90
4
70
1
43
0.0
10
219.43966677583958
20
-54.604131973738454
10
35.188421465225268
20
-54.604131973738383
10
35.18842146522524
20
-70.104131645912815
10
219.43966677583956
20
-70.104131645912886
0
ENDSEC
0
SECTION
2
OBJECTS
0
DICTIONARY
5
C
100
AcDbDictionary
3
ACAD_GROUP
350
D
3
ACAD_MLINESTYLE
350
17
0
DICTIONARY
5
D
100
AcDbDictionary
0
DICTIONARY
5
1A
330
C
100
AcDbDictionary
0
DICTIONARY
5
17
100
AcDbDictionary
0
ENDSEC
0
EOF
