0
SECTION
2
HEADER
9
$INSUNITS
70
4
9
$ACADVER
1
AC1014
9
$HANDSEED
5
FFFF
0
ENDSEC
0
SECTION
2
TABLES
0
TABLE
2
VPORT
5
8
100
AcDbSymbolTable
0
ENDTAB
0
TABLE
2
LTYPE
5
5
100
AcDbSymbolTable
0
LTYPE
5
14
100
AcDbSymbolTableRecord
100
AcDbLinetypeTableRecord
2
BYBLOCK
70
0
0
LTYPE
5
15
100
AcDbSymbolTableRecord
100
AcDbLinetypeTableRecord
2
BYLAYER
70
0
0
LTYPE
5
16
100
AcDbSymbolTableRecord
100
AcDbLinetypeTableRecord
2
DASHED
70
0
3
Dashed __ __ __ __ __ __ __ __ __ __ __ __ __ _
72
65
73
2
40
0.75
49
0.5
74
0
49
-0.25
74
0
0
ENDTAB
0
TABLE
2
LAYER
5
2
100
AcDbSymbolTable
70
2
0
LAYER
5
50
100
AcDbSymbolTableRecord
100
AcDbLayerTableRecord
2
0
70
0
62
7
6
CONTINUOUS
0
ENDTAB
0
TABLE
2
STYLE
5
3
100
AcDbSymbolTable
70
1
0
STYLE
5
11
100
AcDbSymbolTableRecord
100
AcDbTextStyleTableRecord
2
STANDARD
70
0
0
ENDTAB
0
TABLE
2
VIEW
5
6
100
AcDbSymbolTable
70
0
0
ENDTAB
0
TABLE
2
UCS
5
7
100
AcDbSymbolTable
70
0
0
ENDTAB
0
TABLE
2
APPID
5
9
100
AcDbSymbolTable
70
2
0
APPID
5
12
100
AcDbSymbolTableRecord
100
AcDbRegAppTableRecord
2
ACAD
70
0
0
ENDTAB
0
TABLE
2
DIMSTYLE
5
A
100
AcDbSymbolTable
70
1
0
ENDTAB
0
TABLE
2
BLOCK_RECORD
5
1
100
AcDbSymbolTable
70
1
0
BLOCK_RECORD
5
1F
100
AcDbSymbolTableRecord
100
AcDbBlockTableRecord
2
*MODEL_SPACE
0
BLOCK_RECORD
5
1B
100
AcDbSymbolTableRecord
100
AcDbBlockTableRecord
2
*PAPER_SPACE
0
ENDTAB
0
ENDSEC
0
SECTION
2
BLOCKS
0
BLOCK
5
20
100
AcDbEntity
100
AcDbBlockBegin
2
*MODEL_SPACE
0
ENDBLK
5
21
100
AcDbEntity
100
AcDbBlockEnd
0
BLOCK
5
1C
100
AcDbEntity
100
AcDbBlockBegin
2
*PAPER_SPACE
0
ENDBLK
5
1D
100
AcDbEntity
100
AcDbBlockEnd
0
ENDSEC
0
SECTION
2
ENTITIES
0
CIRCLE
5
100
100
AcDbEntity
8
0
100
AcDbCircle
10
-57.681591781563199
20
-63.342354877393731
30
0
40
2.1170000000000271
210
-9.8607613152631008e-32
220
4.9303806576303828e-32
230
1
0
CIRCLE
5
101
100
AcDbEntity
8
0
100
AcDbCircle
10
14.300693448375894
20
-63.34235487738713
30
0
40
2.1170000000000271
210
-9.8607613152631008e-32
220
4.9303806576303828e-32
230
1
0
CIRCLE
5
102
100
AcDbEntity
8
0
100
AcDbCircle
10
-155.47822348171104
20
-63.342354877402691
30
0
40
2.1170000000000271
210
-9.8607613152631008e-32
220
4.9303806576303828e-32
230
1
0
CIRCLE
5
103
100
AcDbEntity
8
0
100
AcDbCircle
10
-226.06303406052845
20
-63.342354877409157
30
0
40
2.1170000000000271
210
-9.8607613152631008e-32
220
4.9303806576303828e-32
230
1
0
LWPOLYLINE
5
104
100
AcDbEntity
8
0
100
AcDbPolyline
90
8
70
1
43
0.0
10
190.42544542059491
20
-31.38353168589418
42
0.41421356237310591
10
180.92544542059397
20
-21.883531685895079
10
116.92544542059339
20
-21.883531685900884
42
0.41421356237309587
10
107.42544542059433
20
-31.383531685901829
10
107.42544542060016
20
-95.383531685902739
42
0.41421356237310109
10
116.92544542060136
20
-104.88353168590206
10
180.92544542060199
20
-104.88353168589597
42
0.41421356237310158
10
190.42544542060108
20
-95.383531685895164
0
LWPOLYLINE
5
105
100
AcDbEntity
8
0
100
AcDbPolyline
90
4
70
1
43
0.0
10
-258.71102530708208
20
-179.64235487741374
10
274.99997469292487
20
-179.64235487736482
10
274.9999746929027
20
52.982645122638132
10
-258.71102530710425
20
52.982645122589254
0
LWPOLYLINE
5
106
100
AcDbEntity
8
0
100
AcDbPolyline
90
8
70
1
43
0.0
10
129.92544542059443
20
-29.383531685899715
10
167.9254454205946
20
-29.383531685896322
42
-0.41421356237309903
10
182.92544542059613
20
-44.383531685895072
10
182.92544542059969
20
-82.38353168589542
42
-0.41421356237309398
10
167.92544542060082
20
-97.38353168589714
10
129.9254454206006
20
-97.383531685900678
42
-0.41421356237309648
10
114.92544542059909
20
-82.383531685901872
10
114.92544542059554
20
-44.383531685901133
42
-0.4142135623730992
0
CIRCLE
5
107
100
AcDbEntity
8
0
100
AcDbCircle
10
115.23944802375095
20
-97.150945674936239
30
0
40
1.6660000000000212
210
-9.8607613152630986e-32
220
4.9303806576303828e-32
230
1
0
CIRCLE
5
108
100
AcDbEntity
8
0
100
AcDbCircle
10
182.76050136207351
20
-29.533764079813317
30
0
40
1.6660000000000212
210
-9.8607613152630986e-32
220
4.9303806576303828e-32
230
1
0
CIRCLE
5
109
100
AcDbEntity
8
0
100
AcDbCircle
10
115.1913838953505
20
-29.581828208213299
30
0
40
1.6660000000000212
210
-9.8607613152630986e-32
220
4.9303806576303828e-32
230
1
0
CIRCLE
5
110
100
AcDbEntity
8
0
100
AcDbCircle
10
182.80856549047365
20
-97.102881546536196
30
0
40
1.6660000000000212
210
-9.8607613152630986e-32
220
4.9303806576303828e-32
230
1
0
LWPOLYLINE
5
111
100
AcDbEntity
8
0
100
AcDbPolyline
90
8
70
1
43
0.0
10
190.42544542060108
20
-95.383531685895164
10
190.42544542059511
20
-31.383531685894226
42
0.41421356237310736
10
180.92544542059397
20
-21.883531685895079
10
116.92544542059341
20
-21.883531685900813
42
0.41421356237309531
10
107.42544542059433
20
-31.383531685901794
10
107.42544542060016
20
-95.383531685902696
42
0.41421356237310269
10
116.92544542060139
20
-104.88353168590206
10
180.92544542060196
20
-104.88353168589597
42
0.41421356237310269
0
LWPOLYLINE
5
112
100
AcDbEntity
8
0
100
AcDbPolyline
90
4
70
1
43
0.0
10
-262.71102530707816
20
-183.64235487741388
10
-262.71102530710112
20
56.982645122586106
10
278.99997469289883
20
56.982645122637827
10
278.99997469292197
20
-183.64235487736221
0
CIRCLE
5
113
100
AcDbEntity
8
0
100
AcDbCircle
10
-247.71002530707946
20
-168.64235487741243
30
0
40
2.2500000000000142
210
-9.8607613152626476e-32
220
4.9303806576313238e-32
230
1
0
CIRCLE
5
114
100
AcDbEntity
8
0
100
AcDbCircle
10
182.76050136207141
20
-29.533764079813341
30
8.8817841970012523e-15
40
1.6659999999999999
210
-9.8607613152626476e-32
220
4.9303806576313238e-32
230
1
0
CIRCLE
5
115
100
AcDbEntity
8
0
100
AcDbCircle
10
-247.7100253070895
20
-63.342354877412355
30
0
40
2.2500000000000142
210
-9.8607613152626476e-32
220
4.9303806576313238e-32
230
1
0
CIRCLE
5
116
100
AcDbEntity
8
0
100
AcDbCircle
10
-57.681591781562247
20
-63.342354877394214
30
0
40
2.117
210
-9.8607613152626476e-32
220
4.9303806576313238e-32
230
1
0
CIRCLE
5
117
100
AcDbEntity
8
0
100
AcDbCircle
10
14.300693448375911
20
-63.342354877387351
30
0
40
2.117
210
-9.8607613152626476e-32
220
4.9303806576313238e-32
230
1
0
CIRCLE
5
118
100
AcDbEntity
8
0
100
AcDbCircle
10
-155.47822348170885
20
-63.342354877403551
30
0
40
2.117
210
-9.8607613152626476e-32
220
4.9303806576313238e-32
230
1
0
CIRCLE
5
119
100
AcDbEntity
8
0
100
AcDbCircle
10
263.99997469291037
20
-63.342354877363519
30
0
40
2.2500000000000142
210
-9.8607613152626476e-32
220
4.9303806576313238e-32
230
1
0
CIRCLE
5
120
100
AcDbEntity
8
0
100
AcDbCircle
10
182.80856549047149
20
-97.102881546535343
30
0
40
1.6659999999999999
210
-9.8607613152626476e-32
220
4.9303806576313238e-32
230
1
0
CIRCLE
5
121
100
AcDbEntity
8
0
100
AcDbCircle
10
-77.140025307099577
20
41.957645122603928
30
0
40
2.2500000000000142
210
-9.8607613152626476e-32
220
4.9303806576313238e-32
230
1
0
CIRCLE
5
122
100
AcDbEntity
8
0
100
AcDbCircle
10
-226.06303406052533
20
-63.342354877410294
30
-8.8817841970012523e-15
40
2.117
210
-9.8607613152626476e-32
220
4.9303806576313238e-32
230
1
0
CIRCLE
5
123
100
AcDbEntity
8
0
100
AcDbCircle
10
115.19138389534922
20
-29.58182820821358
30
0
40
1.6659999999999999
210
-9.8607613152626476e-32
220
4.9303806576313238e-32
230
1
0
CIRCLE
5
124
100
AcDbEntity
8
0
100
AcDbCircle
10
115.23944802374967
20
-97.150945674935656
30
0
40
1.6659999999999999
210
-9.8607613152626476e-32
220
4.9303806576313238e-32
230
1
0
CIRCLE
5
125
100
AcDbEntity
8
0
100
AcDbCircle
10
93.429974692900387
20
41.957645122620221
30
0
40
2.2500000000000142
210
-9.8607613152626476e-32
220
4.9303806576313238e-32
230
1
0
CIRCLE
5
126
100
AcDbEntity
8
0
100
AcDbCircle
10
263.99997469292043
20
-168.64235487736363
30
0
40
2.2500000000000142
210
-9.8607613152626476e-32
220
4.9303806576313238e-32
230
1
0
CIRCLE
5
127
100
AcDbEntity
8
0
100
AcDbCircle
10
-77.140025307079483
20
-168.64235487739617
30
0
40
2.2500000000000142
210
-9.8607613152626476e-32
220
4.9303806576313238e-32
230
1
0
CIRCLE
5
128
100
AcDbEntity
8
0
100
AcDbCircle
10
93.429974692920467
20
-168.64235487737989
30
0
40
2.2500000000000142
210
-9.8607613152626476e-32
220
4.9303806576313238e-32
230
1
0
CIRCLE
5
129
100
AcDbEntity
8
0
100
AcDbCircle
10
-247.71002530709956
20
41.957645122587657
30
0
40
2.2500000000000142
210
-9.8607613152626476e-32
220
4.9303806576313238e-32
230
1
0
CIRCLE
5
130
100
AcDbEntity
8
0
100
AcDbCircle
10
263.99997469290037
20
41.957645122636492
30
0
40
2.2500000000000142
210
-9.8607613152626476e-32
220
4.9303806576313238e-32
230
1
0
LWPOLYLINE
5
131
100
AcDbEntity
8
0
100
AcDbPolyline
90
8
70
1
43
0.0
10
167.92544542059264
20
-29.383531685896354
10
129.92544542059292
20
-29.383531685899911
42
0.4142135623730997
10
114.92544542059426
20
-44.383531685901218
10
114.92544542059784
20
-82.383531685901403
42
0.41421356237309959
10
129.92544542059926
20
-97.383531685900039
10
167.92544542059903
20
-97.383531685896401
42
0.41421356237309193
10
182.92544542059758
20
-82.383531685894766
10
182.925445420594
20
-44.383531685894944
42
0.4142135623730997
0
CIRCLE
5
132
100
AcDbEntity
8
0
100
AcDbCircle
10
-77.140025307100785
20
41.957645122605825
30
0
40
5.2500000000000888
210
-9.8607613152630986e-32
220
4.9303806576303828e-32
230
1
0
CIRCLE
5
133
100
AcDbEntity
8
0
100
AcDbCircle
10
-247.71002530708287
20
-168.64235487741257
30
0
40
5.2500000000000888
210
-9.8607613152630986e-32
220
4.9303806576303828e-32
230
1
0
CIRCLE
5
134
100
AcDbEntity
8
0
100
AcDbCircle
10
93.429974692901382
20
41.957645122621457
30
0
40
5.2500000000000888
210
-9.8607613152630986e-32
220
4.9303806576303828e-32
230
1
0
CIRCLE
5
135
100
AcDbEntity
8
0
100
AcDbCircle
10
263.99997469291355
20
-63.342354877364244
30
0
40
5.2500000000000826
210
-9.8607613152626476e-32
220
-9.4108686905875536e-45
230
1
0
CIRCLE
5
136
100
AcDbEntity
8
0
100
AcDbCircle
10
263.99997469292367
20
-168.64235487736568
30
0
40
5.2500000000000888
210
-9.8607613152630986e-32
220
4.9303806576303828e-32
230
1
0
CIRCLE
5
137
100
AcDbEntity
8
0
100
AcDbCircle
10
93.429974692921462
20
-168.64235487738131
30
0
40
5.2500000000000888
210
-9.8607613152630986e-32
220
4.9303806576303828e-32
230
1
0
CIRCLE
5
138
100
AcDbEntity
8
0
100
AcDbCircle
10
263.99997469290355
20
41.957645122637089
30
0
40
5.2500000000000888
210
-9.8607613152630986e-32
220
4.9303806576303828e-32
230
1
0
CIRCLE
5
139
100
AcDbEntity
8
0
100
AcDbCircle
10
-77.140025307080691
20
-168.64235487739694
30
0
40
5.2500000000000888
210
-9.8607613152630986e-32
220
4.9303806576303828e-32
230
1
0
CIRCLE
5
140
100
AcDbEntity
8
0
100
AcDbCircle
10
-247.71002530709291
20
-63.342354877411147
30
0
40
5.2500000000000826
210
-9.8607613152626476e-32
220
-9.4108686905875536e-45
230
1
0
CIRCLE
5
141
100
AcDbEntity
8
0
100
AcDbCircle
10
-247.71002530710297
20
41.957645122590193
30
0
40
5.2500000000000888
210
-9.8607613152630986e-32
220
4.9303806576303828e-32
230
1
0
ENDSEC
0
SECTION
2
OBJECTS
0
DICTIONARY
5
C
100
AcDbDictionary
3
ACAD_GROUP
350
D
3
ACAD_MLINESTYLE
350
17
0
DICTIONARY
5
D
100
AcDbDictionary
0
DICTIONARY
5
1A
330
C
100
AcDbDictionary
0
DICTIONARY
5
17
100
AcDbDictionary
0
ENDSEC
0
EOF
