0
SECTION
2
HEADER
9
$INSUNITS
70
4
9
$ACADVER
1
AC1014
9
$HANDSEED
5
FFFF
0
ENDSEC
0
SECTION
2
TABLES
0
TABLE
2
VPORT
5
8
100
AcDbSymbolTable
0
ENDTAB
0
TABLE
2
LTYPE
5
5
100
AcDbSymbolTable
0
LTYPE
5
14
100
AcDbSymbolTableRecord
100
AcDbLinetypeTableRecord
2
BYBLOCK
70
0
0
LTYPE
5
15
100
AcDbSymbolTableRecord
100
AcDbLinetypeTableRecord
2
BYLAYER
70
0
0
LTYPE
5
16
100
AcDbSymbolTableRecord
100
AcDbLinetypeTableRecord
2
DASHED
70
0
3
Dashed __ __ __ __ __ __ __ __ __ __ __ __ __ _
72
65
73
2
40
0.75
49
0.5
74
0
49
-0.25
74
0
0
ENDTAB
0
TABLE
2
LAYER
5
2
100
AcDbSymbolTable
70
3
0
LAYER
5
50
100
AcDbSymbolTableRecord
100
AcDbLayerTableRecord
2
1
70
0
62
7
6
DASHED
0
LAYER
5
51
100
AcDbSymbolTableRecord
100
AcDbLayerTableRecord
2
0
70
0
62
7
6
CONTINUOUS
0
ENDTAB
0
TABLE
2
STYLE
5
3
100
AcDbSymbolTable
70
1
0
STYLE
5
11
100
AcDbSymbolTableRecord
100
AcDbTextStyleTableRecord
2
STANDARD
70
0
0
ENDTAB
0
TABLE
2
VIEW
5
6
100
AcDbSymbolTable
70
0
0
ENDTAB
0
TABLE
2
UCS
5
7
100
AcDbSymbolTable
70
0
0
ENDTAB
0
TABLE
2
APPID
5
9
100
AcDbSymbolTable
70
2
0
APPID
5
12
100
AcDbSymbolTableRecord
100
AcDbRegAppTableRecord
2
ACAD
70
0
0
ENDTAB
0
TABLE
2
DIMSTYLE
5
A
100
AcDbSymbolTable
70
1
0
ENDTAB
0
TABLE
2
BLOCK_RECORD
5
1
100
AcDbSymbolTable
70
1
0
BLOCK_RECORD
5
1F
100
AcDbSymbolTableRecord
100
AcDbBlockTableRecord
2
*MODEL_SPACE
0
BLOCK_RECORD
5
1B
100
AcDbSymbolTableRecord
100
AcDbBlockTableRecord
2
*PAPER_SPACE
0
ENDTAB
0
ENDSEC
0
SECTION
2
BLOCKS
0
BLOCK
5
20
100
AcDbEntity
100
AcDbBlockBegin
2
*MODEL_SPACE
0
ENDBLK
5
21
100
AcDbEntity
100
AcDbBlockEnd
0
BLOCK
5
1C
100
AcDbEntity
100
AcDbBlockBegin
2
*PAPER_SPACE
0
ENDBLK
5
1D
100
AcDbEntity
100
AcDbBlockEnd
0
ENDSEC
0
SECTION
2
ENTITIES
0
ARC
5
100
100
AcDbEntity
8
0
100
AcDbCircle
10
-81.500000000000369
20
-26.806724729609957
30
0
40
0.50000000000003386
210
0
220
0
230
1
100
AcDbArc
50
282.83958840690201
51
360
0
LINE
5
101
100
AcDbEntity
8
0
100
AcDbLine
10
-81.000000000000355
20
-26.806724729609989
30
0
11
-81.000000000000355
21
-20.000000000000178
31
0
0
LINE
5
102
100
AcDbEntity
8
0
100
AcDbLine
10
-81.000000000000355
20
-20.000000000000178
30
0
11
-101.00000000000036
21
-20.000000000000178
31
0
0
LINE
5
103
100
AcDbEntity
8
0
100
AcDbLine
10
-101.00000000000036
20
-20.000000000000178
30
0
11
-101.00000000000036
21
-36.806724729609989
31
0
0
ARC
5
104
100
AcDbEntity
8
0
100
AcDbCircle
10
-100.50000000000034
20
-36.806724729609968
30
0
40
0.50000000000000711
210
0
220
0
230
1
100
AcDbArc
50
180
51
257.16041159309236
0
ARC
5
105
100
AcDbEntity
8
0
100
AcDbCircle
10
-101.00000000000048
20
-39.000465826457983
30
0
40
1.7499999999999869
210
0
220
0
230
1
100
AcDbArc
50
-167.16041159309609
51
77.160411593092192
0
ARC
5
106
100
AcDbEntity
8
0
100
AcDbCircle
10
-103.1937410968485
20
-39.500465826457976
30
9.0660178966327276e-47
40
0.50000000000000022
210
3.089928229448258e-33
220
-1.3557005086501702e-32
230
1
100
AcDbArc
50
12.839588406904435
51
90
0
LINE
5
107
100
AcDbEntity
8
0
100
AcDbLine
10
-103.1937410968485
20
-39.000465826457983
30
7.1306325454977598e-33
11
-110.00000000000041
21
-39.000465826457983
31
1.1586394545433611e-29
0
LINE
5
108
100
AcDbEntity
8
0
100
AcDbLine
10
-110.00000000000041
20
-39.000465826457983
30
1.1586394545433611e-29
11
-110.0000000000005
21
-59.000465826457983
31
0
0
LINE
5
109
100
AcDbEntity
8
0
100
AcDbLine
10
-110.0000000000005
20
-59.000465826457983
30
0
11
-101.0000000000005
21
-59.000465826457983
31
0
0
SPLINE
5
110
100
AcDbEntity
8
0
100
AcDbSpline
70
4
71
5
72
16
73
10
74
0
42
0.000000001
43
0.0000000001
44
0.0000000001
40
0
40
0
40
0
40
0
40
0
40
0
40
0.20000000000000001
40
0.40000000000000002
40
0.60000000000000009
40
0.80000000000000004
40
1
40
1
40
1
40
1
40
1
40
1
41
1
41
1
41
1
41
1
41
1
41
1
41
1
41
1
41
1
41
1
10
-101.0000000000005
20
-59.000465826457983
30
0
10
-96.793163873037912
20
-58.791170496758347
30
0
10
-88.588706694982505
20
-58.347853673080657
30
0
10
-76.908954328728399
20
-57.608792786929982
30
0
10
-62.289442716851198
20
-56.518247107919237
30
0
10
-44.171241003035455
20
-55.198367684776379
30
0
10
-28.427308117544904
20
-54.398933731736633
30
0
10
-15.153849147537759
20
-54.072482150476731
30
0
10
-5.5161929933498355
20
-54.000219341333072
30
0
10
-0.50000000000044198
20
-54.000465826458004
30
0
0
SPLINE
5
111
100
AcDbEntity
8
0
100
AcDbSpline
70
4
71
5
72
16
73
10
74
0
42
0.000000001
43
0.0000000001
44
0.0000000001
40
-1
40
-1
40
-1
40
-1
40
-1
40
-1
40
-0.80000000000000004
40
-0.60000000000000009
40
-0.40000000000000002
40
-0.20000000000000001
40
0
40
0
40
0
40
0
40
0
40
0
41
1
41
1
41
1
41
1
41
1
41
1
41
1
41
1
41
1
41
1
10
-0.50000000000032618
20
-54.000465826458004
30
0
10
4.5161929933490672
20
-54.000219341333072
30
0
10
14.15384914753699
20
-54.072482150476731
30
0
10
27.427308117544136
20
-54.398933731736633
30
0
10
43.17124100303468
20
-55.198367684776379
30
0
10
61.289442716850431
20
-56.518247107919237
30
0
10
75.908954328727631
20
-57.608792786929982
30
0
10
87.588706694981724
20
-58.347853673080657
30
0
10
95.79316387303713
20
-58.791170496758347
30
0
10
99.999999999999716
20
-59.000465826457983
30
0
0
LINE
5
112
100
AcDbEntity
8
0
100
AcDbLine
10
99.999999999999716
20
-59.000465826457983
30
0
11
108.99999999999974
21
-59.000465826457983
31
0
0
LINE
5
113
100
AcDbEntity
8
0
100
AcDbLine
10
108.99999999999974
20
-59.000465826457983
30
0
11
108.99999999999969
21
-39.000465826457983
31
0
0
LINE
5
114
100
AcDbEntity
8
0
100
AcDbLine
10
108.99999999999969
20
-39.000465826457983
30
0
11
102.19374109684765
21
-39.000465826457997
31
-2.2186712959340957e-30
0
ARC
5
115
100
AcDbEntity
8
0
100
AcDbCircle
10
102.19374109684763
20
-39.500465826457955
30
0
40
0.49999999999995826
210
1.5764607723656825e-43
220
4.437342591868562e-30
230
1
100
AcDbArc
50
89.99999999999838
51
167.16041159309839
0
ARC
5
116
100
AcDbEntity
8
0
100
AcDbCircle
10
99.999999999999602
20
-39.000465826457983
30
0
40
1.7500000000000067
210
4.9440566501566621e-32
220
4.9475244215381578e-33
230
1
100
AcDbArc
50
102.83958840690015
51
347.16041159309606
0
ARC
5
117
100
AcDbEntity
8
0
100
AcDbCircle
10
99.499999999999744
20
-36.806724729609883
30
0
40
0.50000000000002565
210
-4.7934256393625254e-33
220
2.1031069639513988e-32
230
1
100
AcDbArc
50
282.83958840690053
51
360
0
LINE
5
118
100
AcDbEntity
8
0
100
AcDbLine
10
99.999999999999773
20
-36.806724729609911
30
0
11
99.999999999999773
21
-20.000000000000178
31
0
0
LINE
5
119
100
AcDbEntity
8
0
100
AcDbLine
10
99.999999999999773
20
-20.000000000000178
30
0
11
79.999999999999758
21
-20.000000000000178
31
7.8886090522101181e-30
0
LINE
5
120
100
AcDbEntity
8
0
100
AcDbLine
10
79.999999999999758
20
-20.000000000000178
30
7.8886090522101181e-30
11
79.999999999999744
21
-26.806724729610039
31
-2.1188625944576203e-30
0
ARC
5
121
100
AcDbEntity
8
0
100
AcDbCircle
10
80.499999999999773
20
-26.806724729610032
30
-1.0819351546453208e-46
40
0.50000000000002487
210
-4.2377251889150296e-30
220
6.0088770397860602e-33
230
1
100
AcDbArc
50
180
51
257.160411593091
0
ARC
5
122
100
AcDbEntity
8
0
100
AcDbCircle
10
79.999999999999687
20
-29.000465826458051
30
0
40
1.7499999999999982
210
1.3695501826752407e-33
220
-6.008877039861395e-33
230
1
100
AcDbArc
50
-167.16041159309705
51
77.160411593094437
0
ARC
5
123
100
AcDbEntity
8
0
100
AcDbCircle
10
77.806258903151658
20
-29.500465826457997
30
2.8758948280592025e-47
40
0.49999999999998662
210
2.9436701944411889e-34
220
-1.2915300562223985e-33
230
1
100
AcDbArc
50
12.839588406902401
51
90
0
LINE
5
124
100
AcDbEntity
8
0
100
AcDbLine
10
77.806258903151658
20
-29.000465826458012
30
6.7931126333776477e-34
11
62.193741096847731
21
-29.000465826458015
31
0
0
ARC
5
125
100
AcDbEntity
8
0
100
AcDbCircle
10
62.193741096847724
20
-29.50046582645799
30
8.1572778952013811e-47
40
0.49999999999997602
210
-1.3695501826752849e-33
220
1.8747365624300764e-46
230
1
100
AcDbArc
50
89.99999999999919
51
167.160411593097
0
ARC
5
126
100
AcDbEntity
8
0
100
AcDbCircle
10
59.99999999999968
20
-29.000465826458015
30
0
40
1.7500000000000095
210
2.7391003653502758e-33
220
-1.2017754079722815e-32
230
1
100
AcDbArc
50
102.83958840690183
51
347.1604115930964
0
ARC
5
127
100
AcDbEntity
8
0
100
AcDbCircle
10
59.499999999999758
20
-26.806724729609961
30
0
40
0.49999999999999534
210
-9.5868512787262262e-33
220
4.2062139279030451e-32
230
1
100
AcDbArc
50
-77.160411593097081
51
0
0
LINE
5
128
100
AcDbEntity
8
0
100
AcDbLine
10
59.999999999999758
20
-26.806724729609961
30
0
11
59.999999999999758
21
-20.000000000000178
31
2.1188625944576203e-30
0
LINE
5
129
100
AcDbEntity
8
0
100
AcDbLine
10
59.999999999999758
20
-20.000000000000178
30
2.1188625944576203e-30
11
39.999999999999758
21
-20.000000000000178
31
0
0
LINE
5
130
100
AcDbEntity
8
0
100
AcDbLine
10
39.999999999999758
20
-20.000000000000178
30
0
11
39.999999999999758
21
-26.806724729610039
31
-2.1188625944576203e-30
0
ARC
5
131
100
AcDbEntity
8
0
100
AcDbCircle
10
40.499999999999766
20
-26.806724729610028
30
-5.7304075384376675e-47
40
0.50000000000001155
210
-4.2377251889151424e-30
220
6.0088770397483401e-33
230
1
100
AcDbArc
50
180
51
257.16041159309322
0
ARC
5
132
100
AcDbEntity
8
0
100
AcDbCircle
10
39.99999999999968
20
-29.000465826458051
30
0
40
1.7499999999999971
210
0
220
0
230
1
100
AcDbArc
50
-167.16041159309725
51
77.160411593093798
0
ARC
5
133
100
AcDbEntity
8
0
100
AcDbCircle
10
37.806258903151637
20
-29.500465826458001
30
-1.9243905912663809e-48
40
0.50000000000000167
210
1.0115328297519307e-34
220
-4.4380822788761633e-34
230
1
100
AcDbArc
50
12.83958840690306
51
90.00000000000081
0
LINE
5
134
100
AcDbEntity
8
0
100
AcDbLine
10
37.80625890315163
20
-29.000465826457997
30
2.3343160038244268e-34
11
22.193741096847738
21
-29.000465826458004
31
0
0
ARC
5
135
100
AcDbEntity
8
0
100
AcDbCircle
10
22.193741096847734
20
-29.500465826458004
30
-1.1845693195128611e-46
40
0.49999999999999822
210
-1.3695501826750343e-33
220
-2.2474981473308974e-46
230
1
100
AcDbArc
50
89.999999999999588
51
167.16041159309637
0
ARC
5
136
100
AcDbEntity
8
0
100
AcDbCircle
10
19.999999999999677
20
-29.000465826458051
30
0
40
1.7500000000000044
210
-4.1086505480254057e-33
220
1.8026631119584236e-32
230
1
100
AcDbArc
50
102.83958840690175
51
347.16041159309736
0
ARC
5
137
100
AcDbEntity
8
0
100
AcDbCircle
10
19.499999999999766
20
-26.806724729609996
30
0
40
0.49999999999999967
210
1.4380276918089055e-32
220
-6.3093208918544997e-32
230
1
100
AcDbArc
50
-77.160411593097933
51
0
0
LINE
5
138
100
AcDbEntity
8
0
100
AcDbLine
10
19.999999999999762
20
-26.806724729609996
30
0
11
19.999999999999762
21
-20.000000000000178
31
2.1188625944576203e-30
0
LINE
5
139
100
AcDbEntity
8
0
100
AcDbLine
10
19.999999999999762
20
-20.000000000000178
30
2.1188625944576203e-30
11
-21.000000000000362
21
-20.000000000000178
31
0
0
LINE
5
140
100
AcDbEntity
8
0
100
AcDbLine
10
-21.000000000000362
20
-20.000000000000178
30
0
11
-21.000000000000348
21
-26.806724729610039
31
0
0
ARC
5
141
100
AcDbEntity
8
0
100
AcDbCircle
10
-20.500000000000355
20
-26.806724729610032
30
1.958601979555561e-46
40
0.49999999999999378
210
-1.7824219937365823e-46
220
-1.2017754079722667e-32
230
1
100
AcDbArc
50
180
51
257.1604115930931
0
ARC
5
142
100
AcDbEntity
8
0
100
AcDbCircle
10
-21.000000000000458
20
-29.000465826458051
30
0
40
1.7500000000000029
210
-1.3695501826751738e-33
220
6.008877039861408e-33
230
1
100
AcDbArc
50
-167.16041159309773
51
77.160411593093258
0
ARC
5
143
100
AcDbEntity
8
0
100
AcDbCircle
10
-23.193741096848509
20
-29.500465826457983
30
9.7502456624163297e-47
40
0.50000000000000067
210
3.0899282294478147e-33
220
-1.3557005086501967e-32
230
1
100
AcDbArc
50
12.839588406902715
51
90
0
LINE
5
144
100
AcDbEntity
8
0
100
AcDbLine
10
-23.193741096848509
20
-29.000465826457983
30
7.1306325454978063e-33
11
-38.806258903152418
21
-29.000465826457994
31
0
0
ARC
5
145
100
AcDbEntity
8
0
100
AcDbCircle
10
-38.806258903152411
20
-29.500465826457976
30
-6.1366677743716812e-47
40
0.4999999999999849
210
1.3695501826752871e-33
220
-1.1056930631795143e-46
230
1
100
AcDbArc
50
90.00000000000081
51
167.16041159309799
0
ARC
5
146
100
AcDbEntity
8
0
100
AcDbCircle
10
-41.000000000000455
20
-29.000465826458051
30
0
40
1.7499999999999971
210
-2.7391003653501708e-33
220
1.2017754079722868e-32
230
1
100
AcDbArc
50
102.83958840690168
51
347.16041159309776
0
ARC
5
147
100
AcDbEntity
8
0
100
AcDbCircle
10
-41.500000000000355
20
-26.806724729609996
30
0
40
0.500000000000004
210
9.5868512787258458e-33
220
-4.2062139279029547e-32
230
1
100
AcDbArc
50
282.83958840690104
51
360
0
LINE
5
148
100
AcDbEntity
8
0
100
AcDbLine
10
-41.000000000000355
20
-26.80672472961
30
0
11
-41.000000000000362
21
-20.000000000000178
31
0
0
LINE
5
149
100
AcDbEntity
8
0
100
AcDbLine
10
-41.000000000000362
20
-20.000000000000178
30
0
11
-61.000000000000362
21
-20.000000000000178
31
0
0
LINE
5
150
100
AcDbEntity
8
0
100
AcDbLine
10
-61.000000000000362
20
-20.000000000000178
30
0
11
-61.000000000000355
21
-26.806724729610004
31
0
0
ARC
5
151
100
AcDbEntity
8
0
100
AcDbCircle
10
-60.500000000000362
20
-26.806724729610011
30
6.1580498920524188e-47
40
0.49999999999998934
210
-1.642189957232112e-47
220
1.2017754079722609e-32
230
1
100
AcDbArc
50
180
51
257.16041159309299
0
ARC
5
152
100
AcDbEntity
8
0
100
AcDbCircle
10
-61.000000000000476
20
-29.000465826458015
30
0
40
1.750000000000008
210
0
220
0
230
1
100
AcDbArc
50
-167.160411593097
51
77.160411593092846
0
ARC
5
153
100
AcDbEntity
8
0
100
AcDbCircle
10
-63.19374109684852
20
-29.500465826457976
30
-7.2164647172489282e-49
40
0.49999999999999828
210
1.0115328297519871e-34
220
-4.4380822788760854e-34
230
1
100
AcDbArc
50
12.839588406903404
51
90.00000000000081
0
LINE
5
154
100
AcDbEntity
8
0
100
AcDbLine
10
-63.193741096848527
20
-29.000465826457969
30
2.3343160038244371e-34
11
-78.806258903152425
21
-29.000465826457983
31
0
0
ARC
5
155
100
AcDbEntity
8
0
100
AcDbCircle
10
-78.806258903152411
20
-29.500465826457983
30
-2.9721143576225216e-47
40
0.49999999999999822
210
-1.3695501826753286e-33
220
-8.3770385491422552e-47
230
1
100
AcDbArc
50
90.000000000001634
51
167.1604115930964
0
ARC
5
156
100
AcDbEntity
8
0
100
AcDbCircle
10
-81.000000000000483
20
-29.000465826458051
30
0
40
1.750000000000006
210
1.334238728359126e-48
220
3.0410122923707796e-49
230
1
100
AcDbArc
50
102.83958840690067
51
347.16041159309816
0
ENDSEC
0
SECTION
2
OBJECTS
0
DICTIONARY
5
C
100
AcDbDictionary
3
ACAD_GROUP
350
D
3
ACAD_MLINESTYLE
350
17
0
DICTIONARY
5
D
100
AcDbDictionary
0
DICTIONARY
5
1A
330
C
100
AcDbDictionary
0
DICTIONARY
5
17
100
AcDbDictionary
0
ENDSEC
0
EOF
