0
SECTION
2
HEADER
9
$INSUNITS
70
4
9
$ACADVER
1
AC1014
9
$HANDSEED
5
FFFF
0
ENDSEC
0
SECTION
2
TABLES
0
TABLE
2
VPORT
5
8
100
AcDbSymbolTable
0
ENDTAB
0
TABLE
2
LTYPE
5
5
100
AcDbSymbolTable
0
LTYPE
5
14
100
AcDbSymbolTableRecord
100
AcDbLinetypeTableRecord
2
BYBLOCK
70
0
0
LTYPE
5
15
100
AcDbSymbolTableRecord
100
AcDbLinetypeTableRecord
2
BYLAYER
70
0
0
LTYPE
5
16
100
AcDbSymbolTableRecord
100
AcDbLinetypeTableRecord
2
DASHED
70
0
3
Dashed __ __ __ __ __ __ __ __ __ __ __ __ __ _
72
65
73
2
40
0.75
49
0.5
74
0
49
-0.25
74
0
0
ENDTAB
0
TABLE
2
LAYER
5
2
100
AcDbSymbolTable
70
3
0
LAYER
5
50
100
AcDbSymbolTableRecord
100
AcDbLayerTableRecord
2
1
70
0
62
7
6
DASHED
0
LAYER
5
51
100
AcDbSymbolTableRecord
100
AcDbLayerTableRecord
2
0
70
0
62
7
6
CONTINUOUS
0
ENDTAB
0
TABLE
2
STYLE
5
3
100
AcDbSymbolTable
70
1
0
STYLE
5
11
100
AcDbSymbolTableRecord
100
AcDbTextStyleTableRecord
2
STANDARD
70
0
0
ENDTAB
0
TABLE
2
VIEW
5
6
100
AcDbSymbolTable
70
0
0
ENDTAB
0
TABLE
2
UCS
5
7
100
AcDbSymbolTable
70
0
0
ENDTAB
0
TABLE
2
APPID
5
9
100
AcDbSymbolTable
70
2
0
APPID
5
12
100
AcDbSymbolTableRecord
100
AcDbRegAppTableRecord
2
ACAD
70
0
0
ENDTAB
0
TABLE
2
DIMSTYLE
5
A
100
AcDbSymbolTable
70
1
0
ENDTAB
0
TABLE
2
BLOCK_RECORD
5
1
100
AcDbSymbolTable
70
1
0
BLOCK_RECORD
5
1F
100
AcDbSymbolTableRecord
100
AcDbBlockTableRecord
2
*MODEL_SPACE
0
BLOCK_RECORD
5
1B
100
AcDbSymbolTableRecord
100
AcDbBlockTableRecord
2
*PAPER_SPACE
0
ENDTAB
0
ENDSEC
0
SECTION
2
BLOCKS
0
BLOCK
5
20
100
AcDbEntity
100
AcDbBlockBegin
2
*MODEL_SPACE
0
ENDBLK
5
21
100
AcDbEntity
100
AcDbBlockEnd
0
BLOCK
5
1C
100
AcDbEntity
100
AcDbBlockBegin
2
*PAPER_SPACE
0
ENDBLK
5
1D
100
AcDbEntity
100
AcDbBlockEnd
0
ENDSEC
0
SECTION
2
ENTITIES
0
LWPOLYLINE
5
100
100
AcDbEntity
8
0
100
AcDbPolyline
90
74
70
1
43
0.0
10
-99.611111111110958
20
290.34961863649949
42
0.35000111041855647
10
-99.999999999999844
20
289.8621206149777
10
-99.999999999999858
20
287.05586171182574
10
101.00000000000026
20
287.05586171182574
10
101.00000000000026
20
289.8621206149777
42
0.35000111041856086
10
100.61111111111137
20
290.34961863649949
42
-1.8100186457757974
10
102.70624307532651
20
292.4447506007146
42
0.35000111041847659
10
103.1937410968483
20
292.05586171182568
10
110.00000000000028
20
292.05586171182568
10
110.00000000000028
20
312.05586171182568
10
103.1937410968483
20
312.05586171182568
42
0.35000111041847437
10
102.7062430753265
20
311.66697282293683
42
-1.810018645775805
10
100.61111111111137
20
313.76210478715194
42
0.35000111041855647
10
101.00000000000024
20
314.24960280867373
10
101.00000000000026
20
329.8621206149777
42
0.35000111041850207
10
100.61111111111137
20
330.34961863649937
42
-1.8100186457758336
10
102.70624307532655
20
332.4447506007146
42
0.35000111041848037
10
103.19374109684833
20
332.0558617118258
10
110.00000000000028
20
332.05586171182574
10
110.00000000000028
20
352.05586171182574
10
83.193741096848271
20
352.05586171182574
42
0.35000111041848386
10
82.706243075326483
20
351.66697282293688
42
-1.8100186457758183
10
80.61111111111137
20
353.76210478715194
42
0.3500011104184011
10
81.000000000000313
20
354.24960280867373
10
81.000000000000256
20
361.05586171182563
10
61.00000000000027
20
361.05586171182563
10
61.000000000000263
20
354.24960280867373
42
0.3500011104183971
10
61.388888888889156
20
353.762104787152
42
-1.8100186457758145
10
59.293756924674028
20
351.66697282293688
42
0.35000111041851817
10
58.806258903152255
20
352.0558617118258
10
43.193741096848257
20
352.05586171182574
42
0.35000111041845272
10
42.706243075326462
20
351.66697282293688
42
-1.8100186457758203
10
40.611111111111377
20
353.76210478715194
42
0.35000111041843701
10
41.000000000000263
20
354.24960280867373
10
41.000000000000263
20
361.05586171182563
10
21.000000000000263
20
361.05586171182563
10
21.000000000000266
20
354.24960280867373
42
0.35000111041844184
10
21.388888888889163
20
353.762104787152
42
-1.8100186457758107
10
19.293756924674028
20
351.66697282293688
42
0.3500011104185205
10
18.806258903152258
20
352.05586171182574
10
-17.806258903151861
20
352.05586171182574
42
0.35000111041848936
10
-18.293756924673641
20
351.66697282293688
42
-1.8100186457758156
10
-20.388888888888751
20
353.76210478715194
42
0.35000111041844184
10
-19.999999999999861
20
354.24960280867373
10
-19.999999999999854
20
361.05586171182563
10
-39.999999999999851
20
361.05586171182563
10
-39.999999999999851
20
354.24960280867373
42
0.35000111041844917
10
-39.611111111110951
20
353.762104787152
42
-1.8100186457758107
10
-41.706243075326093
20
351.66697282293688
42
0.35000111041851817
10
-42.193741096847866
20
352.0558617118258
10
-57.806258903151864
20
352.05586171182574
42
0.35000111041845272
10
-58.293756924673659
20
351.66697282293688
42
-1.8100186457758203
10
-60.388888888888744
20
353.76210478715194
42
0.35000111041843701
10
-59.999999999999858
20
354.24960280867373
10
-59.999999999999858
20
361.05586171182563
10
-79.999999999999858
20
361.05586171182563
10
-79.999999999999858
20
354.24960280867373
42
0.3500011104183971
10
-79.611111111110958
20
353.762104787152
42
-1.8100186457758145
10
-81.706243075326086
20
351.66697282293688
42
0.3500011104184782
10
-82.193741096847859
20
352.05586171182568
10
-108.99999999999984
20
352.05586171182574
10
-108.99999999999984
20
332.05586171182574
10
-102.19374109684793
20
332.05586171182574
42
0.35000111041848386
10
-101.70624307532613
20
332.4447506007146
42
-1.8100186457758374
10
-99.611111111110958
20
330.34961863649949
42
0.35000111041850207
10
-99.999999999999829
20
329.8621206149777
10
-99.999999999999858
20
314.24960280867373
42
0.35000111041856086
10
-99.611111111110958
20
313.76210478715194
42
-1.8100186457757974
10
-101.70624307532611
20
311.66697282293683
42
0.35000111041847659
10
-102.1937410968479
20
312.05586171182568
10
-108.99999999999984
20
312.05586171182568
10
-108.99999999999984
20
292.05586171182568
10
-102.1937410968479
20
292.05586171182568
42
0.35000111041847437
10
-101.70624307532609
20
292.4447506007146
42
-1.810018645775805
0
ENDSEC
0
SECTION
2
OBJECTS
0
DICTIONARY
5
C
100
AcDbDictionary
3
ACAD_GROUP
350
D
3
ACAD_MLINESTYLE
350
17
0
DICTIONARY
5
D
100
AcDbDictionary
0
DICTIONARY
5
1A
330
C
100
AcDbDictionary
0
DICTIONARY
5
17
100
AcDbDictionary
0
ENDSEC
0
EOF
