0
SECTION
2
HEADER
9
$INSUNITS
70
4
9
$ACADVER
1
AC1014
9
$HANDSEED
5
FFFF
0
ENDSEC
0
SECTION
2
TABLES
0
TABLE
2
VPORT
5
8
100
AcDbSymbolTable
0
ENDTAB
0
TABLE
2
LTYPE
5
5
100
AcDbSymbolTable
0
LTYPE
5
14
100
AcDbSymbolTableRecord
100
AcDbLinetypeTableRecord
2
BYBLOCK
70
0
0
LTYPE
5
15
100
AcDbSymbolTableRecord
100
AcDbLinetypeTableRecord
2
BYLAYER
70
0
0
LTYPE
5
16
100
AcDbSymbolTableRecord
100
AcDbLinetypeTableRecord
2
DASHED
70
0
3
Dashed __ __ __ __ __ __ __ __ __ __ __ __ __ _
72
65
73
2
40
0.75
49
0.5
74
0
49
-0.25
74
0
0
ENDTAB
0
TABLE
2
LAYER
5
2
100
AcDbSymbolTable
70
2
0
LAYER
5
50
100
AcDbSymbolTableRecord
100
AcDbLayerTableRecord
2
0
70
0
62
7
6
CONTINUOUS
0
ENDTAB
0
TABLE
2
STYLE
5
3
100
AcDbSymbolTable
70
1
0
STYLE
5
11
100
AcDbSymbolTableRecord
100
AcDbTextStyleTableRecord
2
STANDARD
70
0
0
ENDTAB
0
TABLE
2
VIEW
5
6
100
AcDbSymbolTable
70
0
0
ENDTAB
0
TABLE
2
UCS
5
7
100
AcDbSymbolTable
70
0
0
ENDTAB
0
TABLE
2
APPID
5
9
100
AcDbSymbolTable
70
2
0
APPID
5
12
100
AcDbSymbolTableRecord
100
AcDbRegAppTableRecord
2
ACAD
70
0
0
ENDTAB
0
TABLE
2
DIMSTYLE
5
A
100
AcDbSymbolTable
70
1
0
ENDTAB
0
TABLE
2
BLOCK_RECORD
5
1
100
AcDbSymbolTable
70
1
0
BLOCK_RECORD
5
1F
100
AcDbSymbolTableRecord
100
AcDbBlockTableRecord
2
*MODEL_SPACE
0
BLOCK_RECORD
5
1B
100
AcDbSymbolTableRecord
100
AcDbBlockTableRecord
2
*PAPER_SPACE
0
ENDTAB
0
ENDSEC
0
SECTION
2
BLOCKS
0
BLOCK
5
20
100
AcDbEntity
100
AcDbBlockBegin
2
*MODEL_SPACE
0
ENDBLK
5
21
100
AcDbEntity
100
AcDbBlockEnd
0
BLOCK
5
1C
100
AcDbEntity
100
AcDbBlockBegin
2
*PAPER_SPACE
0
ENDBLK
5
1D
100
AcDbEntity
100
AcDbBlockEnd
0
ENDSEC
0
SECTION
2
ENTITIES
0
LWPOLYLINE
5
100
100
AcDbEntity
8
0
100
AcDbPolyline
90
8
70
1
43
0.0
10
-115.82601870934607
20
30.47048290145932
42
0.41421356237309809
10
-112.82601870934606
20
27.470482901459317
10
-61.024408793579781
20
27.470482901459334
42
0.41421356237309809
10
-58.024408793579795
20
30.47048290145932
10
-58.024408793579781
20
93.770482901461904
42
0.41421356237309076
10
-61.024408793579781
20
96.770482901461904
10
-112.82601870934606
20
96.770482901461904
42
0.41421356237308982
10
-115.82601870934604
20
93.770482901461904
0
CIRCLE
5
101
100
AcDbEntity
8
0
100
AcDbCircle
10
-110.82601870934607
20
32.470482901459327
30
0
40
1.9999999999999929
210
0
220
0
230
1
0
CIRCLE
5
102
100
AcDbEntity
8
0
100
AcDbCircle
10
-110.82601870934607
20
91.770482901461904
30
0
40
1.9999999999999929
210
0
220
0
230
1
0
CIRCLE
5
103
100
AcDbEntity
8
0
100
AcDbCircle
10
-67.208176620735316
20
62.120482901459184
30
0
40
2.8000000000000203
210
0
220
-0
230
1
0
CIRCLE
5
104
100
AcDbEntity
8
0
100
AcDbCircle
10
-107.20817662073536
20
62.120482901461216
30
0
40
2.8000000000000114
210
0
220
-0
230
1
0
CIRCLE
5
105
100
AcDbEntity
8
0
100
AcDbCircle
10
-63.024408793579774
20
32.470482901459327
30
0
40
2.0000000000000018
210
0
220
-0
230
1
0
CIRCLE
5
106
100
AcDbEntity
8
0
100
AcDbCircle
10
-63.024408793579781
20
91.770482901461904
30
0
40
2.0000000000000018
210
0
220
-0
230
1
0
LWPOLYLINE
5
107
100
AcDbEntity
8
0
100
AcDbPolyline
90
8
70
1
43
0.0
10
-100.45021375146021
20
89.556623427904114
42
0.41421356237307944
10
-101.45021375146023
20
88.556623427904185
10
-101.45021375146285
20
35.356623427903706
42
0.41421356237308854
10
-100.45021375146294
20
34.356623427903671
10
-73.4002137514629
20
34.356623427902299
42
0.41421356237308593
10
-72.400213751462843
20
35.356623427902257
10
-72.4002137514602
20
88.556623427902665
42
0.41421356237308982
10
-73.4002137514602
20
89.55662342790275
0
CIRCLE
5
108
100
AcDbEntity
8
0
100
AcDbCircle
10
-110.82601870934607
20
32.470482901459327
30
0
40
1.9999999999999929
210
0
220
0
230
1
0
CIRCLE
5
109
100
AcDbEntity
8
0
100
AcDbCircle
10
-110.82601870934607
20
91.770482901461904
30
0
40
1.9999999999999929
210
0
220
0
230
1
0
LWPOLYLINE
5
110
100
AcDbEntity
8
0
100
AcDbPolyline
90
8
70
1
43
0.0
10
-115.82601870934607
20
30.47048290145932
42
0.41421356237310153
10
-112.82601870934606
20
27.470482901459317
10
-61.024408793579781
20
27.470482901459331
42
0.41421356237309809
10
-58.024408793579781
20
30.47048290145932
10
-58.024408793579781
20
93.770482901461904
42
0.41421356237309076
10
-61.024408793579781
20
96.770482901461904
10
-112.82601870934602
20
96.770482901461904
42
0.41421356237309503
10
-115.82601870934607
20
93.770482901461904
0
LWPOLYLINE
5
111
100
AcDbEntity
8
0
100
AcDbPolyline
90
8
70
1
43
0.0
10
-100.45021375146021
20
89.556623427904114
42
0.41421356237307944
10
-101.45021375146023
20
88.556623427904185
10
-101.45021375146285
20
35.356623427903706
42
0.41421356237308854
10
-100.45021375146294
20
34.356623427903678
10
-73.400213751462914
20
34.356623427902299
42
0.41421356237309764
10
-72.400213751462843
20
35.356623427902257
10
-72.4002137514602
20
88.556623427902665
42
0.41421356237308982
10
-73.4002137514602
20
89.55662342790275
0
CIRCLE
5
112
100
AcDbEntity
8
0
100
AcDbCircle
10
-63.024408793579781
20
91.770482901461904
30
0
40
2.0000000000000018
210
-0
220
0
230
1
0
CIRCLE
5
113
100
AcDbEntity
8
0
100
AcDbCircle
10
-63.024408793579774
20
32.470482901459327
30
0
40
2.0000000000000018
210
-0
220
0
230
1
0
CIRCLE
5
114
100
AcDbEntity
8
0
100
AcDbCircle
10
-107.20817662073536
20
62.120482901461216
30
0
40
2.8000000000000114
210
-0
220
0
230
1
0
CIRCLE
5
115
100
AcDbEntity
8
0
100
AcDbCircle
10
-67.208176620735316
20
62.120482901459184
30
0
40
2.8000000000000203
210
-0
220
0
230
1
0
ENDSEC
0
SECTION
2
OBJECTS
0
DICTIONARY
5
C
100
AcDbDictionary
3
ACAD_GROUP
350
D
3
ACAD_MLINESTYLE
350
17
0
DICTIONARY
5
D
100
AcDbDictionary
0
DICTIONARY
5
1A
330
C
100
AcDbDictionary
0
DICTIONARY
5
17
100
AcDbDictionary
0
ENDSEC
0
EOF
