0
SECTION
2
HEADER
9
$INSUNITS
70
4
9
$ACADVER
1
AC1014
9
$HANDSEED
5
FFFF
0
ENDSEC
0
SECTION
2
TABLES
0
TABLE
2
VPORT
5
8
100
AcDbSymbolTable
0
ENDTAB
0
TABLE
2
LTYPE
5
5
100
AcDbSymbolTable
0
LTYPE
5
14
100
AcDbSymbolTableRecord
100
AcDbLinetypeTableRecord
2
BYBLOCK
70
0
0
LTYPE
5
15
100
AcDbSymbolTableRecord
100
AcDbLinetypeTableRecord
2
BYLAYER
70
0
0
LTYPE
5
16
100
AcDbSymbolTableRecord
100
AcDbLinetypeTableRecord
2
DASHED
70
0
3
Dashed __ __ __ __ __ __ __ __ __ __ __ __ __ _
72
65
73
2
40
0.75
49
0.5
74
0
49
-0.25
74
0
0
ENDTAB
0
TABLE
2
LAYER
5
2
100
AcDbSymbolTable
70
3
0
LAYER
5
50
100
AcDbSymbolTableRecord
100
AcDbLayerTableRecord
2
1
70
0
62
7
6
DASHED
0
LAYER
5
51
100
AcDbSymbolTableRecord
100
AcDbLayerTableRecord
2
0
70
0
62
7
6
CONTINUOUS
0
ENDTAB
0
TABLE
2
STYLE
5
3
100
AcDbSymbolTable
70
1
0
STYLE
5
11
100
AcDbSymbolTableRecord
100
AcDbTextStyleTableRecord
2
STANDARD
70
0
0
ENDTAB
0
TABLE
2
VIEW
5
6
100
AcDbSymbolTable
70
0
0
ENDTAB
0
TABLE
2
UCS
5
7
100
AcDbSymbolTable
70
0
0
ENDTAB
0
TABLE
2
APPID
5
9
100
AcDbSymbolTable
70
2
0
APPID
5
12
100
AcDbSymbolTableRecord
100
AcDbRegAppTableRecord
2
ACAD
70
0
0
ENDTAB
0
TABLE
2
DIMSTYLE
5
A
100
AcDbSymbolTable
70
1
0
ENDTAB
0
TABLE
2
BLOCK_RECORD
5
1
100
AcDbSymbolTable
70
1
0
BLOCK_RECORD
5
1F
100
AcDbSymbolTableRecord
100
AcDbBlockTableRecord
2
*MODEL_SPACE
0
BLOCK_RECORD
5
1B
100
AcDbSymbolTableRecord
100
AcDbBlockTableRecord
2
*PAPER_SPACE
0
ENDTAB
0
ENDSEC
0
SECTION
2
BLOCKS
0
BLOCK
5
20
100
AcDbEntity
100
AcDbBlockBegin
2
*MODEL_SPACE
0
ENDBLK
5
21
100
AcDbEntity
100
AcDbBlockEnd
0
BLOCK
5
1C
100
AcDbEntity
100
AcDbBlockBegin
2
*PAPER_SPACE
0
ENDBLK
5
1D
100
AcDbEntity
100
AcDbBlockEnd
0
ENDSEC
0
SECTION
2
ENTITIES
0
CIRCLE
5
100
100
AcDbEntity
8
0
100
AcDbCircle
10
-342.65735931964792
20
-35.772545122167998
30
3.5527136788005009e-14
40
2.0000000000000284
210
-3.3432107718272042e-47
220
-1.9721522630525295e-31
230
1
0
LWPOLYLINE
5
101
100
AcDbEntity
8
0
100
AcDbPolyline
90
8
70
1
43
0.0
10
-285.10000000676837
20
-99.329904435050338
10
-334.90000000676832
20
-99.329904435050338
42
-0.41421356237309681
10
-340.90000000676838
20
-93.329904435050366
10
-340.90000000676844
20
-43.529904435050319
42
-0.41421356237309287
10
-334.90000000676838
20
-37.529904435050298
10
-285.1000000067686
20
-37.529904435050348
42
-0.41421356237309243
10
-279.10000000676848
20
-43.529904435050348
10
-279.10000000676843
20
-93.329904435050324
42
-0.41421356237308982
0
CIRCLE
5
102
100
AcDbEntity
8
0
100
AcDbCircle
10
-342.65735931964934
20
-101.08726374793028
30
3.5527136788005009e-14
40
2.0000000000000284
210
-3.3432107718272042e-47
220
-1.9721522630525295e-31
230
1
0
CIRCLE
5
103
100
AcDbEntity
8
0
100
AcDbCircle
10
-277.34264069388547
20
-35.772545122169376
30
1.7763568394002505e-14
40
1.9999999999999929
210
-3.3432107718272042e-47
220
-1.9721522630525295e-31
230
1
0
CIRCLE
5
104
100
AcDbEntity
8
0
100
AcDbCircle
10
-277.34264069388695
20
-101.08726374793176
30
1.7763568394002505e-14
40
1.9999999999999929
210
-3.3432107718272042e-47
220
-1.9721522630525295e-31
230
1
0
LWPOLYLINE
5
105
100
AcDbEntity
8
0
100
AcDbPolyline
90
8
70
1
43
0.0
10
-62.524408800347821
20
-43.970483001825045
42
0.41421356237309503
10
-74.524408800347828
20
-31.970483001825045
10
-130.39912056625101
20
-31.970483001825016
42
0.41421356237309531
10
-142.39912056625101
20
-43.970483001825016
10
-142.39912056625101
20
-80.270483001827571
42
0.41421356237309503
10
-130.39912056625104
20
-92.270483001827529
10
-74.524408800347828
20
-92.2704830018276
42
0.41421356237309531
10
-62.524408800347828
20
-80.270483001827628
0
CIRCLE
5
106
100
AcDbEntity
8
0
100
AcDbCircle
10
-142.89912056625099
20
-91.7704830018276
30
1.7763568394002505e-14
40
1.9999999999999929
210
-3.3432107718272042e-47
220
-1.9721522630525295e-31
230
1
0
CIRCLE
5
107
100
AcDbEntity
8
0
100
AcDbCircle
10
-63.024408800347814
20
-91.7704830018276
30
1.7763568394002505e-14
40
1.9999999999999929
210
-3.3432107718272042e-47
220
-1.9721522630525295e-31
230
1
0
CIRCLE
5
108
100
AcDbEntity
8
0
100
AcDbCircle
10
-443.73108459545949
20
-56.697261919051115
30
1.7763568394002505e-14
40
1.9999999999999574
210
-3.3432107718272042e-47
220
-1.9721522630525295e-31
230
1
0
LWPOLYLINE
5
109
100
AcDbEntity
8
0
100
AcDbPolyline
90
8
70
1
43
0.0
10
-442.73108459545944
20
-49.697261919051101
10
-442.73108459545938
20
-33.697261919051144
42
-0.41421356237309892
10
-436.73108459545938
20
-27.697261919051158
10
-386.73108459545949
20
-27.697261919051101
42
-0.41421356237309453
10
-379.73108459545949
20
-34.697261919051115
10
-379.73108459545949
20
-49.697261919051108
42
-0.41421356237309809
10
-385.73108459545955
20
-55.697261919051087
10
-436.73108459545938
20
-55.697261919051108
42
-0.41421356237309809
0
CIRCLE
5
110
100
AcDbEntity
8
0
100
AcDbCircle
10
-378.73108459545949
20
-56.697261919051122
30
1.7763568394002505e-14
40
1.9999999999999574
210
-3.3432107718272042e-47
220
-1.9721522630525295e-31
230
1
0
CIRCLE
5
111
100
AcDbEntity
8
0
100
AcDbCircle
10
-378.73108459545949
20
-26.697261919051122
30
1.7763568394002505e-14
40
2.0000000000000284
210
-3.3432107718272042e-47
220
-1.9721522630525295e-31
230
1
0
CIRCLE
5
112
100
AcDbEntity
8
0
100
AcDbCircle
10
-443.73108459545949
20
-26.697261919051108
30
1.7763568394002505e-14
40
2.0000000000000284
210
-3.3432107718272042e-47
220
-1.9721522630525295e-31
230
1
0
CIRCLE
5
113
100
AcDbEntity
8
0
100
AcDbCircle
10
-142.89912056625101
20
-32.470483001825031
30
1.7763568394002505e-14
40
2.0000000000000107
210
3.0814879110195438e-33
220
-1.9721522630525295e-31
230
1
0
CIRCLE
5
114
100
AcDbEntity
8
0
100
AcDbCircle
10
-63.024408800347807
20
-32.470483001825045
30
1.7763568394002505e-14
40
2.0000000000000018
210
-3.3432107718272042e-47
220
-1.9721522630525295e-31
230
1
0
LWPOLYLINE
5
115
100
AcDbEntity
8
0
100
AcDbPolyline
90
16
70
1
43
0.0
10
-361.05586171859363
20
-41.194207023671723
42
0.35000111041845272
10
-361.44475060748255
20
-40.706709002149886
42
-1.8100186457757985
10
-359.34961864326738
20
-38.611577037934744
42
0.35000111041849807
10
-358.86212062174565
20
-39.000465926823615
10
-354.2496028154419
20
-39.000465926823644
42
0.35000111041850845
10
-353.76210479392006
20
-38.61157703793473
42
-1.8100186457757368
10
-351.66697282970483
20
-40.706709002149914
42
0.35000111041851928
10
-352.05586171859375
20
-41.194207023671694
10
-352.05586171859375
20
-56.806724829975586
42
0.35000111041845272
10
-351.66697282970483
20
-57.294222851497395
42
-1.8100186457757423
10
-353.76210479392006
20
-59.389354815712537
42
0.35000111041850207
10
-354.2496028154419
20
-59.000465926823665
10
-358.86212062174565
20
-59.000465926823644
42
0.3500011104184963
10
-359.34961864326743
20
-59.38935481571253
42
-1.8100186457758241
10
-361.44475060748255
20
-57.294222851497338
42
0.35000111041851817
10
-361.05586171859363
20
-56.806724829975565
0
LWPOLYLINE
5
116
100
AcDbEntity
8
0
100
AcDbPolyline
90
64
70
1
43
0.0
10
4.1909974058768258
20
-123.00046592682367
10
4.1909974058768258
20
-100.00046592682367
10
-2.6642614972750485
20
-100.00046592682367
42
0.35000111041853671
10
-3.1517595187968093
20
-100.38935481571257
42
-1.8340814081504018
10
-5.2087803719008452
20
-98.285982053870299
42
0.3562661516518778
10
-4.8090025941230881
20
-97.79612951874077
10
-4.8090025941230925
20
-82.20480233490656
42
0.35626615165185882
10
-5.2087803719008434
20
-81.714949799777031
42
-1.8340814081503969
10
-3.151759518796827
20
-79.611577037934779
42
0.3500011104185265
10
-2.6642614972750129
20
-80.000465926823665
10
4.1909974058768258
20
-80.000465926823665
10
4.1909974058768258
20
-60.000465926823665
10
-2.6642614972750485
20
-60.000465926823665
42
0.35000111041853721
10
-3.1517595187968261
20
-60.389354815712565
42
-1.8340814081503911
10
-5.2087803719008452
20
-58.285982053870299
42
0.35626615165187725
10
-4.8090025941231431
20
-57.79612951874077
10
-4.8090025941230925
20
-42.20480233490656
42
0.35626615165187275
10
-5.2087803719008461
20
-41.714949799777031
42
-1.8340814081504007
10
-3.1517595187968239
20
-39.611577037934794
42
0.35000111041851906
10
-2.6642614972750129
20
-40.000465926823665
10
4.1909974058768258
20
-40.000465926823665
10
4.1909974058769288
20
-20.000465926823665
10
-292.0558617185938
20
-20.00046592682374
10
-292.05586171859386
20
-26.806724829975721
42
0.35000111041852233
10
-291.66697282970495
20
-27.294222851497544
42
-1.8100186457757899
10
-293.76210479392012
20
-29.389354815712601
42
0.35000111041856413
10
-294.2496028154419
20
-29.000465926823694
10
-309.86212062174582
20
-29.00046592682369
42
0.35000111041856086
10
-310.34961864326755
20
-29.389354815712615
42
-1.8100186457758041
10
-312.44475060748272
20
-27.294222851497487
42
0.35000111041854126
10
-312.05586171859386
20
-26.8067248299757
10
-312.0558617185938
20
-20.000465926823736
10
-332.0558617185938
20
-20.000465926823608
10
-332.05586171859386
20
-26.806724829975543
42
0.35000111041848936
10
-331.66697282970512
20
-27.294222851497327
42
-1.8100186457757614
10
-333.76210479392023
20
-29.389354815712561
42
0.35000111041849963
10
-334.24960281544202
20
-29.000465926823701
10
-349.86212062174593
20
-29.000465926823672
42
0.35000111041856952
10
-350.34961864326783
20
-29.389354815712533
42
-1.8100186457758287
10
-352.44475060748277
20
-27.294222851497381
42
0.35000111041859361
10
-352.05586171859397
20
-26.806724829975593
10
-352.05586171859386
20
-20.000465926823608
10
-517.85800259412315
20
-20.00046592682358
10
-517.85800259412315
20
-40.00046592682358
10
-511.05174369097114
20
-40.00046592682358
42
0.35000111041850446
10
-510.56424566944935
20
-39.611577037934673
42
-1.8100186457757632
10
-508.46911370523424
20
-41.706709002149786
42
0.35000111041851817
10
-508.85800259412315
20
-42.194207023671559
10
-508.85800259412315
20
-57.806724829975593
42
0.35000111041845272
10
-508.46911370523424
20
-58.294222851497388
42
-1.810018645775771
10
-510.56424566944935
20
-60.389354815712466
42
0.35000111041849719
10
-511.05174369097114
20
-60.000465926823601
10
-517.85800259412315
20
-60.00046592682358
10
-517.85800259412315
20
-80.00046592682358
10
-511.05174369097114
20
-80.00046592682358
42
0.35000111041849236
10
-510.56424566944935
20
-79.611577037934694
42
-1.8100186457757794
10
-508.46911370523424
20
-81.706709002149779
42
0.35000111041848037
10
-508.85800259412298
20
-82.194207023671567
10
-508.85800259412315
20
-97.806724829975593
42
0.35000111041848386
10
-508.46911370523424
20
-98.294222851497352
42
-1.8100186457757499
10
-510.56424566944935
20
-100.38935481571249
42
0.35000111041849236
10
-511.05174369097114
20
-100.00046592682364
10
-517.85800259412315
20
-100.00046592682358
10
-517.85800259412315
20
-123.00046592682358
0
LWPOLYLINE
5
117
100
AcDbEntity
8
0
100
AcDbPolyline
90
16
70
1
43
0.0
10
-497.36526149727518
20
-116.6129056026833
42
0.35000111041851178
10
-497.85275951879692
20
-117.0017944915722
42
-1.8100186457758716
10
-499.94789148301203
20
-114.90666252735693
42
0.35000111041850823
10
-499.55900259412317
20
-114.41916450583523
10
-499.55900259412311
20
-109.80664669953121
42
0.35000111041851928
10
-499.94789148301203
20
-109.31914867800947
42
-1.8100186457758241
10
-497.8527595187968
20
-107.22401671379438
42
0.3500011104185427
10
-497.36526149727518
20
-107.61290560268334
10
-483.00274369097116
20
-107.61290560268333
42
0.35000111041854093
10
-482.51524566944937
20
-107.22401671379441
42
-1.8100186457758298
10
-480.42011370523431
20
-109.31914867800944
42
0.35000111041851706
10
-480.80900259412317
20
-109.80664669953121
10
-480.80900259412323
20
-114.41916450583514
42
0.35000111041851928
10
-480.42011370523431
20
-114.90666252735694
42
-1.8100186457758696
10
-482.51524566944937
20
-117.00179449157217
42
0.35000111041852061
10
-483.00274369097122
20
-116.6129056026833
0
LWPOLYLINE
5
118
100
AcDbEntity
8
0
100
AcDbPolyline
90
15
70
1
43
0.0
10
-341.74026149727592
20
-116.6129056026833
42
0.35000111041853121
10
-342.22775951879777
20
-117.00179449157221
42
-2.0769283333518538
10
-343.93400259412311
20
-114.86290560268336
10
-343.93400259412311
20
-109.8066466995316
42
0.35000111041864257
10
-344.32289148301214
20
-109.31914867800982
42
-1.8100186457762666
10
-342.2277595187976
20
-107.22401671379446
42
0.35000111041851267
10
-341.74026149727587
20
-107.61290560268334
10
-327.37774369097201
20
-107.61290560268333
42
0.35000111041853121
10
-326.89024566945022
20
-107.22401671379443
42
-1.8100186457754006
10
-324.79511370523437
20
-109.31914867800944
42
0.35000111041844151
10
-325.18400259412311
20
-109.80664669953123
10
-325.18400259412317
20
-114.41916450583555
42
0.35000111041843707
10
-324.79511370523437
20
-114.90666252735728
42
-1.8100186457754366
10
-326.89024566945022
20
-117.0017944915722
42
0.35000111041852239
10
-327.37774369097195
20
-116.6129056026833
0
LWPOLYLINE
5
119
100
AcDbEntity
8
0
100
AcDbPolyline
90
16
70
1
43
0.0
10
-186.11526149727541
20
-116.61290560268333
42
0.35000111041852677
10
-186.60275951879726
20
-117.0017944915722
42
-1.8100186457760017
10
-188.69789148301206
20
-114.90666252735696
42
0.3500011104185754
10
-188.30900259412306
20
-114.4191645058352
10
-188.30900259412311
20
-109.80664669953143
42
0.35000111041857984
10
-188.69789148301206
20
-109.31914867800963
42
-1.8100186457759788
10
-186.60275951879723
20
-107.22401671379443
42
0.35000111041851129
10
-186.11526149727547
20
-107.61290560268333
10
-171.7527436909715
20
-107.61290560268333
42
0.35000111041852677
10
-171.26524566944971
20
-107.22401671379443
42
-1.8100186457756056
10
-169.17011370523423
20
-109.31914867800955
42
0.3500011104184888
10
-169.55900259412306
20
-109.80664669953126
10
-169.55900259412306
20
-114.41916450583537
42
0.3500011104184782
10
-169.17011370523426
20
-114.90666252735716
42
-1.8100186457756304
10
-171.26524566944971
20
-117.0017944915722
42
0.35000111041850684
10
-171.75274369097144
20
-116.6129056026833
0
LWPOLYLINE
5
120
100
AcDbEntity
8
0
100
AcDbPolyline
90
16
70
1
43
0.0
10
-30.49026149727505
20
-116.6129056026833
42
0.35000111041852899
10
-30.977759518796837
20
-117.0017944915722
42
-1.8100186457757936
10
-33.072891483011986
20
-114.90666252735708
42
0.35000111041853382
10
-32.684002594123093
20
-114.41916450583531
10
-32.684002594123093
20
-109.80664669953134
42
0.35000111041852661
10
-33.072891483011972
20
-109.31914867800954
42
-1.8100186457758136
10
-30.977759518796809
20
-107.22401671379443
42
0.35000111041853532
10
-30.490261497275021
20
-107.61290560268333
10
-16.127743690971119
20
-107.61290560268333
42
0.35000111041854021
10
-15.640245669449309
20
-107.22401671379443
42
-1.8100186457758183
10
-13.545113705234185
20
-109.31914867800955
42
0.35000111041853138
10
-13.934002594123079
20
-109.80664669953134
10
-13.934002594123074
20
-114.41916450583528
42
0.35000111041853149
10
-13.545113705234183
20
-114.90666252735707
42
-1.8100186457758212
10
-15.640245669449309
20
-117.0017944915722
42
0.35000111041852022
10
-16.127743690971077
20
-116.6129056026833
0
LWPOLYLINE
5
121
100
AcDbEntity
8
0
100
AcDbPolyline
90
16
70
1
43
0.0
10
-147.36526149727501
20
-116.6129056026833
42
0.35000111041852899
10
-147.8527595187968
20
-117.0017944915722
42
-1.810018645775805
10
-149.94789148301194
20
-114.90666252735706
42
0.35000111041852899
10
-149.55900259412306
20
-114.41916450583527
10
-149.55900259412306
20
-109.8066466995313
42
0.35000111041852899
10
-149.94789148301194
20
-109.31914867800953
42
-1.8100186457758258
10
-147.8527595187968
20
-107.22401671379441
42
0.35000111041853876
10
-147.36526149727501
20
-107.61290560268333
10
-132.37774369097141
20
-107.61290560268333
42
0.35000111041852899
10
-131.8902456694496
20
-107.22401671379443
42
-1.8100186457756304
10
-129.79511370523423
20
-109.31914867800955
42
0.3500011104185029
10
-130.18400259412309
20
-109.80664669953129
10
-130.18400259412309
20
-114.41916450583537
42
0.35000111041848792
10
-129.79511370523423
20
-114.90666252735713
42
-1.8100186457757101
10
-131.8902456694496
20
-117.00179449157217
42
0.35000111041851401
10
-132.37774369097141
20
-116.6129056026833
0
LWPOLYLINE
5
122
100
AcDbEntity
8
0
100
AcDbPolyline
90
16
70
1
43
0.0
10
-302.36526149727575
20
-116.61290560268333
42
0.35000111041852677
10
-302.85275951879754
20
-117.00179449157218
42
-1.5275842055462276
10
-305.43400259412323
20
-115.09736114606019
42
0.26794919243123017
10
-305.18400259412306
20
-114.6643484441679
10
-305.18400259412306
20
-109.56146276119875
42
0.2679491924312184
10
-305.43400259412317
20
-109.12845005930646
42
-1.5275842055462199
10
-302.85275951879748
20
-107.22401671379441
42
0.35000111041853649
10
-302.36526149727575
20
-107.61290560268333
10
-288.00274369097178
20
-107.61290560268333
42
0.35000111041853121
10
-287.51524566945005
20
-107.22401671379443
42
-1.8100186457754328
10
-285.42011370523426
20
-109.31914867800947
42
0.35000111041847376
10
-285.80900259412306
20
-109.8066466995312
10
-285.80900259412306
20
-114.41916450583547
42
0.35000111041843712
10
-285.42011370523431
20
-114.90666252735724
42
-1.8100186457754148
10
-287.51524566945011
20
-117.00179449157221
42
0.35000111041851217
10
-288.00274369097178
20
-116.6129056026833
0
LWPOLYLINE
5
123
100
AcDbEntity
8
0
100
AcDbPolyline
90
16
70
1
43
0.0
10
-457.99026149727615
20
-116.6129056026833
42
0.35000111041853121
10
-458.47775951879794
20
-117.00179449157224
42
-1.5275842055463666
10
-461.05900259412346
20
-115.09736114606008
42
0.26794919243131737
10
-460.80900259412311
20
-114.66434844416779
10
-460.80900259412311
20
-109.56146276119892
42
0.26794919243126086
10
-461.05900259412323
20
-109.12845005930647
42
-1.5275842055463764
10
-458.47775951879805
20
-107.22401671379446
42
0.35000111041853033
10
-457.99026149727615
20
-107.61290560268334
10
-443.62774369097218
20
-107.61290560268336
42
0.35000111041853121
10
-443.14024566945034
20
-107.22401671379444
42
-1.8100186457752316
10
-441.04511370523448
20
-109.3191486780094
42
0.35000111041839155
10
-441.43400259412311
20
-109.80664669953109
10
-441.43400259412311
20
-114.41916450583562
42
0.35000111041838605
10
-441.04511370523448
20
-114.9066625273573
42
-1.8100186457752752
10
-443.14024566945034
20
-117.00179449157221
42
0.35000111041853121
10
-443.62774369097218
20
-116.61290560268333
0
LWPOLYLINE
5
124
100
AcDbEntity
8
0
100
AcDbPolyline
90
16
70
1
43
0.0
10
-380.49026149727604
20
-116.6129056026833
42
0.35000111041854093
10
-380.97775951879782
20
-117.00179449157221
42
-1.810018645776333
10
-383.07289148301209
20
-114.906662527357
42
0.3500011104186081
10
-382.68400259412311
20
-114.41916450583513
10
-382.68400259412311
20
-109.80664669953157
42
0.35000111041864257
10
-383.0728914830122
20
-109.31914867800981
42
-1.8100186457762912
10
-380.97775951879782
20
-107.22401671379441
42
0.35000111041854093
10
-380.49026149727604
20
-107.61290560268333
10
-366.12774369097201
20
-107.61290560268333
42
0.35000111041853121
10
-365.64024566945022
20
-107.22401671379443
42
-1.8100186457753911
10
-363.54511370523437
20
-109.31914867800948
42
0.3500011104184238
10
-363.93400259412311
20
-109.80664669953113
10
-363.93400259412311
20
-114.41916450583557
42
0.35000111041839599
10
-363.54511370523448
20
-114.90666252735733
42
-1.8100186457754424
10
-365.64024566945017
20
-117.0017944915722
42
0.35000111041853033
10
-366.12774369097201
20
-116.61290560268333
0
LWPOLYLINE
5
125
100
AcDbEntity
8
0
100
AcDbPolyline
90
16
70
1
43
0.0
10
-224.8652614972755
20
-116.61290560268333
42
0.35000111041852677
10
-225.35275951879723
20
-117.0017944915722
42
-1.810018645776033
10
-227.44789148301209
20
-114.90666252735699
42
0.35000111041859927
10
-227.05900259412306
20
-114.41916450583518
10
-227.05900259412314
20
-109.80664669953144
42
0.35000111041857984
10
-227.44789148301209
20
-109.31914867800964
42
-1.8100186457759884
10
-225.35275951879723
20
-107.22401671379441
42
0.35000111041851217
10
-224.86526149727553
20
-107.61290560268333
10
-210.50274369097156
20
-107.61290560268333
42
0.35000111041852677
10
-210.01524566944983
20
-107.22401671379443
42
-1.8100186457755334
10
-207.92011370523426
20
-109.31914867800947
42
0.3500011104184782
10
-208.30900259412306
20
-109.80664669953123
10
-208.30900259412306
20
-114.4191645058354
42
0.3500011104184782
10
-207.92011370523426
20
-114.90666252735716
42
-1.8100186457755334
10
-210.0152456694498
20
-117.0017944915722
42
0.35000111041852677
10
-210.50274369097156
20
-116.6129056026833
0
LWPOLYLINE
5
126
100
AcDbEntity
8
0
100
AcDbPolyline
90
16
70
1
43
0.0
10
-69.2402614972751
20
-116.61290560268328
42
0.35000111041853393
10
-69.727759518796887
20
-117.00179449157218
42
-1.8100186457758705
10
-71.822891483011972
20
-114.90666252735707
42
0.35000111041854093
10
-71.434002594123058
20
-114.41916450583527
10
-71.434002594123058
20
-109.80664669953136
42
0.35000111041853871
10
-71.822891483011972
20
-109.31914867800957
42
-1.8100186457758507
10
-69.727759518796859
20
-107.22401671379441
42
0.35000111041852955
10
-69.2402614972751
20
-107.6129056026833
10
-54.877743690971172
20
-107.6129056026833
42
0.350001110418524
10
-54.390245669449435
20
-107.22401671379438
42
-1.8100186457757748
10
-52.295113705234193
20
-109.31914867800955
42
0.35000111041852922
10
-52.684002594123065
20
-109.80664669953136
10
-52.684002594123065
20
-114.41916450583531
42
0.35000111041852922
10
-52.295113705234193
20
-114.9066625273571
42
-1.8100186457757881
10
-54.390245669449385
20
-117.00179449157217
42
0.35000111041851539
10
-54.877743690971172
20
-116.61290560268328
0
LWPOLYLINE
5
127
100
AcDbEntity
8
0
100
AcDbPolyline
90
16
70
1
43
0.0
10
-107.99026149727523
20
-116.6129056026833
42
0.35000111041852899
10
-108.47775951879703
20
-117.0017944915722
42
-1.8100186457759171
10
-110.57289148301201
20
-114.90666252735706
42
0.35000111041855064
10
-110.18400259412309
20
-114.41916450583525
10
-110.1840025941231
20
-109.8066466995314
42
0.35000111041854842
10
-110.57289148301201
20
-109.31914867800961
42
-1.8100186457758791
10
-108.47775951879704
20
-107.22401671379443
42
0.35000111041853343
10
-107.99026149727523
20
-107.61290560268333
10
-93.6277436909713
20
-107.61290560268333
42
0.35000111041852899
10
-93.140245669449513
20
-107.22401671379443
42
-1.8100186457756997
10
-91.045113705234229
20
-109.3191486780095
42
0.35000111041851401
10
-91.434002594123086
20
-109.80664669953131
10
-91.434002594123086
20
-114.41916450583534
42
0.35000111041850962
10
-91.045113705234229
20
-114.9066625273571
42
-1.810018645775713
10
-93.140245669449513
20
-117.0017944915722
42
0.35000111041852899
10
-93.6277436909713
20
-116.6129056026833
0
LWPOLYLINE
5
128
100
AcDbEntity
8
0
100
AcDbPolyline
90
16
70
1
43
0.0
10
-263.61526149727564
20
-116.61290560268333
42
0.35000111041852677
10
-264.10275951879743
20
-117.00179449157218
42
-1.8100186457761278
10
-266.19789148301209
20
-114.90666252735691
42
0.35000111041858267
10
-265.80900259412306
20
-114.41916450583518
10
-265.80900259412306
20
-109.8066466995315
42
0.35000111041860149
10
-266.19789148301209
20
-109.31914867800967
42
-1.8100186457760843
10
-264.10275951879748
20
-107.22401671379441
42
0.35000111041854981
10
-263.61526149727564
20
-107.61290560268333
10
-249.2527436909717
20
-107.61290560268333
42
0.35000111041853121
10
-248.76524566944994
20
-107.22401671379443
42
-1.8100186457754424
10
-246.67011370523429
20
-109.3191486780094
42
0.35000111041846543
10
-247.05900259412306
20
-109.80664669953121
10
-247.05900259412306
20
-114.41916450583545
42
0.35000111041845655
10
-246.67011370523426
20
-114.90666252735718
42
-1.8100186457755563
10
-248.76524566944994
20
-117.0017944915722
42
0.35000111041850684
10
-249.25274369097167
20
-116.6129056026833
0
LWPOLYLINE
5
129
100
AcDbEntity
8
0
100
AcDbPolyline
90
16
70
1
43
0.0
10
-419.24026149727609
20
-116.6129056026833
42
0.35000111041853121
10
-419.72775951879788
20
-117.00179449157221
42
-1.8100186457763121
10
-421.82289148301214
20
-114.90666252735696
42
0.35000111041865256
10
-421.43400259412311
20
-114.41916450583511
10
-421.43400259412311
20
-109.80664669953164
42
0.35000111041864257
10
-421.8228914830122
20
-109.31914867800984
42
-1.810018645776297
10
-419.72775951879782
20
-107.22401671379444
42
0.35000111041853121
10
-419.24026149727604
20
-107.61290560268334
10
-404.87774369097218
20
-107.61290560268334
42
0.35000111041853121
10
-404.39024566945034
20
-107.22401671379443
42
-1.8100186457753198
10
-402.29511370523448
20
-109.31914867800944
42
0.35000111041839821
10
-402.68400259412311
20
-109.8066466995312
10
-402.68400259412311
20
-114.4191645058356
42
0.35000111041839599
10
-402.29511370523448
20
-114.90666252735724
42
-1.8100186457753551
10
-404.39024566945034
20
-117.00179449157221
42
0.3500011104185321
10
-404.87774369097212
20
-116.6129056026833
0
ENDSEC
0
SECTION
2
OBJECTS
0
DICTIONARY
5
C
100
AcDbDictionary
3
ACAD_GROUP
350
D
3
ACAD_MLINESTYLE
350
17
0
DICTIONARY
5
D
100
AcDbDictionary
0
DICTIONARY
5
1A
330
C
100
AcDbDictionary
0
DICTIONARY
5
17
100
AcDbDictionary
0
ENDSEC
0
EOF
