0
SECTION
2
HEADER
9
$INSUNITS
70
4
9
$ACADVER
1
AC1014
9
$HANDSEED
5
FFFF
0
ENDSEC
0
SECTION
2
TABLES
0
TABLE
2
VPORT
5
8
100
AcDbSymbolTable
0
ENDTAB
0
TABLE
2
LTYPE
5
5
100
AcDbSymbolTable
0
LTYPE
5
14
100
AcDbSymbolTableRecord
100
AcDbLinetypeTableRecord
2
BYBLOCK
70
0
0
LTYPE
5
15
100
AcDbSymbolTableRecord
100
AcDbLinetypeTableRecord
2
BYLAYER
70
0
0
LTYPE
5
16
100
AcDbSymbolTableRecord
100
AcDbLinetypeTableRecord
2
DASHED
70
0
3
Dashed __ __ __ __ __ __ __ __ __ __ __ __ __ _
72
65
73
2
40
0.75
49
0.5
74
0
49
-0.25
74
0
0
ENDTAB
0
TABLE
2
LAYER
5
2
100
AcDbSymbolTable
70
3
0
LAYER
5
50
100
AcDbSymbolTableRecord
100
AcDbLayerTableRecord
2
1
70
0
62
7
6
DASHED
0
LAYER
5
51
100
AcDbSymbolTableRecord
100
AcDbLayerTableRecord
2
0
70
0
62
7
6
CONTINUOUS
0
ENDTAB
0
TABLE
2
STYLE
5
3
100
AcDbSymbolTable
70
1
0
STYLE
5
11
100
AcDbSymbolTableRecord
100
AcDbTextStyleTableRecord
2
STANDARD
70
0
0
ENDTAB
0
TABLE
2
VIEW
5
6
100
AcDbSymbolTable
70
0
0
ENDTAB
0
TABLE
2
UCS
5
7
100
AcDbSymbolTable
70
0
0
ENDTAB
0
TABLE
2
APPID
5
9
100
AcDbSymbolTable
70
2
0
APPID
5
12
100
AcDbSymbolTableRecord
100
AcDbRegAppTableRecord
2
ACAD
70
0
0
ENDTAB
0
TABLE
2
DIMSTYLE
5
A
100
AcDbSymbolTable
70
1
0
ENDTAB
0
TABLE
2
BLOCK_RECORD
5
1
100
AcDbSymbolTable
70
1
0
BLOCK_RECORD
5
1F
100
AcDbSymbolTableRecord
100
AcDbBlockTableRecord
2
*MODEL_SPACE
0
BLOCK_RECORD
5
1B
100
AcDbSymbolTableRecord
100
AcDbBlockTableRecord
2
*PAPER_SPACE
0
ENDTAB
0
ENDSEC
0
SECTION
2
BLOCKS
0
BLOCK
5
20
100
AcDbEntity
100
AcDbBlockBegin
2
*MODEL_SPACE
0
ENDBLK
5
21
100
AcDbEntity
100
AcDbBlockEnd
0
BLOCK
5
1C
100
AcDbEntity
100
AcDbBlockBegin
2
*PAPER_SPACE
0
ENDBLK
5
1D
100
AcDbEntity
100
AcDbBlockEnd
0
ENDSEC
0
SECTION
2
ENTITIES
0
LWPOLYLINE
5
100
100
AcDbEntity
8
0
100
AcDbPolyline
90
16
70
1
43
0.0
10
-441.43400258735505
20
-114.41916440547026
42
0.3500011104184137
10
-441.04511369846642
20
-114.90666242699197
42
-1.810018645775296
10
-443.14024566268233
20
-117.00179439120686
42
0.35000111041839138
10
-443.62774368420412
20
-116.61290550231791
10
-457.99026149050809
20
-116.61290550231796
42
0.35000111041839227
10
-458.47775951202993
20
-117.00179439120686
42
-1.5275842055463791
10
-461.05900258735522
20
-115.09736104569475
42
0.2679491924313932
10
-460.80900258735505
20
-114.6643483438024
10
-460.80900258735505
20
-109.56146266083354
42
0.26794919243110965
10
-461.05900258735517
20
-109.12844995894119
42
-1.5275842055463631
10
-458.47775951202993
20
-107.22401661342907
42
0.35000111041839138
10
-457.99026149050809
20
-107.612905502318
10
-443.62774368420412
20
-107.61290550231794
42
0.35000111041839227
10
-443.14024566268233
20
-107.22401661342907
42
-1.8100186457752809
10
-441.04511369846642
20
-109.319148577644
42
0.35000111041841708
10
-441.43400258735505
20
-109.80664659916572
0
LWPOLYLINE
5
101
100
AcDbEntity
8
0
100
AcDbPolyline
90
16
70
1
43
0.0
10
-366.12774368420395
20
-107.61290550231794
42
0.35000111041840198
10
-365.64024566268216
20
-107.22401661342906
42
-1.8100186457753684
10
-363.54511369846642
20
-109.319148577644
42
0.35000111041841925
10
-363.93400258735505
20
-109.80664659916573
10
-363.93400258735505
20
-114.41916440547018
42
0.35000111041842147
10
-363.54511369846642
20
-114.90666242699193
42
-1.8100186457753873
10
-365.64024566268216
20
-117.00179439120683
42
0.3500011104184011
10
-366.12774368420395
20
-116.61290550231789
10
-380.49026149050798
20
-116.61290550231794
42
0.35000111041845244
10
-380.97775951202976
20
-117.00179439120686
42
-1.8100186457762912
10
-383.07289147624408
20
-114.9066624269916
42
0.35000111041860371
10
-382.68400258735505
20
-114.41916440546976
10
-382.68400258735505
20
-109.8066465991662
42
0.35000111041860593
10
-383.07289147624408
20
-109.31914857764434
42
-1.8100186457762475
10
-380.97775951202976
20
-107.22401661342906
42
0.3500011104184011
10
-380.49026149050798
20
-107.612905502318
0
LWPOLYLINE
5
102
100
AcDbEntity
8
0
100
AcDbPolyline
90
16
70
1
43
0.0
10
-288.00274368420378
20
-107.61290550231793
42
0.35000111041848653
10
-287.51524566268199
20
-107.22401661342903
42
-1.8100186457754461
10
-285.42011369846631
20
-109.31914857764406
42
0.35000111041840215
10
-285.80900258735505
20
-109.80664659916582
10
-285.809002587355
20
-114.41916440547007
42
0.35000111041850479
10
-285.42011369846631
20
-114.90666242699183
42
-1.8100186457754746
10
-287.51524566268199
20
-117.00179439120681
42
0.35000111041851129
10
-288.00274368420378
20
-116.61290550231791
10
-302.36526149050769
20
-116.61290550231791
42
0.35000111041851129
10
-302.85275951202954
20
-117.00179439120681
42
-1.5275842055462403
10
-305.43400258735517
20
-115.09736104569484
42
0.26794919243128218
10
-305.184002587355
20
-114.66434834380252
10
-305.184002587355
20
-109.56146266083337
42
0.26794919243125143
10
-305.43400258735517
20
-109.12844995894103
42
-1.5275842055462094
10
-302.85275951202954
20
-107.22401661342903
42
0.35000111041848653
10
-302.36526149050769
20
-107.61290550231793
0
LWPOLYLINE
5
103
100
AcDbEntity
8
0
100
AcDbPolyline
90
16
70
1
43
0.0
10
-266.19789147624408
20
-114.9066624269916
42
0.35000111041857429
10
-265.80900258735505
20
-114.41916440546977
10
-265.809002587355
20
-109.80664659916611
42
0.35000111041855481
10
-266.19789147624402
20
-109.31914857764427
42
-1.8100186457761127
10
-264.10275951202942
20
-107.22401661342903
42
0.35000111041853121
10
-263.61526149050758
20
-107.61290550231794
10
-249.25274368420366
20
-107.61290550231791
42
0.35000111041856086
10
-248.76524566268191
20
-107.224016613429
42
-1.8100186457754861
10
-246.67011369846625
20
-109.31914857764406
42
0.35000111041847592
10
-247.05900258735508
20
-109.80664659916582
10
-247.059002587355
20
-114.41916440547004
42
0.35000111041847376
10
-246.67011369846625
20
-114.90666242699179
42
-1.8100186457755203
10
-248.76524566268191
20
-117.0017943912068
42
0.35000111041853649
10
-249.25274368420366
20
-116.6129055023179
10
-263.61526149050758
20
-116.6129055023179
42
0.35000111041853649
10
-264.10275951202942
20
-117.00179439120681
42
-1.8100186457761174
0
LWPOLYLINE
5
104
100
AcDbEntity
8
0
100
AcDbPolyline
90
16
70
1
43
0.0
10
-93.627743684203267
20
-107.6129055023179
42
0.35000111041852899
10
-93.140245662681465
20
-107.224016613429
42
-1.8100186457757044
10
-91.045113698466196
20
-109.31914857764411
42
0.35000111041852705
10
-91.434002587355053
20
-109.8066465991659
10
-91.434002587355039
20
-114.41916440546991
42
0.35000111041852705
10
-91.045113698466196
20
-114.9066624269917
42
-1.8100186457757252
10
-93.14024566268148
20
-117.00179439120677
42
0.35000111041852899
10
-93.627743684203267
20
-116.61290550231789
10
-107.99026149050719
20
-116.61290550231786
42
0.35000111041852899
10
-108.477759512029
20
-117.00179439120677
42
-1.8100186457759171
10
-110.572891476244
20
-114.90666242699163
42
0.35000111041849824
10
-110.18400258735504
20
-114.41916440546983
10
-110.18400258735504
20
-109.80664659916597
42
0.35000111041854814
10
-110.57289147624397
20
-109.31914857764419
42
-1.8100186457758858
10
-108.47775951202898
20
-107.224016613429
42
0.35000111041852899
10
-107.99026149050719
20
-107.6129055023179
0
LWPOLYLINE
5
105
100
AcDbEntity
8
0
100
AcDbPolyline
90
64
70
1
43
0.0
10
4.1909974126448795
20
-123.00046582645794
10
4.1909974126448795
20
-100.00046582645794
10
-2.6642614905069948
20
-100.00046582645794
42
0.35000111041853732
10
-3.1517595120287774
20
-100.38935471534684
42
-1.8340814081503891
10
-5.2087803651327924
20
-98.285981953504574
42
0.3562661516518778
10
-4.8090025873550353
20
-97.796129418375045
10
-4.8090025873550388
20
-82.204802234540836
42
0.35626615165185882
10
-5.2087803651327906
20
-81.714949699411306
42
-1.8340814081503958
10
-3.1517595120287734
20
-79.611576937569055
42
0.35000111041852111
10
-2.6642614905069593
20
-80.00046582645794
10
4.1909974126448795
20
-80.00046582645794
10
4.1909974126448795
20
-60.00046582645794
10
-2.6642614905069948
20
-60.00046582645794
42
0.35000111041853721
10
-3.1517595120287734
20
-60.38935471534684
42
-1.8340814081503911
10
-5.2087803651327924
20
-58.285981953504574
42
0.35626615165187725
10
-4.8090025873550903
20
-57.796129418375045
10
-4.8090025873550388
20
-42.204802234540836
42
0.35626615165187275
10
-5.2087803651327933
20
-41.714949699411306
42
-1.8340814081504007
10
-3.1517595120287711
20
-39.611576937569069
42
0.35000111041851939
10
-2.6642614905069593
20
-40.00046582645794
10
4.1909974126448795
20
-40.00046582645794
10
4.1909974126449825
20
-20.00046582645794
10
-292.05586171182574
20
-20.000465826458065
10
-292.0558617118258
20
-26.806724729610046
42
0.35000111041851678
10
-291.66697282293688
20
-27.294222751131869
42
-1.8100186457757919
10
-293.76210478715205
20
-29.389354715346926
42
0.35000111041856663
10
-294.24960280867379
20
-29.000465826458019
10
-309.86212061497775
20
-29.000465826458019
42
0.35000111041856086
10
-310.34961863649949
20
-29.389354715346943
42
-1.8100186457758041
10
-312.44475060071466
20
-27.294222751131816
42
0.35000111041854126
10
-312.0558617118258
20
-26.806724729610028
10
-312.05586171182574
20
-20.000465826458065
10
-332.05586171182574
20
-20.00046582645794
10
-332.0558617118258
20
-26.806724729609876
42
0.35000111041849491
10
-331.66697282293694
20
-27.29422275113167
42
-1.8100186457757632
10
-333.76210478715217
20
-29.389354715346894
42
0.35000111041850207
10
-334.24960280867396
20
-29.000465826458029
10
-349.86212061497787
20
-29.000465826458012
42
0.35000111041857196
10
-350.34961863649977
20
-29.389354715346869
42
-1.8100186457758316
10
-352.44475060071471
20
-27.29422275113172
42
0.35000111041859416
10
-352.05586171182586
20
-26.806724729609925
10
-352.0558617118258
20
-20.00046582645794
10
-517.85800258735514
20
-20.00046582645794
10
-517.85800258735503
20
-40.00046582645794
10
-511.05174368420307
20
-40.00046582645794
42
0.35000111041850446
10
-510.56424566268129
20
-39.611576937569041
42
-1.8100186457757632
10
-508.46911369846617
20
-41.706708901784147
42
0.35000111041851817
10
-508.85800258735509
20
-42.194206923305927
10
-508.85800258735509
20
-57.806724729609954
42
0.35000111041845272
10
-508.46911369846617
20
-58.294222751131748
42
-1.810018645775771
10
-510.56424566268129
20
-60.389354715346826
42
0.35000111041849719
10
-511.05174368420307
20
-60.000465826457969
10
-517.85800258735503
20
-60.00046582645794
10
-517.85800258735503
20
-80.00046582645794
10
-511.05174368420307
20
-80.00046582645794
42
0.35000111041849236
10
-510.56424566268129
20
-79.611576937569055
42
-1.8100186457757794
10
-508.46911369846617
20
-81.70670890178414
42
0.35000111041851928
10
-508.85800258735509
20
-82.194206923305927
10
-508.85800258735509
20
-97.806724729609954
42
0.35000111041845383
10
-508.46911369846617
20
-98.294222751131727
42
-1.8100186457757406
10
-510.56424566268129
20
-100.38935471534685
42
0.35000111041851178
10
-511.05174368420307
20
-100.00046582645797
10
-517.85800258735503
20
-100.00046582645794
10
-517.85800258735503
20
-123.00046582645794
0
LWPOLYLINE
5
106
100
AcDbEntity
8
0
100
AcDbPolyline
90
16
70
1
43
0.0
10
-361.05586171182557
20
-41.194206923306062
42
0.35000111041845272
10
-361.44475060071449
20
-40.706708901784225
42
-1.8100186457757985
10
-359.34961863649932
20
-38.611576937569076
42
0.35000111041849807
10
-358.86212061497758
20
-39.000465826457955
10
-354.24960280867379
20
-39.000465826457983
42
0.35000111041850845
10
-353.762104787152
20
-38.611576937569069
42
-1.8100186457757386
10
-351.66697282293677
20
-40.706708901784239
42
0.35000111041852039
10
-352.05586171182568
20
-41.194206923306034
10
-352.05586171182568
20
-56.806724729609925
42
0.35000111041845272
10
-351.66697282293677
20
-57.294222751131734
42
-1.8100186457757423
10
-353.762104787152
20
-59.389354715346876
42
0.35000111041850207
10
-354.24960280867379
20
-59.000465826458004
10
-358.86212061497758
20
-59.000465826457983
42
0.3500011104184963
10
-359.34961863649937
20
-59.389354715346869
42
-1.8100186457758241
10
-361.44475060071449
20
-57.29422275113167
42
0.35000111041851817
10
-361.05586171182557
20
-56.806724729609897
0
LWPOLYLINE
5
107
100
AcDbEntity
8
0
100
AcDbPolyline
90
15
70
1
43
0.0
10
-327.37774368420395
20
-107.61290550231793
42
0.35000111041839227
10
-326.89024566268216
20
-107.22401661342901
42
-1.8100186457753786
10
-324.79511369846637
20
-109.3191485776441
42
0.35000111041846038
10
-325.18400258735505
20
-109.80664659916584
10
-325.18400258735505
20
-114.41916440547017
42
0.35000111041827953
10
-324.79511369846642
20
-114.90666242699193
42
-1.8100186457753931
10
-326.8902456626821
20
-117.00179439120683
42
0.35000111041850207
10
-327.37774368420389
20
-116.61290550231797
10
-341.74026149050792
20
-116.61290550231791
42
0.35000111041850207
10
-342.22775951202971
20
-117.00179439120686
42
-2.0769283333517876
10
-343.93400258735505
20
-114.862905502318
10
-343.93400258735505
20
-109.80664659916621
42
0.3500011104185749
10
-344.32289147624408
20
-109.31914857764438
42
-1.8100186457762304
10
-342.22775951202959
20
-107.22401661342906
42
0.3500011104184011
10
-341.74026149050781
20
-107.612905502318
0
LWPOLYLINE
5
108
100
AcDbEntity
8
0
100
AcDbPolyline
90
16
70
1
43
0.0
10
-16.127743684203089
20
-107.61290550231789
42
0.3500011104185336
10
-15.640245662681284
20
-107.22401661342899
42
-1.8100186457758183
10
-13.54511369846616
20
-109.31914857764411
42
0.35000111041853632
10
-13.934002587355058
20
-109.8066465991659
10
-13.934002587355055
20
-114.41916440546984
42
0.35000111041853632
10
-13.54511369846616
20
-114.90666242699163
42
-1.8100186457758174
10
-15.640245662681284
20
-117.00179439120676
42
0.35000111041848853
10
-16.127743684203054
20
-116.61290550231786
10
-30.49026149050702
20
-116.61290550231784
42
0.35000111041853266
10
-30.977759512028801
20
-117.00179439120676
42
-1.8100186457757994
10
-33.072891476243939
20
-114.90666242699164
42
0.35000111041851151
10
-32.684002587355046
20
-114.41916440546987
10
-32.684002587355053
20
-109.8066465991659
42
0.35000111041852411
10
-33.072891476243932
20
-109.31914857764411
42
-1.8100186457758032
10
-30.977759512028776
20
-107.22401661342899
42
0.35000111041854426
10
-30.490261490506981
20
-107.61290550231789
0
LWPOLYLINE
5
109
100
AcDbEntity
8
0
100
AcDbPolyline
90
16
70
1
43
0.0
10
-54.877743684203168
20
-107.61290550231789
42
0.35000111041856091
10
-54.39024566268138
20
-107.22401661342897
42
-1.8100186457757499
10
-52.295113698466189
20
-109.31914857764411
42
0.35000111041853676
10
-52.684002587355053
20
-109.8066465991659
10
-52.684002587355053
20
-114.41916440546989
42
0.35000111041849696
10
-52.295113698466196
20
-114.90666242699166
42
-1.8100186457757812
10
-54.390245662681387
20
-117.00179439120676
42
0.3500011104185512
10
-54.877743684203168
20
-116.61290550231786
10
-69.240261490507095
20
-116.61290550231786
42
0.3500011104185301
10
-69.727759512028896
20
-117.00179439120676
42
-1.8100186457758571
10
-71.822891476243967
20
-114.90666242699164
42
0.35000111041854093
10
-71.434002587355053
20
-114.41916440546984
10
-71.434002587355039
20
-109.80664659916593
42
0.35000111041853871
10
-71.822891476243967
20
-109.31914857764413
42
-1.8100186457758394
10
-69.727759512028882
20
-107.22401661342899
42
0.3500011104185301
10
-69.240261490507095
20
-107.61290550231789
0
LWPOLYLINE
5
110
100
AcDbEntity
8
0
100
AcDbPolyline
90
16
70
1
43
0.0
10
-132.37774368420338
20
-107.6129055023179
42
0.35000111041852899
10
-131.89024566268159
20
-107.224016613429
42
-1.8100186457756597
10
-129.79511369846622
20
-109.3191485776441
42
0.3500011104184802
10
-130.18400258735508
20
-109.80664659916586
10
-130.18400258735505
20
-114.41916440546996
42
0.35000111041847792
10
-129.79511369846622
20
-114.90666242699174
42
-1.8100186457756835
10
-131.89024566268159
20
-117.00179439120677
42
0.35000111041852899
10
-132.37774368420338
20
-116.61290550231789
10
-147.36526149050701
20
-116.61290550231789
42
0.35000111041853876
10
-147.8527595120288
20
-117.00179439120677
42
-1.810018645775805
10
-149.94789147624391
20
-114.90666242699163
42
0.35000111041852899
10
-149.55900258735502
20
-114.41916440546984
10
-149.55900258735502
20
-109.80664659916587
42
0.35000111041853876
10
-149.94789147624391
20
-109.3191485776441
42
-1.8100186457758212
10
-147.8527595120288
20
-107.224016613429
42
0.35000111041854093
10
-147.36526149050701
20
-107.6129055023179
0
LWPOLYLINE
5
111
100
AcDbEntity
8
0
100
AcDbPolyline
90
16
70
1
43
0.0
10
-171.75274368420347
20
-107.61290550231791
42
0.35000111041853649
10
-171.26524566268165
20
-107.22401661342901
42
-1.8100186457756171
10
-169.17011369846622
20
-109.31914857764409
42
0.35000111041848592
10
-169.559002587355
20
-109.80664659916584
10
-169.559002587355
20
-114.41916440546997
42
0.35000111041848814
10
-169.17011369846622
20
-114.90666242699172
42
-1.8100186457756151
10
-171.26524566268171
20
-117.0017943912068
42
0.35000111041853649
10
-171.75274368420347
20
-116.6129055023179
10
-186.11526149050741
20
-116.61290550231789
42
0.35000111041853649
10
-186.60275951202917
20
-117.0017943912068
42
-1.8100186457759968
10
-188.69789147624402
20
-114.9066624269916
42
0.35000111041857984
10
-188.30900258735508
20
-114.41916440546979
10
-188.309002587355
20
-109.80664659916602
42
0.35000111041859749
10
-188.69789147624402
20
-109.31914857764423
42
-1.8100186457759939
10
-186.60275951202917
20
-107.22401661342901
42
0.35000111041853649
10
-186.11526149050741
20
-107.61290550231791
0
LWPOLYLINE
5
112
100
AcDbEntity
8
0
100
AcDbPolyline
90
16
70
1
43
0.0
10
-210.50274368420355
20
-107.61290550231791
42
0.35000111041853649
10
-210.01524566268176
20
-107.22401661342903
42
-1.8100186457755734
10
-207.92011369846622
20
-109.31914857764406
42
0.35000111041848592
10
-208.309002587355
20
-109.80664659916583
10
-208.309002587355
20
-114.41916440546999
42
0.35000111041848814
10
-207.9201136984662
20
-114.90666242699174
42
-1.8100186457755705
10
-210.01524566268176
20
-117.0017943912068
42
0.35000111041853649
10
-210.50274368420355
20
-116.6129055023179
10
-224.86526149050746
20
-116.6129055023179
42
0.35000111041853649
10
-225.35275951202925
20
-117.0017943912068
42
-1.8100186457760414
10
-227.44789147624402
20
-114.90666242699157
42
0.35000111041857984
10
-227.05900258735508
20
-114.41916440546977
10
-227.059002587355
20
-109.80664659916604
42
0.35000111041858206
10
-227.44789147624408
20
-109.31914857764424
42
-1.8100186457760177
10
-225.35275951202922
20
-107.22401661342901
42
0.35000111041853649
10
-224.86526149050746
20
-107.61290550231791
0
LWPOLYLINE
5
113
100
AcDbEntity
8
0
100
AcDbPolyline
90
16
70
1
43
0.0
10
-421.82289147624408
20
-114.9066624269916
42
0.35000111041860371
10
-421.43400258735505
20
-114.41916440546976
10
-421.43400258735505
20
-109.80664659916627
42
0.35000111041862703
10
-421.82289147624408
20
-109.31914857764443
42
-1.8100186457763225
10
-419.72775951202976
20
-107.22401661342907
42
0.35000111041839138
10
-419.24026149050798
20
-107.612905502318
10
-404.87774368420412
20
-107.61290550231794
42
0.35000111041840198
10
-404.39024566268239
20
-107.22401661342906
42
-1.8100186457753342
10
-402.29511369846642
20
-109.3191485776441
42
0.35000111041841925
10
-402.68400258735505
20
-109.80664659916583
10
-402.68400258735505
20
-114.41916440547021
42
0.3500011104184137
10
-402.29511369846642
20
-114.90666242699197
42
-1.8100186457753427
10
-404.39024566268222
20
-117.00179439120686
42
0.35000111041850207
10
-404.87774368420401
20
-116.61290550231799
10
-419.24026149050803
20
-116.61290550231794
42
0.35000111041848175
10
-419.72775951202976
20
-117.00179439120686
42
-1.8100186457763254
0
LWPOLYLINE
5
114
100
AcDbEntity
8
0
100
AcDbPolyline
90
16
70
1
43
0.0
10
-480.80900258735517
20
-114.41916440546979
42
0.35000111041848386
10
-480.42011369846637
20
-114.9066624269916
42
-1.810018645775809
10
-482.51524566268137
20
-117.00179439120683
42
0.35000111041847287
10
-483.00274368420321
20
-116.61290550231803
10
-497.36526149050712
20
-116.61290550231796
42
0.35000111041842241
10
-497.85275951202891
20
-117.00179439120683
42
-1.8100186457757841
10
-499.94789147624397
20
-114.90666242699164
42
0.35000111041851706
10
-499.55900258735505
20
-114.41916440546989
10
-499.55900258735505
20
-109.80664659916586
42
0.35000111041845383
10
-499.94789147624397
20
-109.31914857764413
42
-1.8100186457758716
10
-497.85275951202885
20
-107.22401661342906
42
0.3500011104184117
10
-497.36526149050712
20
-107.61290550231804
10
-483.0027436842031
20
-107.61290550231797
42
0.35000111041845161
10
-482.51524566268131
20
-107.22401661342906
42
-1.8100186457758696
10
-480.42011369846625
20
-109.3191485776441
42
0.35000111041851706
10
-480.80900258735517
20
-109.80664659916586
0
ENDSEC
0
SECTION
2
OBJECTS
0
DICTIONARY
5
C
100
AcDbDictionary
3
ACAD_GROUP
350
D
3
ACAD_MLINESTYLE
350
17
0
DICTIONARY
5
D
100
AcDbDictionary
0
DICTIONARY
5
1A
330
C
100
AcDbDictionary
0
DICTIONARY
5
17
100
AcDbDictionary
0
ENDSEC
0
EOF
