0
SECTION
2
HEADER
9
$INSUNITS
70
4
9
$ACADVER
1
AC1014
9
$HANDSEED
5
FFFF
0
ENDSEC
0
SECTION
2
TABLES
0
TABLE
2
VPORT
5
8
100
AcDbSymbolTable
0
ENDTAB
0
TABLE
2
LTYPE
5
5
100
AcDbSymbolTable
0
LTYPE
5
14
100
AcDbSymbolTableRecord
100
AcDbLinetypeTableRecord
2
BYBLOCK
70
0
0
LTYPE
5
15
100
AcDbSymbolTableRecord
100
AcDbLinetypeTableRecord
2
BYLAYER
70
0
0
LTYPE
5
16
100
AcDbSymbolTableRecord
100
AcDbLinetypeTableRecord
2
DASHED
70
0
3
Dashed __ __ __ __ __ __ __ __ __ __ __ __ __ _
72
65
73
2
40
0.75
49
0.5
74
0
49
-0.25
74
0
0
ENDTAB
0
TABLE
2
LAYER
5
2
100
AcDbSymbolTable
70
2
0
LAYER
5
50
100
AcDbSymbolTableRecord
100
AcDbLayerTableRecord
2
0
70
0
62
7
6
CONTINUOUS
0
ENDTAB
0
TABLE
2
STYLE
5
3
100
AcDbSymbolTable
70
1
0
STYLE
5
11
100
AcDbSymbolTableRecord
100
AcDbTextStyleTableRecord
2
STANDARD
70
0
0
ENDTAB
0
TABLE
2
VIEW
5
6
100
AcDbSymbolTable
70
0
0
ENDTAB
0
TABLE
2
UCS
5
7
100
AcDbSymbolTable
70
0
0
ENDTAB
0
TABLE
2
APPID
5
9
100
AcDbSymbolTable
70
2
0
APPID
5
12
100
AcDbSymbolTableRecord
100
AcDbRegAppTableRecord
2
ACAD
70
0
0
ENDTAB
0
TABLE
2
DIMSTYLE
5
A
100
AcDbSymbolTable
70
1
0
ENDTAB
0
TABLE
2
BLOCK_RECORD
5
1
100
AcDbSymbolTable
70
1
0
BLOCK_RECORD
5
1F
100
AcDbSymbolTableRecord
100
AcDbBlockTableRecord
2
*MODEL_SPACE
0
BLOCK_RECORD
5
1B
100
AcDbSymbolTableRecord
100
AcDbBlockTableRecord
2
*PAPER_SPACE
0
ENDTAB
0
ENDSEC
0
SECTION
2
BLOCKS
0
BLOCK
5
20
100
AcDbEntity
100
AcDbBlockBegin
2
*MODEL_SPACE
0
ENDBLK
5
21
100
AcDbEntity
100
AcDbBlockEnd
0
BLOCK
5
1C
100
AcDbEntity
100
AcDbBlockBegin
2
*PAPER_SPACE
0
ENDBLK
5
1D
100
AcDbEntity
100
AcDbBlockEnd
0
ENDSEC
0
SECTION
2
ENTITIES
0
CIRCLE
5
100
100
AcDbEntity
8
0
100
AcDbCircle
10
-125.60120583552367
20
-16.291794213133073
30
0
40
1.2645000000000006
210
3.0385816786431356e-64
220
-9.3633527093843967e-97
230
1
0
CIRCLE
5
101
100
AcDbEntity
8
0
100
AcDbCircle
10
-125.60120583552346
20
43.008205786869446
30
0
40
1.2645000000000006
210
3.0385816786431356e-64
220
-9.3633527093843967e-97
230
1
0
CIRCLE
5
102
100
AcDbEntity
8
0
100
AcDbCircle
10
-173.40281575128995
20
-16.291794213132931
30
0
40
1.2645000000000006
210
3.0385816786431356e-64
220
-9.3633527093843967e-97
230
1
0
LWPOLYLINE
5
103
100
AcDbEntity
8
0
100
AcDbPolyline
90
9
70
1
43
0.0
10
-172.87619203282964
20
-11.093436160854704
42
0.31210338177796126
10
-165.39099863164256
20
-16.269984417540645
10
-133.60120583552367
20
-16.269984417539959
42
0.41421356237309537
10
-125.60120583552364
20
-8.2699844175399839
10
-125.6012058355235
20
35.030015582462099
42
0.38447058448732091
10
-132.78180075500734
20
42.987940897142096
10
-165.37526264633172
20
42.987940897142096
42
0.41421356237309404
10
-173.37526264633169
20
34.987940897142089
10
-173.37526264633175
20
-8.3120591028605109
42
0.089005725616779371
0
CIRCLE
5
104
100
AcDbEntity
8
0
100
AcDbCircle
10
-173.40281575128969
20
43.008205786869652
30
0
40
1.2645000000000006
210
3.0385816786431356e-64
220
-9.3633527093843967e-97
230
1
0
CIRCLE
5
105
100
AcDbEntity
8
0
100
AcDbCircle
10
205.91828278900337
20
-20.098995087818878
30
0
40
1.2645000000000006
210
3.0385816786431356e-64
220
-9.3633527093843967e-97
230
1
0
CIRCLE
5
106
100
AcDbEntity
8
0
100
AcDbCircle
10
235.91828278900334
20
-20.098995087818608
30
0
40
1.2645000000000006
210
3.0385816786431356e-64
220
-9.3633527093843967e-97
230
1
0
LWPOLYLINE
5
107
100
AcDbEntity
8
0
100
AcDbPolyline
90
8
70
1
43
0.0
10
235.91828278900289
20
36.901004912181328
10
235.91828278900329
20
-12.09899508781854
42
-0.4142135623731012
10
227.9182827890034
20
-20.098995087818604
10
213.91828278900334
20
-20.098995087818743
42
-0.4142135623730947
10
205.91828278900329
20
-12.09899508781878
10
205.91828278900292
20
36.901004912181072
42
-0.41421356237309148
10
213.9182827890028
20
44.901004912181151
10
227.9182827890028
20
44.901004912181257
42
-0.41421356237309731
0
CIRCLE
5
108
100
AcDbEntity
8
0
100
AcDbCircle
10
205.91828278900283
20
44.901004912181108
30
0
40
1.2645000000000006
210
3.0385816786431356e-64
220
-9.3633527093843967e-97
230
1
0
LWPOLYLINE
5
109
100
AcDbEntity
8
0
100
AcDbPolyline
90
8
70
1
43
0.0
10
82.930222460490739
20
44.814131282464693
42
0.41421356237309365
10
74.430222460490711
20
36.314131282464686
10
74.430222460490768
20
-12.68586871753536
42
0.41421356237309559
10
82.930222460490768
20
-21.185868717535339
10
131.95516602395148
20
-21.185868717535318
42
0.41421356237309398
10
140.45516602395151
20
-12.685868717535298
10
140.45516602395145
20
36.314131282464729
42
0.41421356237309442
10
131.95516602395145
20
44.814131282464729
0
CIRCLE
5
110
100
AcDbEntity
8
0
100
AcDbCircle
10
75.126279276475358
20
44.183266232359387
30
0
40
1.2645000000000006
210
3.0385816786431356e-64
220
-9.3633527093843967e-97
230
1
0
CIRCLE
5
111
100
AcDbEntity
8
0
100
AcDbCircle
10
139.94269424222117
20
-20.673396935805037
30
0
40
1.2645000000000006
210
3.0385816786431356e-64
220
-9.3633527093843967e-97
230
1
0
CIRCLE
5
112
100
AcDbEntity
8
0
100
AcDbCircle
10
74.942694242221123
20
-20.67339693580503
30
0
40
1.2645000000000006
210
3.0385816786431356e-64
220
-9.3633527093843967e-97
230
1
0
LWPOLYLINE
5
113
100
AcDbEntity
8
0
100
AcDbPolyline
90
4
70
1
43
0.0
10
261.45988082885714
20
58.955097198486342
10
-257.72211917114282
20
58.955097198486342
10
-257.72211917114288
20
-41.044902801513686
10
261.45988082885714
20
-41.044902801513686
0
LWPOLYLINE
5
114
100
AcDbEntity
8
0
100
AcDbPolyline
90
8
70
1
43
0.0
10
38.14956513741727
20
-21.160819817246882
42
0.41421356237309948
10
46.149565137417277
20
-13.160819817246878
10
46.149565137417206
20
36.639180182753186
42
0.41421356237309598
10
38.149565137417213
20
44.639180182753144
10
-11.650434862582664
20
44.639180182753144
42
0.4142135623730957
10
-19.650434862582671
20
36.639180182753122
10
-19.650434862582618
20
-13.160819817246843
42
0.41421356237309537
10
-11.650434862582628
20
-21.160819817246832
0
CIRCLE
5
115
100
AcDbEntity
8
0
100
AcDbCircle
10
45.906924450298199
20
-20.918179130126831
30
0
40
1.2645000000000006
210
3.0385816786431356e-64
220
-9.3633527093843967e-97
230
1
0
CIRCLE
5
116
100
AcDbEntity
8
0
100
AcDbCircle
10
-19.407794175464232
20
-20.918179130128323
30
0
40
1.2645000000000006
210
3.0385816786431356e-64
220
-9.3633527093843967e-97
230
1
0
CIRCLE
5
117
100
AcDbEntity
8
0
100
AcDbCircle
10
45.906924450296778
20
44.396539495635487
30
0
40
1.2645000000000006
210
3.0385816786431356e-64
220
-9.3633527093843967e-97
230
1
0
CIRCLE
5
118
100
AcDbEntity
8
0
100
AcDbCircle
10
-19.407794175465654
20
44.396539495634116
30
0
40
1.2645000000000006
210
3.0385816786431356e-64
220
-9.3633527093843967e-97
230
1
0
CIRCLE
5
119
100
AcDbEntity
8
0
100
AcDbCircle
10
236.04041930645664
20
44.722148689226387
30
0
40
1.2645000000000006
210
3.0385816786431356e-64
220
-9.3633527093843967e-97
230
1
0
CIRCLE
5
120
100
AcDbEntity
8
0
100
AcDbCircle
10
140.12627927647537
20
44.183266232359387
30
0
40
1.2645000000000006
210
3.0385816786431356e-64
220
-9.3633527093843967e-97
230
1
0
CIRCLE
5
121
100
AcDbEntity
8
0
100
AcDbCircle
10
75.126279276475358
20
44.183266232359387
30
0
40
1.2645
210
4.5578725179647034e-64
220
1.9719261950290368e-127
230
1
0
CIRCLE
5
122
100
AcDbEntity
8
0
100
AcDbCircle
10
139.94269424222117
20
-20.673396935805005
30
0
40
1.2645
210
4.5578725179647034e-64
220
1.9719261950290368e-127
230
1
0
CIRCLE
5
123
100
AcDbEntity
8
0
100
AcDbCircle
10
74.942694242221123
20
-20.673396935804998
30
0
40
1.2645
210
4.5578725179647034e-64
220
1.9719261950290368e-127
230
1
0
LWPOLYLINE
5
124
100
AcDbEntity
8
0
100
AcDbPolyline
90
8
70
1
43
0.0
10
261.45988082885714
20
58.955097198486335
10
-257.72211917114282
20
58.955097198486335
10
-257.72211917114288
20
-25.044902801513658
10
-257.72211917114288
20
-37.044902801513651
10
-257.72211917114282
20
-41.044902801513658
10
261.45988082885714
20
-41.044902801513665
10
261.45988082885714
20
-37.044902801513658
10
261.45988082885714
20
-25.044902801513626
0
LWPOLYLINE
5
125
100
AcDbEntity
8
0
100
AcDbPolyline
90
8
70
1
43
0.0
10
38.14956513741727
20
-21.160819817246846
42
0.41421356237309886
10
46.149565137417277
20
-13.160819817246846
10
46.149565137417206
20
36.639180182753194
42
0.41421356237309537
10
38.149565137417213
20
44.639180182753158
10
-11.650434862582664
20
44.639180182753151
42
0.41421356237309437
10
-19.650434862582653
20
36.639180182753137
10
-19.650434862582618
20
-13.160819817246811
42
0.41421356237309531
10
-11.650434862582628
20
-21.1608198172468
0
CIRCLE
5
126
100
AcDbEntity
8
0
100
AcDbCircle
10
45.906924450298199
20
-20.918179130126799
30
0
40
1.2645
210
4.5578725179647034e-64
220
1.9719261950290368e-127
230
1
0
CIRCLE
5
127
100
AcDbEntity
8
0
100
AcDbCircle
10
-19.407794175464232
20
-20.918179130128291
30
0
40
1.2645
210
4.5578725179647034e-64
220
1.9719261950290368e-127
230
1
0
CIRCLE
5
128
100
AcDbEntity
8
0
100
AcDbCircle
10
45.906924450296778
20
44.396539495635487
30
0
40
1.2645
210
4.5578725179647034e-64
220
1.9719261950290368e-127
230
1
0
CIRCLE
5
129
100
AcDbEntity
8
0
100
AcDbCircle
10
-19.407794175465654
20
44.396539495634116
30
0
40
1.2645
210
4.5578725179647034e-64
220
1.9719261950290368e-127
230
1
0
CIRCLE
5
130
100
AcDbEntity
8
0
100
AcDbCircle
10
236.04041930645664
20
44.722148689226387
30
0
40
1.2645
210
4.5578725179647034e-64
220
1.9719261950290368e-127
230
1
0
CIRCLE
5
131
100
AcDbEntity
8
0
100
AcDbCircle
10
140.12627927647537
20
44.183266232359387
30
0
40
1.2645
210
4.5578725179647034e-64
220
1.9719261950290368e-127
230
1
0
LWPOLYLINE
5
132
100
AcDbEntity
8
0
100
AcDbPolyline
90
8
70
1
43
0.0
10
82.930222460490768
20
-21.185868717535318
10
131.95516602395148
20
-21.185868717535289
42
0.41421356237309354
10
140.45516602395151
20
-12.685868717535275
10
140.45516602395145
20
36.314131282464736
42
0.41421356237309442
10
131.95516602395145
20
44.814131282464714
10
82.930222460490739
20
44.814131282464693
42
0.41421356237309354
10
74.430222460490711
20
36.314131282464693
10
74.430222460490768
20
-12.685868717535328
42
0.41421356237309442
0
CIRCLE
5
133
100
AcDbEntity
8
0
100
AcDbCircle
10
205.91828278900283
20
44.901004912181108
30
0
40
1.2645
210
4.5578725179647034e-64
220
1.9719261950290368e-127
230
1
0
LWPOLYLINE
5
134
100
AcDbEntity
8
0
100
AcDbPolyline
90
8
70
1
43
0.0
10
213.9182827890028
20
44.901004912181151
42
0.4142135623730937
10
205.91828278900292
20
36.901004912181087
10
205.91828278900329
20
-12.09899508781875
42
0.41421356237309437
10
213.91828278900334
20
-20.098995087818707
10
227.9182827890034
20
-20.098995087818569
42
0.41421356237310053
10
235.91828278900329
20
-12.098995087818519
10
235.91828278900289
20
36.901004912181328
42
0.41421356237309553
10
227.9182827890028
20
44.901004912181264
0
CIRCLE
5
135
100
AcDbEntity
8
0
100
AcDbCircle
10
235.91828278900334
20
-20.098995087818579
30
0
40
1.2645
210
4.5578725179647034e-64
220
1.9719261950290368e-127
230
1
0
CIRCLE
5
136
100
AcDbEntity
8
0
100
AcDbCircle
10
205.91828278900337
20
-20.098995087818846
30
0
40
1.2645
210
4.5578725179647034e-64
220
1.9719261950290368e-127
230
1
0
CIRCLE
5
137
100
AcDbEntity
8
0
100
AcDbCircle
10
-125.60120583552367
20
-16.291794213133045
30
0
40
1.2645
210
4.5578725179647034e-64
220
1.9719261950290368e-127
230
1
0
CIRCLE
5
138
100
AcDbEntity
8
0
100
AcDbCircle
10
-125.60120583552346
20
43.008205786869446
30
0
40
1.2645
210
4.5578725179647034e-64
220
1.9719261950290368e-127
230
1
0
CIRCLE
5
139
100
AcDbEntity
8
0
100
AcDbCircle
10
-173.40281575128995
20
-16.291794213132903
30
0
40
1.2645
210
4.5578725179647034e-64
220
1.9719261950290368e-127
230
1
0
LWPOLYLINE
5
140
100
AcDbEntity
8
0
100
AcDbPolyline
90
9
70
1
43
0.0
10
-172.87619203282969
20
-11.093436160854671
42
0.31210338177796104
10
-165.39099863164256
20
-16.269984417540627
10
-133.60120583552364
20
-16.269984417539931
42
0.41421356237309404
10
-125.60120583552364
20
-8.2699844175399626
10
-125.6012058355235
20
35.030015582462099
42
0.38447058448731963
10
-132.78180075500734
20
42.987940897142096
10
-165.37526264633172
20
42.987940897142096
42
0.41421356237309359
10
-173.37526264633169
20
34.987940897142103
10
-173.37526264633172
20
-8.3120591028604665
42
0.089005725616777928
0
CIRCLE
5
141
100
AcDbEntity
8
0
100
AcDbCircle
10
-173.40281575128969
20
43.008205786869652
30
0
40
1.2645
210
4.5578725179647034e-64
220
1.9719261950290368e-127
230
1
0
LWPOLYLINE
5
142
100
AcDbEntity
8
0
100
AcDbPolyline
90
4
70
1
43
0.0
10
-249.93649498165621
20
-37.952554841143893
10
255.06350501834379
20
-37.952554841143893
10
255.06350501834379
20
-25.952554841143893
10
-249.93649498165621
20
-25.952554841143893
0
LWPOLYLINE
5
143
100
AcDbEntity
8
0
100
AcDbPolyline
90
10
70
1
43
0.0
10
251.70987255180734
20
-37.044902801513715
10
255.70987255180736
20
-37.044902801513729
10
255.70987255180736
20
-25.044902801513715
10
251.70987255180734
20
-25.0449028015137
10
251.70987255180751
20
58.955097198486285
10
261.45987255180751
20
58.955097198486264
10
263.70987255180751
20
58.955097198486257
10
263.70987255180734
20
-41.044902801513743
10
261.45987255180734
20
-41.044902801513736
10
251.70987255180734
20
-41.044902801513715
0
LWPOLYLINE
5
144
100
AcDbEntity
8
0
100
AcDbPolyline
90
10
70
1
43
0.0
10
-252.00152574538635
20
-37.044902801514709
10
-248.00152574538632
20
-37.044902801515207
10
-248.00152574538683
20
-41.044902801515192
10
-257.75152574538686
20
-41.044902801513992
10
-260.00152574538589
20
-41.044902801513707
10
-260.00152574537356
20
58.955097198486293
10
-257.75152574537452
20
58.955097198486008
10
-248.00152574537449
20
58.955097198484808
10
-248.00152574538484
20
-25.044902801515178
10
-252.00152574538487
20
-25.044902801514684
0
ENDSEC
0
SECTION
2
OBJECTS
0
DICTIONARY
5
C
100
AcDbDictionary
3
ACAD_GROUP
350
D
3
ACAD_MLINESTYLE
350
17
0
DICTIONARY
5
D
100
AcDbDictionary
0
DICTIONARY
5
1A
330
C
100
AcDbDictionary
0
DICTIONARY
5
17
100
AcDbDictionary
0
ENDSEC
0
EOF
