0
SECTION
2
HEADER
9
$INSUNITS
70
4
9
$ACADVER
1
AC1014
9
$HANDSEED
5
FFFF
0
ENDSEC
0
SECTION
2
TABLES
0
TABLE
2
VPORT
5
8
100
AcDbSymbolTable
0
ENDTAB
0
TABLE
2
LTYPE
5
5
100
AcDbSymbolTable
0
LTYPE
5
14
100
AcDbSymbolTableRecord
100
AcDbLinetypeTableRecord
2
BYBLOCK
70
0
0
LTYPE
5
15
100
AcDbSymbolTableRecord
100
AcDbLinetypeTableRecord
2
BYLAYER
70
0
0
LTYPE
5
16
100
AcDbSymbolTableRecord
100
AcDbLinetypeTableRecord
2
DASHED
70
0
3
Dashed __ __ __ __ __ __ __ __ __ __ __ __ __ _
72
65
73
2
40
0.75
49
0.5
74
0
49
-0.25
74
0
0
ENDTAB
0
TABLE
2
LAYER
5
2
100
AcDbSymbolTable
70
2
0
LAYER
5
50
100
AcDbSymbolTableRecord
100
AcDbLayerTableRecord
2
0
70
0
62
7
6
CONTINUOUS
0
ENDTAB
0
TABLE
2
STYLE
5
3
100
AcDbSymbolTable
70
1
0
STYLE
5
11
100
AcDbSymbolTableRecord
100
AcDbTextStyleTableRecord
2
STANDARD
70
0
0
ENDTAB
0
TABLE
2
VIEW
5
6
100
AcDbSymbolTable
70
0
0
ENDTAB
0
TABLE
2
UCS
5
7
100
AcDbSymbolTable
70
0
0
ENDTAB
0
TABLE
2
APPID
5
9
100
AcDbSymbolTable
70
2
0
APPID
5
12
100
AcDbSymbolTableRecord
100
AcDbRegAppTableRecord
2
ACAD
70
0
0
ENDTAB
0
TABLE
2
DIMSTYLE
5
A
100
AcDbSymbolTable
70
1
0
ENDTAB
0
TABLE
2
BLOCK_RECORD
5
1
100
AcDbSymbolTable
70
1
0
BLOCK_RECORD
5
1F
100
AcDbSymbolTableRecord
100
AcDbBlockTableRecord
2
*MODEL_SPACE
0
BLOCK_RECORD
5
1B
100
AcDbSymbolTableRecord
100
AcDbBlockTableRecord
2
*PAPER_SPACE
0
ENDTAB
0
ENDSEC
0
SECTION
2
BLOCKS
0
BLOCK
5
20
100
AcDbEntity
100
AcDbBlockBegin
2
*MODEL_SPACE
0
ENDBLK
5
21
100
AcDbEntity
100
AcDbBlockEnd
0
BLOCK
5
1C
100
AcDbEntity
100
AcDbBlockBegin
2
*PAPER_SPACE
0
ENDBLK
5
1D
100
AcDbEntity
100
AcDbBlockEnd
0
ENDSEC
0
SECTION
2
ENTITIES
0
CIRCLE
5
100
100
AcDbEntity
8
0
100
AcDbCircle
10
-190.84405710021497
20
28.477023318200764
30
0
40
1.6000000000000014
210
0
220
-0
230
1
0
CIRCLE
5
101
100
AcDbEntity
8
0
100
AcDbCircle
10
-190.84405710021488
20
52.47702331820107
30
0
40
1.6000000000000014
210
0
220
-0
230
1
0
CIRCLE
5
102
100
AcDbEntity
8
0
100
AcDbCircle
10
-191.18590459393693
20
-6.7766810338032677
30
0
40
1.600000000000007
210
0
220
-0
230
1
0
CIRCLE
5
103
100
AcDbEntity
8
0
100
AcDbCircle
10
-171.85610459393689
20
-6.4322810338032541
30
0
40
1.600000000000007
210
0
220
-0
230
1
0
CIRCLE
5
104
100
AcDbEntity
8
0
100
AcDbCircle
10
-151.28460646271304
20
39.259995849219926
30
0
40
8.0312107193359754
210
0
220
-0
230
1
0
CIRCLE
5
105
100
AcDbEntity
8
0
100
AcDbCircle
10
-135.95740219606478
20
-10.228622506010518
30
0
40
2.0000000000000284
210
0
220
-0
230
1
0
CIRCLE
5
106
100
AcDbEntity
8
0
100
AcDbCircle
10
-200.95740219606483
20
-10.228622506010508
30
0
40
2.0000000000000284
210
0
220
-0
230
1
0
CIRCLE
5
107
100
AcDbEntity
8
0
100
AcDbCircle
10
-171.52630459393694
20
17.912118966196715
30
0
40
1.600000000000007
210
0
220
-0
230
1
0
CIRCLE
5
108
100
AcDbEntity
8
0
100
AcDbCircle
10
-171.84405710021525
20
28.477023318200764
30
0
40
1.6000000000000014
210
0
220
-0
230
1
0
CIRCLE
5
109
100
AcDbEntity
8
0
100
AcDbCircle
10
-181.34405710021511
20
40.477023318200978
30
0
40
12.000000000000028
210
0
220
-0
230
1
0
CIRCLE
5
110
100
AcDbEntity
8
0
100
AcDbCircle
10
-181.35610459393689
20
5.5677189661964501
30
0
40
11.999999999999993
210
0
220
-0
230
1
0
CIRCLE
5
111
100
AcDbEntity
8
0
100
AcDbCircle
10
-190.85610459393703
20
17.567718966196693
30
0
40
1.600000000000007
210
0
220
-0
230
1
0
CIRCLE
5
112
100
AcDbEntity
8
0
100
AcDbCircle
10
-135.95740219606478
20
54.77137749398949
30
0
40
1.9999999999999574
210
0
220
-0
230
1
0
CIRCLE
5
113
100
AcDbEntity
8
0
100
AcDbCircle
10
-200.95740219606483
20
54.771377493989505
30
0
40
1.9999999999999574
210
0
220
-0
230
1
0
CIRCLE
5
114
100
AcDbEntity
8
0
100
AcDbCircle
10
-171.84405710021534
20
52.47702331820107
30
0
40
1.6000000000000014
210
0
220
-0
230
1
0
CIRCLE
5
115
100
AcDbEntity
8
0
100
AcDbCircle
10
-151.25724712233662
20
6.214921095376182
30
0
40
8.0228094615711836
210
0
220
-0
230
1
0
LWPOLYLINE
5
116
100
AcDbEntity
8
0
100
AcDbPolyline
90
8
70
1
43
0.0
10
-205.95740219606483
20
-12.228622506010511
42
0.41421356237309853
10
-202.95740219606486
20
-15.228622506010518
10
-133.95740219606472
20
-15.228622506010527
42
0.41421356237308915
10
-130.95740219606478
20
-12.228622506010527
10
-130.95740219606478
20
56.771377493989462
42
0.41421356237309853
10
-133.95740219606472
20
59.771377493989476
10
-202.95740219606486
20
59.77137749398949
42
0.41421356237308721
10
-205.95740219606481
20
56.77137749398949
0
CIRCLE
5
117
100
AcDbEntity
8
0
100
AcDbCircle
10
-151.25724712233662
20
6.214921095376182
30
0
40
8.0228094615711854
210
-0
220
0
230
1
0
CIRCLE
5
118
100
AcDbEntity
8
0
100
AcDbCircle
10
-171.84405710021534
20
52.47702331820107
30
0
40
1.6000000000000014
210
-0
220
0
230
1
0
CIRCLE
5
119
100
AcDbEntity
8
0
100
AcDbCircle
10
-200.95740219606483
20
54.771377493989505
30
0
40
1.9999999999999574
210
-0
220
0
230
1
0
CIRCLE
5
120
100
AcDbEntity
8
0
100
AcDbCircle
10
-135.95740219606478
20
54.77137749398949
30
0
40
1.9999999999999574
210
-0
220
0
230
1
0
CIRCLE
5
121
100
AcDbEntity
8
0
100
AcDbCircle
10
-190.85610459393703
20
17.567718966196693
30
0
40
1.600000000000007
210
0
220
0
230
1
0
CIRCLE
5
122
100
AcDbEntity
8
0
100
AcDbCircle
10
-181.35610459393689
20
5.5677189661964501
30
0
40
11.999999999999993
210
-0
220
0
230
1
0
CIRCLE
5
123
100
AcDbEntity
8
0
100
AcDbCircle
10
-181.34405710021511
20
40.477023318200978
30
0
40
12.000000000000028
210
-0
220
0
230
1
0
CIRCLE
5
124
100
AcDbEntity
8
0
100
AcDbCircle
10
-171.84405710021525
20
28.477023318200764
30
0
40
1.6000000000000014
210
-0
220
0
230
1
0
CIRCLE
5
125
100
AcDbEntity
8
0
100
AcDbCircle
10
-171.52630459393694
20
17.912118966196715
30
0
40
1.600000000000007
210
0
220
0
230
1
0
CIRCLE
5
126
100
AcDbEntity
8
0
100
AcDbCircle
10
-200.95740219606483
20
-10.228622506010508
30
0
40
2.0000000000000284
210
-0
220
0
230
1
0
CIRCLE
5
127
100
AcDbEntity
8
0
100
AcDbCircle
10
-135.95740219606478
20
-10.228622506010518
30
0
40
2.0000000000000284
210
-0
220
0
230
1
0
CIRCLE
5
128
100
AcDbEntity
8
0
100
AcDbCircle
10
-151.28460646271304
20
39.259995849219926
30
0
40
8.0312107193359772
210
-0
220
0
230
1
0
CIRCLE
5
129
100
AcDbEntity
8
0
100
AcDbCircle
10
-171.85610459393689
20
-6.4322810338032541
30
0
40
1.600000000000007
210
0
220
0
230
1
0
CIRCLE
5
130
100
AcDbEntity
8
0
100
AcDbCircle
10
-191.18590459393693
20
-6.7766810338032677
30
0
40
1.600000000000007
210
0
220
0
230
1
0
CIRCLE
5
131
100
AcDbEntity
8
0
100
AcDbCircle
10
-190.84405710021488
20
52.47702331820107
30
0
40
1.6000000000000014
210
-0
220
0
230
1
0
CIRCLE
5
132
100
AcDbEntity
8
0
100
AcDbCircle
10
-190.84405710021497
20
28.477023318200764
30
0
40
1.6000000000000014
210
-0
220
0
230
1
0
LWPOLYLINE
5
133
100
AcDbEntity
8
0
100
AcDbPolyline
90
8
70
1
43
0.0
10
-205.95740219606483
20
56.77137749398949
10
-205.95740219606483
20
-12.228622506010511
42
0.41421356237309853
10
-202.95740219606486
20
-15.228622506010511
10
-133.95740219606472
20
-15.228622506010527
42
0.41421356237308915
10
-130.95740219606478
20
-12.228622506010527
10
-130.95740219606478
20
56.771377493989462
42
0.41421356237309853
10
-133.95740219606472
20
59.771377493989476
10
-202.95740219606486
20
59.77137749398949
42
0.41421356237308721
0
ENDSEC
0
SECTION
2
OBJECTS
0
DICTIONARY
5
C
100
AcDbDictionary
3
ACAD_GROUP
350
D
3
ACAD_MLINESTYLE
350
17
0
DICTIONARY
5
D
100
AcDbDictionary
0
DICTIONARY
5
1A
330
C
100
AcDbDictionary
0
DICTIONARY
5
17
100
AcDbDictionary
0
ENDSEC
0
EOF
