0
SECTION
2
HEADER
9
$INSUNITS
70
4
9
$ACADVER
1
AC1014
9
$HANDSEED
5
FFFF
0
ENDSEC
0
SECTION
2
TABLES
0
TABLE
2
VPORT
5
8
100
AcDbSymbolTable
0
ENDTAB
0
TABLE
2
LTYPE
5
5
100
AcDbSymbolTable
0
LTYPE
5
14
100
AcDbSymbolTableRecord
100
AcDbLinetypeTableRecord
2
BYBLOCK
70
0
0
LTYPE
5
15
100
AcDbSymbolTableRecord
100
AcDbLinetypeTableRecord
2
BYLAYER
70
0
0
LTYPE
5
16
100
AcDbSymbolTableRecord
100
AcDbLinetypeTableRecord
2
DASHED
70
0
3
Dashed __ __ __ __ __ __ __ __ __ __ __ __ __ _
72
65
73
2
40
0.75
49
0.5
74
0
49
-0.25
74
0
0
ENDTAB
0
TABLE
2
LAYER
5
2
100
AcDbSymbolTable
70
2
0
LAYER
5
50
100
AcDbSymbolTableRecord
100
AcDbLayerTableRecord
2
0
70
0
62
7
6
CONTINUOUS
0
ENDTAB
0
TABLE
2
STYLE
5
3
100
AcDbSymbolTable
70
1
0
STYLE
5
11
100
AcDbSymbolTableRecord
100
AcDbTextStyleTableRecord
2
STANDARD
70
0
0
ENDTAB
0
TABLE
2
VIEW
5
6
100
AcDbSymbolTable
70
0
0
ENDTAB
0
TABLE
2
UCS
5
7
100
AcDbSymbolTable
70
0
0
ENDTAB
0
TABLE
2
APPID
5
9
100
AcDbSymbolTable
70
2
0
APPID
5
12
100
AcDbSymbolTableRecord
100
AcDbRegAppTableRecord
2
ACAD
70
0
0
ENDTAB
0
TABLE
2
DIMSTYLE
5
A
100
AcDbSymbolTable
70
1
0
ENDTAB
0
TABLE
2
BLOCK_RECORD
5
1
100
AcDbSymbolTable
70
1
0
BLOCK_RECORD
5
1F
100
AcDbSymbolTableRecord
100
AcDbBlockTableRecord
2
*MODEL_SPACE
0
BLOCK_RECORD
5
1B
100
AcDbSymbolTableRecord
100
AcDbBlockTableRecord
2
*PAPER_SPACE
0
ENDTAB
0
ENDSEC
0
SECTION
2
BLOCKS
0
BLOCK
5
20
100
AcDbEntity
100
AcDbBlockBegin
2
*MODEL_SPACE
0
ENDBLK
5
21
100
AcDbEntity
100
AcDbBlockEnd
0
BLOCK
5
1C
100
AcDbEntity
100
AcDbBlockBegin
2
*PAPER_SPACE
0
ENDBLK
5
1D
100
AcDbEntity
100
AcDbBlockEnd
0
ENDSEC
0
SECTION
2
ENTITIES
0
LWPOLYLINE
5
100
100
AcDbEntity
8
0
100
AcDbPolyline
90
12
70
1
43
0.0
10
188.13720104095435
20
-44.003393235771526
10
187.74092836149276
20
-44.059903595990917
42
-0.42497263055874296
10
187.1163136307178
20
-43.573086808364451
10
187.11536480598272
20
-43.561519218048986
10
187.10871171300045
20
-43.448166050144827
42
-0.051271889579810173
10
187.10871171296532
20
-41.862904818456073
10
187.11536480598426
20
-41.749551650238445
10
187.11631363069574
20
-41.737984060163882
42
-0.42497263060577534
10
187.74092836136151
20
-41.251167271891518
10
188.13720104229651
20
-41.307677632840658
42
-0.40299002537777096
10
188.60662897426147
20
-41.908816706544783
42
0.051635146263935262
10
188.60662897503369
20
-43.402254162612614
42
-0.40299002559170366
0
CIRCLE
5
101
100
AcDbEntity
8
0
100
AcDbCircle
10
224.12978698656354
20
-41.493603290892686
30
0
40
11.734799999999993
210
6.9055289020962325e-49
220
-4.0613068699105163e-48
230
1
0
CIRCLE
5
102
100
AcDbEntity
8
0
100
AcDbCircle
10
233.95958698656352
20
-29.149203290892693
30
0
40
1.7500000000000002
210
-3.4211388289180104e-49
220
-2.2771484494730013e-97
230
1
0
CIRCLE
5
103
100
AcDbEntity
8
0
100
AcDbCircle
10
214.29998698656351
20
-53.838003290892686
30
0
40
1.7500000000000002
210
-3.4211388289180104e-49
220
-2.2771484494730013e-97
230
1
0
CIRCLE
5
104
100
AcDbEntity
8
0
100
AcDbCircle
10
214.62978698656349
20
-29.493603290892707
30
0
40
1.7500000000000002
210
-3.4211388289180104e-49
220
-2.2771484494730013e-97
230
1
0
CIRCLE
5
105
100
AcDbEntity
8
0
100
AcDbCircle
10
233.62978698656354
20
-53.493603290892658
30
0
40
1.7500000000000002
210
-3.4211388289180104e-49
220
-2.2771484494730013e-97
230
1
0
CIRCLE
5
106
100
AcDbEntity
8
0
100
AcDbCircle
10
195.88132684621633
20
-42.627273529782208
30
0
40
3.8000000000000567
210
-3.4211388289180104e-49
220
1.1394681294911755e-64
230
1
0
CIRCLE
5
107
100
AcDbEntity
8
0
100
AcDbCircle
10
243.7310845886914
20
-26.697261818685458
30
0
40
2.0000000000000284
210
-4.2135087192229793e-96
220
1.1394681294911758e-64
230
1
0
CIRCLE
5
108
100
AcDbEntity
8
0
100
AcDbCircle
10
178.7310845886914
20
-56.697261818685462
30
0
40
1.9999999999999574
210
-4.2135087192229793e-96
220
1.1394681294911758e-64
230
1
0
CIRCLE
5
109
100
AcDbEntity
8
0
100
AcDbCircle
10
243.7310845886914
20
-56.697261818685462
30
0
40
1.9999999999999574
210
-4.2135087192229793e-96
220
1.1394681294911758e-64
230
1
0
CIRCLE
5
110
100
AcDbEntity
8
0
100
AcDbCircle
10
178.7310845886914
20
-26.697261818685458
30
0
40
2.0000000000000284
210
-4.2135087192229793e-96
220
1.1394681294911758e-64
230
1
0
LWPOLYLINE
5
111
100
AcDbEntity
8
0
100
AcDbPolyline
90
8
70
1
43
0.0
10
245.73108458869143
20
-61.69726181868544
42
0.41421356237309592
10
248.7310845886914
20
-58.697261818685462
10
248.7310845886914
20
-24.697261818685455
42
0.41421356237309503
10
245.73108458869143
20
-21.697261818685483
10
176.73108458869137
20
-21.697261818685458
42
0.41421356237309503
10
173.73108458869137
20
-24.697261818685455
10
173.7310845886914
20
-58.697261818685469
42
0.41421356237309503
10
176.73108458869137
20
-61.69726181868544
0
ENDSEC
0
SECTION
2
OBJECTS
0
DICTIONARY
5
C
100
AcDbDictionary
3
ACAD_GROUP
350
D
3
ACAD_MLINESTYLE
350
17
0
DICTIONARY
5
D
100
AcDbDictionary
0
DICTIONARY
5
1A
330
C
100
AcDbDictionary
0
DICTIONARY
5
17
100
AcDbDictionary
0
ENDSEC
0
EOF
