0
SECTION
2
HEADER
9
$INSUNITS
70
4
9
$ACADVER
1
AC1014
9
$HANDSEED
5
FFFF
0
ENDSEC
0
SECTION
2
TABLES
0
TABLE
2
VPORT
5
8
100
AcDbSymbolTable
0
ENDTAB
0
TABLE
2
LTYPE
5
5
100
AcDbSymbolTable
0
LTYPE
5
14
100
AcDbSymbolTableRecord
100
AcDbLinetypeTableRecord
2
BYBLOCK
70
0
0
LTYPE
5
15
100
AcDbSymbolTableRecord
100
AcDbLinetypeTableRecord
2
BYLAYER
70
0
0
LTYPE
5
16
100
AcDbSymbolTableRecord
100
AcDbLinetypeTableRecord
2
DASHED
70
0
3
Dashed __ __ __ __ __ __ __ __ __ __ __ __ __ _
72
65
73
2
40
0.75
49
0.5
74
0
49
-0.25
74
0
0
ENDTAB
0
TABLE
2
LAYER
5
2
100
AcDbSymbolTable
70
3
0
LAYER
5
50
100
AcDbSymbolTableRecord
100
AcDbLayerTableRecord
2
1
70
0
62
7
6
DASHED
0
LAYER
5
51
100
AcDbSymbolTableRecord
100
AcDbLayerTableRecord
2
0
70
0
62
7
6
CONTINUOUS
0
ENDTAB
0
TABLE
2
STYLE
5
3
100
AcDbSymbolTable
70
1
0
STYLE
5
11
100
AcDbSymbolTableRecord
100
AcDbTextStyleTableRecord
2
STANDARD
70
0
0
ENDTAB
0
TABLE
2
VIEW
5
6
100
AcDbSymbolTable
70
0
0
ENDTAB
0
TABLE
2
UCS
5
7
100
AcDbSymbolTable
70
0
0
ENDTAB
0
TABLE
2
APPID
5
9
100
AcDbSymbolTable
70
2
0
APPID
5
12
100
AcDbSymbolTableRecord
100
AcDbRegAppTableRecord
2
ACAD
70
0
0
ENDTAB
0
TABLE
2
DIMSTYLE
5
A
100
AcDbSymbolTable
70
1
0
ENDTAB
0
TABLE
2
BLOCK_RECORD
5
1
100
AcDbSymbolTable
70
1
0
BLOCK_RECORD
5
1F
100
AcDbSymbolTableRecord
100
AcDbBlockTableRecord
2
*MODEL_SPACE
0
BLOCK_RECORD
5
1B
100
AcDbSymbolTableRecord
100
AcDbBlockTableRecord
2
*PAPER_SPACE
0
ENDTAB
0
ENDSEC
0
SECTION
2
BLOCKS
0
BLOCK
5
20
100
AcDbEntity
100
AcDbBlockBegin
2
*MODEL_SPACE
0
ENDBLK
5
21
100
AcDbEntity
100
AcDbBlockEnd
0
BLOCK
5
1C
100
AcDbEntity
100
AcDbBlockBegin
2
*PAPER_SPACE
0
ENDBLK
5
1D
100
AcDbEntity
100
AcDbBlockEnd
0
ENDSEC
0
SECTION
2
ENTITIES
0
SPLINE
5
100
100
AcDbEntity
8
0
100
AcDbSpline
70
0
71
3
72
11
73
7
74
0
42
0.000000001
43
0.0000000001
44
0.0000000001
40
-0.91235237537223424
40
-0.91235237537223424
40
-0.91235237537223424
40
-0.91235237537223424
40
-0.65368547533820531
40
-0.65368547533820531
40
-0.65368547533820531
40
-0.11726074450966475
40
-0.11726074450966475
40
-0.11726074450966475
40
-0.11726074450966475
10
335.48731424567364
20
-75.852311640173639
30
-1.7763568394002505e-14
10
333.8812350322815
20
-76.511996040734516
30
-1.7763568394002505e-14
10
332.37090535007559
20
-76.883093327357756
30
-1.7763568394002505e-14
10
330.92779062912928
20
-76.995722312949638
30
0
10
327.93505199254093
20
-77.229292875212039
30
0
10
325.22105311632299
20
-76.40374057714709
30
-1.7763568394002505e-14
10
322.63104386811585
20
-74.488409693206719
30
-1.7763568394002505e-14
0
SPLINE
5
101
100
AcDbEntity
8
0
100
AcDbSpline
70
0
71
3
72
14
73
10
74
0
42
0.000000001
43
0.0000000001
44
0.0000000001
40
-0.32855210664598644
40
-0.32855210664598644
40
-0.32855210664598644
40
-0.32855210664598644
40
-0.22287272433103061
40
-0.22287272433103061
40
-0.22287272433103061
40
-0.11719334201607734
40
-0.11719334201607734
40
-0.11719334201607734
40
0
40
0
40
0
40
0
10
322.63104386811585
20
-74.488409693206719
30
-1.7763568394002505e-14
10
322.20619623396686
20
-74.174231743758156
30
-1.7763568394002505e-14
10
321.83998686775175
20
-73.78766579789135
30
-1.7763568394002505e-14
10
321.54922878394939
20
-73.346459459694216
30
-1.7763568394002505e-14
10
321.25847070014692
20
-72.905253121496912
30
-1.7763568394002505e-14
10
321.04768271157894
20
-72.416263393298905
30
-1.7763568394002505e-14
10
320.92654229192755
20
-71.901940250820942
30
-1.7763568394002505e-14
10
320.79220340461399
20
-71.331580672416507
30
-1.7763568394002505e-14
10
320.77055277885682
20
-70.74043467050663
30
-1.7763568394002505e-14
10
320.86280906345917
20
-70.16177608094479
30
0
0
ARC
5
102
100
AcDbEntity
8
0
100
AcDbCircle
10
310.00000000676641
20
-68.429904435049934
30
0
40
11.000000000001059
210
-7.4479302034050912e-32
220
2.2874249988243704e-31
230
1
100
AcDbArc
50
-9.058502691103568
51
8.0529514436828347
0
SPLINE
5
103
100
AcDbEntity
8
0
100
AcDbSpline
70
0
71
3
72
17
73
13
74
0
42
0.000000001
43
0.0000000001
44
0.0000000001
40
-0.46500963983690596
40
-0.46500963983690596
40
-0.46500963983690596
40
-0.46500963983690596
40
-0.3515800260482343
40
-0.3515800260482343
40
-0.3515800260482343
40
-0.23438668403215568
40
-0.23438668403215568
40
-0.23438668403215568
40
-0.11719334201607526
40
-0.11719334201607526
40
-0.11719334201607526
40
0
40
0
40
0
40
0
10
320.89152928485197
20
-66.888933966602906
30
0
10
320.81207851889934
20
-66.327378530429527
30
0
10
320.8395009253295
20
-65.755831686034028
30
0
10
320.97234902857423
20
-65.204462196879675
30
0
10
321.10960518840528
20
-64.63479761845575
30
0
10
321.35681726416067
20
-64.097388524030961
30
-1.7763568394002505e-14
10
321.70007042937976
20
-63.622484060070107
30
-1.7763568394002505e-14
10
322.04332359459852
20
-63.147579596109793
30
-1.7763568394002505e-14
10
322.47605447458682
20
-62.744260453650327
30
-1.7763568394002505e-14
10
322.9739059456852
20
-62.435228257839256
30
-1.7763568394002505e-14
10
323.47175741678342
20
-62.126196062028342
30
-1.7763568394002505e-14
10
324.02521001616401
20
-61.91735984532091
30
-1.7763568394002505e-14
10
324.60311155657553
20
-61.820474372145014
30
-1.7763568394002505e-14
0
SPLINE
5
104
100
AcDbEntity
8
0
100
AcDbSpline
70
0
71
3
72
11
73
7
74
0
42
0.000000001
43
0.0000000001
44
0.0000000001
40
0.20499754091048733
40
0.20499754091048733
40
0.20499754091048733
40
0.20499754091048733
40
0.60902667819632272
40
0.60902667819632272
40
0.60902667819632272
40
0.69521868337994597
40
0.69521868337994597
40
0.69521868337994597
40
0.69521868337994597
10
324.60311155657558
20
-61.820474372145014
30
-1.7763568394002505e-14
10
326.37991908732442
20
-61.522591728958943
30
-1.7763568394002505e-14
10
327.76784899041172
20
-60.870751014500527
30
-1.7763568394002505e-14
10
329.02476181646546
20
-59.778708510661396
30
-1.7763568394002505e-14
10
329.29290048969671
20
-59.54574181478408
30
-1.7763568394002505e-14
10
329.55432923330676
20
-59.290913874119212
30
-1.7763568394002505e-14
10
329.81009405946565
20
-59.01054033767123
30
-1.7763568394002505e-14
0
SPLINE
5
105
100
AcDbEntity
8
0
100
AcDbSpline
70
0
71
3
72
23
73
19
74
0
42
0.000000001
43
0.0000000001
44
0.0000000001
40
-0.64158014066512381
40
-0.64158014066512381
40
-0.64158014066512381
40
-0.64158014066512381
40
-0.55517675436471825
40
-0.55517675436471825
40
-0.55517675436471825
40
-0.46877336806432135
40
-0.46877336806432135
40
-0.46877336806432135
40
-0.35158002604823485
40
-0.35158002604823485
40
-0.35158002604823485
40
-0.23438668403215884
40
-0.23438668403215884
40
-0.23438668403215884
40
-0.11719334201607783
40
-0.11719334201607783
40
-0.11719334201607783
40
0
40
0
40
0
40
0
10
329.81009405946565
20
-59.010540337671259
30
-1.7763568394002505e-14
10
330.10124801529878
20
-58.691372665268077
30
-1.7763568394002505e-14
10
330.43685249536384
20
-58.415789650871716
30
-1.7763568394002505e-14
10
330.80656188499586
20
-58.192286638985635
30
-1.7763568394002505e-14
10
331.17627127462811
20
-57.968783627099455
30
-1.7763568394002505e-14
10
331.57624714494403
20
-57.799681090074003
30
-1.7763568394002505e-14
10
331.99415951683079
20
-57.690191919246544
30
-1.7763568394002505e-14
10
332.56099548968245
20
-57.541686144261973
30
0
10
333.15141868181604
20
-57.505315835483813
30
0
10
333.73219594217295
20
-57.583128168534245
30
0
10
334.31297320252997
20
-57.660940501584662
30
-1.7763568394002505e-14
10
334.87299943679602
20
-57.85144761983382
30
-1.7763568394002505e-14
10
335.38075244752343
20
-58.143926448844582
30
-1.7763568394002505e-14
10
335.88850545825096
20
-58.436405277855421
30
-1.7763568394002505e-14
10
336.33427645438132
20
-58.825263303590759
30
-1.7763568394002505e-14
10
336.69297432321883
20
-59.288612873800957
30
-1.7763568394002505e-14
10
337.05167219205629
20
-59.751962444011099
30
-1.7763568394002505e-14
10
337.31643823933786
20
-60.280943809823469
30
-1.7763568394002505e-14
10
337.47236957818211
20
-60.845782196345333
30
-1.7763568394002505e-14
0
ARC
5
106
100
AcDbEntity
8
0
100
AcDbCircle
10
310.00000000676641
20
-68.429904435049934
30
0
40
28.500000000000909
210
-5.6916642612408195e-32
220
3.5670921782336103e-31
230
1
100
AcDbArc
50
-7.8064699246709379
51
15.432892994041628
0
SPLINE
5
107
100
AcDbEntity
8
0
100
AcDbSpline
70
0
71
3
72
14
73
10
74
0
42
0.000000001
43
0.0000000001
44
0.0000000001
40
-0.31425126857939584
40
-0.31425126857939584
40
-0.31425126857939584
40
-0.31425126857939584
40
-0.21572230529774508
40
-0.21572230529774508
40
-0.21572230529774508
40
-0.11719334201608438
40
-0.11719334201608438
40
-0.11719334201608438
40
0
40
0
40
0
40
0
10
338.23587651185568
20
-72.300986711287692
30
-1.7763568394002505e-14
10
338.16896182353014
20
-72.789065946269119
30
-1.7763568394002505e-14
10
338.02234911089477
20
-73.262860772469494
30
-1.7763568394002505e-14
10
337.80189969727735
20
-73.703429690086026
30
-1.7763568394002505e-14
10
337.58145028365993
20
-74.143998607702429
30
-1.7763568394002505e-14
10
337.29014157533493
20
-74.545391259970174
30
-1.7763568394002505e-14
10
336.93961959192114
20
-74.891560661098822
30
-1.7763568394002505e-14
10
336.5226980967775
20
-75.303305062650679
30
-1.7763568394002505e-14
10
336.02933976090986
20
-75.629678924348894
30
-1.7763568394002505e-14
10
335.4873142456737
20
-75.852311640173738
30
-1.7763568394002505e-14
0
ARC
5
108
100
AcDbEntity
8
0
100
AcDbCircle
10
310.00000000676641
20
-68.429904435049934
30
0
40
10.999999999999703
210
-2.8688179270093409e-32
220
1.0945038868541139e-31
230
1
100
AcDbArc
50
110.9414973088915
51
128.05295144367921
0
SPLINE
5
109
100
AcDbEntity
8
0
100
AcDbSpline
70
0
71
3
72
17
73
13
74
0
42
0.000000001
43
0.0000000001
44
0.0000000001
40
-0.46500963983691468
40
-0.46500963983691468
40
-0.46500963983691468
40
-0.46500963983691468
40
-0.35158002604823319
40
-0.35158002604823319
40
-0.35158002604823319
40
-0.23438668403215601
40
-0.23438668403215601
40
-0.23438668403215601
40
-0.1171933420160776
40
-0.1171933420160776
40
-0.1171933420160776
40
0
40
0
40
0
40
0
10
303.21971579556839
20
-59.76804862839019
30
-1.7763568394002505e-14
10
302.77311990518535
20
-60.117632728141984
30
-1.7763568394002505e-14
10
302.26443461527094
20
-60.379657649738419
30
-1.7763568394002505e-14
10
301.72051057916923
20
-60.540292562061069
30
-1.7763568394002505e-14
10
301.15853850270236
20
-60.706257530033447
30
-1.7763568394002505e-14
10
300.569522536828
20
-60.760870139519326
30
-1.7763568394002505e-14
10
299.98661662405806
20
-60.701056410490622
30
-1.7763568394002505e-14
10
299.40371071128811
20
-60.641242681461932
30
-1.7763568394002505e-14
10
298.83806064809141
20
-60.468146317619684
30
-1.7763568394002505e-14
10
298.32150518038276
20
-60.191510394242641
30
-1.7763568394002505e-14
10
297.80494971267399
20
-59.914874470865556
30
-1.7763568394002505e-14
10
297.34736594408491
20
-59.539988568365096
30
-1.7763568394002505e-14
10
296.97450989285124
20
-59.087953890070622
30
-1.7763568394002505e-14
0
SPLINE
5
110
100
AcDbEntity
8
0
100
AcDbSpline
70
0
71
3
72
11
73
7
74
0
42
0.000000001
43
0.0000000001
44
0.0000000001
40
0.2049975409104812
40
0.2049975409104812
40
0.2049975409104812
40
0.2049975409104812
40
0.60902667819670497
40
0.60902667819670497
40
0.60902667819670497
40
0.69521868337994575
40
0.69521868337994575
40
0.69521868337994575
40
0.69521868337994575
10
296.97450989285113
20
-59.087953890070523
30
-1.7763568394002505e-14
10
295.82813219113058
20
-57.69813475239873
30
-1.7763568394002505e-14
10
294.5696566216447
20
-56.822072554881409
30
0
10
292.99546365827734
20
-56.279575369096051
30
0
10
292.65963924479729
20
-56.163843814280042
30
0
10
292.3082374027839
20
-56.064853851367232
30
0
10
291.93754438459331
20
-55.983541782743487
30
0
0
SPLINE
5
111
100
AcDbEntity
8
0
100
AcDbSpline
70
0
71
3
72
23
73
19
74
0
42
0.000000001
43
0.0000000001
44
0.0000000001
40
-0.6415801406651197
40
-0.6415801406651197
40
-0.6415801406651197
40
-0.6415801406651197
40
-0.55517675436471337
40
-0.55517675436471337
40
-0.55517675436471337
40
-0.46877336806431114
40
-0.46877336806431114
40
-0.46877336806431114
40
-0.35158002604823291
40
-0.35158002604823291
40
-0.35158002604823291
40
-0.23438668403215526
40
-0.23438668403215526
40
-0.23438668403215526
40
-0.11719334201607697
40
-0.11719334201607697
40
-0.11719334201607697
40
0
40
0
40
0
40
0
10
291.93754438459331
20
-55.983541782743472
30
0
10
291.51556009430897
20
-55.890978896781277
30
0
10
291.10909596295772
20
-55.738128398619352
30
0
10
290.73068198202594
20
-55.529702181123319
30
0
10
290.35226800109393
20
-55.321275963627215
30
0
10
290.00583297302757
20
-55.059437967545492
30
0
10
289.7020563837084
20
-54.752259822349544
30
0
10
289.29002862353724
20
-54.335618357573487
30
0
10
288.9633194161251
20
-53.842482028591405
30
0
10
288.74031824309606
20
-53.300608000656823
30
0
10
288.51731707006695
20
-52.75873397272214
30
0
10
288.4022879569394
20
-52.178483467937383
30
0
10
288.40170554756816
20
-51.592517047293867
30
-1.7763568394002505e-14
10
288.40112313819691
20
-51.006550626650423
30
-1.7763568394002505e-14
10
288.51499856888398
20
-50.426072606863542
30
-1.7763568394002505e-14
10
288.73692213309982
20
-49.883756355061962
30
-1.7763568394002505e-14
10
288.95884569731561
20
-49.341440103260311
30
-1.7763568394002505e-14
10
289.28457397459692
20
-48.847655297348695
30
-1.7763568394002505e-14
10
289.69577269693548
20
-48.430195603402467
30
-1.7763568394002505e-14
0
ARC
5
112
100
AcDbEntity
8
0
100
AcDbCircle
10
310.00000000676641
20
-68.429904435049934
30
0
40
28.499999999999702
210
-9.1435436523723557e-33
220
5.6584998449324418e-32
230
1
100
AcDbArc
50
112.19353007532682
51
135.43289299404057
0
SPLINE
5
113
100
AcDbEntity
8
0
100
AcDbSpline
70
0
71
3
72
14
73
10
74
0
42
0.000000001
43
0.0000000001
44
0.0000000001
40
-0.314251268579402
40
-0.314251268579402
40
-0.314251268579402
40
-0.314251268579402
40
-0.21572230529774616
40
-0.21572230529774616
40
-0.21572230529774616
40
-0.11719334201608746
40
-0.11719334201608746
40
-0.11719334201608746
40
0
40
0
40
0
40
0
10
299.23451734558483
20
-42.041376945404338
30
0
10
299.69066370630128
20
-41.855287147889811
30
0
10
300.17428841829013
20
-41.745360068449656
30
0
10
300.66605699987247
20
-41.715990402083477
30
0
10
301.1578255814548
20
-41.686620735717312
30
0
10
301.6510961693736
20
-41.738205151336523
30
0
10
302.12614865647066
20
-41.86868139299348
30
0
10
302.69119051565252
20
-42.023873798395748
30
0
10
303.22051773894816
20
-42.287947719576771
30
0
10
303.68433608418411
20
-42.646039227358244
30
0
0
SPLINE
5
114
100
AcDbEntity
8
0
100
AcDbSpline
70
0
71
3
72
11
73
7
74
0
42
0.000000001
43
0.0000000001
44
0.0000000001
40
-0.91235237537224001
40
-0.91235237537224001
40
-0.91235237537224001
40
-0.91235237537224001
40
-0.65368547534026133
40
-0.65368547534026133
40
-0.65368547534026133
40
-0.11726074450969218
40
-0.11726074450969218
40
-0.11726074450969218
40
-0.11726074450969218
10
303.68433608418394
20
-42.646039227358315
30
0
10
305.0586791402352
20
-43.707102426357253
30
0
10
306.13522365882324
20
-44.829537655916184
30
-1.7763568394002505e-14
10
306.95432058201897
20
-46.022997172024432
30
-1.7763568394002505e-14
10
308.65296794082337
20
-48.497999577072775
30
-1.7763568394002505e-14
10
309.29501811666137
20
-51.26116769876154
30
-1.7763568394002505e-14
10
308.93129753861865
20
-54.461846945727643
30
0
0
SPLINE
5
115
100
AcDbEntity
8
0
100
AcDbSpline
70
0
71
3
72
14
73
10
74
0
42
0.000000001
43
0.0000000001
44
0.0000000001
40
-0.32855210664603107
40
-0.32855210664603107
40
-0.32855210664603107
40
-0.32855210664603107
40
-0.22287272433105512
40
-0.22287272433105512
40
-0.22287272433105512
40
-0.11719334201607688
40
-0.11719334201607688
40
-0.11719334201607688
40
0
40
0
40
0
40
0
10
308.93129753861859
20
-54.461846945727395
30
0
10
308.87163527016179
20
-54.98686476436275
30
0
10
308.71996402391073
20
-55.497294351542372
30
0
10
308.48324716862254
20
-55.96970140756946
30
0
10
308.24653031333423
20
-56.442108463596895
30
0
10
307.92844678080894
20
-56.869151080608503
30
0
10
307.54360008349454
20
-57.23122333269076
30
0
10
307.11682364296132
20
-57.632744011022666
30
-1.7763568394002505e-14
10
306.61570150084026
20
-57.947067003891192
30
-1.7763568394002505e-14
10
306.06844031986026
20
-58.156500012547724
30
-1.7763568394002505e-14
0
SPLINE
5
116
100
AcDbEntity
8
0
100
AcDbSpline
70
0
71
3
72
11
73
7
74
0
42
0.000000001
43
0.0000000001
44
0.0000000001
40
-0.912352375372252
40
-0.912352375372252
40
-0.912352375372252
40
-0.912352375372252
40
-0.65368547531588972
40
-0.65368547531588972
40
-0.65368547531588972
40
-0.11726074450967439
40
-0.11726074450967439
40
-0.11726074450967439
40
-0.11726074450967439
10
316.31566392935088
20
-94.21376964274161
30
0
10
314.94132087316979
20
-93.152706443642586
30
0
10
313.86477635450876
20
-92.030271213971858
30
0
10
313.04567943128421
20
-90.836811697738057
30
0
10
311.3470320726575
20
-88.361809292775007
30
-1.7763568394002505e-14
10
310.70498189688885
20
-85.598641171195283
30
-1.7763568394002505e-14
10
311.06870247491617
20
-82.397961924371458
30
0
0
SPLINE
5
117
100
AcDbEntity
8
0
100
AcDbSpline
70
0
71
3
72
14
73
10
74
0
42
0.000000001
43
0.0000000001
44
0.0000000001
40
-0.32855210664599843
40
-0.32855210664599843
40
-0.32855210664599843
40
-0.32855210664599843
40
-0.22287272433103678
40
-0.22287272433103678
40
-0.22287272433103678
40
-0.11719334201606971
40
-0.11719334201606971
40
-0.11719334201606971
40
0
40
0
40
0
40
0
10
311.06870247491634
20
-82.397961924372055
30
0
10
311.12836474337308
20
-81.872944105736721
30
0
10
311.28003598962425
20
-81.362514518557134
30
0
10
311.51675284491245
20
-80.890107462530096
30
0
10
311.75346970020081
20
-80.417700406502703
30
0
10
312.07155323272593
20
-79.990657789491195
30
0
10
312.45639993004022
20
-79.62858553740908
30
0
10
312.88317637057344
20
-79.227064859077032
30
0
10
313.38429851269456
20
-78.912741866208563
30
0
10
313.93155969367444
20
-78.703308857552031
30
0
0
ARC
5
118
100
AcDbEntity
8
0
100
AcDbCircle
10
310.00000000676641
20
-68.429904435049934
30
0
40
11.00000000000029
210
3.1657371532954458e-32
220
1.2115053646658778e-32
230
1
100
AcDbArc
50
290.94149730890081
51
308.05295144368807
0
SPLINE
5
119
100
AcDbEntity
8
0
100
AcDbSpline
70
0
71
3
72
17
73
13
74
0
42
0.000000001
43
0.0000000001
44
0.0000000001
40
-0.46500963983692223
40
-0.46500963983692223
40
-0.46500963983692223
40
-0.46500963983692223
40
-0.35158002604823474
40
-0.35158002604823474
40
-0.35158002604823474
40
-0.23438668403215826
40
-0.23438668403215826
40
-0.23438668403215826
40
-0.11719334201608202
40
-0.11719334201608202
40
-0.11719334201608202
40
0
40
0
40
0
40
0
10
316.78028421796637
20
-77.091760241709451
30
-1.7763568394002505e-14
10
317.22688010834946
20
-76.7421761419576
30
-1.7763568394002505e-14
10
317.73556539826399
20
-76.480151220361194
30
-1.7763568394002505e-14
10
318.27948943436587
20
-76.31951630803853
30
-1.7763568394002505e-14
10
318.84146151083263
20
-76.153551340066215
30
-1.7763568394002505e-14
10
319.4304774767071
20
-76.098938730580358
30
-1.7763568394002505e-14
10
320.01338338947699
20
-76.158752459609076
30
-1.7763568394002505e-14
10
320.59628930224687
20
-76.218566188637794
30
-1.7763568394002505e-14
10
321.16193936544357
20
-76.391662552480085
30
-1.7763568394002505e-14
10
321.67849483315223
20
-76.668298475857171
30
-1.7763568394002505e-14
10
322.19505030086088
20
-76.944934399234256
30
-1.7763568394002505e-14
10
322.65263406945007
20
-77.319820301734708
30
0
10
323.02549012068374
20
-77.771854980029232
30
0
0
SPLINE
5
120
100
AcDbEntity
8
0
100
AcDbSpline
70
0
71
3
72
11
73
7
74
0
42
0.000000001
43
0.0000000001
44
0.0000000001
40
0.20499754091048994
40
0.20499754091048994
40
0.20499754091048994
40
0.20499754091048994
40
0.60902667819680212
40
0.60902667819680212
40
0.60902667819680212
40
0.69521868337993242
40
0.69521868337993242
40
0.69521868337993242
40
0.69521868337993242
10
323.02549012068363
20
-77.771854980029204
30
0
10
324.17186782240492
20
-79.161674117701736
30
0
10
325.43034339189194
20
-80.037736315219107
30
0
10
327.00453635525867
20
-80.580233501004074
30
0
10
327.34036076873804
20
-80.69596505581984
30
0
10
327.69176261075125
20
-80.794955018732594
30
0
10
328.06245562894128
20
-80.876267087356212
30
0
0
SPLINE
5
121
100
AcDbEntity
8
0
100
AcDbSpline
70
0
71
3
72
23
73
19
74
0
42
0.000000001
43
0.0000000001
44
0.0000000001
40
-0.64158014066511471
40
-0.64158014066511471
40
-0.64158014066511471
40
-0.64158014066511471
40
-0.55517675436470315
40
-0.55517675436470315
40
-0.55517675436470315
40
-0.46877336806428904
40
-0.46877336806428904
40
-0.46877336806428904
40
-0.35158002604821692
40
-0.35158002604821692
40
-0.35158002604821692
40
-0.23438668403214552
40
-0.23438668403214552
40
-0.23438668403214552
40
-0.11719334201607243
40
-0.11719334201607243
40
-0.11719334201607243
40
0
40
0
40
0
40
0
10
328.06245562894128
20
-80.876267087356382
30
0
10
328.48443991922574
20
-80.968829973318549
30
0
10
328.89090405057692
20
-81.121680471480531
30
0
10
329.26931803150887
20
-81.330106688976528
30
0
10
329.64773201244077
20
-81.538532906472611
30
0
10
329.99416704050725
20
-81.800370902554334
30
0
10
330.29794362982648
20
-82.107549047750325
30
0
10
330.70997138999763
20
-82.524190512526431
30
0
10
331.03668059740977
20
-83.017326841508506
30
0
10
331.25968177043882
20
-83.559200869443004
30
-1.7763568394002505e-14
10
331.48268294346798
20
-84.101074897377828
30
-1.7763568394002505e-14
10
331.59771205659536
20
-84.681325402162571
30
-1.7763568394002505e-14
10
331.59829446596666
20
-85.267291822805788
30
-1.7763568394002505e-14
10
331.59887687533796
20
-85.853258243449332
30
-1.7763568394002505e-14
10
331.48500144465089
20
-86.433736263236199
30
-1.7763568394002505e-14
10
331.26307788043505
20
-86.976052515037821
30
-1.7763568394002505e-14
10
331.04115431621921
20
-87.518368766839529
30
-1.7763568394002505e-14
10
330.71542603893784
20
-88.012153572751089
30
-1.7763568394002505e-14
10
330.30422731659945
20
-88.429613266697203
30
-1.7763568394002505e-14
0
ARC
5
122
100
AcDbEntity
8
0
100
AcDbCircle
10
310.00000000676641
20
-68.429904435049934
30
0
40
28.500000000000338
210
1.187682633097791e-31
220
1.4253256718644678e-31
230
1
100
AcDbArc
50
292.19353007533101
51
315.43289299404375
0
SPLINE
5
123
100
AcDbEntity
8
0
100
AcDbSpline
70
0
71
3
72
14
73
10
74
0
42
0.000000001
43
0.0000000001
44
0.0000000001
40
-0.31425126857938168
40
-0.31425126857938168
40
-0.31425126857938168
40
-0.31425126857938168
40
-0.21572230529772962
40
-0.21572230529772962
40
-0.21572230529772962
40
-0.11719334201607824
40
-0.11719334201607824
40
-0.11719334201607824
40
0
40
0
40
0
40
0
10
320.76548266795015
20
-94.818431924695332
30
0
10
320.30933630723348
20
-95.004521722209958
30
0
10
319.82571159524463
20
-95.114448801650028
30
0
10
319.33394301366252
20
-95.143818468016207
30
0
10
318.84217443208018
20
-95.1731881343824
30
0
10
318.34890384416144
20
-95.121603718763211
30
0
10
317.8738513570645
20
-94.991127477106289
30
0
10
317.30880949788235
20
-94.835935071703986
30
0
10
316.77948227458666
20
-94.571861150522807
30
0
10
316.31566392935093
20
-94.213769642741525
30
0
0
SPLINE
5
124
100
AcDbEntity
8
0
100
AcDbSpline
70
0
71
3
72
11
73
7
74
0
42
0.000000001
43
0.0000000001
44
0.0000000001
40
-0.91235237537223102
40
-0.91235237537223102
40
-0.91235237537223102
40
-0.91235237537223102
40
-0.65368547533448651
40
-0.65368547533448651
40
-0.65368547533448651
40
-0.11726074450967834
40
-0.11726074450967834
40
-0.11726074450967834
40
-0.11726074450967834
10
284.51268576786129
20
-61.007497229926038
30
-1.7763568394002505e-14
10
286.1187649812764
20
-60.347812829355789
30
-1.7763568394002505e-14
10
287.62909466350249
20
-59.97671554273132
30
-1.7763568394002505e-14
10
289.07220938446784
20
-59.864086557145257
30
-1.7763568394002505e-14
10
292.06494802103174
20
-59.630515994899952
30
-1.7763568394002505e-14
10
294.77894689722928
20
-60.456068292965597
30
-1.7763568394002505e-14
10
297.36895614541885
20
-62.371399176892893
30
-1.7763568394002505e-14
0
SPLINE
5
125
100
AcDbEntity
8
0
100
AcDbSpline
70
0
71
3
72
14
73
10
74
0
42
0.000000001
43
0.0000000001
44
0.0000000001
40
-0.32855210664600321
40
-0.32855210664600321
40
-0.32855210664600321
40
-0.32855210664600321
40
-0.22287272433104055
40
-0.22287272433104055
40
-0.22287272433104055
40
-0.11719334201607652
40
-0.11719334201607652
40
-0.11719334201607652
40
0
40
0
40
0
40
0
10
297.36895614541868
20
-62.371399176892837
30
-1.7763568394002505e-14
10
297.79380377956784
20
-62.685577126341471
30
-1.7763568394002505e-14
10
298.16001314578301
20
-63.072143072208405
30
-1.7763568394002505e-14
10
298.45077122958531
20
-63.513349410405539
30
-1.7763568394002505e-14
10
298.74152931338762
20
-63.95455574860263
30
-1.7763568394002505e-14
10
298.95231730195582
20
-64.443545476800566
30
-1.7763568394002505e-14
10
299.07345772160727
20
-64.957868619278685
30
0
10
299.20779660892094
20
-65.528228197683219
30
0
10
299.22944723467799
20
-66.119374199593196
30
0
10
299.13719095007559
20
-66.698032789155107
30
0
0
ARC
5
126
100
AcDbEntity
8
0
100
AcDbCircle
10
310.00000000676641
20
-68.429904435049934
30
0
40
10.999999999999019
210
4.1723615678419369e-32
220
2.6170280652365775e-31
230
1
100
AcDbArc
50
170.94149730889495
51
188.05295144368449
0
SPLINE
5
127
100
AcDbEntity
8
0
100
AcDbSpline
70
0
71
3
72
17
73
13
74
0
42
0.000000001
43
0.0000000001
44
0.0000000001
40
-0.46500963983690152
40
-0.46500963983690152
40
-0.46500963983690152
40
-0.46500963983690152
40
-0.35158002604823363
40
-0.35158002604823363
40
-0.35158002604823363
40
-0.23438668403215701
40
-0.23438668403215701
40
-0.23438668403215701
40
-0.11719334201608017
40
-0.11719334201608017
40
-0.11719334201608017
40
0
40
0
40
0
40
0
10
299.10847072868279
20
-69.970874903497005
30
0
10
299.18792149463536
20
-70.532430339670213
30
-1.7763568394002505e-14
10
299.16049908820531
20
-71.103977184065684
30
-1.7763568394002505e-14
10
299.02765098496059
20
-71.65534667322008
30
-1.7763568394002505e-14
10
298.89039482512953
20
-72.225011251644005
30
-1.7763568394002505e-14
10
298.64318274937409
20
-72.762420346068836
30
-1.7763568394002505e-14
10
298.29992958415528
20
-73.237324810029293
30
-1.7763568394002505e-14
10
297.95667641893641
20
-73.712229273989948
30
-1.7763568394002505e-14
10
297.52394553894794
20
-74.115548416449485
30
-1.7763568394002505e-14
10
297.02609406784967
20
-74.424580612260428
30
-1.7763568394002505e-14
10
296.5282425967514
20
-74.733612808071427
30
-1.7763568394002505e-14
10
295.97478999737075
20
-74.942449024778867
30
-1.7763568394002505e-14
10
295.39688845695935
20
-75.039334497954741
30
-1.7763568394002505e-14
0
SPLINE
5
128
100
AcDbEntity
8
0
100
AcDbSpline
70
0
71
3
72
11
73
7
74
0
42
0.000000001
43
0.0000000001
44
0.0000000001
40
0.20499754091048725
40
0.20499754091048725
40
0.20499754091048725
40
0.20499754091048725
40
0.60902667819670164
40
0.60902667819670164
40
0.60902667819670164
40
0.69521868337994019
40
0.69521868337994019
40
0.69521868337994019
40
0.69521868337994019
10
295.39688845695929
20
-75.039334497954741
30
-1.7763568394002505e-14
10
293.62008092620874
20
-75.337217141141139
30
-1.7763568394002505e-14
10
292.23215102312196
20
-75.989057855598588
30
-1.7763568394002505e-14
10
290.97523819706601
20
-77.081100359441251
30
-1.7763568394002505e-14
10
290.70709952383572
20
-77.314067055318077
30
-1.7763568394002505e-14
10
290.44567078022692
20
-77.568894995981822
30
-1.7763568394002505e-14
10
290.18990595406922
20
-77.849268532428482
30
0
0
SPLINE
5
129
100
AcDbEntity
8
0
100
AcDbSpline
70
0
71
3
72
23
73
19
74
0
42
0.000000001
43
0.0000000001
44
0.0000000001
40
-0.64158014066513624
40
-0.64158014066513624
40
-0.64158014066513624
40
-0.64158014066513624
40
-0.55517675436472791
40
-0.55517675436472791
40
-0.55517675436472791
40
-0.46877336806431874
40
-0.46877336806431874
40
-0.46877336806431874
40
-0.35158002604823668
40
-0.35158002604823668
40
-0.35158002604823668
40
-0.23438668403216129
40
-0.23438668403216129
40
-0.23438668403216129
40
-0.11719334201607999
40
-0.11719334201607999
40
-0.11719334201607999
40
0
40
0
40
0
40
0
10
290.18990595406922
20
-77.849268532428496
30
0
10
289.89875199823626
20
-78.168436204831522
30
0
10
289.56314751817126
20
-78.444019219227926
30
0
10
289.19343812853901
20
-78.667522231114162
30
0
10
288.82372873890677
20
-78.891025243000314
30
0
10
288.42375286859078
20
-79.06012778002578
30
0
10
288.00584049670408
20
-79.169616950853225
30
0
10
287.43900452385242
20
-79.318122725837796
30
0
10
286.84858133171883
20
-79.354493034615942
30
0
10
286.26780407136192
20
-79.276680701565539
30
0
10
285.68702681100501
20
-79.198868368515122
30
0
10
285.12700057673891
20
-79.008361250266049
30
0
10
284.61924756601138
20
-78.715882421255216
30
0
10
284.1114945552838
20
-78.423403592244341
30
0
10
283.66572355915355
20
-78.034545566508967
30
0
10
283.3070256903161
20
-77.571195996298911
30
-1.7763568394002505e-14
10
282.94832782147859
20
-77.107846426088742
30
-1.7763568394002505e-14
10
282.68356177419707
20
-76.578865060276328
30
-1.7763568394002505e-14
10
282.52763043535276
20
-76.014026673754444
30
-1.7763568394002505e-14
0
ARC
5
130
100
AcDbEntity
8
0
100
AcDbCircle
10
310.00000000676641
20
-68.429904435049934
30
0
40
28.499999999999002
210
-9.0375102455976212e-33
220
1.2537522936172446e-31
230
1
100
AcDbArc
50
172.1935300753286
51
195.43289299404262
0
SPLINE
5
131
100
AcDbEntity
8
0
100
AcDbSpline
70
0
71
3
72
14
73
10
74
0
42
0.000000001
43
0.0000000001
44
0.0000000001
40
-0.31425126857939373
40
-0.31425126857939373
40
-0.31425126857939373
40
-0.31425126857939373
40
-0.2157223052977203
40
-0.2157223052977203
40
-0.2157223052977203
40
-0.11719334201605636
40
-0.11719334201605636
40
-0.11719334201605636
40
0
40
0
40
0
40
0
10
281.76412350167902
20
-64.558822158812234
30
-1.7763568394002505e-14
10
281.83103819000462
20
-64.070742923830537
30
-1.7763568394002505e-14
10
281.97765090264005
20
-63.596948097630161
30
-1.7763568394002505e-14
10
282.19810031625747
20
-63.156379180013673
30
-1.7763568394002505e-14
10
282.41854972987488
20
-62.715810262397255
30
-1.7763568394002505e-14
10
282.70985843819989
20
-62.314417610129411
30
-1.7763568394002505e-14
10
283.06038042161362
20
-61.968248209001004
30
-1.7763568394002505e-14
10
283.47730191675754
20
-61.556503807448834
30
-1.7763568394002505e-14
10
283.97066025262524
20
-61.230129945750853
30
-1.7763568394002505e-14
10
284.51268576786111
20
-61.007497229926166
30
-1.7763568394002505e-14
0
ARC
5
132
100
AcDbEntity
8
0
100
AcDbCircle
10
310.00000000676641
20
-68.429904435049934
30
0
40
11.000000000000687
210
2.4300540498958804e-32
220
1.0330163153566158e-31
230
1
100
AcDbArc
50
50.941497308892124
51
68.052951443679348
0
SPLINE
5
133
100
AcDbEntity
8
0
100
AcDbSpline
70
0
71
3
72
17
73
13
74
0
42
0.000000001
43
0.0000000001
44
0.0000000001
40
-0.46500963983687865
40
-0.46500963983687865
40
-0.46500963983687865
40
-0.46500963983687865
40
-0.35158002604823768
40
-0.35158002604823768
40
-0.35158002604823768
40
-0.23438668403215493
40
-0.23438668403215493
40
-0.23438668403215493
40
-0.11719334201607837
40
-0.11719334201607837
40
-0.11719334201607837
40
0
40
0
40
0
40
0
10
314.11124507365292
20
-58.227078159943062
30
-1.7763568394002505e-14
10
313.58519841731743
20
-58.015106823521556
30
-1.7763568394002505e-14
10
313.10393553383318
20
-57.705584900722577
30
-1.7763568394002505e-14
10
312.69285960097631
20
-57.314850323890894
30
0
10
312.26814368434066
20
-56.911150713439511
30
0
10
311.92633979422158
20
-56.428354228500694
30
0
10
311.68668704667044
20
-55.893636035511364
30
0
10
311.44703429911931
20
-55.358917842522075
30
0
10
311.31411511591108
20
-54.782502336220332
30
0
10
311.29541111930041
20
-54.196834217032105
30
0
10
311.27670712269003
20
-53.611166097844304
30
0
10
311.37257595348143
20
-53.02744397863647
30
0
10
311.57762144265922
20
-52.47852382716593
30
0
0
SPLINE
5
134
100
AcDbEntity
8
0
100
AcDbSpline
70
0
71
3
72
11
73
7
74
0
42
0.000000001
43
0.0000000001
44
0.0000000001
40
0.20499754091046918
40
0.20499754091046918
40
0.20499754091046918
40
0.20499754091046918
40
0.6090266781978726
40
0.6090266781978726
40
0.6090266781978726
40
0.69521868337991743
40
0.69521868337991743
40
0.69521868337991743
40
0.69521868337991743
10
311.57762144265911
20
-52.478523827166029
30
0
10
312.20805127169041
20
-50.790822046302097
30
-1.7763568394002505e-14
10
312.33750560529171
20
-49.262919134323241
30
-1.7763568394002505e-14
10
312.02022546797605
20
-47.628379444690445
30
-1.7763568394002505e-14
10
311.9525397277265
20
-47.279681194002464
30
-1.7763568394002505e-14
10
311.86256662932288
20
-46.925863290430563
30
-1.7763568394002505e-14
10
311.7476384372917
20
-46.564177685365266
30
-1.7763568394002505e-14
0
SPLINE
5
135
100
AcDbEntity
8
0
100
AcDbSpline
70
0
71
3
72
23
73
19
74
0
42
0.000000001
43
0.0000000001
44
0.0000000001
40
-0.64158014066516866
40
-0.64158014066516866
40
-0.64158014066516866
40
-0.64158014066516866
40
-0.55517675436474367
40
-0.55517675436474367
40
-0.55517675436474367
40
-0.46877336806432013
40
-0.46877336806432013
40
-0.46877336806432013
40
-0.35158002604823857
40
-0.35158002604823857
40
-0.35158002604823857
40
-0.23438668403215809
40
-0.23438668403215809
40
-0.23438668403215809
40
-0.11719334201608227
40
-0.11719334201608227
40
-0.11719334201608227
40
0
40
0
40
0
40
0
10
311.74763843729176
20
-46.564177685365436
30
-1.7763568394002505e-14
10
311.61680810284042
20
-46.15244712700013
30
-1.7763568394002505e-14
10
311.54594845155407
20
-45.724013614441773
30
-1.7763568394002505e-14
10
311.53724386025436
20
-45.292084385059454
30
-1.7763568394002505e-14
10
311.52853926895466
20
-44.860155155677091
30
-1.7763568394002505e-14
10
311.58208011120416
20
-44.429214622569816
30
0
10
311.69621589377169
20
-44.012547306546338
30
0
10
311.8510241064522
20
-43.447400066785576
30
0
10
312.11473809117371
20
-42.917893429025327
30
0
10
312.47251417850146
20
-42.453831734141176
30
0
10
312.83029026582932
20
-41.989770039256911
30
0
10
313.27528738696788
20
-41.600026652721297
30
0
10
313.78245798832421
20
-41.306539061088628
30
0
10
314.28962858968043
20
-41.013051469455988
30
0
10
314.84927501649798
20
-40.821431475404481
30
0
10
315.42989644955122
20
-40.742464793812978
30
0
10
316.01051788260452
20
-40.663498112221426
30
0
10
316.60101220716746
20
-40.698694672122215
30
0
10
317.16814226835015
20
-40.846073364697943
30
0
0
ARC
5
136
100
AcDbEntity
8
0
100
AcDbCircle
10
310.00000000676641
20
-68.429904435049934
30
0
40
28.500000000000693
210
1.0582880135762203e-32
220
3.9602536232772744e-31
230
1
100
AcDbArc
50
52.193530075327423
51
75.432892994040017
0
SPLINE
5
137
100
AcDbEntity
8
0
100
AcDbSpline
70
0
71
3
72
14
73
10
74
0
42
0.000000001
43
0.0000000001
44
0.0000000001
40
-0.31425126857941155
40
-0.31425126857941155
40
-0.31425126857941155
40
-0.31425126857941155
40
-0.21572230529775743
40
-0.21572230529775743
40
-0.21572230529775743
40
-0.11719334201609768
40
-0.11719334201609768
40
-0.11719334201609768
40
0
40
0
40
0
40
0
10
327.47039385067308
20
-45.912459221642038
30
-1.7763568394002505e-14
10
327.8596255230641
20
-46.214448659109109
30
-1.7763568394002505e-14
10
328.19663752241746
20
-46.578316405869259
30
-1.7763568394002505e-14
10
328.46795669038238
20
-46.989515657119512
30
-1.7763568394002505e-14
10
328.73927585834741
20
-47.400714908369906
30
-1.7763568394002505e-14
10
328.94123773794115
20
-47.853691976256968
30
-1.7763568394002505e-14
10
329.06576824162443
20
-48.330337619042524
30
-1.7763568394002505e-14
10
329.21388860566242
20
-48.897274425996414
30
-1.7763568394002505e-14
10
329.24985749309064
20
-49.48772220887566
30
-1.7763568394002505e-14
10
329.17165032309026
20
-50.068446432482325
30
-1.7763568394002505e-14
0
SPLINE
5
138
100
AcDbEntity
8
0
100
AcDbSpline
70
0
71
3
72
11
73
7
74
0
42
0.000000001
43
0.0000000001
44
0.0000000001
40
-0.91235237537224201
40
-0.91235237537224201
40
-0.91235237537224201
40
-0.91235237537224201
40
-0.65368547534451504
40
-0.65368547534451504
40
-0.65368547534451504
40
-0.11726074450967405
40
-0.11726074450967405
40
-0.11726074450967405
40
-0.11726074450967405
10
329.17165032309043
20
-50.068446432482133
30
-1.7763568394002505e-14
10
328.93991416576597
20
-51.789194032008169
30
0
10
328.50612900217004
20
-53.282726548168839
30
0
10
327.88211120444606
20
-54.588815049857175
30
0
10
326.58801992665087
20
-57.29738801721227
30
0
10
324.51607122625035
20
-59.235003840855995
30
-1.7763568394002505e-14
10
321.56234139996735
20
-60.520352203884983
30
-1.7763568394002505e-14
0
SPLINE
5
139
100
AcDbEntity
8
0
100
AcDbSpline
70
0
71
3
72
14
73
10
74
0
42
0.000000001
43
0.0000000001
44
0.0000000001
40
-0.32855210664599666
40
-0.32855210664599666
40
-0.32855210664599666
40
-0.32855210664599666
40
-0.22287272433104161
40
-0.22287272433104161
40
-0.22287272433104161
40
-0.11719334201607561
40
-0.11719334201607561
40
-0.11719334201607561
40
0
40
0
40
0
40
0
10
321.56234139996729
20
-60.520352203884954
30
-1.7763568394002505e-14
10
321.07783149736133
20
-60.731192073071455
30
-1.7763568394002505e-14
10
320.55995088489522
20
-60.855055714384164
30
-1.7763568394002505e-14
10
320.03247594580455
20
-60.886256432214111
30
-1.7763568394002505e-14
10
319.50500100671388
20
-60.917457150044036
30
-1.7763568394002505e-14
10
318.97612948562073
20
-60.855510038857673
30
-1.7763568394002505e-14
10
318.47014236865471
20
-60.703259148461925
30
-1.7763568394002505e-14
10
317.90902704080781
20
-60.534420248389424
30
-1.7763568394002505e-14
10
317.3862542729297
20
-60.257597239347916
30
-1.7763568394002505e-14
10
316.93124937655216
20
-59.888371658442466
30
-1.7763568394002505e-14
0
SPLINE
5
140
100
AcDbEntity
8
0
100
AcDbSpline
70
0
71
3
72
11
73
7
74
0
42
0.000000001
43
0.0000000001
44
0.0000000001
40
-0.91235237537225444
40
-0.91235237537225444
40
-0.91235237537225444
40
-0.91235237537225444
40
-0.65368547534142596
40
-0.65368547534142596
40
-0.65368547534142596
40
-0.11726074450966542
40
-0.11726074450966542
40
-0.11726074450966542
40
-0.11726074450966542
10
290.82834969044438
20
-86.791362437617906
30
-1.7763568394002505e-14
10
291.06008584777163
20
-85.07061483807118
30
-1.7763568394002505e-14
10
291.49387101137529
20
-83.57708232189529
30
-1.7763568394002505e-14
10
292.11788880911109
20
-82.270993820195855
30
0
10
293.41198008690799
20
-79.56242085286577
30
0
10
295.48392878730135
20
-77.624805029236356
30
0
10
298.43765861356769
20
-76.33945666621473
30
-1.7763568394002505e-14
0
SPLINE
5
141
100
AcDbEntity
8
0
100
AcDbSpline
70
0
71
3
72
14
73
10
74
0
42
0.000000001
43
0.0000000001
44
0.0000000001
40
-0.32855210664598933
40
-0.32855210664598933
40
-0.32855210664598933
40
-0.32855210664598933
40
-0.22287272433103425
40
-0.22287272433103425
40
-0.22287272433103425
40
-0.11719334201607597
40
-0.11719334201607597
40
-0.11719334201607597
40
0
40
0
40
0
40
0
10
298.43765861356775
20
-76.339456666214744
30
-1.7763568394002505e-14
10
298.92216851617366
20
-76.128616797028286
30
-1.7763568394002505e-14
10
299.44004912863983
20
-76.004753155715591
30
-1.7763568394002505e-14
10
299.96752406773044
20
-75.973552437885644
30
-1.7763568394002505e-14
10
300.4949990068211
20
-75.94235172005574
30
-1.7763568394002505e-14
10
301.0238705279142
20
-76.004298831242124
30
-1.7763568394002505e-14
10
301.52985764488011
20
-76.156549721637845
30
-1.7763568394002505e-14
10
302.09097297272695
20
-76.325388621710331
30
-1.7763568394002505e-14
10
302.61374574060522
20
-76.602211630751867
30
-1.7763568394002505e-14
10
303.06875063698277
20
-76.971437211657332
30
-1.7763568394002505e-14
0
ARC
5
142
100
AcDbEntity
8
0
100
AcDbCircle
10
310.00000000676641
20
-68.429904435049934
30
0
40
10.999999999999332
210
-1.0175514234384637e-15
220
-1.2539512534454403e-15
230
1
100
AcDbArc
50
230.94149730890024
51
248.05295144368898
0
SPLINE
5
143
100
AcDbEntity
8
0
100
AcDbSpline
70
0
71
3
72
17
73
13
74
0
42
0.000000001
43
0.0000000001
44
0.0000000001
40
-0.46500963983692356
40
-0.46500963983692356
40
-0.46500963983692356
40
-0.46500963983692356
40
-0.35158002604823502
40
-0.35158002604823502
40
-0.35158002604823502
40
-0.23438668403215773
40
-0.23438668403215773
40
-0.23438668403215773
40
-0.1171933420160781
40
-0.1171933420160781
40
-0.1171933420160781
40
0
40
0
40
0
40
0
10
305.88875493988201
20
-78.632730710156608
30
0
10
306.41480159621767
20
-78.844702046578178
30
0
10
306.89606447970209
20
-79.154223969377298
30
0
10
307.30714041255902
20
-79.544958546209145
30
0
10
307.7318563291949
20
-79.948658156660755
30
0
10
308.07366021931375
20
-80.431454641599785
30
0
10
308.31331296686477
20
-80.966172834588988
30
0
10
308.55296571441568
20
-81.500891027578163
30
0
10
308.68588489762391
20
-82.077306533879806
30
0
10
308.7045888942344
20
-82.662974653068048
30
0
10
308.72329289084479
20
-83.248642772256005
30
-1.7763568394002505e-14
10
308.62742406005327
20
-83.832364891463811
30
-1.7763568394002505e-14
10
308.42237857087559
20
-84.381285042934181
30
-1.7763568394002505e-14
0
SPLINE
5
144
100
AcDbEntity
8
0
100
AcDbSpline
70
0
71
3
72
11
73
7
74
0
42
0.000000001
43
0.0000000001
44
0.0000000001
40
0.20499754091049152
40
0.20499754091049152
40
0.20499754091049152
40
0.20499754091049152
40
0.60902667819409229
40
0.60902667819409229
40
0.60902667819409229
40
0.69521868337994663
40
0.69521868337994663
40
0.69521868337994663
40
0.69521868337994663
10
308.42237857087542
20
-84.381285042933939
30
-1.7763568394002505e-14
10
307.79194874185026
20
-86.06898682378187
30
-1.7763568394002505e-14
10
307.66249440824583
20
-87.596889735747183
30
-1.7763568394002505e-14
10
307.97977454554973
20
-89.231429425363174
30
-1.7763568394002505e-14
10
308.0474602858003
20
-89.580127676066255
30
-1.7763568394002505e-14
10
308.13743338420687
20
-89.933945579653155
30
-1.7763568394002505e-14
10
308.25236157624335
20
-90.295631184735115
30
0
0
SPLINE
5
145
100
AcDbEntity
8
0
100
AcDbSpline
70
0
71
3
72
23
73
19
74
0
42
0.000000001
43
0.0000000001
44
0.0000000001
40
-0.64158014066511493
40
-0.64158014066511493
40
-0.64158014066511493
40
-0.64158014066511493
40
-0.55517675436470981
40
-0.55517675436470981
40
-0.55517675436470981
40
-0.46877336806430486
40
-0.46877336806430486
40
-0.46877336806430486
40
-0.35158002604822908
40
-0.35158002604822908
40
-0.35158002604822908
40
-0.23438668403214968
40
-0.23438668403214968
40
-0.23438668403214968
40
-0.1171933420160743
40
-0.1171933420160743
40
-0.1171933420160743
40
0
40
0
40
0
40
0
10
308.25236157624323
20
-90.295631184735015
30
0
10
308.38319191069451
20
-90.707361743100336
30
0
10
308.45405156198075
20
-91.13579525565855
30
0
10
308.46275615328045
20
-91.567724485040586
30
0
10
308.47146074458016
20
-91.999653714423161
30
0
10
308.41791990233042
20
-92.430594247530408
30
0
10
308.30378411976301
20
-92.847261563553531
30
0
10
308.14897590708262
20
-93.412408803314094
30
0
10
307.88526192236122
20
-93.9419154410744
30
0
10
307.5274858350333
20
-94.405977135958651
30
0
10
307.16970974770538
20
-94.87003883084293
30
0
10
306.72471262656683
20
-95.259782217378529
30
0
10
306.21754202521055
20
-95.553269809011169
30
0
10
305.71037142385427
20
-95.846757400643838
30
0
10
305.15072499703683
20
-96.038377394695274
30
-1.7763568394002505e-14
10
304.57010356398359
20
-96.117344076286798
30
-1.7763568394002505e-14
10
303.9894821309303
20
-96.196310757878337
30
-1.7763568394002505e-14
10
303.39898780636747
20
-96.16111419797754
30
-1.7763568394002505e-14
10
302.83185774518478
20
-96.013735505401826
30
-1.7763568394002505e-14
0
ARC
5
146
100
AcDbEntity
8
0
100
AcDbCircle
10
310.00000000676641
20
-68.429904435049934
30
0
40
28.499999999999307
210
2.8801379208613424e-32
220
1.8434159971265593e-31
230
1
100
AcDbArc
50
232.19353007533078
51
255.43289299404407
0
SPLINE
5
147
100
AcDbEntity
8
0
100
AcDbSpline
70
0
71
3
72
14
73
10
74
0
42
0.000000001
43
0.0000000001
44
0.0000000001
40
-0.31425126857937025
40
-0.31425126857937025
40
-0.31425126857937025
40
-0.31425126857937025
40
-0.21572230529770781
40
-0.21572230529770781
40
-0.21572230529770781
40
-0.11719334201605715
40
-0.11719334201605715
40
-0.11719334201605715
40
0
40
0
40
0
40
0
10
292.52960616286185
20
-90.947349648457788
30
0
10
292.14037449047095
20
-90.645360210990788
30
0
10
291.80336249111741
20
-90.281492464230624
30
-1.7763568394002505e-14
10
291.53204332315249
20
-89.870293212980371
30
-1.7763568394002505e-14
10
291.26072415518757
20
-89.459093961730133
30
-1.7763568394002505e-14
10
291.05876227559372
20
-89.006116893843213
30
-1.7763568394002505e-14
10
290.93423177191039
20
-88.5294712510577
30
-1.7763568394002505e-14
10
290.78611140787211
20
-87.962534444102943
30
-1.7763568394002505e-14
10
290.75014252044446
20
-87.372086661223761
30
-1.7763568394002505e-14
10
290.82834969044461
20
-86.791362437618091
30
-1.7763568394002505e-14
0
CIRCLE
5
148
100
AcDbEntity
8
0
100
AcDbCircle
10
342.65735931964792
20
-35.772545122167998
30
-3.5527136788005009e-14
40
2.0000000000000284
210
-3.3432107718272042e-47
220
1.9721522630525295e-31
230
1
0
CIRCLE
5
149
100
AcDbEntity
8
0
100
AcDbCircle
10
342.65735931964934
20
-101.08726374793028
30
-3.5527136788005009e-14
40
2.0000000000000284
210
-3.3432107718272042e-47
220
1.9721522630525295e-31
230
1
0
CIRCLE
5
150
100
AcDbEntity
8
0
100
AcDbCircle
10
277.34264069388547
20
-35.772545122169376
30
-1.7763568394002505e-14
40
1.9999999999999929
210
-3.3432107718272042e-47
220
1.9721522630525295e-31
230
1
0
CIRCLE
5
151
100
AcDbEntity
8
0
100
AcDbCircle
10
277.34264069388695
20
-101.08726374793176
30
-1.7763568394002505e-14
40
1.9999999999999929
210
-3.3432107718272042e-47
220
1.9721522630525295e-31
230
1
0
LWPOLYLINE
5
152
100
AcDbEntity
8
0
100
AcDbPolyline
90
8
70
1
43
0.0
10
278.10000000676843
20
-31.529904435050348
42
0.41421356237309398
10
273.10000000676843
20
-36.529904435050341
10
273.10000000676843
20
-100.32990443505031
42
0.41421356237309398
10
278.10000000676837
20
-105.3299044350503
10
341.90000000676832
20
-105.32990443505034
42
0.41421356237310542
10
346.90000000676844
20
-100.32990443505035
10
346.90000000676838
20
-36.529904435050312
42
0.41421356237310231
10
341.90000000676838
20
-31.529904435050327
0
CIRCLE
5
153
100
AcDbEntity
8
0
100
AcDbCircle
10
335.00000000676835
20
-43.429904435050318
30
0
40
2.0000000000000284
210
-3.3432107718272042e-47
220
1.9721522630525295e-31
230
1
0
CIRCLE
5
154
100
AcDbEntity
8
0
100
AcDbCircle
10
285.0000000067684
20
-93.429904435050332
30
0
40
1.9999999999999929
210
-3.3432107718272042e-47
220
1.9721522630525295e-31
230
1
0
CIRCLE
5
155
100
AcDbEntity
8
0
100
AcDbCircle
10
285.0000000067684
20
-43.429904435050332
30
0
40
1.9999999999999929
210
-3.3432107718272042e-47
220
1.9721522630525295e-31
230
1
0
CIRCLE
5
156
100
AcDbEntity
8
0
100
AcDbCircle
10
335.00000000676835
20
-93.429904435050332
30
0
40
2.0000000000000284
210
-3.3432107718272042e-47
220
1.9721522630525295e-31
230
1
0
ENDSEC
0
SECTION
2
OBJECTS
0
DICTIONARY
5
C
100
AcDbDictionary
3
ACAD_GROUP
350
D
3
ACAD_MLINESTYLE
350
17
0
DICTIONARY
5
D
100
AcDbDictionary
0
DICTIONARY
5
1A
330
C
100
AcDbDictionary
0
DICTIONARY
5
17
100
AcDbDictionary
0
ENDSEC
0
EOF
