0
SECTION
2
HEADER
9
$INSUNITS
70
4
9
$ACADVER
1
AC1014
9
$HANDSEED
5
FFFF
0
ENDSEC
0
SECTION
2
TABLES
0
TABLE
2
VPORT
5
8
100
AcDbSymbolTable
0
ENDTAB
0
TABLE
2
LTYPE
5
5
100
AcDbSymbolTable
0
LTYPE
5
14
100
AcDbSymbolTableRecord
100
AcDbLinetypeTableRecord
2
BYBLOCK
70
0
0
LTYPE
5
15
100
AcDbSymbolTableRecord
100
AcDbLinetypeTableRecord
2
BYLAYER
70
0
0
LTYPE
5
16
100
AcDbSymbolTableRecord
100
AcDbLinetypeTableRecord
2
DASHED
70
0
3
Dashed __ __ __ __ __ __ __ __ __ __ __ __ __ _
72
65
73
2
40
0.75
49
0.5
74
0
49
-0.25
74
0
0
ENDTAB
0
TABLE
2
LAYER
5
2
100
AcDbSymbolTable
70
3
0
LAYER
5
50
100
AcDbSymbolTableRecord
100
AcDbLayerTableRecord
2
1
70
0
62
7
6
DASHED
0
LAYER
5
51
100
AcDbSymbolTableRecord
100
AcDbLayerTableRecord
2
0
70
0
62
7
6
CONTINUOUS
0
ENDTAB
0
TABLE
2
STYLE
5
3
100
AcDbSymbolTable
70
1
0
STYLE
5
11
100
AcDbSymbolTableRecord
100
AcDbTextStyleTableRecord
2
STANDARD
70
0
0
ENDTAB
0
TABLE
2
VIEW
5
6
100
AcDbSymbolTable
70
0
0
ENDTAB
0
TABLE
2
UCS
5
7
100
AcDbSymbolTable
70
0
0
ENDTAB
0
TABLE
2
APPID
5
9
100
AcDbSymbolTable
70
2
0
APPID
5
12
100
AcDbSymbolTableRecord
100
AcDbRegAppTableRecord
2
ACAD
70
0
0
ENDTAB
0
TABLE
2
DIMSTYLE
5
A
100
AcDbSymbolTable
70
1
0
ENDTAB
0
TABLE
2
BLOCK_RECORD
5
1
100
AcDbSymbolTable
70
1
0
BLOCK_RECORD
5
1F
100
AcDbSymbolTableRecord
100
AcDbBlockTableRecord
2
*MODEL_SPACE
0
BLOCK_RECORD
5
1B
100
AcDbSymbolTableRecord
100
AcDbBlockTableRecord
2
*PAPER_SPACE
0
ENDTAB
0
ENDSEC
0
SECTION
2
BLOCKS
0
BLOCK
5
20
100
AcDbEntity
100
AcDbBlockBegin
2
*MODEL_SPACE
0
ENDBLK
5
21
100
AcDbEntity
100
AcDbBlockEnd
0
BLOCK
5
1C
100
AcDbEntity
100
AcDbBlockBegin
2
*PAPER_SPACE
0
ENDBLK
5
1D
100
AcDbEntity
100
AcDbBlockEnd
0
ENDSEC
0
SECTION
2
ENTITIES
0
LWPOLYLINE
5
100
100
AcDbEntity
8
0
100
AcDbPolyline
90
16
70
1
43
0.0
10
7.7937569246739784
20
-117.00179439120694
42
0.35000111041854021
10
7.3062589031521865
20
-116.61290550231804
10
-6.30625890315173
20
-116.61290550231786
42
0.35000111041855098
10
-6.7937569246735237
20
-117.00179439120691
42
-1.8100186457757348
10
-8.8888888888887418
20
-114.90666242699177
42
0.35000111041850018
10
-8.4999999999998632
20
-114.41916440547001
10
-8.4999999999998739
20
-109.80664659916602
42
0.35000111041854404
10
-8.8888888888887454
20
-109.31914857764423
42
-1.8100186457757594
10
-6.7937569246735139
20
-107.22401661342914
42
0.35000111041850523
10
-6.30625890315173
20
-107.61290550231806
10
7.3062589031521865
20
-107.61290550231789
42
0.3500011104185381
10
7.7937569246739784
20
-107.22401661342916
42
-1.8100186457758771
10
9.8888888888890349
20
-109.31914857764426
42
0.35000111041855003
10
9.500000000000119
20
-109.80664659916606
10
9.5000000000001332
20
-114.41916440546997
42
0.35000111041851067
10
9.8888888888890421
20
-114.90666242699172
42
-1.8100186457758258
0
LWPOLYLINE
5
101
100
AcDbEntity
8
0
100
AcDbPolyline
90
16
70
1
43
0.0
10
79.793756924673986
20
-117.00179439120696
42
0.3500011104185165
10
79.306258903152198
20
-116.61290550231809
10
65.693741096848271
20
-116.61290550231789
42
0.35000111041856785
10
65.206243075326483
20
-117.00179439120696
42
-1.8100186457757215
10
63.111111111111256
20
-114.90666242699179
42
0.35000111041852455
10
63.500000000000128
20
-114.41916440547004
10
63.500000000000149
20
-109.80664659916602
42
0.35000111041851928
10
63.111111111111271
20
-109.31914857764424
42
-1.8100186457757841
10
65.206243075326498
20
-107.2240166134292
42
0.35000111041848819
10
65.693741096848285
20
-107.61290550231806
10
79.306258903152198
20
-107.6129055023179
42
0.35000111041852511
10
79.793756924673971
20
-107.22401661342917
42
-1.8100186457758924
10
81.888888888889042
20
-109.31914857764427
42
0.35000111041857807
10
81.500000000000128
20
-109.8066465991661
10
81.500000000000128
20
-114.41916440546997
42
0.35000111041857784
10
81.888888888889056
20
-114.90666242699177
42
-1.8100186457758269
0
LWPOLYLINE
5
102
100
AcDbEntity
8
0
100
AcDbPolyline
90
16
70
1
43
0.0
10
43.793756924673986
20
-117.00179439120696
42
0.35000111041852511
10
43.306258903152198
20
-116.61290550231806
10
29.69374109684825
20
-116.61290550231786
42
0.35000111041852761
10
29.206243075326462
20
-117.00179439120696
42
-1.8100186457757081
10
27.111111111111267
20
-114.90666242699179
42
0.35000111041851684
10
27.500000000000142
20
-114.41916440547001
10
27.500000000000142
20
-109.80664659916602
42
0.35000111041852683
10
27.111111111111271
20
-109.3191485776442
42
-1.8100186457758003
10
29.206243075326498
20
-107.22401661342917
42
0.35000111041852761
10
29.693741096848285
20
-107.61290550231807
10
43.306258903152184
20
-107.61290550231789
42
0.35000111041850679
10
43.793756924673957
20
-107.2240166134292
42
-1.8100186457759075
10
45.888888888889028
20
-109.31914857764427
42
0.35000111041854604
10
45.500000000000128
20
-109.8066465991661
10
45.500000000000121
20
-114.41916440546997
42
0.35000111041851611
10
45.888888888889056
20
-114.90666242699176
42
-1.8100186457758183
0
LWPOLYLINE
5
103
100
AcDbEntity
8
0
100
AcDbPolyline
90
16
70
1
43
0.0
10
-26.499999999999872
20
-114.41916440546997
42
0.35000111041851129
10
-26.111111111110951
20
-114.90666242699172
42
-1.8100186457758127
10
-28.206243075326025
20
-117.00179439120694
42
0.35000111041854071
10
-28.693741096847809
20
-116.61290550231804
10
-42.306258903151743
20
-116.61290550231784
42
0.3500011104185301
10
-42.793756924673552
20
-117.00179439120691
42
-1.8100186457757139
10
-44.888888888888744
20
-114.90666242699177
42
0.35000111041852677
10
-44.499999999999879
20
-114.41916440547001
10
-44.499999999999879
20
-109.80664659916599
42
0.35000111041851928
10
-44.888888888888737
20
-109.3191485776442
42
-1.8100186457757841
10
-42.793756924673509
20
-107.22401661342916
42
0.35000111041851761
10
-42.306258903151708
20
-107.61290550231806
10
-28.693741096847809
20
-107.61290550231786
42
0.35000111041847937
10
-28.206243075326025
20
-107.22401661342917
42
-1.8100186457758867
10
-26.111111111110965
20
-109.31914857764426
42
0.35000111041856086
10
-26.499999999999865
20
-109.80664659916606
0
LWPOLYLINE
5
104
100
AcDbEntity
8
0
100
AcDbPolyline
90
16
70
1
43
0.0
10
-64.693741096847816
20
-107.61290550231804
42
0.35000111041850679
10
-64.206243075326043
20
-107.22401661342916
42
-1.8100186457759075
10
-62.111111111110979
20
-109.31914857764424
42
0.35000111041854604
10
-62.499999999999872
20
-109.80664659916606
10
-62.499999999999865
20
-114.41916440546993
42
0.35000111041851611
10
-62.111111111110951
20
-114.90666242699172
42
-1.8100186457758183
10
-64.206243075326029
20
-117.00179439120691
42
0.35000111041849435
10
-64.693741096847816
20
-116.61290550231804
10
-78.306258903151758
20
-116.61290550231784
42
0.35000111041850457
10
-78.793756924673531
20
-117.0017943912069
42
-1.8100186457757328
10
-80.888888888888729
20
-114.90666242699177
42
0.35000111041850929
10
-80.499999999999858
20
-114.41916440547001
10
-80.499999999999858
20
-109.80664659916599
42
0.35000111041850962
10
-80.888888888888729
20
-109.31914857764419
42
-1.8100186457757803
10
-78.793756924673517
20
-107.22401661342913
42
0.3500011104185437
10
-78.306258903151729
20
-107.61290550231804
0
LWPOLYLINE
5
105
100
AcDbEntity
8
0
100
AcDbPolyline
90
44
70
1
43
0.0
10
101.00000000000023
20
-123.00046582645794
10
101.00000000000023
20
-102.194206923306
42
0.35000111041859117
10
100.61111111111131
20
-101.70670890178421
42
-1.8100186457758487
10
102.70624307532637
20
-99.611576937569041
42
0.35000111041855619
10
103.19374109684816
20
-100.00046582645794
10
110.00000000000023
20
-100.00046582645794
10
110.00000000000023
20
-80.00046582645794
10
103.19374109684816
20
-80.00046582645794
42
0.35000111041855619
10
102.70624307532637
20
-80.38935471534684
42
-1.8100186457758507
10
100.61111111111131
20
-78.294222751131656
42
0.35000111041849408
10
101.00000000000021
20
-77.806724729609883
10
101.00000000000023
20
-62.194206923306005
42
0.35000111041855619
10
100.61111111111131
20
-61.706708901784204
42
-1.810018645775862
10
102.70624307532637
20
-59.611576937569055
42
0.35000111041851151
10
103.19374109684816
20
-60.000465826457948
10
110.00000000000023
20
-60.00046582645794
10
110.00000000000023
20
-40.00046582645794
10
103.19374109684816
20
-40.00046582645794
42
0.35000111041851151
10
102.70624307532637
20
-40.389354715346826
42
-1.8100186457758554
10
100.61111111111131
20
-38.294222751131663
42
0.35000111041850629
10
101.00000000000023
20
-37.806724729609876
10
101.00000000000023
20
-20.00046582645794
10
-99.999999999999886
20
-20.00046582645794
10
-99.999999999999886
20
-37.806724729609904
42
0.35000111041854071
10
-99.611111111111001
20
-38.294222751131684
42
-1.8100186457757994
10
-101.70624307532614
20
-40.389354715346826
42
0.35000111041851151
10
-102.19374109684793
20
-40.000465826457933
10
-108.9999999999999
20
-40.00046582645794
10
-108.9999999999999
20
-60.00046582645794
10
-102.19374109684793
20
-60.00046582645794
42
0.35000111041851151
10
-101.70624307532614
20
-59.611576937569055
42
-1.8100186457757994
10
-99.611111111111001
20
-61.706708901784197
42
0.35000111041853876
10
-99.999999999999886
20
-62.194206923305977
10
-99.999999999999886
20
-77.806724729609897
42
0.35000111041853765
10
-99.611111111111001
20
-78.294222751131684
42
-1.8100186457757956
10
-101.70624307532614
20
-80.38935471534684
42
0.35000111041855619
10
-102.19374109684793
20
-80.00046582645794
10
-108.9999999999999
20
-80.00046582645794
10
-108.9999999999999
20
-100.00046582645794
10
-102.19374109684793
20
-100.00046582645794
42
0.35000111041855619
10
-101.70624307532614
20
-99.611576937569041
42
-1.8100186457757936
10
-99.611111111111001
20
-101.7067089017842
42
0.35000111041855619
10
-99.999999999999886
20
-102.19420692330598
10
-99.999999999999886
20
-123.00046582645794
0
ENDSEC
0
SECTION
2
OBJECTS
0
DICTIONARY
5
C
100
AcDbDictionary
3
ACAD_GROUP
350
D
3
ACAD_MLINESTYLE
350
17
0
DICTIONARY
5
D
100
AcDbDictionary
0
DICTIONARY
5
1A
330
C
100
AcDbDictionary
0
DICTIONARY
5
17
100
AcDbDictionary
0
ENDSEC
0
EOF
