0
SECTION
2
HEADER
9
$INSUNITS
70
4
9
$ACADVER
1
AC1014
9
$HANDSEED
5
FFFF
0
ENDSEC
0
SECTION
2
TABLES
0
TABLE
2
VPORT
5
8
100
AcDbSymbolTable
0
ENDTAB
0
TABLE
2
LTYPE
5
5
100
AcDbSymbolTable
0
LTYPE
5
14
100
AcDbSymbolTableRecord
100
AcDbLinetypeTableRecord
2
BYBLOCK
70
0
0
LTYPE
5
15
100
AcDbSymbolTableRecord
100
AcDbLinetypeTableRecord
2
BYLAYER
70
0
0
LTYPE
5
16
100
AcDbSymbolTableRecord
100
AcDbLinetypeTableRecord
2
DASHED
70
0
3
Dashed __ __ __ __ __ __ __ __ __ __ __ __ __ _
72
65
73
2
40
0.75
49
0.5
74
0
49
-0.25
74
0
0
ENDTAB
0
TABLE
2
LAYER
5
2
100
AcDbSymbolTable
70
3
0
LAYER
5
50
100
AcDbSymbolTableRecord
100
AcDbLayerTableRecord
2
1
70
0
62
7
6
DASHED
0
LAYER
5
51
100
AcDbSymbolTableRecord
100
AcDbLayerTableRecord
2
0
70
0
62
7
6
CONTINUOUS
0
ENDTAB
0
TABLE
2
STYLE
5
3
100
AcDbSymbolTable
70
1
0
STYLE
5
11
100
AcDbSymbolTableRecord
100
AcDbTextStyleTableRecord
2
STANDARD
70
0
0
ENDTAB
0
TABLE
2
VIEW
5
6
100
AcDbSymbolTable
70
0
0
ENDTAB
0
TABLE
2
UCS
5
7
100
AcDbSymbolTable
70
0
0
ENDTAB
0
TABLE
2
APPID
5
9
100
AcDbSymbolTable
70
2
0
APPID
5
12
100
AcDbSymbolTableRecord
100
AcDbRegAppTableRecord
2
ACAD
70
0
0
ENDTAB
0
TABLE
2
DIMSTYLE
5
A
100
AcDbSymbolTable
70
1
0
ENDTAB
0
TABLE
2
BLOCK_RECORD
5
1
100
AcDbSymbolTable
70
1
0
BLOCK_RECORD
5
1F
100
AcDbSymbolTableRecord
100
AcDbBlockTableRecord
2
*MODEL_SPACE
0
BLOCK_RECORD
5
1B
100
AcDbSymbolTableRecord
100
AcDbBlockTableRecord
2
*PAPER_SPACE
0
ENDTAB
0
ENDSEC
0
SECTION
2
BLOCKS
0
BLOCK
5
20
100
AcDbEntity
100
AcDbBlockBegin
2
*MODEL_SPACE
0
ENDBLK
5
21
100
AcDbEntity
100
AcDbBlockEnd
0
BLOCK
5
1C
100
AcDbEntity
100
AcDbBlockBegin
2
*PAPER_SPACE
0
ENDBLK
5
1D
100
AcDbEntity
100
AcDbBlockEnd
0
ENDSEC
0
SECTION
2
ENTITIES
0
LWPOLYLINE
5
100
100
AcDbEntity
8
0
100
AcDbPolyline
90
363
70
1
43
0.0
10
50.034589379804721
20
508.85800259412315
42
0.1862664211437853
10
46.675634352542481
20
507.56170629782702
42
-0.95237776475486235
10
44.20370379670441
20
510.03363685366514
42
0.18626642114379402
10
45.500000093000693
20
513.39259188092763
10
45.500000093000708
20
517.85800259412326
10
27.500000093000718
20
517.85800259412326
10
27.500000093000722
20
513.39259188092763
42
0.18626642114379779
10
28.796296389296966
20
510.03363685366526
42
-0.95237776475490576
10
26.324365833458934
20
507.56170629782702
42
0.18626642114378092
10
22.965410806196726
20
508.85800259412315
10
14.034589379804729
20
508.85800259412315
42
0.18626642114378109
10
10.675634352542506
20
507.56170629782702
42
-0.95237776475487257
10
8.2037037967044206
20
510.03363685366514
42
0.18626642114379127
10
9.500000093000736
20
513.39259188092763
10
9.5000000930007147
20
517.85800259412326
10
-8.4999999069992924
20
517.85800259412326
10
-8.4999999069992924
20
513.39259188092763
42
0.1862664211437875
10
-7.2037036107030143
20
510.03363685366526
42
-0.95237776475489988
10
-9.6756341665410606
20
507.56170629782702
42
0.1862664211437968
10
-13.034589193803331
20
508.85800259412321
10
-21.965410620195115
20
508.85800259412321
42
0.18626642114378816
10
-25.324365647457462
20
507.56170629782702
42
-0.95237776475488234
10
-27.796296203295583
20
510.03363685366514
42
0.18626642114379091
10
-26.499999906999271
20
513.39259188092763
10
-26.499999906999289
20
517.85800259412326
10
-44.499999906999292
20
517.85800259412326
10
-44.4999999069993
20
513.39259188092763
42
0.18626642114378927
10
-43.20370361070303
20
510.03363685366526
42
-0.95237776475489988
10
-45.675634166541066
20
507.56170629782702
42
0.18626642114379455
10
-49.034589193803342
20
508.85800259412321
10
-57.965410620195115
20
508.85800259412326
42
0.1862664211437875
10
-61.324365647457469
20
507.56170629782702
42
-0.95237776475488611
10
-63.796296203295597
20
510.03363685366514
42
0.18626642114379402
10
-62.499999906999321
20
513.39259188092763
10
-62.4999999069993
20
517.85800259412326
10
-80.499999906999292
20
517.85800259412326
10
-80.499999906999292
20
513.39259188092763
42
0.18626642114377981
10
-79.203703610703045
20
510.03363685366526
42
-0.95237776475489122
10
-81.675634166541101
20
507.56170629782702
42
0.18626642114379441
10
-85.03458919380337
20
508.85800259412321
10
-99.999999906999321
20
508.85800259412321
10
-99.999999906999321
20
504.09359188092753
42
0.18626642114379643
10
-98.703703610702973
20
500.73463685366505
42
-0.952377764754895
10
-101.17563416654106
20
498.26270629782687
42
0.18626642114377062
10
-104.53458919380346
20
499.55900259412311
10
-108.99999990699902
20
499.55900259412311
10
-108.99999990699902
20
480.80900259412311
10
-104.53458919380354
20
480.80900259412311
42
0.18626642114378716
10
-101.1756341665411
20
482.10529889041942
42
-0.95237776475491553
10
-98.703703610702988
20
479.63336833458129
42
0.18626642114378933
10
-99.999999906999335
20
476.27441330731881
10
-99.999999906999321
20
465.34359188092753
42
0.18626642114379055
10
-98.703703610702988
20
461.98463685366505
42
-0.95237776475488467
10
-101.17563416654102
20
459.51270629782687
42
0.18626642114378944
10
-104.5345891938034
20
460.80900259412317
10
-108.99999990699902
20
460.80900259412306
10
-108.99999990699902
20
441.43400259412306
10
-104.53458919380353
20
441.43400259412306
42
0.18626642114379166
10
-101.17563416654106
20
442.73029889041942
42
-0.95237776475490199
10
-98.703703610702988
20
440.25836833458123
42
0.18626642114378933
10
-99.999999906999335
20
436.89941330731875
10
-99.999999906999321
20
425.96859188092742
42
0.18626642114379643
10
-98.703703610702973
20
422.60963685366499
42
-0.952377764754895
10
-101.17563416654106
20
420.13770629782675
42
0.1862664211437754
10
-104.53458919380344
20
421.43400259412306
10
-108.99999990699902
20
421.43400259412306
10
-108.99999990699902
20
402.68400259412306
10
-104.53458919380353
20
402.68400259412306
42
0.18626642114379166
10
-101.17563416654106
20
403.98029889041942
42
-0.95237776475490199
10
-98.703703610702988
20
401.50836833458123
42
0.18626642114378933
10
-99.999999906999335
20
398.14941330731875
10
-99.999999906999321
20
387.21859188092742
42
0.18626642114379643
10
-98.703703610702973
20
383.85963685366499
42
-0.952377764754895
10
-101.17563416654106
20
381.38770629782675
42
0.1862664211437754
10
-104.53458919380344
20
382.68400259412306
10
-108.99999990699902
20
382.68400259412306
10
-108.99999990699902
20
363.93400259412306
10
-104.53458919380353
20
363.93400259412306
42
0.18626642114379166
10
-101.17563416654106
20
365.23029889041942
42
-0.95237776475490199
10
-98.703703610702988
20
362.75836833458123
42
0.18626642114378933
10
-99.999999906999335
20
359.39941330731875
10
-99.999999906999321
20
348.46859188092742
42
0.18626642114379643
10
-98.703703610702973
20
345.10963685366499
42
-0.952377764754895
10
-101.17563416654106
20
342.63770629782675
42
0.18626642114377037
10
-104.53458919380346
20
343.93400259412306
10
-108.99999990699902
20
343.93400259412306
10
-108.99999990699902
20
325.18400259412306
10
-104.53458919380353
20
325.18400259412306
42
0.18626642114378147
10
-101.17563416654109
20
326.48029889041936
42
-0.95237776475491553
10
-98.703703610702973
20
324.00836833458123
42
0.18626642114379055
10
-99.999999906999321
20
320.64941330731875
10
-99.999999906999307
20
309.71859188092742
42
0.18626642114379291
10
-98.703703610702931
20
306.35963685366505
42
-0.95237776475487113
10
-101.175634166541
20
303.88770629782681
42
0.18626642114379188
10
-104.53458919380338
20
305.18400259412317
10
-108.99999990699899
20
305.18400259412311
10
-108.99999990699899
20
285.80900259412311
10
-104.53458919380351
20
285.80900259412311
42
0.18626642114378941
10
-101.17563416654106
20
287.10529889041948
42
-0.95237776475489822
10
-98.703703610702945
20
284.63336833458135
42
0.18626642114378758
10
-99.999999906999307
20
281.27441330731881
10
-99.999999906999307
20
270.34359188092753
42
0.18626642114379643
10
-98.703703610702945
20
266.98463685366499
42
-0.95237776475489822
10
-101.17563416654106
20
264.51270629782687
42
0.18626642114379588
10
-104.53458919380341
20
265.80900259412311
10
-108.99999990699899
20
265.80900259412311
10
-108.99999990699899
20
247.05900259412314
10
-104.53458919380351
20
247.05900259412314
42
0.18626642114378941
10
-101.17563416654106
20
248.35529889041948
42
-0.95237776475489822
10
-98.703703610702945
20
245.88336833458132
42
0.18626642114378758
10
-99.999999906999307
20
242.52441330731884
10
-99.999999906999307
20
231.59359188092751
42
0.18626642114379643
10
-98.703703610702945
20
228.23463685366502
42
-0.95237776475489822
10
-101.17563416654106
20
225.76270629782687
42
0.18626642114379588
10
-104.53458919380341
20
227.05900259412314
10
-108.99999990699899
20
227.05900259412314
10
-108.99999990699899
20
208.30900259412314
10
-104.53458919380351
20
208.30900259412314
42
0.18626642114378941
10
-101.17563416654106
20
209.60529889041948
42
-0.95237776475489822
10
-98.703703610702945
20
207.13336833458132
42
0.18626642114378758
10
-99.999999906999307
20
203.77441330731884
10
-99.999999906999307
20
192.84359188092751
42
0.18626642114379643
10
-98.703703610702945
20
189.48463685366502
42
-0.95237776475489822
10
-101.17563416654106
20
187.01270629782687
42
0.18626642114378991
10
-104.53458919380344
20
188.30900259412314
10
-108.99999990699899
20
188.30900259412314
10
-108.99999990699899
20
169.55900259412314
10
-104.53458919380353
20
169.55900259412314
42
0.18626642114378356
10
-101.17563416654106
20
170.85529889041948
42
-0.95237776475490199
10
-98.703703610702945
20
168.38336833458132
42
0.18626642114378758
10
-99.999999906999307
20
165.02441330731884
10
-99.999999906999307
20
154.09359188092751
42
0.18626642114379222
10
-98.703703610702888
20
150.73463685366508
42
-0.95237776475491176
10
-101.175634166541
20
148.2627062978269
42
0.18626642114378641
10
-104.5345891938034
20
149.55900259412314
10
-108.99999990699899
20
149.55900259412311
10
-108.99999990699899
20
130.18400259412311
10
-104.53458919380351
20
130.18400259412311
42
0.18626642114379202
10
-101.17563416654109
20
131.48029889041942
42
-0.95237776475490521
10
-98.703703610702945
20
129.00836833458129
42
0.18626642114378791
10
-99.999999906999307
20
125.64941330731881
10
-99.999999906999307
20
114.71859188092748
42
0.18626642114379705
10
-98.703703610702945
20
111.35963685366498
42
-0.95237776475489822
10
-101.17563416654106
20
108.88770629782684
42
0.18626642114379457
10
-104.53458919380341
20
110.1840025941231
10
-108.99999990699899
20
110.1840025941231
10
-108.99999990699899
20
91.4340025941231
10
-104.53458919380351
20
91.4340025941231
42
0.18626642114379202
10
-101.17563416654109
20
92.730298890419419
42
-0.95237776475490521
10
-98.703703610702945
20
90.258368334581291
42
0.18626642114378791
10
-99.999999906999307
20
86.89941330731881
10
-99.999999906999307
20
75.968591880927477
42
0.18626642114378986
10
-98.703703610702945
20
72.609636853664995
42
-0.95237776475490032
10
-101.17563416654106
20
70.137706297826853
42
0.18626642114378783
10
-104.53458919380341
20
71.434002594123115
10
-108.99999990699899
20
71.434002594123115
10
-108.99999990699899
20
52.684002594123108
10
-104.53458919380351
20
52.684002594123108
42
0.18626642114378969
10
-101.17563416654106
20
53.980298890419434
42
-0.95237776475490199
10
-98.703703610702945
20
51.508368334581299
42
0.18626642114379127
10
-99.999999906999307
20
48.14941330731881
10
-99.999999906999307
20
37.218591880927477
42
0.18626642114379902
10
-98.703703610702945
20
33.859636853664995
42
-0.95237776475490032
10
-101.17563416654106
20
31.387706297826842
42
0.18626642114378567
10
-104.53458919380344
20
32.684002594123093
10
-108.99999990699899
20
32.684002594123108
10
-108.99999990699899
20
13.934002594123104
10
-104.53458919380353
20
13.934002594123104
42
0.18626642114378872
10
-101.17563416654109
20
15.230298890419423
42
-0.95237776475490687
10
-98.703703610702945
20
12.758368334581288
42
0.18626642114379158
10
-99.999999906999307
20
9.399413307318806
10
-99.999999906999392
20
4.8090025941232186
10
-85.034589193803555
20
4.8090025941232346
42
0.18626642114379324
10
-81.675634166541116
20
6.105298890419534
42
-0.9523777647549041
10
-79.203703610702959
20
3.6333683345813883
42
0.1862664211437931
10
-80.499999906999278
20
0.27441330731895419
10
-80.499999906999292
20
-4.1909974058767538
10
-62.499999906999278
20
-4.1909974058767538
10
-62.499999906999271
20
0.27441330731900748
42
0.18626642114378844
10
-63.796296203295555
20
3.6333683345814176
42
-0.95237776475489433
10
-61.324365647457398
20
6.1052988904195304
42
0.1862664211437908
10
-57.965410620194959
20
4.8090025941232204
10
-49.034589193803548
20
4.8090025941232346
42
0.18626642114379227
10
-45.675634166541101
20
6.1052988904195331
42
-0.9523777647549041
10
-43.203703610702959
20
3.633368334581391
42
0.1862664211437918
10
-44.499999906999278
20
0.27441330731895364
10
-44.499999906999278
20
-4.190997405876761
10
-26.499999906999278
20
-4.1909974058767627
10
-26.499999906999285
20
0.27441330731900748
42
0.18626642114378802
10
-27.796296203295551
20
3.6333683345814043
42
-0.95237776475489921
10
-25.324365647457398
20
6.1052988904195304
42
0.1862664211437923
10
-21.965410620194952
20
4.8090025941232177
10
-13.034589193803541
20
4.8090025941232346
42
0.18626642114379099
10
-9.6756341665410996
20
6.1052988904195313
42
-0.95237776475490477
10
-7.2037036107029584
20
3.6333683345813923
42
0.18626642114379119
10
-8.4999999069992747
20
0.27441330731895336
10
-8.4999999069992747
20
-4.1909974058767627
10
9.5000000930007289
20
-4.1909974058767538
10
9.5000000930007289
20
0.27441330731900748
42
0.18626642114378783
10
8.2037037967044508
20
3.6333683345814087
42
-0.95237776475489822
10
10.675634352542609
20
6.1052988904195331
42
0.18626642114379116
10
14.034589379805045
20
4.8090025941232195
10
22.965410806196456
20
4.8090025941232346
42
0.18626642114379052
10
26.324365833458891
20
6.1052988904195296
42
-0.95237776475490477
10
28.796296389297034
20
3.6333683345813919
42
0.18626642114379227
10
27.500000093000729
20
0.27441330731895419
10
27.500000093000729
20
-4.1909974058767538
10
45.500000093000722
20
-4.1909974058767538
10
45.500000093000715
20
0.27441330731900748
42
0.18626642114378847
10
44.203703796704453
20
3.6333683345814176
42
-0.95237776475489433
10
46.675634352542602
20
6.1052988904195304
42
0.18626642114379188
10
50.034589379805041
20
4.8090025941232168
10
59.346688161541685
20
4.8090025941232346
42
0.17504566780326009
10
62.541543493433281
20
5.9628487479693959
42
-0.91176834673369411
10
64.653846246846911
20
3.8505459945557625
42
0.17504566780325906
10
63.500000093000736
20
0.6556906626641692
10
63.500000093000736
20
-4.1909974058767538
10
81.500000093000722
20
-4.1909974058767538
10
81.500000093000722
20
0.27441330731902525
42
0.186266421143789
10
80.20370379670446
20
3.6333683345814061
42
-0.95237776475489988
10
82.675634352542602
20
6.1052988904195393
42
0.18626642114378933
10
86.034589379805041
20
4.8090025941232195
10
101.00000009300084
20
4.8090025941232186
10
101.00000009300082
20
9.3994133073189516
42
0.18626642114378406
10
99.703703796704573
20
12.758368334581318
42
-0.95237776475489544
10
102.17563435254274
20
15.230298890419423
42
0.18626642114379294
10
105.5345893798052
20
13.934002594123115
10
110.00000009300059
20
13.934002594123104
10
110.00000009300059
20
32.684002594123108
10
105.5345893798051
20
32.684002594123108
42
0.18626642114378555
10
102.17563435254272
20
31.387706297826842
42
-0.95237776475488567
10
99.703703796704573
20
33.859636853664952
42
0.1862664211437903
10
101.00000009300082
20
37.218591880927328
10
101.00000009300082
20
48.149413307318945
42
0.18626642114379111
10
99.703703796704559
20
51.508368334581327
42
-0.95237776475488889
10
102.17563435254274
20
53.980298890419434
42
0.18626642114379235
10
105.53458937980517
20
52.684002594123108
10
110.00000009300059
20
52.684002594123108
10
110.00000009300059
20
71.434002594123115
10
105.53458937980508
20
71.434002594123115
42
0.18626642114378231
10
102.17563435254274
20
70.137706297826867
42
-0.95237776475488989
10
99.703703796704573
20
72.609636853664952
42
0.18626642114379036
10
101.00000009300082
20
75.968591880927335
10
101.00000009300082
20
86.899413307318952
42
0.18626642114379457
10
99.703703796704559
20
90.25836833458132
42
-0.95237776475488778
10
102.17563435254274
20
92.730298890419434
42
0.18626642114379563
10
105.53458937980517
20
91.4340025941231
10
110.00000009300059
20
91.4340025941231
10
110.00000009300059
20
110.1840025941231
10
105.53458937980508
20
110.1840025941231
42
0.18626642114379457
10
102.17563435254272
20
108.88770629782684
42
-0.952377764754885
10
99.703703796704573
20
111.35963685366494
42
0.18626642114379466
10
101.00000009300082
20
114.71859188092733
10
101.00000009300082
20
125.64941330731895
42
0.18626642114379457
10
99.703703796704559
20
129.00836833458132
42
-0.95237776475488778
10
102.17563435254274
20
131.48029889041942
42
0.18626642114379563
10
105.53458937980517
20
130.18400259412311
10
110.00000009300059
20
130.18400259412311
10
110.00000009300059
20
149.55900259412311
10
105.53458937980515
20
149.55900259412317
42
0.18626642114378547
10
102.17563435254279
20
148.2627062978269
42
-0.95237776475490521
10
99.703703796704573
20
150.73463685366494
42
0.18626642114378267
10
101.00000009300082
20
154.09359188092731
10
101.00000009300082
20
165.02441330731895
42
0.18626642114379641
10
99.703703796704588
20
168.38336833458132
42
-0.95237776475489166
10
102.17563435254272
20
170.85529889041948
42
0.1862664211437938
10
105.5345893798052
20
169.55900259412314
10
110.00000009300059
20
169.55900259412314
10
110.00000009300059
20
188.30900259412314
10
105.5345893798051
20
188.30900259412314
42
0.18626642114379055
10
102.1756343525427
20
187.01270629782687
42
-0.95237776475488078
10
99.703703796704573
20
189.48463685366499
42
0.18626642114379405
10
101.00000009300082
20
192.84359188092736
10
101.00000009300082
20
203.77441330731898
42
0.18626642114379005
10
99.703703796704545
20
207.13336833458135
42
-0.95237776475488189
10
102.17563435254274
20
209.60529889041948
42
0.18626642114379394
10
105.53458937980517
20
208.30900259412314
10
110.00000009300059
20
208.30900259412314
10
110.00000009300059
20
227.05900259412314
10
105.53458937980508
20
227.05900259412314
42
0.18626642114379588
10
102.17563435254272
20
225.76270629782687
42
-0.952377764754885
10
99.703703796704573
20
228.23463685366499
42
0.18626642114379405
10
101.00000009300082
20
231.59359188092736
10
101.00000009300082
20
242.52441330731898
42
0.18626642114379005
10
99.703703796704545
20
245.88336833458135
42
-0.95237776475488189
10
102.17563435254274
20
248.35529889041948
42
0.18626642114379394
10
105.53458937980517
20
247.05900259412314
10
110.00000009300059
20
247.05900259412314
10
110.00000009300059
20
265.80900259412311
10
105.53458937980508
20
265.80900259412311
42
0.18626642114379588
10
102.17563435254272
20
264.51270629782687
42
-0.952377764754885
10
99.703703796704573
20
266.98463685366499
42
0.18626642114379405
10
101.00000009300082
20
270.34359188092736
10
101.00000009300082
20
281.27441330731898
42
0.18626642114379005
10
99.703703796704545
20
284.63336833458135
42
-0.95237776475488189
10
102.17563435254274
20
287.10529889041948
42
0.18626642114379394
10
105.53458937980517
20
285.80900259412311
10
110.00000009300059
20
285.80900259412311
10
110.00000009300059
20
305.18400259412311
10
105.53458937980515
20
305.18400259412323
42
0.18626642114378689
10
102.17563435254279
20
303.88770629782692
42
-0.95237776475490787
10
99.703703796704573
20
306.35963685366499
42
0.18626642114378994
10
101.00000009300084
20
309.71859188092742
10
101.00000009300082
20
320.64941330731898
42
0.18626642114378389
10
99.703703796704573
20
324.00836833458129
42
-0.952377764754895
10
102.17563435254276
20
326.48029889041936
42
0.18626642114378847
10
105.5345893798052
20
325.18400259412306
10
110.00000009300059
20
325.18400259412306
10
110.00000009300059
20
343.93400259412306
10
105.53458937980508
20
343.93400259412306
42
0.18626642114376904
10
102.1756343525427
20
342.63770629782675
42
-0.95237776475488189
10
99.703703796704559
20
345.10963685366494
42
0.18626642114378689
10
101.00000009300082
20
348.46859188092731
10
101.00000009300081
20
359.39941330731892
42
0.18626642114379438
10
99.703703796704531
20
362.75836833458129
42
-0.95237776475488467
10
102.17563435254274
20
365.23029889041936
42
0.18626642114378777
10
105.53458937980515
20
363.93400259412306
10
110.00000009300058
20
363.93400259412306
10
110.00000009300058
20
382.68400259412306
10
105.53458937980507
20
382.68400259412306
42
0.18626642114377479
10
102.17563435254269
20
381.38770629782675
42
-0.95237776475487812
10
99.703703796704559
20
383.85963685366494
42
0.18626642114378689
10
101.00000009300082
20
387.21859188092731
10
101.00000009300081
20
398.14941330731892
42
0.18626642114379438
10
99.703703796704531
20
401.50836833458129
42
-0.95237776475488467
10
102.17563435254274
20
403.98029889041936
42
0.18626642114378777
10
105.53458937980515
20
402.68400259412306
10
110.00000009300058
20
402.68400259412306
10
110.00000009300058
20
421.43400259412306
10
105.53458937980507
20
421.43400259412306
42
0.18626642114377479
10
102.17563435254269
20
420.13770629782675
42
-0.95237776475487812
10
99.703703796704559
20
422.60963685366494
42
0.18626642114378689
10
101.00000009300082
20
425.96859188092731
10
101.00000009300081
20
436.89941330731892
42
0.18626642114379438
10
99.703703796704531
20
440.25836833458129
42
-0.95237776475488467
10
102.17563435254274
20
442.73029889041936
42
0.18626642114378777
10
105.53458937980515
20
441.43400259412306
10
110.00000009300058
20
441.43400259412306
10
110.00000009300058
20
460.80900259412306
10
105.53458937980514
20
460.80900259412317
42
0.18626642114378689
10
102.17563435254274
20
459.51270629782692
42
-0.95237776475490199
10
99.703703796704559
20
461.98463685366499
42
0.1862664211437805
10
101.00000009300078
20
465.34359188092731
10
101.00000009300081
20
476.27441330731898
42
0.18626642114378383
10
99.703703796704559
20
479.63336833458135
42
-0.95237776475489822
10
102.17563435254274
20
482.10529889041942
42
0.1862664211437966
10
105.53458937980517
20
480.80900259412311
10
110.00000009300058
20
480.80900259412311
10
110.00000009300058
20
499.55900259412311
10
105.53458937980508
20
499.55900259412311
42
0.18626642114376998
10
102.17563435254269
20
498.26270629782687
42
-0.95237776475487812
10
99.703703796704559
20
500.73463685366499
42
0.18626642114378042
10
101.00000009300082
20
504.09359188092736
10
101.00000009300084
20
508.85800259412315
10
86.034589379804757
20
508.85800259412321
42
0.18626642114378134
10
82.675634352542573
20
507.56170629782696
42
-1.4578068940096733
10
81.500000093000722
20
510.60800259412338
10
81.500000093000708
20
517.85800259412326
10
63.500000093000715
20
517.85800259412326
10
63.500000093000722
20
513.01131452558241
42
0.17504566780326389
10
64.653846246846896
20
509.81645919369089
42
-0.91176834673367735
10
62.541543493433323
20
507.70415644027713
42
0.17504566780324873
10
59.346688161541969
20
508.85800259412315
0
ENDSEC
0
SECTION
2
OBJECTS
0
DICTIONARY
5
C
100
AcDbDictionary
3
ACAD_GROUP
350
D
3
ACAD_MLINESTYLE
350
17
0
DICTIONARY
5
D
100
AcDbDictionary
0
DICTIONARY
5
1A
330
C
100
AcDbDictionary
0
DICTIONARY
5
17
100
AcDbDictionary
0
ENDSEC
0
EOF
